<?xml version="1.0" encoding="utf-8"?>
<!-- Generator: Adobe Illustrator 24.3.0, SVG Export Plug-In . SVG Version: 6.00 Build 0)  -->
<svg version="1.1" id="Layer_1" xmlns="http://www.w3.org/2000/svg" xmlns:xlink="http://www.w3.org/1999/xlink" x="0px" y="0px"
	 viewBox="0 0 84.8 71.6" style="enable-background:new 0 0 84.8 71.6;" xml:space="preserve">
<style type="text/css">
	.st0{fill:#FFFFFF;}
</style>
<g transform="translate(0 0)">
	<path class="st0" d="M15.4,6.8l0.3,4.3L16,6.8H17l-0.8,8.3h-0.9l-0.8-8.3H15.4z"/>
	<g transform="translate(0 0)">
		<g>
			<g>
				<path class="st0" d="M18.4,10.3c0-0.2,0-0.5-0.1-0.5c-0.1,0-0.2,0.4-0.2,0.5v0.4h-0.9v-0.4c0-0.7,0.3-1.5,1.1-1.5
					c0.7,0,1,0.8,1,1.4V14c0,0.4,0,0.7,0.1,1.1h-0.8c-0.1-0.1-0.1-0.2-0.1-0.4c-0.1,0.3-0.3,0.4-0.6,0.5c-0.6,0-0.6-1.1-0.6-1.5
					c-0.1-0.8,0.3-1.6,0.9-2.2c0.2-0.1,0.3-0.3,0.4-0.4V10.3z M18.4,12.2c-0.3,0.4-0.4,0.9-0.4,1.4c0,0,0,0.5,0.2,0.5
					s0.2-0.2,0.2-0.4L18.4,12.2z"/>
				<rect x="20.1" y="6.8" class="st0" width="0.9" height="8.3"/>
				<path class="st0" d="M23.9,13.6c0,0.9-0.2,1.6-1.1,1.6c-0.9,0-1-0.9-1-1.6v-3.1c0-0.9,0.2-1.6,1.1-1.6c0.9,0,1,0.7,1,1.6V13.6z
					 M23,10.3c0-0.3,0-0.5-0.2-0.5c-0.2,0-0.2,0.2-0.2,0.5v3.3c0,0.3,0,0.5,0.2,0.5c0.2,0,0.2-0.4,0.2-0.5L23,10.3z"/>
				<path class="st0" d="M26.2,10.2c-0.5-0.3-0.8,0.1-0.8,0.6v4.3h-0.9V8.9h0.9v0.3c0.2-0.3,0.4-0.4,0.8-0.4V10.2z"/>
				<path class="st0" d="M8.1,15.9H10v1.3H9v2.2h0.7v1.3H9V23H10v1.3H8.1V15.9z"/>
				<path class="st0" d="M11.6,24.2h-0.9v-6.2h0.9v0.3c0.1-0.2,0.4-0.4,0.6-0.4c0.6,0,0.6,0.8,0.6,1.2v5.1h-0.9v-4.9
					c0-0.2-0.1-0.4-0.2-0.4s-0.2,0.2-0.2,0.4L11.6,24.2z"/>
				<path class="st0" d="M15.6,22v0.8c0,0.8-0.2,1.5-1.1,1.5c-0.8,0-1-0.8-1-1.6v-3.2c0-0.7,0.3-1.6,1-1.6c0.9,0,1.1,0.8,1.1,1.5
					v1.8h-1.2v1.3c0,0.2,0,0.6,0.2,0.6c0.2,0,0.2-0.4,0.2-0.6V22L15.6,22z M14.4,20.5h0.4v-0.9c0-0.3,0-0.6-0.2-0.6
					c-0.1,0-0.2,0.5-0.2,0.6V20.5z"/>
				<path class="st0" d="M17.9,19.3c-0.5-0.3-0.8,0.1-0.8,0.6v4.3h-0.9v-6.2h0.9v0.3c0.2-0.3,0.4-0.4,0.8-0.4L17.9,19.3z"/>
				<path class="st0" d="M20.5,21.3c0,0.7-0.3,1.5-1.1,1.5h-0.1c0,0.1-0.1,0.2-0.1,0.3c0,0.2,0.3,0.3,0.5,0.4c0.3,0,0.5,0.2,0.7,0.4
					c0.2,0.3,0.4,0.7,0.4,1.1c0,0.8-0.4,1.6-1.3,1.6c-0.6,0.1-1.1-0.4-1.2-1c0-0.1,0-0.1,0-0.2c0-0.4,0.3-0.7,0.6-0.9h0
					c-0.3-0.1-0.5-0.5-0.5-0.8c0-0.4,0.2-0.7,0.5-0.9c-0.3-0.4-0.4-0.9-0.4-1.3v-1.7c0-0.7,0.3-1.6,1-1.6c0.3,0,0.6,0.1,0.7,0.4
					c0.2-0.2,0.4-0.4,0.7-0.4v1c-0.2,0-0.3,0-0.4,0.1c0,0.1,0,0.2,0,0.3L20.5,21.3z M19.3,24.6c-0.1,0.1-0.2,0.3-0.2,0.5
					c0,0.2,0.1,0.4,0.4,0.4c0.2,0,0.4-0.2,0.4-0.4c0,0,0,0,0,0c0-0.2-0.1-0.4-0.3-0.4L19.3,24.6z M19.6,19.5c0-0.2,0-0.6-0.2-0.6
					c-0.1,0-0.1,0.3-0.1,0.6v1.8c0,0.2,0,0.6,0.1,0.6c0.1,0,0.2-0.4,0.2-0.6V19.5z"/>
				<path class="st0" d="M23.4,22v0.8c0,0.8-0.2,1.5-1.1,1.5c-0.8,0-1-0.8-1-1.6v-3.2c0-0.7,0.3-1.6,1-1.6c0.9,0,1.1,0.8,1.1,1.5
					v1.8h-1.2v1.3c0,0.2,0,0.6,0.2,0.6c0.2,0,0.2-0.4,0.2-0.6V22L23.4,22z M23.3,16l-0.5,1H22l0.4-1H23.3z M22.2,20.5h0.4v-0.9
					c0-0.3,0-0.6-0.2-0.6c-0.1,0-0.2,0.5-0.2,0.6L22.2,20.5z"/>
				<path class="st0" d="M25.1,16.5v1.5h0.5v1h-0.5v5.2h-0.9v-5.2h-0.4v-1h0.4v-1.5H25.1z"/>
				<path class="st0" d="M26.2,18.1h0.9v6.2h-0.9V18.1z M26.2,15.9h0.9v1.1h-0.9V15.9z"/>
				<path class="st0" d="M28.7,22.8c0,0.2,0.1,0.5,0.2,0.5s0.2-0.1,0.2-0.5V22H30v0.7c0,0.9-0.1,1.7-1.1,1.7c-0.9,0-1-1.1-1-1.7
					v-2.9c0-0.7,0.2-1.7,1.1-1.7c1,0,1.1,0.9,1.1,1.7v0.6h-0.9v-0.8c0-0.4-0.1-0.5-0.2-0.5s-0.2,0.2-0.2,0.5V22.8z"/>
				<path class="st0" d="M32.8,22.7c0,0.9-0.2,1.6-1.1,1.6c-0.9,0-1-0.9-1-1.6v-3.1c0-0.9,0.2-1.6,1.1-1.6c0.9,0,1,0.7,1,1.6V22.7z
					 M31.9,19.5c0-0.3,0-0.5-0.2-0.5c-0.2,0-0.2,0.2-0.2,0.5v3.3c0,0.3,0,0.5,0.2,0.5c0.2,0,0.2-0.4,0.2-0.5L31.9,19.5z"/>
				<path class="st0" d="M59.7,13.2c0-0.3,0-1.2-0.2-1.2c-0.1,0-0.2,0.3-0.2,0.8c0.1,0.7,0.3,1.3,0.6,2c0.4,0.8,0.6,1.7,0.7,2.6
					c0,0.8-0.1,2-1.1,2c-1.2,0-1.2-1.7-1.2-2.4l0.9-0.1c0,0.3,0,1.4,0.2,1.4c0.2,0,0.2-0.3,0.2-0.8c-0.1-0.9-0.3-1.7-0.7-2.5
					c-0.3-0.7-0.5-1.4-0.5-2.1c0-0.7,0.1-1.9,1.1-1.9c1.1,0,1.1,1.5,1.1,2.2L59.7,13.2z"/>
				<path class="st0" d="M63.4,17.8c0,0.9-0.2,1.6-1.1,1.6c-0.9,0-1-0.9-1-1.6v-3.1c0-0.9,0.2-1.6,1.1-1.6c0.9,0,1,0.7,1,1.6
					L63.4,17.8z M62.6,14.5c0-0.3,0-0.5-0.2-0.5c-0.2,0-0.2,0.2-0.2,0.5v3.3c0,0.2,0,0.5,0.2,0.5c0.2,0,0.2-0.4,0.2-0.5L62.6,14.5z"
					/>
				<path class="st0" d="M66.2,19.3h-0.9V19c-0.1,0.2-0.4,0.4-0.6,0.4c-0.6,0-0.5-0.8-0.5-1.2v-3.9c0-0.5,0.1-1.2,0.7-1.2
					c0.2,0,0.4,0.2,0.5,0.4V11h0.9V19.3z M65.4,14.4c0-0.2,0-0.4-0.2-0.4S65,14.2,65,14.4v3.5c0,0.2,0,0.4,0.2,0.4s0.2-0.2,0.2-0.4
					V14.4z"/>
				<path class="st0" d="M66.9,13.1h0.9v6.2h-0.9V13.1z M66.9,11h0.9v1.1h-0.9V11z"/>
				<path class="st0" d="M70.7,17.8c0,0.9-0.2,1.6-1.1,1.6c-0.9,0-1-0.9-1-1.6v-3.1c0-0.9,0.2-1.6,1.1-1.6c0.9,0,1,0.7,1,1.6
					L70.7,17.8z M69.8,14.5c0-0.3,0-0.5-0.2-0.5c-0.2,0-0.2,0.2-0.2,0.5v3.3c0,0.2,0,0.5,0.2,0.5c0.2,0,0.2-0.4,0.2-0.5L69.8,14.5z"
					/>
				<path class="st0" d="M60,41c0,1.6-0.5,3.2-2.1,3.2c-1.7,0-2.1-1.7-2.1-3.2v-9.6c0-1.6,0.6-3.2,2.1-3.2c1.7,0,2.1,1.9,2.1,3.2V41
					z M58.2,31.4c0-0.5-0.1-0.9-0.3-0.9s-0.4,0.4-0.4,0.9V41c0,0.6,0.2,0.9,0.4,0.9c0.2,0,0.3-0.4,0.3-0.9V31.4z"/>
				<path class="st0" d="M67.2,44h-1.5v-9.2c0-0.4-0.1-0.7-0.3-0.7c-0.2,0-0.3,0.4-0.3,0.8V44h-1.7V32.4h1.7V33
					c0.2-0.4,0.7-0.7,1.1-0.8c0.4,0,0.8,0.4,0.8,0.8c0.3-0.5,0.8-0.8,1.3-0.8c1.1,0,1.1,1.6,1.1,2.3V44h-1.6v-9.2
					c0-0.4-0.1-0.8-0.3-0.8s-0.3,0.5-0.3,0.8L67.2,44z"/>
				<path class="st0" d="M74.1,38.4c-0.1,1.2-0.6,2.9-2.1,2.9H72c-0.1,0.2-0.1,0.3-0.1,0.5c0,0.4,0.5,0.6,0.8,0.7
					c0.5,0.1,0.9,0.3,1.3,0.7c0.5,0.6,0.7,1.3,0.7,2c0,1.6-0.7,3-2.4,3c-1.1,0.1-2.1-0.7-2.3-1.9c0-0.1,0-0.3,0-0.4
					c0.1-0.7,0.5-1.4,1.1-1.8h0c-0.6-0.3-1-0.9-0.9-1.6c0.1-0.7,0.4-1.3,0.9-1.7c-0.5-0.7-0.8-1.6-0.8-2.5v-3.2c0-1.2,0.5-3,1.9-3
					c0.5,0,1.1,0.2,1.3,0.7c0.3-0.4,0.8-0.7,1.3-0.7v1.9c-0.3,0-0.6,0.1-0.8,0.3c0.1,0.2,0.1,0.3,0.1,0.5L74.1,38.4z M72,44.6
					c-0.2,0.3-0.4,0.6-0.4,1c0,0.4,0.2,0.8,0.7,0.8c0.4,0,0.8-0.3,0.8-0.8c0,0,0,0,0,0c0-0.4-0.2-0.7-0.6-0.8L72,44.6z M72.5,35.2
					c0-0.5,0-1.1-0.3-1.1c-0.2,0-0.3,0.6-0.3,1.1v3.3c0,0.4,0.1,1,0.3,1c0.3,0,0.3-0.7,0.3-1V35.2z"/>
				<path class="st0" d="M24.4,36.8L24.4,36.8c0.3-1,0.6-2.7,0.9-3.7h1.5l-1,3.3l1.1,5.6h-1.5l-0.5-3.6l-0.4,1.2V42H23V30.2h1.4
					V36.8z"/>
				<path class="st0" d="M30.4,39.1c0,1.7-0.3,3-1.7,3c-1.4,0-1.7-1.2-1.7-3.2v-3.1c0-1.5,0.4-2.9,1.7-2.9c1.5,0,1.7,1.5,1.7,2.8
					v0.4h-1.3v-0.5c0-0.6-0.1-0.9-0.3-0.9s-0.3,0.3-0.3,0.9v3.9c0,0.5,0.1,0.9,0.3,0.9c0.3,0,0.3-0.4,0.3-1v-0.6L30.4,39.1z"/>
				<path class="st0" d="M34.5,39.9c0,0.8,0,1.6,0,2h-1.3c0-0.2-0.1-0.4-0.1-0.7c-0.1,0.5-0.5,0.8-1,0.8c-0.9,0-1.2-1.3-1.2-2.6
					v-0.2c0-2.3,1-2.8,2.1-2.8h0.1v-1c0-0.6-0.1-0.9-0.3-0.9c-0.3,0-0.3,0.3-0.3,0.8v0.2h-1.4v-0.1c0-1.5,0.5-2.5,1.7-2.5
					c1.1,0,1.7,0.8,1.7,2.4L34.5,39.9z M33.1,38H33c-0.4,0-0.7,0.3-0.7,1.2v0.1c0,0.6,0.1,0.9,0.4,0.9s0.4-0.3,0.4-1.2L33.1,38z"/>
				<rect x="35.3" y="30.2" class="st0" width="1.4" height="11.8"/>
				<path class="st0" d="M42,8.1C30.7-3.1,12.5-3.1,1.3,8.1C1.1,8.3,1,8.5,1,8.8v53.5c0,0.2,0.1,0.5,0.3,0.7
					c11.2,11.2,29.4,11.2,40.7,0c0.2-0.2,0.3-0.4,0.3-0.7V8.8C42.2,8.5,42.1,8.3,42,8.1 M20.3,57v-1.9c0-1.3,0.4-2.1,1.3-2.1
					s1.2,0.8,1.2,2.1v1.8c0,1.5-0.4,2.2-1.3,2.2C20.8,59.1,20.3,58.5,20.3,57 M21.1,64.4l3.4-11.1h0.7l-3.4,11.1H21.1z M26,62.3
					c0,1.5-0.4,2.2-1.3,2.2c-0.8,0-1.2-0.6-1.3-2.1v-1.9c0-1.3,0.4-2.1,1.3-2.1s1.2,0.8,1.2,2.1L26,62.3z M40.3,61.9
					c-0.7,0.7-1.4,1.3-2.2,1.9c-0.1-9.1-7.6-16.5-16.7-16.4c-9,0.1-16.4,7.4-16.4,16.4c-0.8-0.6-1.5-1.2-2.2-1.9V9.2
					c10.4-10.1,27-10.1,37.5,0V61.9z"/>
				<path class="st0" d="M24.7,59.8c-0.2,0-0.3,0.2-0.3,0.7v2c0,0.4,0.1,0.7,0.3,0.7c0.2,0,0.3-0.3,0.3-0.7v-2
					C25,60,24.9,59.8,24.7,59.8"/>
				<path class="st0" d="M21.9,57.1v-2c0-0.5-0.1-0.7-0.3-0.7c-0.2,0-0.3,0.2-0.3,0.7v2c0,0.5,0.1,0.7,0.3,0.7
					C21.8,57.8,21.9,57.5,21.9,57.1"/>
				<path class="st0" d="M66.1,57.8v-2c0-0.5-0.1-0.7-0.3-0.7c-0.2,0-0.3,0.2-0.3,0.7v2c0,0.5,0.1,0.7,0.3,0.7
					C66,58.5,66.1,58.2,66.1,57.8"/>
				<path class="st0" d="M62.1,55.6c-0.3,0-0.4,0.4-0.4,1v5.7c0,0.6,0.1,1,0.4,1s0.4-0.4,0.4-1v-5.7C62.5,56,62.4,55.6,62.1,55.6"/>
				<path class="st0" d="M84.9,8.1C73.6-3.1,55.4-3.1,44.2,8.1c-0.2,0.2-0.3,0.4-0.3,0.7v53.5c0,0.2,0.1,0.5,0.3,0.7
					c11.2,11.2,29.4,11.2,40.7,0c0.2-0.2,0.3-0.4,0.3-0.7V8.8C85.1,8.5,85,8.3,84.9,8.1 M63.9,62.1c0,1.7-0.4,3.1-1.9,3.1
					c-1.4,0-1.8-1.5-1.8-3.1v-5.2c0-2,0.6-3.1,1.8-3.1s1.8,1.1,1.8,3L63.9,62.1z M64.5,57.7v-1.9c0-1.3,0.4-2.1,1.3-2.1
					s1.2,0.8,1.2,2.1v1.8c0,1.5-0.4,2.2-1.3,2.2C65,59.8,64.5,59.2,64.5,57.7 M65.3,65.1l3.4-11.1h0.7L66,65.1H65.3z M70.2,63
					c0,1.5-0.4,2.2-1.3,2.2c-0.8,0-1.2-0.6-1.3-2.1v-1.9c0-1.3,0.4-2.1,1.3-2.1s1.2,0.8,1.2,2.1L70.2,63z M83.3,61.9
					c-0.7,0.7-1.4,1.3-2.2,1.9c-0.1-9.1-7.6-16.5-16.7-16.4c-9,0.1-16.4,7.4-16.4,16.4c-0.8-0.6-1.5-1.2-2.2-1.9V9.2
					c10.4-10.1,27-10.1,37.5,0L83.3,61.9z"/>
				<path class="st0" d="M68.9,60.5c-0.2,0-0.3,0.2-0.3,0.7v2c0,0.4,0.1,0.7,0.3,0.7s0.3-0.3,0.3-0.7v-2
					C69.2,60.7,69.1,60.5,68.9,60.5"/>
				<g transform="translate(-520.713 -834.887)">
					<path class="st0" d="M528.9,879.8v-13.2l-1.7,1.6v-2.4l1.7-1.6h1.7v15.5L528.9,879.8z"/>
					<path class="st0" d="M531.1,879.8v-2.1l3.1-7.6c0.1-0.3,0.2-0.6,0.3-1c0-0.3,0-0.6,0-1.1c0-0.2,0-0.4,0-0.6
						c0-0.2,0-0.4-0.1-0.6c-0.1-0.2-0.1-0.3-0.3-0.4c-0.1-0.1-0.3-0.2-0.5-0.2c-0.2,0-0.5,0.1-0.6,0.3c-0.2,0.2-0.2,0.5-0.2,0.8v1.3
						h-1.7v-1.2c0-0.4,0.1-0.9,0.2-1.3c0.1-0.4,0.3-0.7,0.6-1.1c0.2-0.3,0.5-0.5,0.8-0.7c0.3-0.2,0.7-0.3,1-0.3
						c0.4,0,0.8,0.1,1.1,0.3c0.3,0.2,0.6,0.5,0.8,0.9c0.2,0.4,0.4,0.8,0.4,1.2c0.1,0.5,0.1,1,0.1,1.5c0,0.4,0,0.7,0,0.9
						c0,0.3,0,0.5-0.1,0.7c0,0.2-0.1,0.5-0.2,0.7c-0.1,0.2-0.2,0.5-0.3,0.8l-2.5,6.3h3.1v2.2L531.1,879.8z"/>
					<path class="st0" d="M541.4,864.3v2.1h-3.4v4.2c0.2-0.2,0.4-0.4,0.6-0.5c0.3-0.1,0.5-0.2,0.8-0.2c0.6,0,1.1,0.2,1.4,0.7
						c0.4,0.6,0.6,1.3,0.5,2.1v4c0,0.5-0.1,0.9-0.2,1.4c-0.1,0.4-0.3,0.7-0.6,1c-0.2,0.3-0.5,0.5-0.8,0.7c-0.6,0.3-1.3,0.3-1.9,0
						c-0.3-0.2-0.6-0.4-0.8-0.7c-0.2-0.3-0.4-0.7-0.6-1c-0.1-0.5-0.2-0.9-0.2-1.4v-0.7h1.7v0.6c0,0.3,0.1,0.6,0.2,0.9
						c0.1,0.2,0.4,0.3,0.6,0.3c0.2,0,0.5-0.1,0.6-0.3c0.2-0.3,0.2-0.6,0.2-0.8v-3.6c0-0.3-0.1-0.6-0.2-0.8c-0.1-0.2-0.3-0.3-0.6-0.3
						c-0.1,0-0.3,0-0.4,0.1c-0.1,0.1-0.2,0.1-0.3,0.2c-0.1,0.1-0.1,0.2-0.2,0.3c-0.1,0.1-0.1,0.2-0.1,0.2h-1.5v-8.4L541.4,864.3z"/>
				</g>
				<path class="st0" d="M19.5,60.2c-0.1-1.7-0.8-2.8-2-2.8c-0.4,0-0.7,0.2-0.9,0.5c0,0-0.1,0-0.1,0v-1.7c0-0.6,0.2-1,0.6-1
					c0.3,0,0.5,0.4,0.5,1v0.4c0,0.1,0.1,0.2,0.1,0.2h1.4c0.1,0,0.1-0.1,0.1-0.2v-0.5c0-1.8-0.9-2.9-2.3-2.9c-1.4,0-2.4,1.1-2.4,2.9
					l0,5.3c0,0.3,0,0.6,0,0.9c0.1,1.8,1,2.6,2.3,2.6c1.4,0,2.3-1,2.3-2.7c0-0.3,0-0.6,0-1C19.5,60.9,19.5,60.5,19.5,60.2z M17.7,62
					c0,0.6-0.3,0.9-0.6,0.9s-0.5-0.3-0.6-0.9c0-0.4,0-0.7,0-1c0-0.2,0-0.6,0-1c0-0.5,0.3-0.8,0.6-0.8s0.5,0.3,0.6,0.8
					c0,0.4,0,0.8,0,1C17.8,61.3,17.8,61.6,17.7,62z"/>
			</g>
		</g>
	</g>
</g>
</svg>
