<svg xmlns="http://www.w3.org/2000/svg" xmlns:xlink="http://www.w3.org/1999/xlink" width="240.38" height="79.561" viewBox="0 0 240.38 79.561">
  <defs>
    <clipPath id="clip-path">
      <rect id="Rectángulo_52" data-name="Rectángulo 52" width="240.38" height="79.561" fill="none"/>
    </clipPath>
  </defs>
  <g id="candy_nutri_doy" transform="translate(0 0)">
    <path id="Trazado_1017" data-name="Trazado 1017" d="M9.325,3.952l.353,4.726.351-4.726h1.017l-.854,9.234H9.163L8.309,3.952Z" transform="translate(8.155 3.879)" fill="#fff"/>
    <g id="Grupo_190" data-name="Grupo 190" transform="translate(0 0)">
      <g id="Grupo_189" data-name="Grupo 189" clip-path="url(#clip-path)">
        <path id="Trazado_1018" data-name="Trazado 1018" d="M11.231,6.763c0-.21-.052-.577-.164-.577s-.176.4-.176.577v.454H9.937V6.805c0-.771.337-1.712,1.167-1.712.765,0,1.08.917,1.056,1.556v4.223a8.564,8.564,0,0,0,.061,1.195H11.38a2.236,2.236,0,0,1-.149-.414.747.747,0,0,1-.64.515c-.68,0-.717-1.268-.717-1.7a3.139,3.139,0,0,1,.955-2.475,1.416,1.416,0,0,0,.4-.489Zm-.012,2.15a2.985,2.985,0,0,0-.442,1.544c0,.038,0,.515.176.515s.266-.226.266-.464Z" transform="translate(9.692 4.998)" fill="#fff"/>
        <rect id="Rectángulo_49" data-name="Rectángulo 49" width="0.993" height="9.232" transform="translate(22.77 7.833)" fill="#fff"/>
        <path id="Trazado_1019" data-name="Trazado 1019" d="M14.753,10.4c0,1.054-.266,1.77-1.169,1.77-.993,0-1.155-.955-1.155-1.805V6.9c0-.951.252-1.807,1.179-1.807,1,0,1.145.806,1.145,1.771Zm-.945-3.62c.014-.313-.012-.577-.212-.577-.174,0-.228.24-.228.577v3.705c-.012.279.04.565.216.565.2,0,.238-.45.224-.565Z" transform="translate(12.2 4.998)" fill="#fff"/>
        <path id="Trazado_1020" data-name="Trazado 1020" d="M15.781,6.6c-.59-.339-.84.153-.84.7v4.772h-.965V5.194h.965v.376a.946.946,0,0,1,.84-.478Z" transform="translate(13.718 4.998)" fill="#fff"/>
        <path id="Trazado_1021" data-name="Trazado 1021" d="M4.755,9.092H6.84v1.4H5.8v2.425h.753v1.48H5.8v2.536H6.84v1.4H4.755Z" transform="translate(4.668 8.923)" fill="#fff"/>
        <path id="Trazado_1022" data-name="Trazado 1022" d="M7.219,17.207H6.226V10.335h.993v.351a1.087,1.087,0,0,1,.666-.454c.628,0,.68.931.68,1.347v5.628H7.583V11.78c0-.264-.063-.44-.188-.44s-.176.188-.176.454Z" transform="translate(6.111 10.042)" fill="#fff"/>
        <path id="Trazado_1023" data-name="Trazado 1023" d="M10.114,14.742v.866c0,.9-.275,1.7-1.242,1.7-.88,0-1.092-.943-1.092-1.734V11.99c0-.816.313-1.756,1.155-1.756,1.054,0,1.179.927,1.179,1.72V14H8.747v1.5c0,.277.048.69.188.69.2,0,.238-.452.238-.69v-.755ZM8.747,13.008h.426v-.965c0-.339-.038-.705-.252-.705-.162,0-.174.5-.174.705Z" transform="translate(7.636 10.044)" fill="#fff"/>
        <path id="Trazado_1024" data-name="Trazado 1024" d="M11.134,11.74c-.589-.339-.84.153-.84.7v4.772H9.327V10.335h.967v.376a.947.947,0,0,1,.84-.48Z" transform="translate(9.155 10.042)" fill="#fff"/>
        <path id="Trazado_1025" data-name="Trazado 1025" d="M12.9,13.892c-.036.725-.363,1.692-1.217,1.692h-.063a.628.628,0,0,0-.075.3c0,.25.313.376.5.424a1.455,1.455,0,0,1,.753.394,1.781,1.781,0,0,1,.39,1.2c0,.917-.39,1.762-1.421,1.762a1.224,1.224,0,0,1-1.332-1.334,1.331,1.331,0,0,1,.654-1.044h.012a.928.928,0,0,1-.539-.913,1.544,1.544,0,0,1,.513-1.032,2.547,2.547,0,0,1-.478-1.5V11.978c.012-.725.3-1.746,1.143-1.746a.815.815,0,0,1,.781.428,1.012,1.012,0,0,1,.791-.428v1.129a.589.589,0,0,0-.466.153,1.066,1.066,0,0,1,.05.3Zm-1.28,3.65a.851.851,0,0,0-.226.581c0,.264.111.48.39.48a.458.458,0,0,0,.464-.468.474.474,0,0,0-.327-.489Zm.315-5.576c0-.275-.026-.624-.19-.624-.125,0-.162.375-.162.624v1.948c0,.24.038.616.162.616.164,0,.19-.442.19-.616Z" transform="translate(10.249 10.042)" fill="#fff"/>
        <path id="Trazado_1026" data-name="Trazado 1026" d="M14.507,15.813v.866c0,.9-.275,1.7-1.242,1.7-.88,0-1.092-.943-1.092-1.734V13.061c0-.816.315-1.756,1.157-1.756,1.052,0,1.177.927,1.177,1.72v2.047H13.14v1.5c0,.277.05.69.19.69.2,0,.238-.452.238-.69v-.755Zm-.2-6.67-.6,1.129h-.8l.4-1.129ZM13.14,14.079h.428v-.965c0-.339-.04-.705-.252-.705-.164,0-.176.5-.176.705Z" transform="translate(11.948 8.974)" fill="#fff"/>
        <path id="Trazado_1027" data-name="Trazado 1027" d="M15,9.427v1.7h.529V12.27H15V18h-.963V12.27h-.416V11.125h.416v-1.7Z" transform="translate(13.367 9.252)" fill="#fff"/>
        <path id="Trazado_1028" data-name="Trazado 1028" d="M14.922,11.455h.993v6.874h-.993Zm0-2.364h.993v1.27h-.993Z" transform="translate(14.647 8.923)" fill="#fff"/>
        <path id="Trazado_1029" data-name="Trazado 1029" d="M16.823,15.622c0,.252.061.541.188.541s.2-.125.2-.541v-.949h.955v.787c-.012.965-.089,1.849-1.195,1.849-.979,0-1.141-1.195-1.141-1.91V12.142c.012-.791.212-1.91,1.167-1.91,1.131,0,1.169.959,1.169,1.849v.666h-.955v-.906c0-.414-.075-.5-.188-.5s-.2.252-.2.5Z" transform="translate(15.538 10.042)" fill="#fff"/>
        <path id="Trazado_1030" data-name="Trazado 1030" d="M19.657,15.537c0,1.054-.266,1.771-1.169,1.771-.993,0-1.155-.957-1.155-1.807v-3.46c0-.953.25-1.809,1.179-1.809,1,0,1.145.808,1.145,1.773Zm-.945-3.62c.014-.313-.012-.577-.212-.577-.176,0-.228.24-.228.577v3.705c-.012.279.04.565.216.565.2,0,.238-.45.224-.565Z" transform="translate(17.013 10.042)" fill="#fff"/>
        <path id="Trazado_1031" data-name="Trazado 1031" d="M107.828,8.858c0-.325,0-1.345-.2-1.345-.149,0-.17.378-.17.919a6.376,6.376,0,0,0,.614,2.172,7.741,7.741,0,0,1,.791,2.9c0,.878-.164,2.2-1.242,2.2-1.32,0-1.3-1.835-1.3-2.679l1.02-.149c0,.289,0,1.583.277,1.583.184,0,.212-.3.212-.892A7.375,7.375,0,0,0,107,10.8a7.548,7.548,0,0,1-.563-2.372c0-.8.162-2.136,1.169-2.162,1.2-.022,1.254,1.672,1.254,2.437Z" transform="translate(104.355 6.154)" fill="#fff"/>
        <path id="Trazado_1032" data-name="Trazado 1032" d="M110.305,12.765c0,1.054-.264,1.775-1.167,1.775-.993,0-1.157-.959-1.157-1.811V9.271c0-.953.252-1.809,1.179-1.809,1,0,1.145.808,1.145,1.773Zm-.943-3.618c.014-.313-.014-.579-.212-.579-.176,0-.23.24-.23.579v3.705c-.012.277.04.567.218.567.2,0,.238-.454.224-.567Z" transform="translate(105.987 7.324)" fill="#fff"/>
        <path id="Trazado_1033" data-name="Trazado 1033" d="M111.852,15.555h-.993v-.376a.949.949,0,0,1-.715.478c-.616,0-.555-.852-.565-1.345V9.929c0-.567.125-1.347.763-1.347a.692.692,0,0,1,.517.39V6.321h.993Zm-.993-5.416c0-.2-.048-.454-.174-.454s-.18.216-.18.454v3.844c0,.252.042.48.18.48s.174-.238.174-.48Z" transform="translate(107.556 6.204)" fill="#fff"/>
        <path id="Trazado_1034" data-name="Trazado 1034" d="M111.117,8.681h.993v6.874h-.993Zm0-2.36h.993v1.27h-.993Z" transform="translate(109.066 6.204)" fill="#fff"/>
        <path id="Trazado_1035" data-name="Trazado 1035" d="M114.351,12.765c0,1.054-.266,1.775-1.169,1.775-.993,0-1.157-.959-1.157-1.811V9.271c0-.953.252-1.809,1.179-1.809,1,0,1.147.808,1.147,1.773Zm-.945-3.618c.014-.313-.012-.579-.212-.579-.176,0-.23.24-.23.579v3.705c-.012.277.042.567.218.567.2,0,.238-.454.224-.567Z" transform="translate(109.957 7.324)" fill="#fff"/>
        <path id="Trazado_1036" data-name="Trazado 1036" d="M33.283,7.318V5.775c0-.19-.026-.557-.2-.557-.137,0-.186.327-.186.557v5.8c0,.289.061.553.212.553.226,0,.252-.323.252-.553v-1.8h-.226V8.636h1.193v4.6h-.541l-.113-.341a.925.925,0,0,1-.69.44c-.931,0-1.143-1.217-1.143-1.871V5.775c0-.83.3-1.873,1.242-1.873,1.007,0,1.244,1.133,1.244,1.873V7.318Z" transform="translate(31.25 3.829)" fill="#fff"/>
        <path id="Trazado_1037" data-name="Trazado 1037" d="M35.358,6.6c-.589-.339-.84.153-.84.7v4.772h-.967V5.194h.967v.376a.944.944,0,0,1,.84-.478Z" transform="translate(32.932 4.998)" fill="#fff"/>
        <path id="Trazado_1038" data-name="Trazado 1038" d="M36.035,6.763c0-.21-.052-.577-.164-.577s-.176.4-.176.577v.454h-.953V6.805c0-.771.337-1.712,1.167-1.712.765,0,1.08.917,1.056,1.556v4.223a8.188,8.188,0,0,0,.063,1.195h-.844a2.236,2.236,0,0,1-.149-.414.747.747,0,0,1-.64.515c-.68,0-.717-1.268-.717-1.7a3.139,3.139,0,0,1,.955-2.475,1.416,1.416,0,0,0,.4-.489Zm-.014,2.15a3,3,0,0,0-.44,1.544c0,.038,0,.515.176.515s.264-.226.264-.464Z" transform="translate(34.038 4.998)" fill="#fff"/>
        <path id="Trazado_1039" data-name="Trazado 1039" d="M37.663,6.952c0-.212-.038-.8-.228-.8-.162,0-.176.45-.176.715a2.978,2.978,0,0,0,.48,1.369,4.317,4.317,0,0,1,.755,2.275c0,.59-.164,1.657-1.143,1.657-1.07,0-1.143-1.167-1.143-2.1h.9c0,.442.061,1.046.24,1.046s.2-.305.2-.828A3.935,3.935,0,0,0,37.035,8.8a4.21,4.21,0,0,1-.7-2.077c0-.88.325-1.629,1.078-1.629,1.032,0,1.108,1.177,1.108,1.857Z" transform="translate(35.539 5)" fill="#fff"/>
        <path id="Trazado_1040" data-name="Trazado 1040" d="M39.059,6.763c0-.21-.052-.577-.164-.577s-.174.4-.174.577v.454h-.955V6.805c0-.771.339-1.712,1.167-1.712.767,0,1.08.917,1.058,1.556v4.223a8.259,8.259,0,0,0,.061,1.195H39.21a2.241,2.241,0,0,1-.151-.414.742.742,0,0,1-.64.515c-.678,0-.717-1.268-.717-1.7a3.146,3.146,0,0,1,.955-2.475,1.393,1.393,0,0,0,.4-.489Zm-.014,2.15a3.023,3.023,0,0,0-.438,1.544c0,.038,0,.515.174.515s.264-.226.264-.464Z" transform="translate(37.006 4.998)" fill="#fff"/>
        <path id="Trazado_1041" data-name="Trazado 1041" d="M40.687,6.952c0-.212-.04-.8-.226-.8-.162,0-.176.45-.176.715a3,3,0,0,0,.478,1.369,4.334,4.334,0,0,1,.753,2.275c0,.59-.162,1.657-1.143,1.657-1.066,0-1.141-1.167-1.141-2.1h.9c0,.442.063,1.046.238,1.046s.2-.305.2-.828A3.907,3.907,0,0,0,40.059,8.8a4.211,4.211,0,0,1-.7-2.077c0-.88.327-1.629,1.08-1.629,1.03,0,1.106,1.177,1.106,1.857Z" transform="translate(38.507 5)" fill="#fff"/>
        <path id="Trazado_1042" data-name="Trazado 1042" d="M31.417,10.487v-1.4h2.576v1.4h-.767v7.839H32.184V10.487Z" transform="translate(30.837 8.923)" fill="#fff"/>
        <path id="Trazado_1043" data-name="Trazado 1043" d="M35.187,15.537c0,1.054-.266,1.771-1.167,1.771-.993,0-1.157-.957-1.157-1.807v-3.46c0-.953.252-1.809,1.179-1.809,1,0,1.145.808,1.145,1.773Zm-.943-3.62c.014-.313-.012-.577-.212-.577-.176,0-.228.24-.228.577v3.705c-.012.279.038.565.216.565.2,0,.238-.45.224-.565Z" transform="translate(32.256 10.042)" fill="#fff"/>
        <path id="Trazado_1044" data-name="Trazado 1044" d="M35.691,9.427v1.7h.527V12.27h-.527V18h-.967V12.27h-.416V11.125h.416v-1.7Z" transform="translate(33.674 9.252)" fill="#fff"/>
        <path id="Trazado_1045" data-name="Trazado 1045" d="M36.9,11.9c0-.21-.052-.577-.164-.577s-.174.4-.174.577v.454H35.6v-.412c0-.771.339-1.714,1.167-1.714.767,0,1.08.919,1.058,1.557v4.223a8.26,8.26,0,0,0,.061,1.195h-.842a2.26,2.26,0,0,1-.151-.416.741.741,0,0,1-.64.517c-.678,0-.717-1.27-.717-1.7a3.149,3.149,0,0,1,.955-2.475,1.393,1.393,0,0,0,.4-.489Zm-.014,2.15a3.017,3.017,0,0,0-.438,1.544c0,.038,0,.515.174.515s.264-.226.264-.462Z" transform="translate(34.882 10.042)" fill="#fff"/>
        <rect id="Rectángulo_50" data-name="Rectángulo 50" width="0.993" height="9.234" transform="translate(73.622 18.014)" fill="#fff"/>
        <path id="Trazado_1046" data-name="Trazado 1046" d="M40.427,14.742v.866c0,.9-.273,1.7-1.242,1.7-.88,0-1.092-.943-1.092-1.734V11.99c0-.816.315-1.756,1.157-1.756,1.052,0,1.177.927,1.177,1.72V14H39.06v1.5c0,.277.05.69.19.69.2,0,.238-.452.238-.69v-.755ZM39.06,13.008h.428v-.965c0-.339-.04-.705-.252-.705-.164,0-.176.5-.176.705Z" transform="translate(37.39 10.044)" fill="#fff"/>
        <path id="Trazado_1047" data-name="Trazado 1047" d="M41,12.091c0-.21-.038-.8-.226-.8-.162,0-.176.448-.176.713a2.986,2.986,0,0,0,.48,1.369,4.334,4.334,0,0,1,.753,2.275c0,.59-.162,1.657-1.143,1.657-1.068,0-1.143-1.167-1.143-2.1h.906c0,.442.061,1.046.238,1.046s.2-.305.2-.828a3.907,3.907,0,0,0-.515-1.482,4.23,4.23,0,0,1-.7-2.075c0-.884.327-1.633,1.08-1.633,1.032,0,1.106,1.179,1.106,1.857Z" transform="translate(38.814 10.044)" fill="#fff"/>
        <path id="Trazado_1048" data-name="Trazado 1048" d="M57.765,7.393V5.852c0-.192-.028-.557-.2-.557-.137,0-.188.327-.188.557v5.8c0,.289.063.555.212.555.228,0,.252-.325.252-.555v-1.8h-.226V8.713H58.8v4.6h-.539l-.113-.337a.923.923,0,0,1-.692.438c-.929,0-1.141-1.219-1.141-1.869V5.852c0-.834.3-1.877,1.242-1.877,1,0,1.242,1.135,1.242,1.877V7.393Z" transform="translate(55.28 3.901)" fill="#fff"/>
        <path id="Trazado_1049" data-name="Trazado 1049" d="M59.841,6.676c-.59-.341-.842.149-.842.694v4.77h-.967V5.267H59v.376a.95.95,0,0,1,.842-.476Z" transform="translate(56.961 5.072)" fill="#fff"/>
        <path id="Trazado_1050" data-name="Trazado 1050" d="M60.517,6.838c0-.21-.052-.579-.162-.579-.129,0-.176.4-.176.579v.456h-.957V6.878c0-.767.339-1.71,1.167-1.71.769,0,1.082.915,1.058,1.557v4.221a8.136,8.136,0,0,0,.063,1.193h-.844a2.311,2.311,0,0,1-.149-.412.742.742,0,0,1-.642.515c-.676,0-.715-1.27-.715-1.7a3.144,3.144,0,0,1,.953-2.475,1.38,1.38,0,0,0,.4-.489ZM60.5,8.986a3,3,0,0,0-.438,1.544c0,.042,0,.517.172.517s.266-.226.266-.462Z" transform="translate(58.068 5.072)" fill="#fff"/>
        <path id="Trazado_1051" data-name="Trazado 1051" d="M62.145,7.026c0-.212-.042-.8-.226-.8-.162,0-.176.452-.176.713a2.977,2.977,0,0,0,.478,1.371,4.311,4.311,0,0,1,.753,2.275c0,.59-.162,1.657-1.143,1.657-1.066,0-1.141-1.167-1.141-2.1h.9c0,.442.063,1.048.238,1.048s.2-.307.2-.83a3.889,3.889,0,0,0-.513-1.482,4.237,4.237,0,0,1-.7-2.075c0-.88.325-1.631,1.08-1.631C62.924,5.169,63,6.346,63,7.026Z" transform="translate(59.569 5.073)" fill="#fff"/>
        <path id="Trazado_1052" data-name="Trazado 1052" d="M63.542,6.838c0-.21-.054-.579-.164-.579-.129,0-.176.4-.176.579v.456h-.953V6.878c0-.767.335-1.71,1.165-1.71.769,0,1.08.915,1.058,1.557v4.221a7.858,7.858,0,0,0,.063,1.193h-.844a2.166,2.166,0,0,1-.149-.412.742.742,0,0,1-.64.515c-.68,0-.719-1.27-.719-1.7a3.141,3.141,0,0,1,.957-2.475,1.416,1.416,0,0,0,.4-.489Zm-.014,2.148a3.023,3.023,0,0,0-.442,1.544c0,.042,0,.517.176.517s.266-.226.266-.462Z" transform="translate(61.035 5.072)" fill="#fff"/>
        <path id="Trazado_1053" data-name="Trazado 1053" d="M65.168,7.026c0-.212-.04-.8-.226-.8-.162,0-.174.452-.174.713a2.955,2.955,0,0,0,.478,1.371A4.328,4.328,0,0,1,66,10.581c0,.59-.162,1.657-1.143,1.657-1.068,0-1.143-1.167-1.143-2.1h.906c0,.442.061,1.048.238,1.048s.2-.307.2-.83a3.889,3.889,0,0,0-.513-1.482,4.237,4.237,0,0,1-.7-2.075c0-.88.327-1.631,1.08-1.631,1.032,0,1.106,1.177,1.106,1.857Z" transform="translate(62.536 5.073)" fill="#fff"/>
        <path id="Trazado_1054" data-name="Trazado 1054" d="M55.582,11.7c0-.327,0-1.343-.2-1.343-.151,0-.174.38-.174.915a6.348,6.348,0,0,0,.614,2.176,7.691,7.691,0,0,1,.793,2.9c0,.878-.166,2.2-1.244,2.2-1.318,0-1.294-1.835-1.294-2.675l1.017-.153c0,.293,0,1.585.277,1.585.188,0,.212-.3.212-.892a7.366,7.366,0,0,0-.828-2.764,7.558,7.558,0,0,1-.563-2.376c0-.8.161-2.134,1.167-2.16,1.2-.022,1.256,1.67,1.256,2.439Z" transform="translate(53.078 8.946)" fill="#fff"/>
        <path id="Trazado_1055" data-name="Trazado 1055" d="M57.062,11.977c0-.21-.05-.579-.162-.579s-.176.4-.176.579v.456H55.77v-.416c0-.767.337-1.71,1.165-1.71.767,0,1.082.915,1.058,1.557v4.221a8.511,8.511,0,0,0,.061,1.193h-.842a2.142,2.142,0,0,1-.151-.414.738.738,0,0,1-.638.517c-.68,0-.719-1.27-.719-1.7a3.138,3.138,0,0,1,.957-2.475,1.385,1.385,0,0,0,.4-.489Zm-.012,2.148a3,3,0,0,0-.44,1.544c0,.042,0,.517.176.517s.264-.226.264-.462Z" transform="translate(54.677 10.116)" fill="#fff"/>
        <path id="Trazado_1056" data-name="Trazado 1056" d="M58.6,9.5V11.2h.527v1.147H58.6v5.725h-.967V12.343h-.416V11.2h.416V9.5Z" transform="translate(56.158 9.326)" fill="#fff"/>
        <path id="Trazado_1057" data-name="Trazado 1057" d="M59.838,10.357h.993v6.872h-.993v-.351a1.1,1.1,0,0,1-.666.454c-.628,0-.678-.929-.678-1.347V10.357h.979v5.427c0,.264.063.44.188.44s.176-.188.176-.452Z" transform="translate(57.415 10.165)" fill="#fff"/>
        <path id="Trazado_1058" data-name="Trazado 1058" d="M61.913,11.813c-.59-.339-.84.151-.84.7v4.77h-.967V10.406h.967v.376a.949.949,0,0,1,.84-.476Z" transform="translate(58.996 10.116)" fill="#fff"/>
        <path id="Trazado_1059" data-name="Trazado 1059" d="M62.592,11.977c0-.21-.054-.579-.164-.579-.129,0-.174.4-.174.579v.456H61.3v-.416c0-.767.335-1.71,1.165-1.71.769,0,1.08.915,1.058,1.557v4.221a7.86,7.86,0,0,0,.063,1.193h-.842a2.018,2.018,0,0,1-.151-.414.739.739,0,0,1-.64.517c-.68,0-.719-1.27-.719-1.7a3.138,3.138,0,0,1,.957-2.475,1.416,1.416,0,0,0,.4-.489Zm-.014,2.148a3.023,3.023,0,0,0-.442,1.544c0,.042,0,.517.176.517s.266-.226.266-.462Z" transform="translate(60.103 10.116)" fill="#fff"/>
        <path id="Trazado_1060" data-name="Trazado 1060" d="M65.183,18.4H64.19v-.376a.943.943,0,0,1-.717.478c-.616,0-.555-.85-.565-1.343V12.774c0-.569.125-1.345.765-1.345a.7.7,0,0,1,.517.388V9.166h.993Zm-.993-5.412c0-.2-.05-.454-.176-.454s-.18.216-.18.454v3.844c0,.25.042.48.18.48s.176-.238.176-.48Z" transform="translate(61.747 8.996)" fill="#fff"/>
        <path id="Trazado_1061" data-name="Trazado 1061" d="M65.743,11.977c0-.21-.052-.579-.162-.579-.129,0-.176.4-.176.579v.456h-.955v-.416c0-.767.337-1.71,1.165-1.71.769,0,1.082.915,1.06,1.557v4.221a8.209,8.209,0,0,0,.061,1.193h-.842a2.017,2.017,0,0,1-.151-.414.739.739,0,0,1-.64.517c-.678,0-.719-1.27-.719-1.7a3.133,3.133,0,0,1,.959-2.475,1.407,1.407,0,0,0,.4-.489Zm-.014,2.148a3.023,3.023,0,0,0-.44,1.544c0,.042,0,.517.174.517s.266-.226.266-.462Z" transform="translate(63.195 10.116)" fill="#fff"/>
        <path id="Trazado_1062" data-name="Trazado 1062" d="M67.368,12.166c0-.212-.042-.8-.226-.8-.162,0-.176.448-.176.711a2.977,2.977,0,0,0,.478,1.371,4.31,4.31,0,0,1,.753,2.275c0,.591-.161,1.657-1.141,1.657-1.068,0-1.143-1.167-1.143-2.1h.906c0,.442.061,1.048.238,1.048s.2-.307.2-.83a3.889,3.889,0,0,0-.513-1.482,4.237,4.237,0,0,1-.7-2.075c0-.882.327-1.631,1.08-1.631,1.032,0,1.106,1.177,1.106,1.857Z" transform="translate(64.695 10.118)" fill="#fff"/>
        <path id="Trazado_1063" data-name="Trazado 1063" d="M82.3,7.393V5.852c0-.192-.028-.557-.2-.557-.137,0-.186.327-.186.557v5.8c0,.289.061.555.21.555.228,0,.252-.325.252-.555v-1.8h-.224V8.713h1.191v4.6H82.8l-.115-.337a.916.916,0,0,1-.69.438c-.929,0-1.143-1.219-1.143-1.869V5.852c0-.834.3-1.877,1.242-1.877,1,0,1.242,1.135,1.242,1.877V7.393Z" transform="translate(79.364 3.901)" fill="#fff"/>
        <path id="Trazado_1064" data-name="Trazado 1064" d="M84.376,6.676c-.591-.341-.842.149-.842.694v4.77h-.965V5.267h.965v.376a.952.952,0,0,1,.842-.476Z" transform="translate(81.045 5.072)" fill="#fff"/>
        <path id="Trazado_1065" data-name="Trazado 1065" d="M85.055,6.838c0-.21-.052-.579-.162-.579-.129,0-.176.4-.176.579v.456h-.957V6.878c0-.767.339-1.71,1.167-1.71.767,0,1.08.915,1.06,1.557v4.221a7.926,7.926,0,0,0,.061,1.193H85.2a2.164,2.164,0,0,1-.149-.412.742.742,0,0,1-.64.515c-.678,0-.719-1.27-.719-1.7a3.141,3.141,0,0,1,.957-2.475,1.394,1.394,0,0,0,.4-.489Zm-.016,2.148A3.043,3.043,0,0,0,84.6,10.53c0,.042,0,.517.174.517s.264-.226.264-.462Z" transform="translate(82.151 5.072)" fill="#fff"/>
        <path id="Trazado_1066" data-name="Trazado 1066" d="M86.68,7.026c0-.212-.04-.8-.224-.8-.162,0-.176.452-.176.713a3,3,0,0,0,.476,1.371,4.31,4.31,0,0,1,.753,2.275c0,.59-.162,1.657-1.141,1.657-1.066,0-1.141-1.167-1.141-2.1h.9c0,.442.061,1.048.238,1.048s.2-.307.2-.83a3.889,3.889,0,0,0-.513-1.482A4.238,4.238,0,0,1,85.349,6.8c0-.88.327-1.631,1.08-1.631,1.032,0,1.108,1.177,1.108,1.857Z" transform="translate(83.653 5.073)" fill="#fff"/>
        <path id="Trazado_1067" data-name="Trazado 1067" d="M88.079,6.838c0-.21-.053-.579-.164-.579-.129,0-.178.4-.178.579v.456h-.953V6.878c0-.767.337-1.71,1.167-1.71.767,0,1.08.915,1.058,1.557v4.221a7.86,7.86,0,0,0,.063,1.193h-.846a2.306,2.306,0,0,1-.147-.412.746.746,0,0,1-.64.515c-.68,0-.719-1.27-.719-1.7a3.141,3.141,0,0,1,.957-2.475,1.416,1.416,0,0,0,.4-.489Zm-.016,2.148a3.042,3.042,0,0,0-.44,1.544c0,.042,0,.517.176.517s.264-.226.264-.462Z" transform="translate(85.119 5.072)" fill="#fff"/>
        <path id="Trazado_1068" data-name="Trazado 1068" d="M89.7,7.026c0-.212-.038-.8-.224-.8-.162,0-.174.452-.174.713a2.976,2.976,0,0,0,.476,1.371,4.328,4.328,0,0,1,.755,2.275c0,.59-.162,1.657-1.143,1.657-1.068,0-1.143-1.167-1.143-2.1h.906c0,.442.061,1.048.238,1.048s.2-.307.2-.83a3.889,3.889,0,0,0-.513-1.482A4.238,4.238,0,0,1,88.372,6.8c0-.88.327-1.631,1.08-1.631,1.034,0,1.108,1.177,1.108,1.857Z" transform="translate(86.62 5.073)" fill="#fff"/>
        <path id="Trazado_1069" data-name="Trazado 1069" d="M35.993,26.135,35.214,29.2H34.082l.589-3.065h-.589V23.518h1.91Z" transform="translate(33.453 23.083)" fill="#fff"/>
        <path id="Trazado_1070" data-name="Trazado 1070" d="M43.909,25.1c-.071,1.369-.686,3.186-2.287,3.186H41.5a1.147,1.147,0,0,0-.141.565c0,.472.589.707.941.8a2.739,2.739,0,0,1,1.415.731,3.365,3.365,0,0,1,.731,2.265c0,1.722-.731,3.3-2.663,3.3a2.293,2.293,0,0,1-2.5-2.5,2.489,2.489,0,0,1,1.227-1.958h.024a1.745,1.745,0,0,1-1.015-1.722,2.9,2.9,0,0,1,.967-1.934,4.8,4.8,0,0,1-.9-2.806V21.512c.026-1.369.567-3.279,2.148-3.279a1.527,1.527,0,0,1,1.462.8,1.894,1.894,0,0,1,1.486-.8v2.124a1.084,1.084,0,0,0-.874.281,2.013,2.013,0,0,1,.1.565ZM41.5,31.959a1.586,1.586,0,0,0-.426,1.084c0,.5.214.9.731.9a.857.857,0,0,0,.874-.872.89.89,0,0,0-.614-.921Zm.589-10.47c0-.521-.046-1.181-.353-1.181-.236,0-.307.709-.307,1.181v3.656c0,.446.071,1.155.307,1.155.307,0,.353-.826.353-1.155Z" transform="translate(38.561 17.896)" fill="#fff"/>
        <path id="Trazado_1071" data-name="Trazado 1071" d="M60.123,26.135,59.344,29.2H58.213l.589-3.065h-.589V23.518h1.91Z" transform="translate(57.138 23.083)" fill="#fff"/>
        <path id="Trazado_1072" data-name="Trazado 1072" d="M67.942,25.1c-.071,1.369-.686,3.186-2.287,3.186h-.119a1.147,1.147,0,0,0-.141.565c0,.472.589.707.941.8a2.739,2.739,0,0,1,1.415.731,3.365,3.365,0,0,1,.731,2.265c0,1.722-.731,3.3-2.663,3.3a2.293,2.293,0,0,1-2.5-2.5,2.489,2.489,0,0,1,1.227-1.958h.024a1.745,1.745,0,0,1-1.015-1.722,2.9,2.9,0,0,1,.967-1.934,4.8,4.8,0,0,1-.9-2.806V21.512c.026-1.369.567-3.279,2.148-3.279a1.527,1.527,0,0,1,1.462.8,1.894,1.894,0,0,1,1.486-.8v2.124a1.084,1.084,0,0,0-.874.281,2.013,2.013,0,0,1,.1.565Zm-2.406,6.864a1.586,1.586,0,0,0-.426,1.084c0,.5.214.9.731.9a.857.857,0,0,0,.874-.872.89.89,0,0,0-.614-.921Zm.589-10.47c0-.521-.046-1.181-.353-1.181-.236,0-.307.709-.307,1.181v3.656c0,.446.071,1.155.307,1.155.307,0,.353-.826.353-1.155Z" transform="translate(62.15 17.896)" fill="#fff"/>
        <path id="Trazado_1073" data-name="Trazado 1073" d="M87.917,30.194c0,1.793-.565,3.513-2.356,3.513-1.841,0-2.382-1.863-2.382-3.513V19.509c0-1.791.612-3.513,2.382-3.513,1.886,0,2.356,2.1,2.356,3.513ZM85.961,19.509c0-.541-.119-1.036-.377-1.036s-.4.472-.4,1.036V30.194c0,.636.188,1.038.4,1.038.236,0,.377-.5.377-1.038Z" transform="translate(81.643 15.7)" fill="#fff"/>
        <path id="Trazado_1074" data-name="Trazado 1074" d="M93.039,25.1c-.071,1.369-.686,3.186-2.287,3.186h-.119a1.147,1.147,0,0,0-.141.565c0,.472.589.707.941.8a2.739,2.739,0,0,1,1.415.731,3.365,3.365,0,0,1,.731,2.265c0,1.722-.731,3.3-2.663,3.3a2.293,2.293,0,0,1-2.5-2.5,2.489,2.489,0,0,1,1.227-1.958h.024a1.745,1.745,0,0,1-1.015-1.722,2.9,2.9,0,0,1,.967-1.934,4.8,4.8,0,0,1-.9-2.806V21.512c.026-1.369.567-3.279,2.148-3.279a1.527,1.527,0,0,1,1.462.8,1.894,1.894,0,0,1,1.486-.8v2.124a1.084,1.084,0,0,0-.874.281,2.013,2.013,0,0,1,.1.565Zm-2.406,6.864a1.585,1.585,0,0,0-.426,1.084c0,.5.214.9.731.9a.857.857,0,0,0,.874-.872.89.89,0,0,0-.614-.921Zm.589-10.47c0-.521-.046-1.181-.353-1.181-.236,0-.307.709-.307,1.181v3.656c0,.446.071,1.155.307,1.155.307,0,.353-.826.353-1.155Z" transform="translate(86.784 17.896)" fill="#fff"/>
        <path id="Trazado_1075" data-name="Trazado 1075" d="M109.572,30.194c0,1.793-.565,3.513-2.356,3.513-1.841,0-2.382-1.863-2.382-3.513V19.509c0-1.791.612-3.513,2.382-3.513,1.886,0,2.356,2.1,2.356,3.513Zm-1.956-10.684c0-.541-.119-1.036-.376-1.036s-.4.472-.4,1.036V30.194c0,.636.188,1.038.4,1.038.236,0,.376-.5.376-1.038Z" transform="translate(102.899 15.7)" fill="#fff"/>
        <path id="Trazado_1076" data-name="Trazado 1076" d="M113.365,31.322h-1.7V21.111c0-.5-.119-.8-.355-.8-.212,0-.329.4-.329.85V31.322h-1.865V18.42h1.865v.686a1.726,1.726,0,0,1,1.272-.872.971.971,0,0,1,.9.941,1.816,1.816,0,0,1,1.462-.941c1.179,0,1.179,1.744,1.179,2.522V31.322h-1.724V21.157c0-.5-.093-.85-.353-.85s-.353.569-.353.85Z" transform="translate(107.104 17.897)" fill="#fff"/>
        <path id="Trazado_1077" data-name="Trazado 1077" d="M117.444,25.1c-.071,1.369-.686,3.186-2.287,3.186h-.119a1.147,1.147,0,0,0-.141.565c0,.472.589.707.941.8a2.739,2.739,0,0,1,1.415.731,3.365,3.365,0,0,1,.731,2.265c0,1.722-.731,3.3-2.663,3.3a2.293,2.293,0,0,1-2.5-2.5,2.489,2.489,0,0,1,1.227-1.958h.024a1.745,1.745,0,0,1-1.015-1.722,2.9,2.9,0,0,1,.967-1.934,4.8,4.8,0,0,1-.9-2.806V21.512c.024-1.369.565-3.279,2.146-3.279a1.527,1.527,0,0,1,1.462.8,1.894,1.894,0,0,1,1.486-.8v2.124a1.084,1.084,0,0,0-.874.281,2.013,2.013,0,0,1,.1.565Zm-2.406,6.864a1.585,1.585,0,0,0-.426,1.084c0,.5.214.9.731.9a.857.857,0,0,0,.874-.872.89.89,0,0,0-.614-.921Zm.589-10.47c0-.521-.046-1.181-.353-1.181-.236,0-.307.709-.307,1.181v3.656c0,.446.071,1.155.307,1.155.307,0,.353-.826.353-1.155Z" transform="translate(110.738 17.896)" fill="#fff"/>
        <path id="Trazado_1078" data-name="Trazado 1078" d="M8.489,17.528v1.857A42.107,42.107,0,0,0,6.668,29.726h-1.6A40.133,40.133,0,0,1,6.958,19.6H4.77V17.528Z" transform="translate(4.682 17.204)" fill="#fff"/>
        <path id="Trazado_1079" data-name="Trazado 1079" d="M10.631,17.528v1.857A42.107,42.107,0,0,0,8.81,29.726h-1.6A40.133,40.133,0,0,1,9.1,19.6H6.912V17.528Z" transform="translate(6.784 17.204)" fill="#fff"/>
        <path id="Trazado_1080" data-name="Trazado 1080" d="M11.4,24.376h.038c.252-1.129.68-3.008.929-4.106h1.617L12.9,23.92l1.171,6.256H12.4l-.587-3.961-.406,1.3v2.663H9.867v-13.1H11.4Z" transform="translate(9.685 16.756)" fill="#fff"/>
        <path id="Trazado_1081" data-name="Trazado 1081" d="M15.916,25.157v.349c0,1.886-.333,3.317-1.922,3.317-1.5,0-1.873-1.377-1.873-3.541v-3.4c0-1.712.418-3.273,1.942-3.273,1.655,0,1.865,1.714,1.865,3.069v.489h-1.5v-.6c0-.662-.065-1.02-.371-1.02s-.376.367-.376,1.009v4.308c0,.575.065,1,.376,1s.371-.416.371-1.074v-.638Z" transform="translate(11.897 18.266)" fill="#fff"/>
        <path id="Trazado_1082" data-name="Trazado 1082" d="M18.293,26.4c0,.886.01,1.831.038,2.267H16.878a6.862,6.862,0,0,1-.093-.729,1.146,1.146,0,0,1-1.094.872c-.977,0-1.365-1.391-1.365-2.9v-.182c0-2.536,1.11-3.145,2.3-3.145h.105V21.423c0-.666-.061-.969-.351-.969s-.357.327-.357.906v.23h-1.5v-.153c0-1.72.505-2.826,1.926-2.826,1.266,0,1.847.927,1.847,2.655Zm-1.546-2.13H16.6c-.458,0-.759.315-.759,1.349v.123c0,.686.145,1.04.446,1.04.317,0,.462-.345.462-1.351Z" transform="translate(14.062 18.267)" fill="#fff"/>
        <rect id="Rectángulo_51" data-name="Rectángulo 51" width="1.561" height="13.102" transform="translate(33.266 33.829)" fill="#fff"/>
        <path id="Trazado_1083" data-name="Trazado 1083" d="M34.027,33.252V29.445H31.1V26.962l1.936-10.183h2.941V26.821h.7l-.137,2.624h-.565v3.807Zm0-8.3c0-1.809.079-3.914.1-5.358H34.07c-.323,2.2-.733,5-1.1,7.233h1.056Z" transform="translate(30.522 16.469)" fill="#fff"/>
        <path id="Trazado_1084" data-name="Trazado 1084" d="M40.675,21.135v7.807c0,2.564-.592,4.645-2.764,4.645-2.1,0-2.645-2.154-2.645-4.629V21.276c0-2.972.947-4.613,2.717-4.613s2.693,1.653,2.693,4.472m-3.349-.26v8.457c0,.957.172,1.5.64,1.5s.628-.587.628-1.552V20.826c0-.822-.147-1.409-.628-1.409-.456,0-.64.547-.64,1.458" transform="translate(34.614 16.355)" fill="#fff"/>
        <path id="Trazado_1085" data-name="Trazado 1085" d="M45.47,9.341a31.969,31.969,0,0,0-45.165,0A1.039,1.039,0,0,0,0,10.078V69.47a1.042,1.042,0,0,0,.305.737,31.973,31.973,0,0,0,45.165,0,1.036,1.036,0,0,0,.307-.737V10.078a1.033,1.033,0,0,0-.307-.737M20.945,68.957h-.426v2.859H19.056V68.957h-2.2V67.093l1.454-7.651h2.209v7.544h.527Zm.505-5.3V61.572c0-1.486.493-2.3,1.4-2.3s1.385.921,1.385,2.32v1.964c0,1.613-.5,2.429-1.393,2.429-.824,0-1.383-.66-1.393-2.322m.872,8.156,3.755-12.375h.747L23.061,71.817Zm5.4-2.277c0,1.613-.5,2.429-1.391,2.429-.848,0-1.383-.672-1.391-2.322V67.558c0-1.443.491-2.3,1.4-2.3s1.383.884,1.383,2.32Zm15.967-.507a29.909,29.909,0,0,1-2.4,2.085,18.4,18.4,0,0,0-36.8.012,30.282,30.282,0,0,1-2.412-2.1V10.516a29.882,29.882,0,0,1,41.6,0Z" transform="translate(0 0)" fill="#fff"/>
        <path id="Trazado_1086" data-name="Trazado 1086" d="M13.467,33.654c-.26,0-.351.275-.351.775v2.239c0,.5.1.787.343.787.26,0,.337-.313.337-.82V34.391c0-.511-.107-.737-.329-.737" transform="translate(12.874 33.032)" fill="#fff"/>
        <path id="Trazado_1087" data-name="Trazado 1087" d="M12.035,33.614V31.383c0-.511-.107-.749-.329-.749-.262,0-.351.275-.351.775v2.237c0,.5.1.787.341.787.26,0,.339-.311.339-.818" transform="translate(11.145 30.068)" fill="#fff"/>
        <path id="Trazado_1088" data-name="Trazado 1088" d="M9.217,36.5h.793V35.089c0-1.359.059-2.939.073-4.025h-.04c-.244,1.655-.551,3.757-.826,5.431" transform="translate(9.047 30.49)" fill="#fff"/>
        <path id="Trazado_1089" data-name="Trazado 1089" d="M36.61,33.619V31.388c0-.511-.107-.749-.329-.749-.26,0-.351.275-.351.775v2.237c0,.5.1.787.341.787.262,0,.339-.311.339-.818" transform="translate(35.267 30.073)" fill="#fff"/>
        <path id="Trazado_1090" data-name="Trazado 1090" d="M38.042,33.659c-.26,0-.351.275-.351.775v2.239c0,.5.1.787.343.787.26,0,.337-.313.337-.82V34.4c0-.511-.107-.737-.329-.737" transform="translate(36.995 33.037)" fill="#fff"/>
        <path id="Trazado_1091" data-name="Trazado 1091" d="M70.118,9.341a31.969,31.969,0,0,0-45.165,0,1.039,1.039,0,0,0-.305.737V69.47a1.042,1.042,0,0,0,.305.737,31.973,31.973,0,0,0,45.165,0,1.036,1.036,0,0,0,.307-.737V10.078a1.033,1.033,0,0,0-.307-.737M45.187,61.334a42.706,42.706,0,0,0-1.845,10.492H41.721a40.718,40.718,0,0,1,1.912-10.268H41.412V59.452h3.775Zm.767,2.336V61.582c0-1.486.493-2.3,1.4-2.3s1.383.921,1.383,2.32v1.964c0,1.613-.5,2.429-1.393,2.429-.822,0-1.381-.66-1.391-2.322m.872,8.156L50.58,59.452h.747L47.564,71.827Zm5.4-2.277c0,1.613-.5,2.429-1.391,2.429-.848,0-1.383-.674-1.391-2.324V67.568c0-1.443.491-2.3,1.4-2.3s1.383.884,1.383,2.32Zm16.112-.517a29.909,29.909,0,0,1-2.4,2.085,18.4,18.4,0,0,0-36.8.012,30.282,30.282,0,0,1-2.412-2.1V10.516a29.882,29.882,0,0,1,41.6,0Z" transform="translate(24.193 0)" fill="#fff"/>
        <path id="Trazado_1092" data-name="Trazado 1092" d="M63.208,34.343c-.26,0-.351.275-.351.775v2.239c0,.5.1.787.343.787.26,0,.337-.313.337-.82V35.08c0-.511-.107-.737-.329-.737" transform="translate(61.697 33.708)" fill="#fff"/>
        <path id="Trazado_1093" data-name="Trazado 1093" d="M94.5,9.341a31.972,31.972,0,0,0-45.167,0,1.039,1.039,0,0,0-.305.737V69.47a1.042,1.042,0,0,0,.305.737,31.975,31.975,0,0,0,45.167,0,1.044,1.044,0,0,0,.307-.737V10.078a1.041,1.041,0,0,0-.307-.737M71.13,73.182H67.341v-.3a12.441,12.441,0,0,1,1.342-5.6,6.685,6.685,0,0,0,.931-3.371c0-.915-.061-1.314-.42-1.314-.321,0-.436.4-.436,1.227v.735H67.331v-.672c0-1.476.291-3.258,1.938-3.258,1.474,0,1.908,1.4,1.908,3.3A8.738,8.738,0,0,1,70,68.331a8.7,8.7,0,0,0-.906,2.77H71.32Zm.763-8.156V62.937c0-1.486.493-2.3,1.4-2.3s1.385.921,1.385,2.32v1.964c0,1.611-.5,2.427-1.395,2.427-.822,0-1.381-.66-1.391-2.32m.872,8.156L76.52,60.807h.747L73.5,73.182Zm5.4-2.279c0,1.615-.5,2.431-1.391,2.431-.848,0-1.383-.674-1.391-2.324V68.922c0-1.441.491-2.3,1.4-2.3s1.383.886,1.383,2.32Zm14.552-1.871a29.829,29.829,0,0,1-2.4,2.083,18.4,18.4,0,0,0-36.8.014,30.335,30.335,0,0,1-2.415-2.1V10.516a29.884,29.884,0,0,1,41.608,0Z" transform="translate(48.121 0)" fill="#fff"/>
        <path id="Trazado_1094" data-name="Trazado 1094" d="M61.776,34.3V32.071c0-.511-.107-.749-.329-.749-.262,0-.351.275-.351.775v2.237c0,.5.1.787.341.787.26,0,.339-.311.339-.818" transform="translate(59.968 30.743)" fill="#fff"/>
        <path id="Trazado_1095" data-name="Trazado 1095" d="M110.969,34.007V31.776c0-.511-.107-.749-.329-.749-.262,0-.351.275-.351.775v2.237c0,.5.1.787.341.787.26,0,.339-.311.339-.818" transform="translate(108.253 30.454)" fill="#fff"/>
        <path id="Trazado_1096" data-name="Trazado 1096" d="M108.639,31.349c-.343,0-.48.41-.48,1.1V38.8c0,.717.129,1.127.48,1.127s.472-.44.472-1.165V32.407c0-.616-.107-1.058-.472-1.058" transform="translate(106.162 30.77)" fill="#fff"/>
        <path id="Trazado_1097" data-name="Trazado 1097" d="M143.679,9.339a31.983,31.983,0,0,0-45.167,0,1.047,1.047,0,0,0-.305.737V69.468a1.051,1.051,0,0,0,.305.737,31.975,31.975,0,0,0,45.167,0,1.044,1.044,0,0,0,.307-.737V10.076a1.041,1.041,0,0,0-.307-.737M120.446,69.272c0,1.926-.448,3.489-2.079,3.489-1.581,0-1.987-1.619-1.987-3.478V63.512c0-2.231.709-3.464,2.039-3.464s2.027,1.24,2.027,3.359Zm.652-4.833V62.351c0-1.486.493-2.3,1.4-2.3s1.383.921,1.383,2.32v1.964c0,1.611-.5,2.427-1.393,2.427-.822,0-1.381-.66-1.391-2.32m.87,8.156,3.757-12.375h.747L122.707,72.6Zm5.4-2.279c0,1.615-.5,2.431-1.391,2.431-.848,0-1.383-.674-1.391-2.324V68.335c0-1.441.491-2.3,1.4-2.3s1.383.886,1.383,2.32ZM141.9,69.03a30.256,30.256,0,0,1-2.4,2.085,18.4,18.4,0,0,0-36.8.012,30.307,30.307,0,0,1-2.414-2.1V10.514a29.891,29.891,0,0,1,41.606,0Z" transform="translate(96.394 0.002)" fill="#fff"/>
        <path id="Trazado_1098" data-name="Trazado 1098" d="M112.4,34.048c-.26,0-.351.275-.351.775v2.239c0,.5.1.787.343.787.26,0,.337-.313.337-.82V34.785c0-.511-.107-.737-.329-.737" transform="translate(109.981 33.419)" fill="#fff"/>
        <path id="Trazado_1099" data-name="Trazado 1099" d="M119.033,9.341a31.969,31.969,0,0,0-45.165,0,1.047,1.047,0,0,0-.305.737V69.47a1.051,1.051,0,0,0,.305.737,31.939,31.939,0,0,0,45.165,0,1.044,1.044,0,0,0,.307-.737V10.078a1.041,1.041,0,0,0-.307-.737M100.552,68.389h-9V66.308h9Zm16.7.646a30.784,30.784,0,0,1-2.394,2.083,18.4,18.4,0,0,0-36.8.012,30.47,30.47,0,0,1-2.414-2.1V10.516a29.882,29.882,0,0,1,41.6,0Z" transform="translate(72.205 0)" fill="#fff"/>
        <path id="Trazado_1100" data-name="Trazado 1100" d="M60.6,20.881v7.807c0,2.564-.592,4.645-2.764,4.645-2.1,0-2.645-2.154-2.645-4.629V21.022c0-2.972.947-4.613,2.717-4.613S60.6,18.062,60.6,20.881m-3.349-.26v8.457c0,.957.172,1.5.64,1.5s.628-.587.628-1.552V20.572c0-.822-.147-1.409-.628-1.409-.456,0-.64.547-.64,1.458" transform="translate(54.17 16.105)" fill="#fff"/>
        <path id="Trazado_1101" data-name="Trazado 1101" d="M62.269,33V29.191H59.338V26.708l1.936-10.183h2.939V26.567h.7l-.137,2.624h-.567V33Zm0-8.3c0-1.809.077-3.914.1-5.358H62.31c-.323,2.2-.733,5-1.1,7.233h1.056Z" transform="translate(58.242 16.219)" fill="#fff"/>
        <path id="Trazado_1102" data-name="Trazado 1102" d="M82.331,10.447H81.5V9.008h2.766v1.439h-.838v7.017h-1.1Z" transform="translate(79.994 8.841)" fill="#fff"/>
        <path id="Trazado_1103" data-name="Trazado 1103" d="M82.906,12.224c0-1.143,0-1.69-.012-2.267h1.048c.012.137.032.7.032,1,.162-.777.523-1.092.943-1.1v1.956c-.531,0-.912.145-.912,1.276v3.541h-1.1Z" transform="translate(81.364 9.675)" fill="#fff"/>
        <path id="Trazado_1104" data-name="Trazado 1104" d="M86.82,15.1c0,.6.006,1.234.024,1.526H85.821c-.026-.111-.055-.388-.065-.491a.8.8,0,0,1-.769.589c-.69,0-.961-.937-.961-1.956v-.125c0-1.708.781-2.116,1.619-2.116h.073v-.779c0-.448-.042-.652-.246-.652s-.252.22-.252.61v.155H84.163v-.1c0-1.159.357-1.9,1.357-1.9.89,0,1.3.626,1.3,1.789Zm-1.09-1.435h-.105c-.323,0-.533.21-.533.908v.083c0,.462.1.7.313.7s.325-.234.325-.912Z" transform="translate(82.475 9.674)" fill="#fff"/>
        <path id="Trazado_1105" data-name="Trazado 1105" d="M85.762,11.957c0-1.191,0-1.752-.012-2H86.8c.02.174.034.4.038.565a.913.913,0,0,1,.842-.666c.6,0,.921.573.921,1.734V16.63h-1.1v-4.7c0-.452-.1-.666-.3-.666-.248,0-.345.206-.345.866v4.5h-1.1Z" transform="translate(84.167 9.674)" fill="#fff"/>
        <path id="Trazado_1106" data-name="Trazado 1106" d="M88.481,14.469v.313c0,.369.052.674.281.674.168,0,.254-.159.254-.515s-.061-.614-.592-1.116a2.456,2.456,0,0,1-.943-2.083c0-1.219.454-1.884,1.288-1.884,1,0,1.284.816,1.284,1.946v.285H89.038v-.4c0-.422-.079-.571-.244-.571s-.238.178-.238.483.093.468.48.822a2.673,2.673,0,0,1,1.084,2.293c0,1.306-.39,2.025-1.363,2.025-1.151,0-1.33-1.06-1.33-2.021v-.248Z" transform="translate(85.813 9.675)" fill="#fff"/>
      </g>
    </g>
  </g>
</svg>
