<svg xmlns="http://www.w3.org/2000/svg" xmlns:xlink="http://www.w3.org/1999/xlink" width="85.907" height="71.644" viewBox="0 0 85.907 71.644"><defs><style>.a{fill:none;}.b{fill:#fff;}.c{clip-path:url(#a);}</style><clipPath id="a"><rect class="a" width="85.907" height="71.644"/></clipPath></defs><path class="b" d="M9.215,4l.318,4.254L9.849,4h.918L10,12.321H9.068L8.3,4Z" transform="translate(6.431 3.101)"/><g class="c"><path class="b" d="M11.1,6.653c0-.19-.046-.52-.147-.52s-.158.362-.158.52v.408H9.931V6.688c0-.692.3-1.537,1.051-1.537.692,0,.974.822.951,1.4v3.8a7.683,7.683,0,0,0,.057,1.077h-.758a2.13,2.13,0,0,1-.137-.373.67.67,0,0,1-.577.461c-.611,0-.644-1.141-.644-1.528a2.831,2.831,0,0,1,.859-2.227A1.244,1.244,0,0,0,11.1,7.32Zm-.011,1.936a2.69,2.69,0,0,0-.4,1.39c0,.035,0,.465.158.465s.238-.2.238-.417Z" transform="translate(7.651 3.991)"/><rect class="b" width="0.895" height="8.317" transform="translate(20.408 7.103)"/><path class="b" d="M14.535,9.924c0,.95-.238,1.594-1.053,1.594-.895,0-1.042-.859-1.042-1.629V6.778c0-.859.227-1.628,1.065-1.628.905,0,1.029.724,1.029,1.6Zm-.848-3.259c.011-.282-.012-.522-.193-.522-.158,0-.2.215-.2.522V10c-.012.248.034.509.192.509.181,0,.215-.41.2-.509Z" transform="translate(9.64 3.99)"/><path class="b" d="M15.625,6.509c-.531-.307-.758.135-.758.621v4.3H14V5.24h.871V5.58a.85.85,0,0,1,.758-.431Z" transform="translate(10.845 3.99)"/><path class="b" d="M4.728,9.168H6.606v1.257H5.667v2.181h.68v1.335h-.68v2.288h.939v1.257H4.728Z" transform="translate(3.664 7.104)"/><path class="b" d="M7.1,16.6H6.206V10.407H7.1v.316a.978.978,0,0,1,.6-.406c.564,0,.611.838.611,1.21V16.6H7.429V11.708c0-.238-.057-.4-.17-.4s-.158.17-.158.406Z" transform="translate(4.809 7.993)"/><path class="b" d="M9.872,14.377v.781c0,.8-.248,1.528-1.12,1.528-.792,0-.985-.85-.985-1.562V11.9c0-.735.282-1.581,1.042-1.581.95,0,1.063.838,1.063,1.549V13.71H8.638v1.347c0,.247.044.621.17.621.181,0,.215-.406.215-.621v-.68Zm-1.234-1.56h.385v-.871c0-.305-.034-.635-.227-.635-.147,0-.158.453-.158.635Z" transform="translate(6.019 7.993)"/><path class="b" d="M10.951,11.673c-.531-.305-.758.137-.758.623v4.3H9.322V10.406h.871v.341a.853.853,0,0,1,.758-.431Z" transform="translate(7.224 7.993)"/><path class="b" d="M12.662,13.607c-.034.657-.328,1.528-1.1,1.528h-.057a.553.553,0,0,0-.069.27c0,.227.284.341.454.385a1.328,1.328,0,0,1,.678.35,1.621,1.621,0,0,1,.351,1.088c0,.825-.351,1.583-1.28,1.583a1.1,1.1,0,0,1-1.2-1.2,1.194,1.194,0,0,1,.589-.939h.011a.836.836,0,0,1-.486-.825,1.391,1.391,0,0,1,.463-.926,2.3,2.3,0,0,1-.43-1.347V11.888c.012-.657.272-1.573,1.029-1.573a.734.734,0,0,1,.7.383.911.911,0,0,1,.712-.383v1.019a.52.52,0,0,0-.419.137.94.94,0,0,1,.046.27ZM11.508,16.9a.763.763,0,0,0-.2.52c0,.238.1.431.35.431a.411.411,0,0,0,.419-.419.428.428,0,0,0-.293-.442Zm.282-5.023c0-.25-.023-.566-.17-.566-.112,0-.146.339-.146.566v1.754c0,.215.034.554.146.554.147,0,.17-.4.17-.554Z" transform="translate(8.092 7.993)"/><path class="b" d="M14.288,15.227v.781c0,.8-.248,1.528-1.12,1.528-.792,0-.985-.85-.985-1.562V12.747c0-.735.282-1.581,1.042-1.581.95,0,1.063.838,1.063,1.549V14.56H13.054v1.347c0,.247.046.621.17.621.181,0,.215-.406.215-.621v-.68Zm-.181-6.008-.543,1.017H12.84L13.2,9.219Zm-1.053,4.448h.385V12.8c0-.305-.034-.635-.227-.635-.147,0-.158.453-.158.635Z" transform="translate(9.441 7.143)"/><path class="b" d="M14.881,9.506v1.526h.476v1.029h-.476v5.161h-.871V12.062h-.373V11.032h.373V9.506Z" transform="translate(10.567 7.366)"/><path class="b" d="M14.948,9.168h.895v1.145h-.895Zm0,2.126h.895v6.187h-.895Z" transform="translate(11.583 7.104)"/><path class="b" d="M16.754,15.169c0,.227.057.486.17.486s.181-.112.181-.486V14.31h.859v.714c-.011.87-.08,1.661-1.076,1.661-.882,0-1.029-1.074-1.029-1.718V12.034c.012-.712.192-1.718,1.053-1.718,1.019,0,1.053.859,1.053,1.663v.6H17.1v-.815c0-.375-.069-.453-.17-.453s-.181.225-.181.453Z" transform="translate(12.289 7.993)"/><path class="b" d="M19.464,15.089c0,.951-.24,1.6-1.054,1.6-.893,0-1.04-.859-1.04-1.629V11.944c0-.859.225-1.628,1.063-1.628.905,0,1.031.724,1.031,1.6Zm-.85-3.257c.012-.282-.011-.522-.192-.522-.158,0-.2.215-.2.522v3.337c-.011.25.034.509.192.509.181,0,.217-.408.2-.509Z" transform="translate(13.46 7.993)"/><path class="b" d="M4.185,19.474c.02-1.34.568-3.026,2.153-3.026,1.626,0,1.91,1.97,1.91,3.026V28.29C8.226,29.754,7.964,31.7,6.237,31.7c-1.787,0-1.991-2.194-1.991-3.411V27.234H5.871c0,.671,0,2.559.366,2.559.325,0,.325-1.321.325-1.5V25.527a.937.937,0,0,1-.71.346c-1.565,0-1.667-1.686-1.667-2.742Zm2.377-.243c0-.286-.06-.875-.366-.875-.325,0-.385.589-.385.875V23.5c0,.183.06.669.385.669.305,0,.346-.385.366-.607Z" transform="translate(3.243 12.745)"/><path class="b" d="M11.015,28.678c0,1.542-.488,3.024-2.03,3.024C7.4,31.7,6.931,30.1,6.931,28.678v-9.2c0-1.542.529-3.026,2.054-3.026,1.624,0,2.03,1.807,2.03,3.026Zm-1.686-9.2c0-.467-.1-.895-.325-.895s-.344.41-.344.895v9.2c0,.547.162.891.344.891.2,0,.325-.426.325-.891Z" transform="translate(5.371 12.744)"/><path class="b" d="M11.816,16.538v6.136l.753-2.316h1.542l-1.361,3.82,1.322,7.293H12.527l-.712-4.714V31.47H10.272V16.538Z" transform="translate(7.959 12.815)"/><path class="b" d="M14.234,27.314c0,.406.1.873.3.873s.325-.2.325-.873V25.77h1.546v1.28c-.021,1.564-.142,2.985-1.931,2.985-1.583,0-1.848-1.929-1.848-3.087V21.686c.02-1.28.344-3.087,1.888-3.087,1.828,0,1.89,1.544,1.89,2.985v1.077H14.862V21.2c0-.669-.121-.813-.3-.813s-.325.406-.325.813Z" transform="translate(9.786 14.412)"/><path class="b" d="M17.193,21.3c0-.344-.082-.934-.264-.934-.2,0-.284.65-.284.934v.731H15.1v-.671c0-1.239.548-2.762,1.888-2.762,1.239,0,1.746,1.48,1.707,2.519v6.824a13.532,13.532,0,0,0,.1,1.931H17.436a3.829,3.829,0,0,1-.243-.671,1.2,1.2,0,0,1-1.037.832c-1.1,0-1.159-2.05-1.159-2.74a5.078,5.078,0,0,1,1.546-4,2.264,2.264,0,0,0,.65-.792Zm-.021,3.473a4.851,4.851,0,0,0-.71,2.5c0,.06,0,.832.284.832.264,0,.426-.366.426-.753Z" transform="translate(11.621 14.412)"/><rect class="b" width="1.605" height="14.932" transform="translate(31.391 29.353)"/><path class="b" d="M40.94,8.424a28.75,28.75,0,0,0-40.665,0A.934.934,0,0,0,0,9.087v53.47a.941.941,0,0,0,.275.664,28.754,28.754,0,0,0,40.665,0,.941.941,0,0,0,.275-.664V9.087a.934.934,0,0,0-.275-.664m-24.494,55.2c.078.233.2.343.406.343a.42.42,0,0,0,.387-.328,4.028,4.028,0,0,0,.124-1.2V59.9c0-.481-.17-.84-.529-.84a.621.621,0,0,0-.467.311,1.08,1.08,0,0,0-.186.529H14.767V53.879h4.057v1.665H16.214V57.92a2.154,2.154,0,0,1,.621-.341.658.658,0,0,1,.343-.046,1.646,1.646,0,0,1,1.585,1.042,3.446,3.446,0,0,1,.28,1.321v2.549a4.39,4.39,0,0,1-.327,1.881,1.9,1.9,0,0,1-1.864,1.1,1.826,1.826,0,0,1-1.867-1.166,5.885,5.885,0,0,1-.327-2.284h1.679v.449a4.2,4.2,0,0,0,.108,1.2m9.918.481a1.416,1.416,0,0,1-.513,1.12.992.992,0,0,1-.683.2,1.106,1.106,0,0,1-1.072-.653,1.461,1.461,0,0,1-.142-.669V60.8a1.4,1.4,0,0,1,.515-1.134,1.019,1.019,0,0,1,.7-.2,1.083,1.083,0,0,1,1.04.667,1.8,1.8,0,0,1,.156.667Zm-4.961,1.2H20.365l4.2-11.427h1Zm.591-6.919a1.451,1.451,0,0,1-.511,1.136,1.007,1.007,0,0,1-.683.2,1.074,1.074,0,0,1-1.072-.666,1.469,1.469,0,0,1-.14-.671v-3.31a1.381,1.381,0,0,1,.513-1.122,1.022,1.022,0,0,1,.7-.2,1.091,1.091,0,0,1,1.042.669,1.638,1.638,0,0,1,.153.653Zm17.341,3.777a27.2,27.2,0,0,1-2.614,2.206c0-.064.009-.126.009-.192a16.568,16.568,0,0,0-33.128-.5c-.589-.483-1.17-.982-1.722-1.519V9.48a26.87,26.87,0,0,1,37.456,0Z" transform="translate(0 0)"/><path class="b" d="M11.843,30.794c-.172,0-.218.11-.264.218a.443.443,0,0,0-.016.2v3.312c-.014.17.016.419.28.419.233,0,.264-.248.264-.419V31.215A.654.654,0,0,0,12,30.856a.167.167,0,0,0-.156-.062" transform="translate(8.955 23.862)"/><path class="b" d="M14.3,34.018c-.17,0-.217.11-.264.217a.443.443,0,0,0-.016.2v3.312a.441.441,0,0,0,.11.359.2.2,0,0,0,.17.078c.14,0,.186-.11.233-.218a.91.91,0,0,0,.032-.218V34.437a.635.635,0,0,0-.11-.357.162.162,0,0,0-.154-.062" transform="translate(10.862 26.36)"/><path class="b" d="M34.7,8.664c0-.295,0-1.212-.181-1.212-.135,0-.158.341-.158.827a5.731,5.731,0,0,0,.556,1.959,6.933,6.933,0,0,1,.712,2.611c0,.793-.147,1.981-1.12,1.981-1.187,0-1.166-1.651-1.166-2.41l.918-.137c0,.263,0,1.429.248,1.429.17,0,.192-.275.192-.8a6.637,6.637,0,0,0-.745-2.49,6.818,6.818,0,0,1-.509-2.139c0-.722.146-1.924,1.053-1.945,1.086-.023,1.131,1.5,1.131,2.194Z" transform="translate(25.837 4.907)"/><path class="b" d="M37.1,12.305c0,.95-.238,1.594-1.053,1.594-.895,0-1.04-.857-1.04-1.629V9.159c0-.859.225-1.628,1.063-1.628.905,0,1.029.726,1.029,1.6Zm-.848-3.259c.011-.282-.011-.52-.192-.52-.16,0-.2.213-.2.52v3.339c-.011.248.034.509.192.509.181,0,.215-.41.2-.509Z" transform="translate(27.131 5.835)"/><path class="b" d="M38.666,14.7h-.895v-.337a.853.853,0,0,1-.644.428c-.554,0-.5-.77-.509-1.21V9.631c0-.511.114-1.21.69-1.21a.617.617,0,0,1,.463.348V6.383h.895Zm-.895-4.876c0-.183-.044-.406-.158-.406s-.158.192-.158.406v3.461c0,.225.034.43.158.43s.158-.215.158-.43Z" transform="translate(28.375 4.946)"/><path class="b" d="M38.166,6.383h.895V7.528h-.895Zm0,2.128h.895V14.7h-.895Z" transform="translate(29.575 4.946)"/><path class="b" d="M41.171,12.305c0,.95-.238,1.594-1.053,1.594-.895,0-1.042-.857-1.042-1.629V9.159c0-.859.227-1.628,1.065-1.628.905,0,1.029.726,1.029,1.6Zm-.848-3.259c.011-.282-.012-.52-.193-.52-.158,0-.2.213-.2.52v3.339c-.012.248.034.509.192.509.181,0,.215-.41.2-.509Z" transform="translate(30.281 5.835)"/><path class="b" d="M30.615,17.863V16.5a2.577,2.577,0,0,0,1.138-1.1,3.956,3.956,0,0,0,.264-.77h1.157v14.93H31.488v-11.7Z" transform="translate(23.723 11.339)"/><path class="b" d="M36.63,19.824a2.214,2.214,0,0,1-.793,1.931,2.369,2.369,0,0,1,.854,2.132v3.17c0,1.258-.548,2.742-1.99,2.742-1.484,0-1.991-1.6-1.991-2.742v-3.17a2.771,2.771,0,0,1,.854-2.132,2.414,2.414,0,0,1-.793-1.931V16.94c0-1.157.611-2.4,1.931-2.4,1.422,0,1.929,1.321,1.929,2.4Zm-1.585-2.581c0-.424-.1-.832-.344-.832s-.346.408-.346.832V20.25c0,.387.183.671.346.671s.344-.284.344-.671V17.243Zm0,6.5c0-.426-.1-.85-.344-.85s-.346.424-.346.85v3.413c0,.387.183.671.346.671s.344-.284.344-.671V23.745Z" transform="translate(25.346 11.268)"/><path class="b" d="M40.243,27.969H38.781v-8.8c0-.426-.1-.692-.305-.692-.183,0-.284.348-.284.733v8.756h-1.6V16.856h1.6v.589a1.5,1.5,0,0,1,1.1-.753.837.837,0,0,1,.772.813,1.575,1.575,0,0,1,1.26-.813c1.015,0,1.015,1.505,1.015,2.174v9.1H40.854V19.213c0-.428-.082-.733-.305-.733s-.305.49-.305.733Z" transform="translate(28.351 12.935)"/><path class="b" d="M44.081,22.605c-.06,1.179-.589,2.742-1.97,2.742h-.1a1.015,1.015,0,0,0-.121.486c0,.408.506.611.811.692a2.348,2.348,0,0,1,1.219.628,2.9,2.9,0,0,1,.63,1.951c0,1.484-.63,2.845-2.3,2.845A1.977,1.977,0,0,1,40.1,29.8a2.133,2.133,0,0,1,1.056-1.683h.021a1.505,1.505,0,0,1-.875-1.484,2.482,2.482,0,0,1,.834-1.667,4.127,4.127,0,0,1-.772-2.419V19.519c.02-1.179.488-2.826,1.849-2.826a1.314,1.314,0,0,1,1.258.692,1.635,1.635,0,0,1,1.28-.692v1.828a.949.949,0,0,0-.753.243,1.753,1.753,0,0,1,.082.488Zm-2.071,5.91a1.369,1.369,0,0,0-.366.935c0,.426.183.772.63.772a.737.737,0,0,0,.751-.753.768.768,0,0,0-.527-.792Zm.508-9.018c0-.447-.039-1.017-.3-1.017-.2,0-.264.611-.264,1.017v3.147c0,.387.06,1,.264,1,.264,0,.3-.708.3-1Z" transform="translate(31.073 12.935)"/><path class="b" d="M66.12,8.424a28.752,28.752,0,0,0-40.666,0,.934.934,0,0,0-.275.664v53.47a.941.941,0,0,0,.275.664,28.791,28.791,0,0,0,40.666,0,.935.935,0,0,0,.277-.664V9.087a.929.929,0,0,0-.277-.664M40.654,56.351V55.279a2.578,2.578,0,0,0,1.415-.809,2.612,2.612,0,0,0,.373-.591h1.012V65.305H41.774V56.351ZM50.99,64.107a1.409,1.409,0,0,1-.511,1.12,1,1,0,0,1-.683.2,1.106,1.106,0,0,1-1.072-.653,1.461,1.461,0,0,1-.142-.669V60.8a1.4,1.4,0,0,1,.515-1.134,1.019,1.019,0,0,1,.7-.2,1.09,1.09,0,0,1,1.042.667,1.8,1.8,0,0,1,.153.667Zm-4.959,1.2H44.992l4.2-11.427h1Zm.591-6.919a1.447,1.447,0,0,1-.513,1.136,1,1,0,0,1-.682.2,1.073,1.073,0,0,1-1.072-.666,1.446,1.446,0,0,1-.14-.671v-3.31a1.381,1.381,0,0,1,.513-1.122,1.019,1.019,0,0,1,.7-.2,1.093,1.093,0,0,1,1.042.669,1.638,1.638,0,0,1,.153.653Zm17.9,3.777a27,27,0,0,1-2.156,1.876,16.565,16.565,0,0,0-33.128.011,27.073,27.073,0,0,1-2.174-1.887V9.48a26.874,26.874,0,0,1,37.459,0Z" transform="translate(19.511 0)"/><path class="b" d="M36.711,30.794c-.172,0-.218.11-.264.218a.443.443,0,0,0-.016.2v3.312c-.014.17.016.419.28.419.233,0,.264-.248.264-.419V31.215a.654.654,0,0,0-.108-.359.167.167,0,0,0-.156-.062" transform="translate(28.225 23.862)"/><path class="b" d="M39.172,34.018c-.17,0-.217.11-.264.217a.443.443,0,0,0-.016.2v3.312a.441.441,0,0,0,.11.359.2.2,0,0,0,.17.078c.14,0,.186-.11.233-.218a.91.91,0,0,0,.032-.218V34.437a.635.635,0,0,0-.11-.357.162.162,0,0,0-.154-.062" transform="translate(30.132 26.36)"/></g></svg>