<svg xmlns="http://www.w3.org/2000/svg" width="20" height="20" viewBox="0 0 20 20"><defs><style>.a{fill:#727272;}</style></defs><path class="a" d="M169.965,222.138c2.67,0,2.986.01,4.041.059a5.52,5.52,0,0,1,1.857.344,3.314,3.314,0,0,1,1.9,1.9,5.531,5.531,0,0,1,.344,1.857c.048,1.055.058,1.371.058,4.041s-.01,2.986-.058,4.041a5.537,5.537,0,0,1-.344,1.857,3.315,3.315,0,0,1-1.9,1.9,5.517,5.517,0,0,1-1.857.344c-1.054.048-1.371.058-4.041.058s-2.986-.01-4.041-.058a5.516,5.516,0,0,1-1.857-.344,3.315,3.315,0,0,1-1.9-1.9,5.549,5.549,0,0,1-.344-1.857c-.048-1.054-.058-1.371-.058-4.041s.01-2.987.058-4.041a5.543,5.543,0,0,1,.344-1.857,3.314,3.314,0,0,1,1.9-1.9,5.518,5.518,0,0,1,1.857-.344c1.055-.048,1.371-.059,4.041-.059m0-1.8c-2.716,0-3.056.012-4.123.06a7.334,7.334,0,0,0-2.427.465,5.11,5.11,0,0,0-2.925,2.924,7.328,7.328,0,0,0-.465,2.427c-.049,1.067-.061,1.407-.061,4.123s.012,3.056.061,4.123a7.327,7.327,0,0,0,.465,2.427,5.113,5.113,0,0,0,2.925,2.925,7.329,7.329,0,0,0,2.427.465c1.067.049,1.407.06,4.123.06s3.056-.012,4.123-.06a7.332,7.332,0,0,0,2.427-.465,5.113,5.113,0,0,0,2.925-2.925,7.327,7.327,0,0,0,.465-2.427c.049-1.067.061-1.407.061-4.123s-.012-3.056-.061-4.123a7.328,7.328,0,0,0-.465-2.427,5.11,5.11,0,0,0-2.925-2.924,7.337,7.337,0,0,0-2.427-.465c-1.067-.049-1.407-.06-4.123-.06m0,4.865a5.135,5.135,0,1,0,5.135,5.135,5.135,5.135,0,0,0-5.135-5.135m0,8.468a3.333,3.333,0,1,1,3.333-3.333,3.334,3.334,0,0,1-3.333,3.333M176.5,225a1.2,1.2,0,1,0-1.2,1.2,1.2,1.2,0,0,0,1.2-1.2" transform="translate(-159.965 -220.336)"/></svg>