<svg xmlns="http://www.w3.org/2000/svg" width="231.001" height="75.999" viewBox="0 0 231.001 75.999">
  <g id="gigantes_nutri_doy" transform="translate(0 -2.974)" style="mix-blend-mode: lighten;isolation: isolate">
    <path id="Trazado_579" data-name="Trazado 579" d="M16.694,10.455l.339,4.514.337-4.514h.977l-.821,8.821h-.989l-.821-8.821Z" fill="#fff"/>
    <path id="Trazado_580" data-name="Trazado 580" d="M20,14.211c0-.2-.05-.551-.158-.551s-.17.382-.17.551v.432H18.76v-.394c0-.734.324-1.634,1.122-1.634.735,0,1.038.876,1.015,1.486v4.034a8.128,8.128,0,0,0,.059,1.141h-.81a2.177,2.177,0,0,1-.143-.4.718.718,0,0,1-.615.49c-.653,0-.69-1.21-.69-1.62a2.988,2.988,0,0,1,.918-2.364A1.354,1.354,0,0,0,20,14.919Zm-.011,2.054a2.832,2.832,0,0,0-.425,1.475c0,.036,0,.492.17.492s.255-.216.255-.443Z" fill="#fff"/>
    <rect id="Rectángulo_10" data-name="Rectángulo 10" width="0.954" height="8.821" transform="translate(21.778 10.455)" fill="#fff"/>
    <path id="Trazado_581" data-name="Trazado 581" d="M25.8,17.681c0,1.007-.255,1.69-1.124,1.69-.954,0-1.111-.912-1.111-1.726v-3.3c0-.909.242-1.726,1.134-1.726.966,0,1.1.768,1.1,1.692Zm-.909-3.458c.013-.3-.011-.551-.2-.551-.168,0-.219.229-.219.551v3.54c-.011.267.038.539.208.539.192,0,.229-.43.215-.539Z" fill="#fff"/>
    <path id="Trazado_582" data-name="Trazado 582" d="M28.25,14.054c-.568-.324-.808.146-.808.662v4.56h-.928V12.712h.928v.36a.911.911,0,0,1,.808-.456Z" fill="#fff"/>
    <path id="Trazado_583" data-name="Trazado 583" d="M8.946,20.183h2v1.333h-1v2.315h.724v1.416H9.949V27.67h1V29h-2Z" fill="#fff"/>
    <path id="Trazado_584" data-name="Trazado 584" d="M12.7,29h-.954V22.44H12.7v.335a1.045,1.045,0,0,1,.64-.433c.6,0,.653.89.653,1.287V29h-.943V23.819c0-.252-.061-.42-.181-.42s-.17.18-.17.432Z" fill="#fff"/>
    <path id="Trazado_585" data-name="Trazado 585" d="M16.954,26.651v.827c0,.854-.265,1.62-1.195,1.62-.846,0-1.05-.9-1.05-1.656v-3.42c0-.78.3-1.679,1.111-1.679,1.014,0,1.134.888,1.134,1.645v1.955H15.639v1.429c0,.265.046.659.181.659.192,0,.229-.432.229-.659v-.721Zm-1.315-1.656h.41v-.924c0-.322-.036-.672-.242-.672-.156,0-.168.479-.168.672Z" fill="#fff"/>
    <path id="Trazado_586" data-name="Trazado 586" d="M19.393,23.782c-.566-.324-.808.146-.808.662V29h-.93V22.44h.93v.36a.912.912,0,0,1,.808-.458Z" fill="#fff"/>
    <path id="Trazado_587" data-name="Trazado 587" d="M22.146,25.837c-.034.695-.349,1.618-1.17,1.618h-.061a.6.6,0,0,0-.072.29c0,.238.3.36.484.405a1.413,1.413,0,0,1,.724.375,1.7,1.7,0,0,1,.375,1.151c0,.876-.375,1.681-1.366,1.681a1.171,1.171,0,0,1-1.28-1.272,1.265,1.265,0,0,1,.629-1h.011a.887.887,0,0,1-.518-.874,1.471,1.471,0,0,1,.493-.984,2.422,2.422,0,0,1-.459-1.429V24.011c.011-.695.29-1.668,1.1-1.668a.785.785,0,0,1,.751.409.975.975,0,0,1,.76-.409v1.079a.562.562,0,0,0-.448.146,1.013,1.013,0,0,1,.048.29Zm-1.231,3.488a.806.806,0,0,0-.217.555c0,.252.107.456.375.456a.437.437,0,0,0,.446-.445.453.453,0,0,0-.314-.468Zm.3-5.326c0-.263-.025-.6-.183-.6-.12,0-.156.36-.156.6V25.86c0,.229.036.589.156.589.158,0,.183-.422.183-.589Z" fill="#fff"/>
    <path id="Trazado_588" data-name="Trazado 588" d="M25.322,26.651v.827c0,.854-.265,1.62-1.195,1.62-.846,0-1.05-.9-1.05-1.656v-3.42c0-.78.3-1.679,1.113-1.679,1.012,0,1.132.888,1.132,1.645v1.955H24.007v1.429c0,.265.048.659.183.659.191,0,.229-.432.229-.659v-.721Zm-.191-6.371-.581,1.079h-.773l.387-1.079Zm-1.124,4.715h.412v-.924c0-.322-.038-.672-.242-.672-.158,0-.17.479-.17.672Z" fill="#fff"/>
    <path id="Trazado_589" data-name="Trazado 589" d="M27.157,20.817v1.622h.509v1.092h-.509V29h-.926V23.532h-.4V22.439h.4V20.817Z" fill="#fff"/>
    <path id="Trazado_590" data-name="Trazado 590" d="M28.316,22.441h.954v6.564h-.954Zm0-2.258h.954V21.4h-.954Z" fill="#fff"/>
    <path id="Trazado_591" data-name="Trazado 591" d="M31,27.49c0,.24.059.517.181.517s.192-.119.192-.517v-.909h.918v.753c-.011.922-.086,1.764-1.149,1.764-.941,0-1.1-1.139-1.1-1.823v-3.11c.011-.755.2-1.825,1.122-1.825,1.088,0,1.124.914,1.124,1.766v.636h-.918v-.865c0-.4-.072-.479-.181-.479s-.192.24-.192.479Z" fill="#fff"/>
    <path id="Trazado_592" data-name="Trazado 592" d="M35.143,27.408c0,1.007-.255,1.69-1.124,1.69-.954,0-1.111-.912-1.111-1.726v-3.3c0-.91.24-1.728,1.134-1.728.966,0,1.1.77,1.1,1.694Zm-.909-3.458c.013-.3-.011-.551-.2-.551-.17,0-.219.229-.219.551v3.54c-.011.267.038.539.208.539.192,0,.229-.43.215-.539Z" fill="#fff"/>
    <path id="Trazado_593" data-name="Trazado 593" d="M7.92,37.1c.023-1.423.606-3.214,2.3-3.214,1.736,0,2.039,2.092,2.039,3.214v9.354c-.019,1.552-.3,3.621-2.147,3.621-1.909,0-2.126-2.328-2.126-3.621V45.332H9.718c0,.712,0,2.718.392,2.718.347,0,.347-1.4.347-1.6V43.52a1,1,0,0,1-.758.369c-1.671,0-1.779-1.791-1.779-2.909Zm2.538-.259c0-.3-.065-.927-.389-.927-.351,0-.413.625-.413.927v4.526c0,.193.063.712.413.712.324,0,.368-.409.389-.647Z" fill="#fff"/>
    <path id="Trazado_594" data-name="Trazado 594" d="M17.486,46.863c0,1.639-.52,3.212-2.17,3.212-1.694,0-2.191-1.7-2.191-3.212V37.1c0-1.639.564-3.212,2.191-3.212,1.738,0,2.17,1.917,2.17,3.212Zm-1.8-9.763c0-.5-.109-.948-.347-.948s-.368.43-.368.948v9.763c0,.583.173.948.368.948.219,0,.347-.452.347-.948Z" fill="#fff"/>
    <path id="Trazado_595" data-name="Trazado 595" d="M21.105,34.058v6.509l.8-2.457h1.648L22.1,42.163l1.41,7.738H21.865l-.76-5v5H19.457V34.058Z" fill="#fff"/>
    <path id="Trazado_596" data-name="Trazado 596" d="M25.638,47.188c0,.43.109.926.326.926s.347-.216.347-.926V45.547h1.648v1.361c-.023,1.658-.152,3.167-2.059,3.167-1.694,0-1.976-2.048-1.976-3.277V41.217c.021-1.357.368-3.277,2.018-3.277,1.953,0,2.018,1.637,2.018,3.167v1.145H26.31V40.7c0-.71-.131-.861-.326-.861s-.347.43-.347.861Z" fill="#fff"/>
    <path id="Trazado_597" data-name="Trazado 597" d="M30.753,40.808c0-.369-.086-.994-.28-.994-.219,0-.307.689-.307.994v.772H28.518v-.71c0-1.316.589-2.93,2.018-2.93,1.324,0,1.865,1.571,1.823,2.671v7.242a14.172,14.172,0,0,0,.109,2.048H31.012a3.847,3.847,0,0,1-.259-.71,1.28,1.28,0,0,1-1.1.884c-1.175,0-1.24-2.177-1.24-2.909a5.378,5.378,0,0,1,1.65-4.248,2.389,2.389,0,0,0,.693-.84Zm-.019,3.683a5.115,5.115,0,0,0-.76,2.652c0,.066,0,.884.3.884.284,0,.459-.388.459-.8Z" fill="#fff"/>
    <rect id="Rectángulo_11" data-name="Rectángulo 11" width="1.711" height="15.843" transform="translate(33.51 34.057)" fill="#fff"/>
    <path id="Trazado_598" data-name="Trazado 598" d="M203.89,17.314c0-.31,0-1.285-.194-1.285-.143,0-.166.362-.166.878a6.06,6.06,0,0,0,.591,2.075,7.348,7.348,0,0,1,.76,2.773c0,.839-.158,2.1-1.195,2.1-1.269,0-1.246-1.753-1.246-2.559l.979-.142c0,.276,0,1.512.267,1.512.179,0,.2-.288.2-.852a7.01,7.01,0,0,0-.8-2.642,7.223,7.223,0,0,1-.541-2.266c0-.768.156-2.04,1.124-2.065,1.158-.023,1.206,1.6,1.206,2.328Z" fill="#fff"/>
    <path id="Trazado_599" data-name="Trazado 599" d="M207.842,22.163c0,1.007-.253,1.694-1.122,1.694-.954,0-1.113-.914-1.113-1.73v-3.3c0-.91.242-1.728,1.135-1.728.966,0,1.1.77,1.1,1.694Zm-.907-3.456c.013-.3-.011-.553-.2-.553-.17,0-.219.229-.219.553v3.54c-.011.265.036.541.208.541.191,0,.229-.433.215-.541Z" fill="#fff"/>
    <path id="Trazado_600" data-name="Trazado 600" d="M210.837,23.759h-.954V23.4a.912.912,0,0,1-.688.456c-.593,0-.532-.814-.543-1.285V18.383c0-.539.12-1.285.735-1.285a.661.661,0,0,1,.5.373V14.938h.954Zm-.954-5.173c0-.193-.046-.433-.168-.433s-.171.206-.171.433v3.672c0,.24.038.456.171.456s.168-.227.168-.456Z" fill="#fff"/>
    <path id="Trazado_601" data-name="Trazado 601" d="M211.584,17.195h.954v6.566h-.954Zm0-2.254h.954v1.211h-.954Z" fill="#fff"/>
    <path id="Trazado_602" data-name="Trazado 602" d="M215.548,22.163c0,1.007-.255,1.694-1.124,1.694-.954,0-1.113-.914-1.113-1.73v-3.3c0-.91.242-1.728,1.135-1.728.966,0,1.1.77,1.1,1.694Zm-.909-3.456c.013-.3-.011-.553-.2-.553-.17,0-.219.229-.219.553v3.54c-.011.265.038.541.208.541.192,0,.229-.433.215-.541Z" fill="#fff"/>
    <path id="Trazado_603" data-name="Trazado 603" d="M58.349,15.245h1.008a1,1,0,0,1,.937.524,4.068,4.068,0,0,1,.419,2.1A4.228,4.228,0,0,1,60.295,20a1.114,1.114,0,0,1-.951.5v3.507h-.994Zm.994,3.947a.339.339,0,0,0,.312-.142,3.424,3.424,0,0,0,.1-1.134,4.348,4.348,0,0,0-.1-1.251c-.059-.131-.2-.131-.312-.131Z" fill="#fff"/>
    <path id="Trazado_604" data-name="Trazado 604" d="M63,18.82c-.564-.322-.8.144-.8.659v4.53h-.924V17.486h.924v.356a.909.909,0,0,1,.8-.452Z" fill="#fff"/>
    <path id="Trazado_605" data-name="Trazado 605" d="M65.543,22.423c0,1-.251,1.683-1.116,1.683-.949,0-1.1-.907-1.1-1.717V19.106c0-.9.242-1.717,1.128-1.717.958,0,1.094.765,1.094,1.683Zm-.9-3.434c.011-.3-.011-.549-.2-.549-.17,0-.219.227-.219.549v3.517c-.011.263.036.539.206.539.191,0,.227-.432.215-.539Z" fill="#fff"/>
    <path id="Trazado_606" data-name="Trazado 606" d="M67.192,15.876v1.611h.5v1.085h-.5V24.01h-.924V18.572h-.4V17.487h.4V15.876Z" fill="#fff"/>
    <path id="Trazado_607" data-name="Trazado 607" d="M70.327,21.671V22.5c0,.846-.265,1.609-1.189,1.609-.84,0-1.044-.893-1.044-1.647v-3.4c0-.774.3-1.669,1.1-1.669,1.01,0,1.13.884,1.13,1.635v1.944H69.018v1.42c0,.263.048.657.179.657.192,0,.229-.432.229-.657v-.717Zm-1.309-1.645h.408v-.918c0-.322-.036-.668-.24-.668-.156,0-.168.477-.168.668Z" fill="#fff"/>
    <path id="Trazado_608" data-name="Trazado 608" d="M72.166,15.34,71.6,16.413h-.77l.375-1.073ZM70.83,17.488h.951v6.523H70.83Z" fill="#fff"/>
    <path id="Trazado_609" data-name="Trazado 609" d="M73.476,24.009h-.951V17.486h.951v.331a1.042,1.042,0,0,1,.634-.428c.6,0,.648.884.648,1.278v5.342h-.934V18.856c0-.25-.063-.416-.183-.416s-.166.178-.166.428Z" fill="#fff"/>
    <path id="Trazado_610" data-name="Trazado 610" d="M76.445,18.976c0-.2-.051-.549-.156-.549-.122,0-.17.382-.17.549V19.4h-.913v-.392c0-.727.322-1.622,1.116-1.622.733,0,1.033.871,1.01,1.478v4.007a7.981,7.981,0,0,0,.059,1.134h-.8a1.892,1.892,0,0,1-.143-.392.713.713,0,0,1-.612.488c-.65,0-.688-1.206-.688-1.611a2.97,2.97,0,0,1,.914-2.351,1.321,1.321,0,0,0,.385-.464Zm-.013,2.04a2.843,2.843,0,0,0-.421,1.465c0,.038,0,.49.17.49s.251-.214.251-.441Z" fill="#fff"/>
    <path id="Trazado_611" data-name="Trazado 611" d="M79.241,19.156c0-.2-.038-.763-.215-.763-.156,0-.17.428-.17.68a2.858,2.858,0,0,0,.455,1.3,4.072,4.072,0,0,1,.72,2.158c0,.56-.154,1.575-1.09,1.575-1.019,0-1.094-1.109-1.094-1.993h.865c0,.418.059.992.229.992s.191-.286.191-.787a3.737,3.737,0,0,0-.492-1.408,3.964,3.964,0,0,1-.673-1.967c0-.837.312-1.552,1.031-1.552.987,0,1.059,1.122,1.059,1.766Z" fill="#fff"/>
    <path id="Trazado_612" data-name="Trazado 612" d="M108.528,13.623V12.148c0-.182-.027-.532-.2-.532-.131,0-.179.312-.179.532V17.69c0,.276.059.528.2.528.217,0,.242-.31.242-.528V15.974h-.215V14.881h1.145v4.393h-.52l-.109-.326a.89.89,0,0,1-.661.42c-.9,0-1.1-1.162-1.1-1.787V12.148c0-.793.291-1.789,1.193-1.789.968,0,1.2,1.081,1.2,1.789v1.475Z" fill="#fff"/>
    <path id="Trazado_613" data-name="Trazado 613" d="M112.138,14.054c-.566-.324-.808.146-.808.662v4.56h-.93V12.712h.93v.36a.908.908,0,0,1,.808-.456Z" fill="#fff"/>
    <path id="Trazado_614" data-name="Trazado 614" d="M113.854,14.211c0-.2-.05-.551-.158-.551s-.17.382-.17.551v.432h-.916v-.394c0-.734.324-1.634,1.122-1.634.735,0,1.038.876,1.015,1.486v4.034a7.77,7.77,0,0,0,.061,1.141H114a2.177,2.177,0,0,1-.143-.4.718.718,0,0,1-.615.49c-.653,0-.69-1.21-.69-1.62a2.988,2.988,0,0,1,.918-2.364,1.354,1.354,0,0,0,.387-.468Zm-.013,2.054a2.85,2.85,0,0,0-.423,1.475c0,.036,0,.492.17.492s.253-.216.253-.443Z" fill="#fff"/>
    <path id="Trazado_615" data-name="Trazado 615" d="M116.861,14.391c0-.2-.038-.768-.219-.768-.156,0-.17.43-.17.683a2.841,2.841,0,0,0,.461,1.308,4.106,4.106,0,0,1,.724,2.173c0,.564-.156,1.582-1.1,1.582-1.029,0-1.1-1.115-1.1-2h.869c0,.422.059,1,.231,1s.191-.29.191-.791a3.737,3.737,0,0,0-.5-1.416,4.015,4.015,0,0,1-.674-1.982c0-.84.312-1.558,1.036-1.558.993,0,1.065,1.126,1.065,1.775Z" fill="#fff"/>
    <path id="Trazado_616" data-name="Trazado 616" d="M119.614,14.211c0-.2-.05-.551-.158-.551s-.168.382-.168.551v.432h-.918v-.394c0-.734.326-1.634,1.122-1.634.737,0,1.038.876,1.017,1.486v4.034a7.839,7.839,0,0,0,.059,1.141h-.81a2.183,2.183,0,0,1-.145-.4.713.713,0,0,1-.615.49c-.652,0-.69-1.21-.69-1.62a3,3,0,0,1,.918-2.364,1.333,1.333,0,0,0,.387-.468Zm-.013,2.054a2.868,2.868,0,0,0-.421,1.475c0,.036,0,.492.168.492s.253-.216.253-.443Z" fill="#fff"/>
    <path id="Trazado_617" data-name="Trazado 617" d="M122.622,14.391c0-.2-.038-.768-.217-.768-.156,0-.17.43-.17.683a2.862,2.862,0,0,0,.459,1.308,4.122,4.122,0,0,1,.724,2.173c0,.564-.156,1.582-1.1,1.582-1.025,0-1.1-1.115-1.1-2h.869c0,.422.061,1,.229,1s.194-.29.194-.791a3.737,3.737,0,0,0-.5-1.416,4,4,0,0,1-.676-1.982c0-.84.314-1.558,1.038-1.558.991,0,1.063,1.126,1.063,1.775Z" fill="#fff"/>
    <path id="Trazado_618" data-name="Trazado 618" d="M106.335,21.516V20.184h2.477v1.333h-.737V29h-1V21.516Z" fill="#fff"/>
    <path id="Trazado_619" data-name="Trazado 619" d="M111.324,27.408c0,1.007-.255,1.69-1.122,1.69-.954,0-1.113-.912-1.113-1.726v-3.3c0-.91.242-1.728,1.134-1.728.966,0,1.1.77,1.1,1.694Zm-.907-3.458c.013-.3-.011-.551-.2-.551-.17,0-.219.229-.219.551v3.54c-.011.267.036.539.208.539.191,0,.229-.43.215-.539Z" fill="#fff"/>
    <path id="Trazado_620" data-name="Trazado 620" d="M113.172,20.817v1.622h.507v1.092h-.507V29h-.93V23.532h-.4V22.439h.4V20.817Z" fill="#fff"/>
    <path id="Trazado_621" data-name="Trazado 621" d="M115.491,23.939c0-.2-.05-.551-.158-.551s-.168.38-.168.551v.432h-.918v-.394c0-.734.326-1.635,1.122-1.635.737,0,1.038.878,1.017,1.488v4.034A7.84,7.84,0,0,0,116.445,29h-.81a2.2,2.2,0,0,1-.145-.4.713.713,0,0,1-.615.492c-.652,0-.69-1.211-.69-1.62a3,3,0,0,1,.918-2.364,1.333,1.333,0,0,0,.387-.468Zm-.013,2.054a2.863,2.863,0,0,0-.421,1.475c0,.036,0,.492.168.492s.253-.216.253-.443Z" fill="#fff"/>
    <rect id="Rectángulo_12" data-name="Rectángulo 12" width="0.954" height="8.821" transform="translate(117.265 20.183)" fill="#fff"/>
    <path id="Trazado_622" data-name="Trazado 622" d="M121.3,26.651v.827c0,.854-.263,1.62-1.195,1.62-.846,0-1.05-.9-1.05-1.656v-3.42c0-.78.3-1.679,1.113-1.679,1.012,0,1.132.888,1.132,1.645v1.955h-1.315v1.429c0,.265.048.659.183.659.191,0,.229-.432.229-.659v-.721Zm-1.315-1.656h.412v-.924c0-.322-.038-.672-.242-.672-.158,0-.17.479-.17.672Z" fill="#fff"/>
    <path id="Trazado_623" data-name="Trazado 623" d="M123.218,24.119c0-.2-.036-.767-.217-.767-.156,0-.17.43-.17.683a2.841,2.841,0,0,0,.461,1.308,4.122,4.122,0,0,1,.724,2.173c0,.564-.156,1.582-1.1,1.582-1.027,0-1.1-1.115-1.1-2h.871c0,.422.059,1,.229,1s.192-.29.192-.791a3.737,3.737,0,0,0-.5-1.416,4.017,4.017,0,0,1-.676-1.982c0-.842.314-1.56,1.038-1.56.993,0,1.063,1.128,1.063,1.775Z" fill="#fff"/>
    <path id="Trazado_624" data-name="Trazado 624" d="M155.313,13.763V12.288c0-.182-.027-.53-.194-.53-.131,0-.181.312-.181.53v5.542c0,.276.061.528.2.528.219,0,.242-.31.242-.528V16.114h-.217v-1.09h1.147v4.389h-.518l-.109-.322a.893.893,0,0,1-.665.418c-.894,0-1.1-1.164-1.1-1.785V12.288c0-.795.29-1.791,1.195-1.791.966,0,1.195,1.083,1.195,1.791v1.475Z" fill="#fff"/>
    <path id="Trazado_625" data-name="Trazado 625" d="M158.925,14.2c-.568-.326-.81.142-.81.661v4.558h-.93V12.85h.93v.36a.914.914,0,0,1,.81-.454Z" fill="#fff"/>
    <path id="Trazado_626" data-name="Trazado 626" d="M160.638,14.351c0-.2-.048-.553-.156-.553s-.17.386-.17.553v.433h-.918v-.4c0-.731.326-1.632,1.122-1.632.737,0,1.038.874,1.017,1.488v4.032a7.792,7.792,0,0,0,.059,1.139h-.81a2.114,2.114,0,0,1-.145-.394.711.711,0,0,1-.615.49c-.652,0-.69-1.211-.69-1.62a2.992,2.992,0,0,1,.918-2.364,1.312,1.312,0,0,0,.387-.468Zm-.013,2.052a2.874,2.874,0,0,0-.421,1.475c0,.04,0,.494.168.494s.253-.216.253-.443Z" fill="#fff"/>
    <path id="Trazado_627" data-name="Trazado 627" d="M163.646,14.533c0-.2-.038-.768-.217-.768-.156,0-.17.432-.17.681a2.861,2.861,0,0,0,.459,1.31,4.1,4.1,0,0,1,.724,2.173c0,.564-.156,1.582-1.1,1.582-1.025,0-1.1-1.115-1.1-2h.869c0,.422.061,1,.229,1s.194-.291.194-.793a3.726,3.726,0,0,0-.5-1.416,4.023,4.023,0,0,1-.676-1.98c0-.84.314-1.56,1.038-1.56.991,0,1.063,1.126,1.063,1.775Z" fill="#fff"/>
    <path id="Trazado_628" data-name="Trazado 628" d="M166.4,14.351c0-.2-.05-.553-.158-.553s-.17.386-.17.553v.433h-.916v-.4c0-.731.324-1.632,1.122-1.632.737,0,1.038.874,1.015,1.488v4.032a7.719,7.719,0,0,0,.061,1.139h-.812a2.252,2.252,0,0,1-.143-.394.713.713,0,0,1-.615.49c-.653,0-.69-1.211-.69-1.62a2.992,2.992,0,0,1,.918-2.364,1.333,1.333,0,0,0,.387-.468Zm-.013,2.052a2.874,2.874,0,0,0-.423,1.475c0,.04,0,.494.17.494s.253-.216.253-.443Z" fill="#fff"/>
    <path id="Trazado_629" data-name="Trazado 629" d="M169.407,14.533c0-.2-.036-.768-.217-.768-.156,0-.168.432-.168.681a2.84,2.84,0,0,0,.459,1.31,4.117,4.117,0,0,1,.724,2.173c0,.564-.156,1.582-1.1,1.582-1.027,0-1.1-1.115-1.1-2h.871c0,.422.059,1,.229,1s.192-.291.192-.793a3.726,3.726,0,0,0-.5-1.416,4.023,4.023,0,0,1-.676-1.98c0-.84.314-1.56,1.038-1.56.993,0,1.063,1.126,1.063,1.775Z" fill="#fff"/>
    <path id="Trazado_630" data-name="Trazado 630" d="M151.1,22.7c0-.312,0-1.283-.192-1.283-.145,0-.168.362-.168.874a6.033,6.033,0,0,0,.591,2.078,7.3,7.3,0,0,1,.762,2.771c0,.84-.16,2.1-1.2,2.1-1.267,0-1.244-1.753-1.244-2.555l.977-.146c0,.28,0,1.514.267,1.514.181,0,.2-.288.2-.852a6.992,6.992,0,0,0-.8-2.641,7.181,7.181,0,0,1-.541-2.27c0-.767.154-2.039,1.122-2.063,1.158-.023,1.208,1.6,1.208,2.33Z" fill="#fff"/>
    <path id="Trazado_631" data-name="Trazado 631" d="M154.057,24.081c0-.2-.048-.553-.156-.553s-.17.384-.17.553v.433h-.916v-.4c0-.731.324-1.632,1.12-1.632.737,0,1.04.874,1.017,1.488V28a8.078,8.078,0,0,0,.059,1.139h-.81a2.084,2.084,0,0,1-.145-.4.71.71,0,0,1-.613.492c-.653,0-.692-1.211-.692-1.62a2.987,2.987,0,0,1,.92-2.364,1.325,1.325,0,0,0,.385-.468Zm-.011,2.052a2.856,2.856,0,0,0-.423,1.475c0,.04,0,.494.17.494s.253-.216.253-.443Z" fill="#fff"/>
    <path id="Trazado_632" data-name="Trazado 632" d="M156.958,20.96v1.618h.507v1.094h-.507v5.47h-.93v-5.47h-.4V22.578h.4V20.96Z" fill="#fff"/>
    <path id="Trazado_633" data-name="Trazado 633" d="M159.359,22.58h.954v6.564h-.954v-.335a1.05,1.05,0,0,1-.64.432c-.6,0-.652-.886-.652-1.285V22.58h.941v5.184c0,.252.061.42.181.42s.17-.18.17-.432Z" fill="#fff"/>
    <path id="Trazado_634" data-name="Trazado 634" d="M162.872,23.924c-.568-.324-.808.144-.808.662v4.558h-.93V22.58h.93v.36a.913.913,0,0,1,.808-.454Z" fill="#fff"/>
    <path id="Trazado_635" data-name="Trazado 635" d="M164.589,24.081c0-.2-.05-.553-.158-.553s-.168.384-.168.553v.433h-.918v-.4c0-.731.324-1.632,1.122-1.632.737,0,1.038.874,1.015,1.488V28a7.722,7.722,0,0,0,.061,1.139h-.81a2.084,2.084,0,0,1-.145-.4.71.71,0,0,1-.615.492c-.653,0-.69-1.211-.69-1.62a2.992,2.992,0,0,1,.918-2.364,1.333,1.333,0,0,0,.387-.468Zm-.013,2.052a2.874,2.874,0,0,0-.423,1.475c0,.04,0,.494.17.494s.253-.216.253-.443Z" fill="#fff"/>
    <path id="Trazado_636" data-name="Trazado 636" d="M168.66,29.142h-.954v-.36a.907.907,0,0,1-.69.456c-.593,0-.532-.814-.543-1.283V23.768c0-.541.12-1.283.737-1.283a.666.666,0,0,1,.5.371V20.323h.954Zm-.954-5.169c0-.193-.048-.433-.17-.433s-.171.206-.171.433v3.672c0,.238.038.456.171.456s.17-.227.17-.456Z" fill="#fff"/>
    <path id="Trazado_637" data-name="Trazado 637" d="M170.592,24.081c0-.2-.048-.553-.156-.553s-.17.384-.17.553v.433h-.918v-.4c0-.731.326-1.632,1.122-1.632.737,0,1.04.874,1.017,1.488V28a8.08,8.08,0,0,0,.059,1.139h-.81a2.085,2.085,0,0,1-.145-.4.71.71,0,0,1-.615.492c-.652,0-.69-1.211-.69-1.62a2.987,2.987,0,0,1,.92-2.364,1.325,1.325,0,0,0,.385-.468Zm-.013,2.052a2.874,2.874,0,0,0-.421,1.475c0,.04,0,.494.168.494s.253-.216.253-.443Z" fill="#fff"/>
    <path id="Trazado_638" data-name="Trazado 638" d="M173.6,24.26c0-.2-.038-.768-.217-.768-.156,0-.17.43-.17.681a2.862,2.862,0,0,0,.459,1.31,4.1,4.1,0,0,1,.724,2.173c0,.564-.154,1.582-1.1,1.582-1.027,0-1.1-1.115-1.1-2h.871c0,.422.059,1,.229,1s.192-.291.192-.793a3.727,3.727,0,0,0-.5-1.416,4.023,4.023,0,0,1-.676-1.982c0-.84.314-1.558,1.038-1.558.993,0,1.063,1.126,1.063,1.775Z" fill="#fff"/>
    <g id="Grupo_123" data-name="Grupo 123">
      <path id="Trazado_639" data-name="Trazado 639" d="M22.121,64.012V60.656a.656.656,0,0,0-.11-.362.17.17,0,0,0-.16-.062c-.173,0-.223.11-.269.22a.449.449,0,0,0-.015.2v3.356c-.015.172.015.424.284.424C22.09,64.436,22.121,64.184,22.121,64.012Z" fill="#fff"/>
      <path id="Trazado_640" data-name="Trazado 640" d="M26.3,66.028c-.175,0-.221.11-.269.22a.421.421,0,0,0-.017.2v3.354a.45.45,0,0,0,.111.363.2.2,0,0,0,.175.078c.141,0,.189-.11.236-.221a.858.858,0,0,0,.032-.22V66.452a.672.672,0,0,0-.11-.362A.17.17,0,0,0,26.3,66.028Z" fill="#fff"/>
      <path id="Trazado_641" data-name="Trazado 641" d="M43.72,11.9A30.879,30.879,0,0,0,.3,11.9a.991.991,0,0,0-.3.7V69.335a.994.994,0,0,0,.3.7,30.883,30.883,0,0,0,43.424,0,.992.992,0,0,0,.293-.7V12.6A.989.989,0,0,0,43.72,11.9Zm-24,56.7c-.019,1.215-.232,2.987-1.7,2.987-1.652,0-1.536-2.625-1.536-3.644H17.83v.8c0,.608.086,1.3.25,1.3s.3-.329.3-1.281V65.74c0-.507-.131-.886-.3-.886-.263,0-.347.723-.347.886H16.544V59.39h2.873v1.757H17.766v2.576c.032-.214.448-.475.711-.475,1.174,0,1.24,1.607,1.24,2.493Zm1.042-3.909a1.471,1.471,0,0,1-.143-.676V60.656a1.394,1.394,0,0,1,.522-1.134,1.042,1.042,0,0,1,.713-.2A1.108,1.108,0,0,1,22.913,60a1.679,1.679,0,0,1,.158.661v3.356a1.47,1.47,0,0,1-.522,1.149,1.03,1.03,0,0,1-.7.2A1.091,1.091,0,0,1,20.759,64.688Zm.65,6.33,4.277-11.573H26.7L22.469,71.017Zm6.116-1.211A1.436,1.436,0,0,1,27,70.94a1.016,1.016,0,0,1-.7.2,1.126,1.126,0,0,1-1.094-.661,1.5,1.5,0,0,1-.141-.678V66.452a1.416,1.416,0,0,1,.522-1.149,1.039,1.039,0,0,1,.713-.2,1.114,1.114,0,0,1,1.063.676,1.873,1.873,0,0,1,.156.678Zm14.483-.89a28.277,28.277,0,0,1-2.3,1.989,17.692,17.692,0,0,0-35.381.011,28.653,28.653,0,0,1-2.319-2v-55.9a28.865,28.865,0,0,1,40,0Z" fill="#fff"/>
    </g>
    <path id="Trazado_642" data-name="Trazado 642" d="M197.18,34.966V33.518A2.77,2.77,0,0,0,198.4,32.35a4.115,4.115,0,0,0,.284-.821h1.238V47.416h-1.806V34.966Z" fill="#fff"/>
    <path id="Trazado_643" data-name="Trazado 643" d="M205.361,36.975a2.358,2.358,0,0,1-.85,2.056,2.524,2.524,0,0,1,.914,2.27v3.371c0,1.34-.589,2.919-2.134,2.919-1.587,0-2.132-1.709-2.132-2.919V41.3a2.945,2.945,0,0,1,.914-2.27,2.566,2.566,0,0,1-.85-2.056V33.906c0-1.232.653-2.55,2.067-2.55,1.524,0,2.069,1.4,2.069,2.55Zm-1.7,4.172c0-.452-.11-.907-.372-.907s-.37.454-.37.907v3.634c0,.409.2.712.37.712s.372-.3.372-.712V41.146Zm0-6.916c0-.452-.11-.886-.372-.886s-.37.433-.37.886v3.2c0,.411.2.714.37.714s.372-.3.372-.714v-3.2Z" fill="#fff"/>
    <path id="Trazado_644" data-name="Trazado 644" d="M212.448,47.416h-1.566V38.057c0-.454-.109-.734-.328-.734-.194,0-.3.365-.3.778v9.315h-1.72V35.593h1.72v.627a1.593,1.593,0,0,1,1.174-.8.893.893,0,0,1,.827.865,1.686,1.686,0,0,1,1.349-.865c1.09,0,1.09,1.6,1.09,2.315v9.682H213.1V38.1c0-.454-.088-.778-.326-.778s-.328.519-.328.778Z" fill="#fff"/>
    <path id="Trazado_645" data-name="Trazado 645" d="M219.471,41.711c-.067,1.253-.631,2.919-2.111,2.919h-.109a1.084,1.084,0,0,0-.13.517c0,.433.543.649.871.736a2.515,2.515,0,0,1,1.305.67,3.067,3.067,0,0,1,.674,2.075c0,1.577-.674,3.027-2.458,3.027a2.111,2.111,0,0,1-2.307-2.292,2.27,2.27,0,0,1,1.132-1.793h.021a1.6,1.6,0,0,1-.935-1.579,2.656,2.656,0,0,1,.892-1.774,4.355,4.355,0,0,1-.825-2.572v-3.22c.021-1.253.522-3.006,1.978-3.006a1.409,1.409,0,0,1,1.351.736,1.76,1.76,0,0,1,1.37-.736v1.946a1,1,0,0,0-.8.261,1.891,1.891,0,0,1,.086.517ZM217.251,48a1.453,1.453,0,0,0-.391.994c0,.454.2.821.674.821a.788.788,0,0,0,.806-.8.817.817,0,0,0-.568-.844Zm.545-9.6c0-.477-.042-1.081-.328-1.081-.217,0-.28.647-.28,1.081v3.348c0,.413.063,1.06.28,1.06.286,0,.328-.757.328-1.06Z" fill="#fff"/>
    <g id="Grupo_124" data-name="Grupo 124">
      <path id="Trazado_646" data-name="Trazado 646" d="M230.708,11.9a30.892,30.892,0,0,0-43.426,0,.991.991,0,0,0-.3.7V69.335a.994.994,0,0,0,.3.7,30.885,30.885,0,0,0,43.426,0,1,1,0,0,0,.293-.7V12.6A1,1,0,0,0,230.708,11.9ZM206.276,71.019h-1.713v-9.07h-1.141V60.862a2.64,2.64,0,0,0,1.444-.82,2.742,2.742,0,0,0,.379-.6h1.031Zm1.174-6.332a1.471,1.471,0,0,1-.143-.676V60.656a1.4,1.4,0,0,1,.524-1.134,1.042,1.042,0,0,1,.713-.2A1.106,1.106,0,0,1,209.6,60a1.713,1.713,0,0,1,.16.661v3.356a1.484,1.484,0,0,1-.524,1.151,1.031,1.031,0,0,1-.7.2A1.094,1.094,0,0,1,207.449,64.688Zm.65,6.332,4.279-11.575h1.014L209.16,71.019Zm6.119-1.213a1.44,1.44,0,0,1-.526,1.134,1.013,1.013,0,0,1-.7.2,1.13,1.13,0,0,1-1.1-.661,1.5,1.5,0,0,1-.141-.678V66.452a1.412,1.412,0,0,1,.524-1.149,1.045,1.045,0,0,1,.713-.2,1.112,1.112,0,0,1,1.063.676,1.914,1.914,0,0,1,.158.678Zm14.776-.89a28.7,28.7,0,0,1-2.3,1.991,17.691,17.691,0,0,0-35.379.011,28.753,28.753,0,0,1-2.32-2v-55.9a28.873,28.873,0,0,1,40,0Z" fill="#fff"/>
      <path id="Trazado_647" data-name="Trazado 647" d="M213,66.028c-.173,0-.221.11-.269.22a.4.4,0,0,0-.017.2v3.354a.427.427,0,0,0,.112.363.2.2,0,0,0,.173.078c.141,0,.189-.11.238-.22a.985.985,0,0,0,.032-.221V66.452a.657.657,0,0,0-.112-.362A.166.166,0,0,0,213,66.028Z" fill="#fff"/>
      <path id="Trazado_648" data-name="Trazado 648" d="M208.812,64.012V60.656a.641.641,0,0,0-.111-.362c-.03-.047-.078-.062-.158-.062-.175,0-.223.11-.269.22a.424.424,0,0,0-.017.2v3.356c-.015.172.017.424.286.424C208.783,64.436,208.812,64.184,208.812,64.012Z" fill="#fff"/>
    </g>
    <g id="Grupo_125" data-name="Grupo 125">
      <path id="Trazado_649" data-name="Trazado 649" d="M68.782,64.012V60.656a.655.655,0,0,0-.109-.362.17.17,0,0,0-.16-.062c-.175,0-.223.11-.269.22a.448.448,0,0,0-.017.2v3.356c-.013.172.017.424.286.424C68.754,64.436,68.782,64.184,68.782,64.012Z" fill="#fff"/>
      <path id="Trazado_650" data-name="Trazado 650" d="M72.968,66.028c-.175,0-.221.11-.269.22a.422.422,0,0,0-.017.2v3.354a.45.45,0,0,0,.11.363.2.2,0,0,0,.175.078c.141,0,.189-.11.236-.221a.951.951,0,0,0,.032-.22V66.452a.657.657,0,0,0-.112-.362A.165.165,0,0,0,72.968,66.028Z" fill="#fff"/>
      <path id="Trazado_651" data-name="Trazado 651" d="M90.564,11.9a30.879,30.879,0,0,0-43.424,0,.991.991,0,0,0-.3.7V69.335a.994.994,0,0,0,.3.7,30.883,30.883,0,0,0,43.424,0,.993.993,0,0,0,.293-.7V12.6A.989.989,0,0,0,90.564,11.9ZM66.38,68.6c-.019,1.215-.232,2.987-1.7,2.987-1.652,0-1.536-2.625-1.536-3.644h1.353v.8c0,.608.084,1.3.25,1.3s.3-.329.3-1.281V65.74c0-.507-.131-.886-.3-.886-.263,0-.347.723-.347.886H63.206V59.39h2.875v1.757H64.429v2.576c.032-.214.448-.475.711-.475,1.172,0,1.24,1.607,1.24,2.493Zm1.042-3.909a1.47,1.47,0,0,1-.145-.676V60.656a1.4,1.4,0,0,1,.524-1.134,1.042,1.042,0,0,1,.713-.2A1.106,1.106,0,0,1,69.575,60a1.647,1.647,0,0,1,.16.661v3.356a1.476,1.476,0,0,1-.522,1.149,1.03,1.03,0,0,1-.7.2A1.09,1.09,0,0,1,67.422,64.688Zm.65,6.33,4.277-11.573h1.014L69.131,71.017Zm6.116-1.211a1.442,1.442,0,0,1-.524,1.134,1.016,1.016,0,0,1-.7.2,1.13,1.13,0,0,1-1.1-.661,1.5,1.5,0,0,1-.141-.678V66.452a1.412,1.412,0,0,1,.524-1.149,1.039,1.039,0,0,1,.713-.2,1.111,1.111,0,0,1,1.061.676,1.874,1.874,0,0,1,.158.678Zm14.664-.89a27.984,27.984,0,0,1-2.3,1.989,17.691,17.691,0,0,0-35.379.011,28.653,28.653,0,0,1-2.319-2v-55.9a28.865,28.865,0,0,1,40,0Z" fill="#fff"/>
    </g>
    <path id="Trazado_652" data-name="Trazado 652" d="M60.4,43.567c0,.965.021,2.747.4,2.747.354,0,.377-1.5.377-2.2-.044-2.44-.244-3.121-1.305-3.186V38.974c1.282-.087,1.217-1.448,1.217-2.788,0-.64,0-2.133-.333-2.133-.352,0-.4,1.758-.4,2.68H58.538c0-1.624.154-4.834,2.191-4.834,1.791,0,2.187,2.353,2.187,3.6,0,2.351-.244,3.451-1.1,4.484.751.5,1.149,1.758,1.149,4.107,0,2.111-.288,4.308-2.168,4.308-2.168,0-2.187-3.494-2.187-4.834Z" fill="#fff"/>
    <path id="Trazado_653" data-name="Trazado 653" d="M65.484,48.226l-.73,2.856H63.692l.551-2.856h-.551v-2.44h1.791Z" fill="#fff"/>
    <path id="Trazado_654" data-name="Trazado 654" d="M70.9,37.613a2.39,2.39,0,0,1-.863,2.088,2.56,2.56,0,0,1,.93,2.305v3.43c0,1.363-.6,2.966-2.168,2.966-1.614,0-2.168-1.736-2.168-2.966v-3.43a2.991,2.991,0,0,1,.932-2.305,2.6,2.6,0,0,1-.863-2.088V34.491c0-1.251.663-2.593,2.1-2.593,1.549,0,2.1,1.429,2.1,2.593Zm-1.724-2.792c0-.46-.112-.9-.377-.9s-.375.441-.375.9v3.252c0,.418.2.727.375.727s.377-.309.377-.727V34.821Zm0,7.032c0-.46-.112-.924-.377-.924s-.375.464-.375.924v3.691c0,.418.2.727.375.727s.377-.309.377-.727V41.853Z" fill="#fff"/>
    <path id="Trazado_655" data-name="Trazado 655" d="M77.666,42.426c-.067,1.274-.642,2.964-2.145,2.964h-.112a1.1,1.1,0,0,0-.131.528c0,.439.552.659.884.748a2.566,2.566,0,0,1,1.328.681,3.128,3.128,0,0,1,.686,2.109c0,1.6-.686,3.076-2.5,3.076A2.144,2.144,0,0,1,73.33,50.2a2.323,2.323,0,0,1,1.151-1.825H74.5a1.626,1.626,0,0,1-.951-1.6,2.694,2.694,0,0,1,.907-1.8,4.461,4.461,0,0,1-.84-2.616V39.085c.021-1.276.532-3.055,2.014-3.055A1.434,1.434,0,0,1,77,36.776,1.787,1.787,0,0,1,78.4,36.03v1.978a1.028,1.028,0,0,0-.819.263,1.9,1.9,0,0,1,.09.528ZM75.408,48.82a1.48,1.48,0,0,0-.4,1.009c0,.462.2.835.686.835a.8.8,0,0,0,.817-.812A.828.828,0,0,0,75.94,49Zm.554-9.758c0-.485-.044-1.1-.331-1.1-.223,0-.288.661-.288,1.1V42.47c0,.416.065,1.077.288,1.077.288,0,.331-.77.331-1.077Z" fill="#fff"/>
    <path id="Trazado_656" data-name="Trazado 656" d="M107.724,36.664H105.59V34.352h3.96v2.335l-1.414,13.551h-1.849Z" fill="#fff"/>
    <path id="Trazado_657" data-name="Trazado 657" d="M111.941,50.239l-.717,2.811h-1.044l.544-2.811h-.544v-2.4h1.761Z" fill="#fff"/>
    <path id="Trazado_658" data-name="Trazado 658" d="M112.723,37.4c.023-1.429.612-3.222,2.307-3.222,1.741,0,2.046,2.1,2.046,3.222v9.381c-.023,1.556-.3,3.63-2.153,3.63-1.915,0-2.134-2.334-2.134-3.63V45.657h1.739c0,.714,0,2.724.394,2.724.347,0,.347-1.4.347-1.6v-2.94a1.017,1.017,0,0,1-.762.367c-1.677,0-1.785-1.794-1.785-2.919Zm2.547-.259c0-.3-.067-.931-.392-.931-.349,0-.412.628-.412.931V41.68c0,.195.063.712.412.712.326,0,.37-.409.392-.647Z" fill="#fff"/>
    <path id="Trazado_659" data-name="Trazado 659" d="M124.205,44.533c-.065,1.253-.629,2.919-2.109,2.919h-.109a1.069,1.069,0,0,0-.131.519c0,.432.543.647.871.734a2.535,2.535,0,0,1,1.307.67,3.076,3.076,0,0,1,.674,2.075c0,1.579-.674,3.027-2.46,3.027a2.109,2.109,0,0,1-2.305-2.292,2.276,2.276,0,0,1,1.132-1.793h.021a1.6,1.6,0,0,1-.935-1.579,2.654,2.654,0,0,1,.89-1.774,4.367,4.367,0,0,1-.825-2.57V41.247c.021-1.253.522-3,1.979-3a1.41,1.41,0,0,1,1.349.734,1.761,1.761,0,0,1,1.372-.734v1.946a1,1,0,0,0-.806.259,1.835,1.835,0,0,1,.086.519Zm-2.218,6.29a1.45,1.45,0,0,0-.392,1c0,.452.2.82.674.82a.788.788,0,0,0,.806-.8.815.815,0,0,0-.568-.844Zm.543-9.6c0-.475-.042-1.081-.326-1.081-.217,0-.282.647-.282,1.081v3.35c0,.411.065,1.058.282,1.058.284,0,.326-.757.326-1.058Z" fill="#fff"/>
    <g id="Grupo_126" data-name="Grupo 126">
      <path id="Trazado_660" data-name="Trazado 660" d="M113.5,63.382,112.5,67h1.189V63.034h-.1Z" fill="#fff"/>
      <path id="Trazado_661" data-name="Trazado 661" d="M118.053,64.012V60.656a.655.655,0,0,0-.109-.362.17.17,0,0,0-.16-.062c-.175,0-.223.11-.271.22a.477.477,0,0,0-.015.2v3.356c-.013.172.015.424.286.424C118.023,64.436,118.053,64.184,118.053,64.012Z" fill="#fff"/>
      <path id="Trazado_662" data-name="Trazado 662" d="M137.01,11.9a30.881,30.881,0,0,0-43.426,0,.983.983,0,0,0-.3.7V69.335a.987.987,0,0,0,.3.7,30.885,30.885,0,0,0,43.426,0,.992.992,0,0,0,.293-.7V12.6A.989.989,0,0,0,137.01,11.9ZM110.254,71.019h-1.713v-9.07H107.4V60.862a2.64,2.64,0,0,0,1.444-.82,2.815,2.815,0,0,0,.379-.6h1.031Zm5.8-2.521h-.791v2.519h-1.572V68.5h-2.646V67l2.5-7.558h1.715V67h.791Zm.638-3.81a1.47,1.47,0,0,1-.145-.676V60.656a1.4,1.4,0,0,1,.524-1.134,1.042,1.042,0,0,1,.713-.2,1.106,1.106,0,0,1,1.061.678,1.647,1.647,0,0,1,.16.661v3.356a1.476,1.476,0,0,1-.522,1.149,1.03,1.03,0,0,1-.7.2A1.09,1.09,0,0,1,116.693,64.688Zm.65,6.33,4.277-11.573h1.015L118.4,71.017Zm6.117-1.211a1.448,1.448,0,0,1-.524,1.134,1.021,1.021,0,0,1-.7.2,1.128,1.128,0,0,1-1.094-.661,1.479,1.479,0,0,1-.143-.678V66.452a1.417,1.417,0,0,1,.524-1.149,1.039,1.039,0,0,1,.713-.2,1.112,1.112,0,0,1,1.063.676,1.914,1.914,0,0,1,.158.678Zm11.839-.89a28.7,28.7,0,0,1-2.305,1.989,17.691,17.691,0,0,0-35.379.013,29.086,29.086,0,0,1-2.32-2v-55.9a28.866,28.866,0,0,1,40,0Z" fill="#fff"/>
      <path id="Trazado_663" data-name="Trazado 663" d="M122.239,66.028c-.173,0-.221.11-.269.22a.421.421,0,0,0-.017.2v3.354a.444.444,0,0,0,.112.363.2.2,0,0,0,.173.078c.143,0,.191-.11.238-.221a.952.952,0,0,0,.032-.22V66.452a.657.657,0,0,0-.112-.362A.166.166,0,0,0,122.239,66.028Z" fill="#fff"/>
    </g>
    <path id="Trazado_664" data-name="Trazado 664" d="M156.745,47.192c0,1.643-.522,3.22-2.178,3.22-1.7,0-2.195-1.707-2.195-3.22V37.4c0-1.643.564-3.222,2.195-3.222,1.741,0,2.178,1.923,2.178,3.222ZM154.937,37.4c0-.5-.109-.95-.347-.95s-.37.43-.37.95v9.792c0,.585.173.952.37.952.217,0,.347-.454.347-.952Z" fill="#fff"/>
    <path id="Trazado_665" data-name="Trazado 665" d="M159.243,50.24l-.717,2.811h-1.044l.544-2.811h-.544v-2.4h1.762Z" fill="#fff"/>
    <path id="Trazado_666" data-name="Trazado 666" d="M164.486,39.8a2.347,2.347,0,0,1-.85,2.054,2.524,2.524,0,0,1,.914,2.271V47.5c0,1.34-.589,2.917-2.132,2.917-1.589,0-2.134-1.707-2.134-2.917V44.124a2.96,2.96,0,0,1,.914-2.271,2.564,2.564,0,0,1-.848-2.054V36.731c0-1.232.652-2.552,2.067-2.552,1.522,0,2.067,1.406,2.067,2.552Zm-1.7,4.172c0-.452-.11-.907-.37-.907s-.372.454-.372.907V47.6c0,.411.2.714.372.714s.37-.3.37-.714V43.971Zm0-6.916c0-.452-.11-.886-.37-.886s-.372.433-.372.886v3.2c0,.411.2.714.372.714s.37-.3.37-.714v-3.2Z" fill="#fff"/>
    <path id="Trazado_667" data-name="Trazado 667" d="M171.486,44.535c-.065,1.253-.631,2.917-2.111,2.917h-.109a1.093,1.093,0,0,0-.13.519c0,.433.543.649.871.736a2.515,2.515,0,0,1,1.305.67,3.063,3.063,0,0,1,.674,2.075c0,1.577-.674,3.027-2.458,3.027a2.111,2.111,0,0,1-2.307-2.292,2.276,2.276,0,0,1,1.132-1.794h.021a1.6,1.6,0,0,1-.935-1.577,2.652,2.652,0,0,1,.892-1.774,4.355,4.355,0,0,1-.825-2.572v-3.22c.021-1.255.522-3.006,1.978-3.006a1.411,1.411,0,0,1,1.351.734,1.763,1.763,0,0,1,1.37-.734v1.946a1,1,0,0,0-.8.259,1.918,1.918,0,0,1,.086.519Zm-2.22,6.288a1.458,1.458,0,0,0-.391,1c0,.452.2.821.674.821a.789.789,0,0,0,.806-.8.816.816,0,0,0-.568-.842Zm.545-9.6c0-.475-.042-1.079-.328-1.079-.217,0-.28.647-.28,1.079v3.35c0,.413.063,1.058.28,1.058.286,0,.328-.755.328-1.058Z" fill="#fff"/>
    <g id="Grupo_127" data-name="Grupo 127">
      <path id="Trazado_668" data-name="Trazado 668" d="M163.1,64.012V60.656a.641.641,0,0,0-.11-.362.17.17,0,0,0-.16-.062c-.173,0-.221.112-.269.22a.449.449,0,0,0-.015.2v3.356c-.015.172.015.424.284.424C163.074,64.436,163.1,64.184,163.1,64.012Z" fill="#fff"/>
      <path id="Trazado_669" data-name="Trazado 669" d="M167.29,66.028c-.175,0-.223.11-.271.22a.423.423,0,0,0-.015.2v3.354a.437.437,0,0,0,.111.363.2.2,0,0,0,.175.078c.141,0,.189-.11.236-.221a.858.858,0,0,0,.032-.22V66.452a.672.672,0,0,0-.11-.362A.17.17,0,0,0,167.29,66.028Z" fill="#fff"/>
      <path id="Trazado_670" data-name="Trazado 670" d="M183.755,11.9a30.879,30.879,0,0,0-43.424,0,1,1,0,0,0-.293.7V69.335a1,1,0,0,0,.293.7,30.85,30.85,0,0,0,43.424,0,.992.992,0,0,0,.293-.7V12.6A.989.989,0,0,0,183.755,11.9ZM161.106,68.5h-.793v2.519h-1.572V68.5H156.1V67l2.5-7.558h1.715V67h.793Zm.636-3.81a1.471,1.471,0,0,1-.143-.676V60.656a1.394,1.394,0,0,1,.522-1.134,1.042,1.042,0,0,1,.713-.2A1.108,1.108,0,0,1,163.9,60a1.713,1.713,0,0,1,.16.661v3.356a1.477,1.477,0,0,1-.524,1.149,1.03,1.03,0,0,1-.7.2A1.091,1.091,0,0,1,161.743,64.688Zm.65,6.33,4.277-11.573h1.015l-4.231,11.573Zm6.117-1.211a1.436,1.436,0,0,1-.524,1.134,1.016,1.016,0,0,1-.7.2,1.128,1.128,0,0,1-1.1-.661,1.5,1.5,0,0,1-.141-.678V66.452a1.416,1.416,0,0,1,.522-1.149,1.041,1.041,0,0,1,.714-.2,1.109,1.109,0,0,1,1.061.676,1.835,1.835,0,0,1,.158.678Zm13.534-.888a28.8,28.8,0,0,1-2.3,1.987,17.691,17.691,0,0,0-35.379.011,28.8,28.8,0,0,1-2.319-2v-55.9a28.865,28.865,0,0,1,40,0Z" fill="#fff"/>
      <path id="Trazado_671" data-name="Trazado 671" d="M158.554,63.382l-1,3.621h1.187V63.034h-.1Z" fill="#fff"/>
    </g>
  </g>
</svg>
