<svg id="ey9Ghqc1tBL1" xmlns="http://www.w3.org/2000/svg" xmlns:xlink="http://www.w3.org/1999/xlink" viewBox="0 0 98.9 26.3" shape-rendering="geometricPrecision" text-rendering="geometricPrecision"><path id="ey9Ghqc1tBL2" d="M71.7,13.3C71.7,8.2,74.6,3.8,78.8,1.6L12.3,1.6C5.9,1.6,0.7,6.8,0.7,13.2C0.7,19.6,5.9,24.8,12.3,24.8L78.5,24.8C74.5,22.6,71.7,18.2,71.7,13.3Z" transform="matrix(1.009294 0 0 1 -0.706555 0)" fill="#3c3c3c" stroke="none" stroke-width="1"/><path id="ey9Ghqc1tBL3" d="M85,1.8C78.7,1.8,73.6,6.9,73.6,13.2C73.6,19.5,78.7,24.7,85,24.7C91.3,24.7,96.4,19.6,96.4,13.3C96.4,7,91.3,1.8,85,1.8Z" fill="#3c3c3c" stroke="none" stroke-width="1"/><g id="ey9Ghqc1tBL5"><path id="ey9Ghqc1tBL6" d="M20.9,10.9C21.1,10.9,21.3,10.8,21.4,10.5C21.4,10.4,21.4,10.4,21.4,10.4C21.5,10.2,21.5,10,21.7,10C21.9,10,22.1,10.1,22.6,10.4C22.5,11.4,22.2,12,21,12C20.4,12,19.5,11.9,19.3,11.1C19.1,10.3,19,8.5,19,7.2C19,5.7,19.1,4,20.8,4C21.6,4,22.5,4.5,22.5,5.5L22.5,5.5C22.5,6,21.9,6.1,21.7,6.1L21.6,6.1C21.2,6,21.5,5.2,20.8,5.2C20.8,5.2,20.7,5.2,20.7,5.2C20.2,5.3,20.1,5.6,20.1,5.9L20.1,6C20.1,8.3,20.1,9.3,20.1,10.3C20.4,10.7,20.7,10.9,20.9,10.9Z" fill="rgb(255,255,255)" stroke="none" stroke-width="1"/><path id="ey9Ghqc1tBL7" d="M23.1,7.4C23.1,5.9,23.2,4.1,25,4.1C25.8,4.1,26.7,4.6,26.8,5.6C26.8,6.2,26.8,6.8,26.8,7.4C26.8,8.2,26.8,8.9,26.8,9.8C26.8,9.8,26.8,9.8,26.8,9.8C26.7,11.2,26.6,12.2,25.1,12.2C24.5,12.2,23.6,12.1,23.4,11.3C23.2,10.6,23.1,8.8,23.1,7.4ZM25,11.1C25.2,11.1,25.4,11,25.5,10.7C25.6,9.5,25.6,7.8,25.6,6.6L25.6,5.9C25.6,5.6,25.5,5.4,25,5.4C24.4,5.4,24.4,5.8,24.4,6.1L24.4,6.2C24.4,8.6,24.4,9.7,24.4,10.6C24.5,10.9,24.8,11.1,25,11.1Z" fill="rgb(255,255,255)" stroke="none" stroke-width="1"/><path id="ey9Ghqc1tBL8" d="M28.8,6.4C28.8,6.4,28.8,6.6,28.8,7C28.8,8,28.9,10.1,28.9,12C28.9,12.3,28.7,12.3,28.5,12.3C28.4,12.3,28.4,12.3,28.3,12.3C28.3,12.3,28.2,12.3,28.1,12.3C27.9,12.3,27.8,12.3,27.7,12.1L27.7,8.7C27.7,7.7,27.7,6.7,27.7,5.7C27.7,5.5,27.7,4.7,27.7,4.5C27.7,4.4,27.8,4.3,27.9,4.3L29.3,4.3C29.4,4.3,29.5,4.3,29.5,4.4L31,10L30.7,4.5C30.7,4.4,30.8,4.3,30.9,4.3L31.7,4.3C31.8,4.3,31.9,4.3,31.9,4.4L31.9,4.5C31.9,4.9,32,6.2,32,7C32,7.4,32.1,9.5,32.1,10.9C32.1,11.7,32.1,12.3,32,12.3L30.8,12.3C30.7,12.3,30.6,12.2,30.6,12.1L28.8,6.4Z" fill="rgb(255,255,255)" stroke="none" stroke-width="1"/><path id="ey9Ghqc1tBL9" d="M32.8,7.4C32.8,5.9,32.9,4.1,34.7,4.1C35.5,4.1,36.4,4.6,36.5,5.6C36.5,6.2,36.5,6.8,36.5,7.4C36.5,8.2,36.5,8.9,36.5,9.8C36.5,9.8,36.5,9.8,36.5,9.8C36.4,11.2,36.3,12.2,34.8,12.2C34.2,12.2,33.3,12.1,33.1,11.3C32.9,10.6,32.8,8.8,32.8,7.4ZM34.7,11.1C34.9,11.1,35.1,11,35.2,10.7C35.3,9.5,35.3,7.8,35.3,6.6L35.3,5.9C35.3,5.6,35.2,5.4,34.7,5.4C34.1,5.4,34.1,5.8,34.1,6.1L34.1,6.2C34.1,8.6,34.1,9.7,34.1,10.6C34.2,10.9,34.5,11.1,34.7,11.1Z" fill="rgb(255,255,255)" stroke="none" stroke-width="1"/><path id="ey9Ghqc1tBL10" d="M39.1,10.9C39.3,10.9,39.5,10.8,39.6,10.5C39.6,10.4,39.6,10.4,39.6,10.4C39.7,10.2,39.7,10,39.9,10C40.1,10,40.3,10.1,40.8,10.4C40.7,11.4,40.4,12,39.2,12C38.6,12,37.7,11.9,37.5,11.1C37.3,10.3,37.2,8.5,37.2,7.2C37.2,5.7,37.3,4,39,4C39.8,4,40.7,4.5,40.7,5.5L40.7,5.5C40.7,6,40.1,6.1,39.9,6.1L40,6.1C39.6,6,39.9,5.2,39.2,5.2C39.2,5.2,39.1,5.2,39.1,5.2C38.6,5.3,38.5,5.6,38.5,5.9L38.5,6C38.5,8.3,38.5,9.3,38.5,10.3C38.6,10.7,38.9,10.9,39.1,10.9Z" fill="rgb(255,255,255)" stroke="none" stroke-width="1"/><path id="ey9Ghqc1tBL11" d="M41.7,4.1L42.7,4.1C42.9,4.1,43.9,4.1,44.1,4.1C44.2,4.1,44.2,4.2,44.2,4.2C44.2,4.5,44.2,4.7,44.2,5.1C44.2,5.2,44.2,5.3,44,5.3L42.7,5.3L42.6,5.4L42.7,7.4L43.7,7.4C43.8,7.4,43.9,7.7,43.9,7.9L43.9,8L43.9,8.3C43.9,8.4,43.9,8.6,43.7,8.6L42.8,8.6C42.8,8.6,42.8,8.6,42.7,8.6L42.7,8.6L42.8,10.4C42.8,10.5,42.9,10.6,43,10.6L44.3,10.6C44.5,10.6,44.5,10.8,44.5,10.9L44.4,11.6C44.4,11.7,44.3,11.8,44.2,11.8L41.7,11.9C41.6,11.9,41.4,11.7,41.4,8.9C41.4,8.1,41.4,7.4,41.4,6.6C41.4,5.8,41.4,5,41.4,4.2C41.5,4.2,41.6,4.1,41.7,4.1ZM42.8,2.5L43.9,2.7L43,3.6L41.9,3.5L42.8,2.5Z" fill="rgb(255,255,255)" stroke="none" stroke-width="1"/><path id="ey9Ghqc1tBL12" d="M47.9,6.1L47.9,5.7C47.9,5.7,47.8,5.5,47.8,5.5L47,5.5C46.8,5.5,46.8,5.4,46.8,5.2L46.8,5.1C46.8,4.6,46.8,4.3,47.2,4.3L47.4,4.3C47.8,4.3,49.3,4.3,49.7,4.3C49.8,4.3,50,4.3,50,4.3C50.1,4.3,50.2,4.5,50.2,4.7C50.2,4.8,50.2,4.9,50.2,4.9L50.2,5.1C50.2,5.3,50.1,5.5,49.9,5.5L49,5.5L49,11.7C49,11.8,49,12,48.8,12L48,12C47.9,12,47.8,11.9,47.8,11.8C47.9,10,47.9,8,47.9,6.1Z" fill="rgb(255,255,255)" stroke="none" stroke-width="1"/><path id="ey9Ghqc1tBL13" d="M50.4,7.4C50.4,5.9,50.5,4.1,52.3,4.1C53.1,4.1,54,4.6,54.1,5.6C54.1,6.2,54.1,6.8,54.1,7.4C54.1,8.2,54.1,8.9,54.1,9.8C54.1,9.8,54.1,9.8,54.1,9.8C54,11.2,53.9,12.2,52.4,12.2C51.8,12.2,50.9,12.1,50.7,11.3C50.5,10.6,50.4,8.8,50.4,7.4ZM52.3,11.1C52.5,11.1,52.7,11,52.8,10.7C52.9,9.5,52.9,7.8,52.9,6.6L52.9,5.9C52.9,5.6,52.8,5.4,52.3,5.4C51.7,5.4,51.7,5.8,51.7,6.1L51.7,6.2C51.7,8.6,51.7,9.7,51.7,10.6C51.8,10.9,52.1,11.1,52.3,11.1Z" fill="rgb(255,255,255)" stroke="none" stroke-width="1"/><path id="ey9Ghqc1tBL14" d="M55,4L55.2,4C58,4,58.7,4.2,58.7,9.5L58.7,9.6C58.6,11,58.4,12,55.6,12C55.5,12,55.1,12,55.1,11.6C55.1,11.6,55.1,11.6,55.1,11.4C55.1,11,55.1,9.6,54.8,4.3C54.9,4.1,54.9,4,55,4ZM56.1,5.5C56.1,6.8,56.2,8.2,56.2,9.5C56.2,9.6,56.2,10.2,56.2,10.3C56.2,10.4,56.2,10.6,56.3,10.6C57.2,10.5,57.4,10.2,57.4,8.8L57.4,8.6L57.4,8.2C57.3,6.6,57.2,5.2,56.4,5.2C56.3,5.2,56.2,5.2,56.1,5.2L56.1,5.5Z" fill="rgb(255,255,255)" stroke="none" stroke-width="1"/><path id="ey9Ghqc1tBL15" d="M59.4,9.1L59.4,7.6C59.4,5.2,59.6,4.2,61.5,4.2L61.7,4.2C63.1,4.2,63.1,5.2,63.2,6.4C63.2,6.5,63.2,6.5,63.2,12C63.2,12.1,63.1,12.3,63,12.3L62.2,12.3C62,12.2,62,12,62,11.8L62,11.6C62,11.3,62,9.8,62,9.5C62,9.4,61.9,9.4,61.8,9.4L60.9,9.4C60.8,9.4,60.7,9.5,60.7,9.6L60.7,12C60.7,12.1,60.6,12.2,60.5,12.2L59.8,12.2C59.6,12.2,59.5,11.9,59.5,11.7C59.4,10.8,59.4,10,59.4,9.1ZM60.9,8.1C60.9,8.1,61.4,8.1,61.5,8.1L61.6,8.1C61.9,8.2,62,8,62,7.8C62,7.5,62,7.1,62,6.9C62,5.8,61.9,5.5,61.6,5.5C61.5,5.5,61.4,5.5,61.2,5.5C60.7,5.5,60.6,6.1,60.6,6.5L60.6,7.8C60.7,7.9,60.7,8.1,60.9,8.1Z" fill="rgb(255,255,255)" stroke="none" stroke-width="1"/><path id="ey9Ghqc1tBL16" d="M19.1,15L19.1,14.8C19.1,14.7,19.3,14.7,19.4,14.7L19.6,14.7C19.8,14.7,19.9,14.7,20.2,14.7C20.4,14.7,20.4,15.2,20.4,15.5L20.5,21.1L20.6,21.2L21.7,21.2C21.8,21.2,21.9,21.3,21.9,21.4L21.9,22.2C21.9,22.4,21.7,22.4,21.6,22.4C21.5,22.4,21.2,22.4,20.8,22.4C20.4,22.4,19.8,22.4,19.7,22.4L19.4,22.4C19.3,22.4,19.3,22.3,19.3,22.2C19.2,19.6,19.1,17.6,19.1,15Z" fill="rgb(255,255,255)" stroke="none" stroke-width="1"/><path id="ey9Ghqc1tBL17" d="M22.1,19.5L22.1,18C22.1,15.6,22.3,14.6,24.2,14.6L24.4,14.6C25.8,14.6,25.8,15.6,25.9,16.8C25.9,16.9,25.9,16.9,25.9,22.4C25.9,22.5,25.8,22.7,25.7,22.7L24.9,22.7C24.6,22.7,24.6,22.4,24.6,22.2L24.6,22C24.6,21.7,24.6,20.2,24.6,19.9C24.6,19.8,24.5,19.8,24.4,19.8L23.5,19.8C23.4,19.8,23.3,19.9,23.3,20L23.3,22.4C23.3,22.5,23.2,22.6,23.1,22.6L22.4,22.6C22.2,22.6,22.1,22.3,22.1,22.1C22.1,21.2,22.1,20.4,22.1,19.5ZM23.7,18.5C23.7,18.5,24.2,18.5,24.3,18.5L24.4,18.5C24.6,18.5,24.7,18.3,24.7,18.2C24.7,17.9,24.7,17.5,24.7,17.3C24.7,16.2,24.6,15.9,24.3,15.9C24.2,15.9,24.1,15.9,23.9,15.9C23.4,15.9,23.3,16.5,23.3,16.9L23.3,18.2C23.4,18.3,23.4,18.5,23.7,18.5Z" fill="rgb(255,255,255)" stroke="none" stroke-width="1"/><path id="ey9Ghqc1tBL18" d="M29,14.7C29.2,14.5,29.8,14.5,30.4,14.5C31,14.5,31.6,14.5,31.6,14.5C31.8,14.5,31.9,14.5,32,14.7C32,14.8,32,15.4,32,15.6C32,15.7,31.9,15.7,31.9,15.8C31.8,15.8,31.5,15.8,31.4,15.8C31.1,15.8,30.8,15.8,30.5,15.8C30.4,15.8,30.3,15.8,30.3,16L30.3,17.4C30.3,17.5,30.3,17.9,30.3,17.9L30.4,18L31.1,18.1C31.2,18.1,31.4,18.2,31.4,18.3C31.4,18.4,31.4,18.7,31.4,18.9C31.4,19.1,31.4,19.3,31.3,19.3C31.1,19.3,30.9,19.3,30.7,19.3C30.6,19.3,30.5,19.3,30.4,19.3C30.3,19.3,30.3,19.3,30.3,19.4L30.3,19.6C30.3,20.4,30.4,21.2,30.4,22.1C30.4,22.4,30.4,22.6,30.1,22.6C29.9,22.6,29.7,22.6,29.5,22.6L29.4,22.6C29.4,22.6,29.3,22.6,29.3,22.5C29.1,22.3,29.2,21.9,29.2,21.7L29,14.7Z" fill="rgb(255,255,255)" stroke="none" stroke-width="1"/><path id="ey9Ghqc1tBL19" d="M32,19.5L32,18C32,15.6,32.2,14.6,34.1,14.6L34.3,14.6C35.7,14.6,35.7,15.6,35.8,16.8C35.8,16.9,35.8,16.9,35.8,22.4C35.8,22.5,35.7,22.7,35.6,22.7L34.8,22.7C34.5,22.7,34.5,22.4,34.5,22.2L34.5,22C34.5,21.7,34.5,20.2,34.5,19.9C34.5,19.8,34.4,19.8,34.3,19.8L33.4,19.8C33.3,19.8,33.2,19.9,33.2,20L33.2,22.4C33.2,22.5,33.1,22.6,33,22.6L32.3,22.6C32.1,22.6,32,22.3,32,22.1C32,21.2,32,20.4,32,19.5ZM33.5,18.5C33.5,18.5,34,18.5,34.1,18.5L34.2,18.5C34.4,18.5,34.5,18.3,34.5,18.2C34.5,17.9,34.5,17.5,34.5,17.3C34.5,16.2,34.4,15.9,34.1,15.9C34,15.9,33.9,15.9,33.7,15.9C33.2,15.9,33.1,16.5,33.1,16.9L33.1,18.2C33.2,18.3,33.3,18.5,33.5,18.5Z" fill="rgb(255,255,255)" stroke="none" stroke-width="1"/><path id="ey9Ghqc1tBL20" d="M36.7,14.7C36.7,14.6,36.8,14.6,36.9,14.6L38,14.6C38.1,14.6,38.3,14.7,38.3,14.8C38.7,16.7,38.9,17.3,39,17.5C39,17.6,39.1,17.6,39.1,17.6C39.2,17.6,39.2,17.5,39.2,17.5C39.4,17,39.5,16.4,39.9,15C39.9,14.8,40,14.6,40.2,14.6L41.7,14.7C41.7,14.7,42,16.2,42,22.2C42,22.4,42,22.6,41.8,22.6L41,22.6C40.9,22.6,40.8,22.4,40.8,22.3L40.7,16.6L39.8,19.2C39.7,19.4,39.5,19.5,39.3,19.5C39.3,19.5,39.2,19.5,39.1,19.5C39,19.5,38.7,19.5,38.7,19.5C38.5,19.5,38.4,19.4,37.7,16.8L37.8,22.6C37.8,22.6,37.8,22.7,37.7,22.7C37.4,22.7,37.2,22.7,36.9,22.7C36.6,22.7,36.5,22.6,36.5,22.2L36.7,14.7Z" fill="rgb(255,255,255)" stroke="none" stroke-width="1"/><path id="ey9Ghqc1tBL21" d="M42.7,20.6C42.7,19.8,42.7,18.8,42.8,17.4C42.8,16.7,42.9,15.9,42.9,14.9C42.9,14.8,43,14.7,43.1,14.7L43.9,14.7C44.1,14.7,44.1,14.8,44.1,15L43.9,22.1C43.9,22.2,43.9,22.4,43.7,22.4L43,22.5C42.9,22.5,42.8,22.4,42.8,22.3C42.7,21.8,42.7,21.3,42.7,20.6Z" fill="rgb(255,255,255)" stroke="none" stroke-width="1"/><path id="ey9Ghqc1tBL22" d="M44.8,15L44.8,14.8C44.8,14.7,45,14.7,45.1,14.7L45.3,14.7C45.5,14.7,45.6,14.7,45.9,14.7C46.1,14.7,46.1,15.2,46.1,15.5L46.2,21.1L46.3,21.2L47.4,21.2C47.5,21.2,47.6,21.3,47.6,21.4L47.6,22.2C47.6,22.4,47.4,22.4,47.3,22.4C47.2,22.4,46.9,22.4,46.5,22.4C46.1,22.4,45.5,22.4,45.4,22.4L45,22.4C44.9,22.4,44.9,22.3,44.9,22.2C44.9,19.6,44.8,17.6,44.8,15Z" fill="rgb(255,255,255)" stroke="none" stroke-width="1"/><path id="ey9Ghqc1tBL23" d="M48,20.6C48,19.8,48,18.8,48.1,17.4C48.1,16.7,48.2,15.9,48.2,14.9C48.2,14.8,48.3,14.7,48.4,14.7L49.2,14.7C49.4,14.7,49.4,14.8,49.4,15L49.2,22.1C49.2,22.2,49.2,22.4,49,22.4L48.3,22.5C48.2,22.5,48.1,22.4,48.1,22.3C48,21.8,48,21.3,48,20.6Z" fill="rgb(255,255,255)" stroke="none" stroke-width="1"/><path id="ey9Ghqc1tBL24" d="M50.1,19.5L50.1,18C50.1,15.6,50.3,14.6,52.2,14.6L52.4,14.6C53.8,14.6,53.8,15.6,53.9,16.8C53.9,16.9,53.9,16.9,53.9,22.4C53.9,22.5,53.8,22.7,53.7,22.7L52.9,22.7C52.6,22.7,52.6,22.4,52.6,22.2L52.6,22C52.6,21.7,52.6,20.2,52.6,19.9C52.6,19.8,52.5,19.8,52.4,19.8L51.5,19.8C51.4,19.8,51.3,19.9,51.3,20L51.3,22.4C51.3,22.5,51.2,22.6,51.1,22.6L50.4,22.6C50.2,22.6,50.1,22.3,50.1,22.1C50.1,21.2,50.1,20.4,50.1,19.5ZM51.6,18.5C51.6,18.5,52.1,18.5,52.2,18.5L52.3,18.5C52.5,18.5,52.6,18.3,52.6,18.2C52.6,17.9,52.6,17.5,52.6,17.3C52.6,16.2,52.5,15.9,52.2,15.9C52.1,15.9,52,15.9,51.8,15.9C51.3,15.9,51.2,16.5,51.2,16.9L51.2,18.2C51.4,18.3,51.4,18.5,51.6,18.5Z" fill="rgb(255,255,255)" stroke="none" stroke-width="1"/></g><path id="ey9Ghqc1tBL25" d="M89.5,12.8L82.8,6C82.5,5.7,82,5.7,81.8,6C81.5,6.3,81.5,6.8,81.8,7L88,13.2L81.8,19.4C81.5,19.7,81.5,20.2,81.8,20.4C82.1,20.7,82.6,20.7,82.8,20.4L89.5,13.7C89.6,13.6,89.7,13.4,89.7,13.2C89.7,13.1,89.7,12.9,89.5,12.8Z" fill="rgb(255,255,255)" stroke="none" stroke-width="1"/><script><![CDATA[!function(t,n){"object"==typeof exports&&"undefined"!=typeof module?module.exports=n():"function"==typeof define&&define.amd?define(n):((t="undefined"!=typeof globalThis?globalThis:t||self).__SVGATOR_PLAYER__=t.__SVGATOR_PLAYER__||{},t.__SVGATOR_PLAYER__["5c7f360c"]=n())}(this,(function(){"use strict";function t(t,n){var r=Object.keys(t);if(Object.getOwnPropertySymbols){var e=Object.getOwnPropertySymbols(t);n&&(e=e.filter((function(n){return Object.getOwnPropertyDescriptor(t,n).enumerable}))),r.push.apply(r,e)}return r}function n(n){for(var r=1;r<arguments.length;r++){var e=null!=arguments[r]?arguments[r]:{};r%2?t(Object(e),!0).forEach((function(t){u(n,t,e[t])})):Object.getOwnPropertyDescriptors?Object.defineProperties(n,Object.getOwnPropertyDescriptors(e)):t(Object(e)).forEach((function(t){Object.defineProperty(n,t,Object.getOwnPropertyDescriptor(e,t))}))}return n}function r(t){return(r="function"==typeof Symbol&&"symbol"==typeof Symbol.iterator?function(t){return typeof t}:function(t){return t&&"function"==typeof Symbol&&t.constructor===Symbol&&t!==Symbol.prototype?"symbol":typeof t})(t)}function e(t,n){if(!(t instanceof n))throw new TypeError("Cannot call a class as a function")}function i(t,n){for(var r=0;r<n.length;r++){var e=n[r];e.enumerable=e.enumerable||!1,e.configurable=!0,"value"in e&&(e.writable=!0),Object.defineProperty(t,e.key,e)}}function o(t,n,r){return n&&i(t.prototype,n),r&&i(t,r),t}function u(t,n,r){return n in t?Object.defineProperty(t,n,{value:r,enumerable:!0,configurable:!0,writable:!0}):t[n]=r,t}function a(t){return(a=Object.setPrototypeOf?Object.getPrototypeOf:function(t){return t.__proto__||Object.getPrototypeOf(t)})(t)}function l(t,n){return(l=Object.setPrototypeOf||function(t,n){return t.__proto__=n,t})(t,n)}function f(){if("undefined"==typeof Reflect||!Reflect.construct)return!1;if(Reflect.construct.sham)return!1;if("function"==typeof Proxy)return!0;try{return Boolean.prototype.valueOf.call(Reflect.construct(Boolean,[],(function(){}))),!0}catch(t){return!1}}function s(t,n,r){return(s=f()?Reflect.construct:function(t,n,r){var e=[null];e.push.apply(e,n);var i=new(Function.bind.apply(t,e));return r&&l(i,r.prototype),i}).apply(null,arguments)}function c(t,n){if(n&&("object"==typeof n||"function"==typeof n))return n;if(void 0!==n)throw new TypeError("Derived constructors may only return object or undefined");return function(t){if(void 0===t)throw new ReferenceError("this hasn't been initialised - super() hasn't been called");return t}(t)}function h(t,n,r){return(h="undefined"!=typeof Reflect&&Reflect.get?Reflect.get:function(t,n,r){var e=function(t,n){for(;!Object.prototype.hasOwnProperty.call(t,n)&&null!==(t=a(t)););return t}(t,n);if(e){var i=Object.getOwnPropertyDescriptor(e,n);return i.get?i.get.call(r):i.value}})(t,n,r||t)}function v(t){return function(t){if(Array.isArray(t))return y(t)}(t)||function(t){if("undefined"!=typeof Symbol&&null!=t[Symbol.iterator]||null!=t["@@iterator"])return Array.from(t)}(t)||function(t,n){if(!t)return;if("string"==typeof t)return y(t,n);var r=Object.prototype.toString.call(t).slice(8,-1);"Object"===r&&t.constructor&&(r=t.constructor.name);if("Map"===r||"Set"===r)return Array.from(t);if("Arguments"===r||/^(?:Ui|I)nt(?:8|16|32)(?:Clamped)?Array$/.test(r))return y(t,n)}(t)||function(){throw new TypeError("Invalid attempt to spread non-iterable instance.\nIn order to be iterable, non-array objects must have a [Symbol.iterator]() method.")}()}function y(t,n){(null==n||n>t.length)&&(n=t.length);for(var r=0,e=new Array(n);r<n;r++)e[r]=t[r];return e}var g=d(Math.pow(10,-6));function d(t){var n=arguments.length>1&&void 0!==arguments[1]?arguments[1]:6;if(Number.isInteger(t))return t;var r=Math.pow(10,n);return Math.round((+t+Number.EPSILON)*r)/r}function p(t,n){var r=arguments.length>2&&void 0!==arguments[2]?arguments[2]:g;return Math.abs(t-n)<r}var m=Math.PI/180;function b(t){return t}function w(t,n,r){var e=1-r;return 3*r*e*(t*e+n*r)+r*r*r}function x(){var t=arguments.length>0&&void 0!==arguments[0]?arguments[0]:0,n=arguments.length>1&&void 0!==arguments[1]?arguments[1]:0,r=arguments.length>2&&void 0!==arguments[2]?arguments[2]:1,e=arguments.length>3&&void 0!==arguments[3]?arguments[3]:1;return t<0||t>1||r<0||r>1?null:p(t,n)&&p(r,e)?b:function(i){if(i<=0)return t>0?i*n/t:0===n&&r>0?i*e/r:0;if(i>=1)return r<1?1+(i-1)*(e-1)/(r-1):1===r&&t<1?1+(i-1)*(n-1)/(t-1):1;for(var o,u=0,a=1;u<a;){var l=w(t,r,o=(u+a)/2);if(p(i,l))break;l<i?u=o:a=o}return w(n,e,o)}}function A(){return 1}function k(t){return 1===t?1:0}function S(){var t=arguments.length>0&&void 0!==arguments[0]?arguments[0]:1,n=arguments.length>1&&void 0!==arguments[1]?arguments[1]:0;if(1===t){if(0===n)return k;if(1===n)return A}var r=1/t;return function(t){return t>=1?1:(t+=n*r)-t%r}}var _=Math.sin,O=Math.cos,j=Math.acos,M=Math.asin,P=Math.tan,E=Math.atan2,I=Math.PI/180,R=180/Math.PI,F=Math.sqrt,N=function(){function t(){var n=arguments.length>0&&void 0!==arguments[0]?arguments[0]:1,r=arguments.length>1&&void 0!==arguments[1]?arguments[1]:0,i=arguments.length>2&&void 0!==arguments[2]?arguments[2]:0,o=arguments.length>3&&void 0!==arguments[3]?arguments[3]:1,u=arguments.length>4&&void 0!==arguments[4]?arguments[4]:0,a=arguments.length>5&&void 0!==arguments[5]?arguments[5]:0;e(this,t),this.m=[n,r,i,o,u,a],this.i=null,this.w=null,this.s=null}return o(t,[{key:"determinant",get:function(){var t=this.m;return t[0]*t[3]-t[1]*t[2]}},{key:"isIdentity",get:function(){if(null===this.i){var t=this.m;this.i=1===t[0]&&0===t[1]&&0===t[2]&&1===t[3]&&0===t[4]&&0===t[5]}return this.i}},{key:"point",value:function(t,n){var r=this.m;return{x:r[0]*t+r[2]*n+r[4],y:r[1]*t+r[3]*n+r[5]}}},{key:"translateSelf",value:function(){var t=arguments.length>0&&void 0!==arguments[0]?arguments[0]:0,n=arguments.length>1&&void 0!==arguments[1]?arguments[1]:0;if(!t&&!n)return this;var r=this.m;return r[4]+=r[0]*t+r[2]*n,r[5]+=r[1]*t+r[3]*n,this.w=this.s=this.i=null,this}},{key:"rotateSelf",value:function(){var t=arguments.length>0&&void 0!==arguments[0]?arguments[0]:0;if(t%=360){var n=_(t*=I),r=O(t),e=this.m,i=e[0],o=e[1];e[0]=i*r+e[2]*n,e[1]=o*r+e[3]*n,e[2]=e[2]*r-i*n,e[3]=e[3]*r-o*n,this.w=this.s=this.i=null}return this}},{key:"scaleSelf",value:function(){var t=arguments.length>0&&void 0!==arguments[0]?arguments[0]:1,n=arguments.length>1&&void 0!==arguments[1]?arguments[1]:1;if(1!==t||1!==n){var r=this.m;r[0]*=t,r[1]*=t,r[2]*=n,r[3]*=n,this.w=this.s=this.i=null}return this}},{key:"skewSelf",value:function(t,n){if(n%=360,(t%=360)||n){var r=this.m,e=r[0],i=r[1],o=r[2],u=r[3];t&&(t=P(t*I),r[2]+=e*t,r[3]+=i*t),n&&(n=P(n*I),r[0]+=o*n,r[1]+=u*n),this.w=this.s=this.i=null}return this}},{key:"resetSelf",value:function(){var t=arguments.length>0&&void 0!==arguments[0]?arguments[0]:1,n=arguments.length>1&&void 0!==arguments[1]?arguments[1]:0,r=arguments.length>2&&void 0!==arguments[2]?arguments[2]:0,e=arguments.length>3&&void 0!==arguments[3]?arguments[3]:1,i=arguments.length>4&&void 0!==arguments[4]?arguments[4]:0,o=arguments.length>5&&void 0!==arguments[5]?arguments[5]:0,u=this.m;return u[0]=t,u[1]=n,u[2]=r,u[3]=e,u[4]=i,u[5]=o,this.w=this.s=this.i=null,this}},{key:"recomposeSelf",value:function(){var t=arguments.length>0&&void 0!==arguments[0]?arguments[0]:null,n=arguments.length>1&&void 0!==arguments[1]?arguments[1]:null,r=arguments.length>2&&void 0!==arguments[2]?arguments[2]:null,e=arguments.length>3&&void 0!==arguments[3]?arguments[3]:null,i=arguments.length>4&&void 0!==arguments[4]?arguments[4]:null;return this.isIdentity||this.resetSelf(),t&&(t.x||t.y)&&this.translateSelf(t.x,t.y),n&&this.rotateSelf(n),r&&(r.x&&this.skewSelf(r.x,0),r.y&&this.skewSelf(0,r.y)),!e||1===e.x&&1===e.y||this.scaleSelf(e.x,e.y),i&&(i.x||i.y)&&this.translateSelf(i.x,i.y),this}},{key:"decompose",value:function(){var t=arguments.length>0&&void 0!==arguments[0]?arguments[0]:0,n=arguments.length>1&&void 0!==arguments[1]?arguments[1]:0,r=this.m,e=r[0]*r[0]+r[1]*r[1],i=[[r[0],r[1]],[r[2],r[3]]],o=F(e);if(0===o)return{origin:{x:d(r[4]),y:d(r[5])},translate:{x:d(t),y:d(n)},scale:{x:0,y:0},skew:{x:0,y:0},rotate:0};i[0][0]/=o,i[0][1]/=o;var u=r[0]*r[3]-r[1]*r[2]<0;u&&(o=-o);var a=i[0][0]*i[1][0]+i[0][1]*i[1][1];i[1][0]-=i[0][0]*a,i[1][1]-=i[0][1]*a;var l=F(i[1][0]*i[1][0]+i[1][1]*i[1][1]);if(0===l)return{origin:{x:d(r[4]),y:d(r[5])},translate:{x:d(t),y:d(n)},scale:{x:d(o),y:0},skew:{x:0,y:0},rotate:0};i[1][0]/=l,i[1][1]/=l,a/=l;var f=0;return i[1][1]<0?(f=j(i[1][1])*R,i[0][1]<0&&(f=360-f)):f=M(i[0][1])*R,u&&(f=-f),a=E(a,F(i[0][0]*i[0][0]+i[0][1]*i[0][1]))*R,u&&(a=-a),{origin:{x:d(r[4]),y:d(r[5])},translate:{x:d(t),y:d(n)},scale:{x:d(o),y:d(l)},skew:{x:d(a),y:0},rotate:d(f)}}},{key:"clone",value:function(){var t=this.m;return new this.constructor(t[0],t[1],t[2],t[3],t[4],t[5])}},{key:"toString",value:function(){var t=arguments.length>0&&void 0!==arguments[0]?arguments[0]:" ";return null===this.s&&(this.s="matrix("+this.m.map((function(t){return d(t)})).join(t)+")"),this.s}}],[{key:"create",value:function(t){return t?Array.isArray(t)?s(this,v(t)):t instanceof this?t.clone():(new this).recomposeSelf(t.origin,t.rotate,t.skew,t.scale,t.translate):new this}}]),t}();function T(t,n,r){return t>=.5?r:n}function B(t,n,r){return 0===t||n===r?n:t*(r-n)+n}function q(t,n,r){var e=B(t,n,r);return e<=0?0:e}function L(t,n,r){var e=B(t,n,r);return e<=0?0:e>=1?1:e}function C(t,n,r){return 0===t?n:1===t?r:{x:B(t,n.x,r.x),y:B(t,n.y,r.y)}}function D(t,n,r){var e=function(t,n,r){return Math.round(B(t,n,r))}(t,n,r);return e<=0?0:e>=255?255:e}function z(t,n,r){return 0===t?n:1===t?r:{r:D(t,n.r,r.r),g:D(t,n.g,r.g),b:D(t,n.b,r.b),a:B(t,null==n.a?1:n.a,null==r.a?1:r.a)}}function V(t,n){for(var r=[],e=0;e<t;e++)r.push(n);return r}function G(t,n){if(--n<=0)return t;var r=(t=Object.assign([],t)).length;do{for(var e=0;e<r;e++)t.push(t[e])}while(--n>0);return t}var Y,$=function(){function t(n){e(this,t),this.list=n,this.length=n.length}return o(t,[{key:"setAttribute",value:function(t,n){for(var r=this.list,e=0;e<this.length;e++)r[e].setAttribute(t,n)}},{key:"removeAttribute",value:function(t){for(var n=this.list,r=0;r<this.length;r++)n[r].removeAttribute(t)}},{key:"style",value:function(t,n){for(var r=this.list,e=0;e<this.length;e++)r[e].style[t]=n}}]),t}(),U=/-./g,Q=function(t,n){return n.toUpperCase()};function H(t){return"function"==typeof t?t:T}function J(t){return t?"function"==typeof t?t:Array.isArray(t)?function(t){var n=arguments.length>1&&void 0!==arguments[1]?arguments[1]:b;if(!Array.isArray(t))return n;switch(t.length){case 1:return S(t[0])||n;case 2:return S(t[0],t[1])||n;case 4:return x(t[0],t[1],t[2],t[3])||n}return n}(t,null):function(t,n){var r=arguments.length>2&&void 0!==arguments[2]?arguments[2]:b;switch(t){case"linear":return b;case"steps":return S(n.steps||1,n.jump||0)||r;case"bezier":case"cubic-bezier":return x(n.x1||0,n.y1||0,n.x2||0,n.y2||0)||r}return r}(t.type,t.value,null):null}function Z(t,n,r){var e=arguments.length>3&&void 0!==arguments[3]&&arguments[3],i=n.length-1;if(t<=n[0].t)return e?[0,0,n[0].v]:n[0].v;if(t>=n[i].t)return e?[i,1,n[i].v]:n[i].v;var o,u=n[0],a=null;for(o=1;o<=i;o++){if(!(t>n[o].t)){a=n[o];break}u=n[o]}return null==a?e?[i,1,n[i].v]:n[i].v:u.t===a.t?e?[o,1,a.v]:a.v:(t=(t-u.t)/(a.t-u.t),u.e&&(t=u.e(t)),e?[o,t,r(t,u.v,a.v)]:r(t,u.v,a.v))}function K(t,n){var r=arguments.length>2&&void 0!==arguments[2]?arguments[2]:null;return t&&t.length?"function"!=typeof n?null:("function"!=typeof r&&(r=null),function(e){var i=Z(e,t,n);return null!=i&&r&&(i=r(i)),i}):null}function W(t,n){return t.t-n.t}function X(t,n,e,i,o){var u,a="@"===e[0],l="#"===e[0],f=Y[e],s=T;switch(a?(u=e.substr(1),e=u.replace(U,Q)):l&&(e=e.substr(1)),r(f)){case"function":if(s=f(i,o,Z,J,e,a,n,t),l)return s;break;case"string":s=K(i,H(f));break;case"object":if((s=K(i,H(f.i),f.f))&&"function"==typeof f.u)return f.u(n,s,e,a,t)}return s?function(t,n,r){if(arguments.length>3&&void 0!==arguments[3]&&arguments[3])return t instanceof $?function(e){return t.style(n,r(e))}:function(e){return t.style[n]=r(e)};if(Array.isArray(n)){var e=n.length;return function(i){var o=r(i);if(null==o)for(var u=0;u<e;u++)t[u].removeAttribute(n);else for(var a=0;a<e;a++)t[a].setAttribute(n,o)}}return function(e){var i=r(e);null==i?t.removeAttribute(n):t.setAttribute(n,i)}}(n,e,s,a):null}function tt(t,n,e,i){if(!i||"object"!==r(i))return null;var o=null,u=null;return Array.isArray(i)?u=function(t){if(!t||!t.length)return null;for(var n=0;n<t.length;n++)t[n].e&&(t[n].e=J(t[n].e));return t.sort(W)}(i):(u=i.keys,o=i.data||null),u?X(t,n,e,u,o):null}function nt(t,n,r){if(!r)return null;var e=[];for(var i in r)if(r.hasOwnProperty(i)){var o=tt(t,n,i,r[i]);o&&e.push(o)}return e.length?e:null}function rt(t,n){if(!n.duration||n.duration<0)return null;var r=function(t,n){if(!n)return null;var r=[];if(Array.isArray(n))for(var e=n.length,i=0;i<e;i++){var o=n[i];if(2===o.length){var u=null;if("string"==typeof o[0])u=t.getElementById(o[0]);else if(Array.isArray(o[0])){u=[];for(var a=0;a<o[0].length;a++)if("string"==typeof o[0][a]){var l=t.getElementById(o[0][a]);l&&u.push(l)}u=u.length?1===u.length?u[0]:new $(u):null}if(u){var f=nt(t,u,o[1]);f&&(r=r.concat(f))}}}else for(var s in n)if(n.hasOwnProperty(s)){var c=t.getElementById(s);if(c){var h=nt(t,c,n[s]);h&&(r=r.concat(h))}}return r.length?r:null}(t,n.elements);return r?function(t,n){var r=arguments.length>2&&void 0!==arguments[2]?arguments[2]:1/0,e=arguments.length>3&&void 0!==arguments[3]?arguments[3]:1,i=arguments.length>4&&void 0!==arguments[4]&&arguments[4],o=arguments.length>5&&void 0!==arguments[5]?arguments[5]:1,u=t.length,a=e>0?n:0;i&&r%2==0&&(a=n-a);var l=null;return function(f,s){var c=f%n,h=1+(f-c)/n;s*=e,i&&h%2==0&&(s=-s);var v=!1;if(h>r)c=a,v=!0,-1===o&&(c=e>0?0:n);else if(s<0&&(c=n-c),c===l)return!1;l=c;for(var y=0;y<u;y++)t[y](c);return v}}(r,n.duration,n.iterations||1/0,n.direction||1,!!n.alternate,n.fill||1):null}function et(t){return+("0x"+(t.replace(/[^0-9a-fA-F]+/g,"")||27))}function it(t,n,r){return!t||!r||n>t.length?t:t.substring(0,n)+it(t.substring(n+1),r,r)}function ot(t){var n=arguments.length>1&&void 0!==arguments[1]?arguments[1]:27;return!t||t%n?t%n:ot(t/n,n)}function ut(t,n,r){if(t&&t.length){var e=et(r),i=et(n),o=ot(e)+5,u=it(t,ot(e,5),o);return u=u.replace(/\x7c$/g,"==").replace(/\x2f$/g,"="),u=function(t,n,r){var e=+("0x"+t.substring(0,4));t=t.substring(4);for(var i=n%e+r%27,o=[],u=0;u<t.length;u+=2)if("|"!==t[u]){var a=+("0x"+t[u]+t[u+1])-i;o.push(a)}else{var l=+("0x"+t.substring(u+1,u+1+4))-i;u+=3,o.push(l)}return String.fromCharCode.apply(String,o)}(u=(u=atob(u)).replace(/[\x41-\x5A]/g,""),i,e),u=JSON.parse(u)}}Number.isInteger||(Number.isInteger=function(t){return"number"==typeof t&&isFinite(t)&&Math.floor(t)===t}),Number.EPSILON||(Number.EPSILON=2220446049250313e-31);var at=function(){function t(n,r){var i=arguments.length>2&&void 0!==arguments[2]?arguments[2]:{};e(this,t),this._id=0,this._running=!1,this._rollingBack=!1,this._animations=n,this.duration=r.duration,this.alternate=r.alternate,this.fill=r.fill,this.iterations=r.iterations,this.direction=i.direction||1,this.speed=i.speed||1,this.fps=i.fps||100,this.offset=i.offset||0,this.rollbackStartOffset=0}return o(t,[{key:"_rollback",value:function(){var t=this,n=1/0,r=null;this.rollbackStartOffset=this.offset,this._rollingBack||(this._rollingBack=!0,this._running=!0);this._id=window.requestAnimationFrame((function e(i){if(t._rollingBack){null==r&&(r=i);var o=i-r,u=t.rollbackStartOffset-o,a=Math.round(u*t.speed);if(a>t.duration&&n!=1/0){var l=!!t.alternate&&a/t.duration%2>1,f=a%t.duration;a=(f+=l?t.duration:0)||t.duration}var s=t.fps?1e3/t.fps:0,c=Math.max(0,a);if(c<n-s){t.offset=c,n=c;for(var h=t._animations,v=h.length,y=0;y<v;y++)h[y](c,t.direction)}var g=!1;if(t.iterations>0&&-1===t.fill){var d=t.iterations*t.duration,p=d==a;a=p?0:a,t.offset=p?0:t.offset,g=a>d}a>0&&t.offset>=a&&!g?t._id=window.requestAnimationFrame(e):t.stop()}}))}},{key:"_start",value:function(){var t=this,n=arguments.length>0&&void 0!==arguments[0]?arguments[0]:0,r=-1/0,e=null,i={},o=function o(u){t._running=!0,null==e&&(e=u);var a=Math.round((u-e+n)*t.speed),l=t.fps?1e3/t.fps:0;if(a>r+l&&!t._rollingBack){t.offset=a,r=a;for(var f=t._animations,s=f.length,c=0,h=0;h<s;h++)i[h]?c++:(i[h]=f[h](a,t.direction),i[h]&&c++);if(c===s)return void t._stop()}t._id=window.requestAnimationFrame(o)};this._id=window.requestAnimationFrame(o)}},{key:"_stop",value:function(){this._id&&window.cancelAnimationFrame(this._id),this._running=!1,this._rollingBack=!1}},{key:"play",value:function(){!this._rollingBack&&this._running||(this._rollingBack=!1,this.rollbackStartOffset>this.duration&&(this.offset=this.rollbackStartOffset-(this.rollbackStartOffset-this.offset)%this.duration,this.rollbackStartOffset=0),this._start(this.offset))}},{key:"stop",value:function(){this._stop(),this.offset=0,this.rollbackStartOffset=0;var t=this.direction,n=this._animations;window.requestAnimationFrame((function(){for(var r=0;r<n.length;r++)n[r](0,t)}))}},{key:"reachedToEnd",value:function(){return this.iterations>0&&this.offset>=this.iterations*this.duration}},{key:"restart",value:function(){this._stop(),this.offset=0,this._start()}},{key:"pause",value:function(){this._stop()}},{key:"reverse",value:function(){this.direction=-this.direction}}],[{key:"build",value:function(r,e){return delete r.animationSettings,r.options=ut(r.options,r.root,"5c7f360c"),r.animations.map((function(t){var e=ut(t.s,r.root,"5c7f360c");for(var i in delete t.s,r.animationSettings||(r.animationSettings=n({},e)),e)e.hasOwnProperty(i)&&(t[i]=e[i])})),(r=function(t,n){if(Y=n,!t||!t.root||!Array.isArray(t.animations))return null;for(var r=document.getElementsByTagName("svg"),e=!1,i=0;i<r.length;i++)if(r[i].id===t.root&&!r[i].svgatorAnimation){(e=r[i]).svgatorAnimation=!0;break}if(!e)return null;var o=t.animations.map((function(t){return rt(e,t)})).filter((function(t){return!!t}));return o.length?{element:e,animations:o,animationSettings:t.animationSettings,options:t.options||void 0}:null}(r,e))?{el:r.element,options:r.options||{},player:new t(r.animations,r.animationSettings,r.options)}:null}},{key:"push",value:function(t){return this.build(t)}},{key:"init",value:function(){var t=this,n=window.__SVGATOR_PLAYER__&&window.__SVGATOR_PLAYER__["5c7f360c"];Array.isArray(n)&&n.splice(0).forEach((function(n){return t.build(n)}))}}]),t}();function lt(t){return d(t)+""}function ft(t){var n=arguments.length>1&&void 0!==arguments[1]?arguments[1]:" ";return t&&t.length?t.map(lt).join(n):""}function st(t){return t?null==t.a||t.a>=1?"rgb("+t.r+","+t.g+","+t.b+")":"rgba("+t.r+","+t.g+","+t.b+","+t.a+")":"transparent"}function ct(t){return t?"url(#"+t+")":"none"}!function(){for(var t=0,n=["ms","moz","webkit","o"],r=0;r<n.length&&!window.requestAnimationFrame;++r)window.requestAnimationFrame=window[n[r]+"RequestAnimationFrame"],window.cancelAnimationFrame=window[n[r]+"CancelAnimationFrame"]||window[n[r]+"CancelRequestAnimationFrame"];window.requestAnimationFrame||(window.requestAnimationFrame=function(n){var r=Date.now(),e=Math.max(0,16-(r-t)),i=window.setTimeout((function(){n(r+e)}),e);return t=r+e,i},window.cancelAnimationFrame=window.clearTimeout)}();var ht={f:null,i:function(t,n,r){return 0===t?n:1===t?r:{x:q(t,n.x,r.x),y:q(t,n.y,r.y)}},u:function(t,n){return function(r){var e=n(r);t.setAttribute("rx",lt(e.x)),t.setAttribute("ry",lt(e.y))}}},vt={f:null,i:function(t,n,r){return 0===t?n:1===t?r:{width:q(t,n.width,r.width),height:q(t,n.height,r.height)}},u:function(t,n){return function(r){var e=n(r);t.setAttribute("width",lt(e.width)),t.setAttribute("height",lt(e.height))}}};Object.freeze({M:2,L:2,Z:0,H:1,V:1,C:6,Q:4,T:2,S:4,A:7});var yt={},gt=null;function dt(t){var n=function(){if(gt)return gt;if("object"!==("undefined"==typeof document?"undefined":r(document))||!document.createElementNS)return{};var t=document.createElementNS("http://www.w3.org/2000/svg","svg");return t&&t.style?(t.style.position="absolute",t.style.opacity="0.01",t.style.zIndex="-9999",t.style.left="-9999px",t.style.width="1px",t.style.height="1px",gt={svg:t}):{}}().svg;if(!n)return function(t){return null};var e=document.createElementNS(n.namespaceURI,"path");e.setAttributeNS(null,"d",t),e.setAttributeNS(null,"fill","none"),e.setAttributeNS(null,"stroke","none"),n.appendChild(e);var i=e.getTotalLength();return function(t){var n=e.getPointAtLength(i*t);return{x:n.x,y:n.y}}}function pt(t){return yt[t]?yt[t]:yt[t]=dt(t)}function mt(t,n,r,e){if(!t||!e)return!1;var i=["M",t.x,t.y];if(n&&r&&(i.push("C"),i.push(n.x),i.push(n.y),i.push(r.x),i.push(r.y)),n?!r:r){var o=n||r;i.push("Q"),i.push(o.x),i.push(o.y)}return n||r||i.push("L"),i.push(e.x),i.push(e.y),i.join(" ")}function bt(t,n,r,e){var i=arguments.length>4&&void 0!==arguments[4]?arguments[4]:1,o=mt(t,n,r,e),u=pt(o);try{return u(i)}catch(t){return null}}function wt(t,n,r,e){var i=1-e;return i*i*t+2*i*e*n+e*e*r}function xt(t,n,r,e){return 2*(1-e)*(n-t)+2*e*(r-n)}function At(t,n,r,e){var i=arguments.length>4&&void 0!==arguments[4]&&arguments[4],o=bt(t,n,null,r,e);return o||(o={x:wt(t.x,n.x,r.x,e),y:wt(t.y,n.y,r.y,e)}),i&&(o.a=kt(t,n,r,e)),o}function kt(t,n,r,e){return Math.atan2(xt(t.y,n.y,r.y,e),xt(t.x,n.x,r.x,e))}function St(t,n,r,e,i){var o=i*i;return i*o*(e-t+3*(n-r))+3*o*(t+r-2*n)+3*i*(n-t)+t}function _t(t,n,r,e,i){var o=1-i;return 3*(o*o*(n-t)+2*o*i*(r-n)+i*i*(e-r))}function Ot(t,n,r,e,i){var o=arguments.length>5&&void 0!==arguments[5]&&arguments[5],u=bt(t,n,r,e,i);return u||(u={x:St(t.x,n.x,r.x,e.x,i),y:St(t.y,n.y,r.y,e.y,i)}),o&&(u.a=jt(t,n,r,e,i)),u}function jt(t,n,r,e,i){return Math.atan2(_t(t.y,n.y,r.y,e.y,i),_t(t.x,n.x,r.x,e.x,i))}function Mt(t,n,r){return t+(n-t)*r}function Pt(t,n,r){var e=arguments.length>3&&void 0!==arguments[3]&&arguments[3],i={x:Mt(t.x,n.x,r),y:Mt(t.y,n.y,r)};return e&&(i.a=Et(t,n)),i}function Et(t,n){return Math.atan2(n.y-t.y,n.x-t.x)}function It(t,n,r){var e=arguments.length>3&&void 0!==arguments[3]&&arguments[3];if(Ft(n)){if(Nt(r))return At(n,r.start,r,t,e)}else if(Ft(r)){if(n.end)return At(n,n.end,r,t,e)}else{if(n.end)return r.start?Ot(n,n.end,r.start,r,t,e):At(n,n.end,r,t,e);if(r.start)return At(n,r.start,r,t,e)}return Pt(n,r,t,e)}function Rt(t,n,r){var e=It(t,n,r,!0);return e.a=function(t){return arguments.length>1&&void 0!==arguments[1]&&arguments[1]?t+Math.PI:t}(e.a)/m,e}function Ft(t){return!t.type||"corner"===t.type}function Nt(t){return null!=t.start&&!Ft(t)}var Tt=new N;var Bt={f:lt,i:B},qt={f:lt,i:L};function Lt(t,n,r){return t.map((function(t){return function(t,n,r){var e=t.v;if(!e||"g"!==e.t||e.s||!e.v||!e.r)return t;var i=r.getElementById(e.r),o=i&&i.querySelectorAll("stop")||[];return e.s=e.v.map((function(t,n){var r=o[n]&&o[n].getAttribute("offset");return{c:t,o:r=d(parseInt(r)/100)}})),delete e.v,t}(t,0,r)}))}var Ct={gt:"gradientTransform",c:{x:"cx",y:"cy"},rd:"r",f:{x:"x1",y:"y1"},to:{x:"x2",y:"y2"}};function Dt(t,n,e,i,o,u,a,l){return Lt(t,0,l),n=function(t,n,r){for(var e,i,o,u=t.length-1,a={},l=0;l<=u;l++)(e=t[l]).e&&(e.e=n(e.e)),e.v&&"g"===(i=e.v).t&&i.r&&(o=r.getElementById(i.r))&&(a[i.r]={e:o,s:o.querySelectorAll("stop")});return a}(t,i,l),function(i){var o=e(i,t,zt);if(!o)return"none";if("c"===o.t)return st(o.v);if("g"===o.t){if(!n[o.r])return ct(o.r);var u=n[o.r];return function(t,n){for(var r=t.s,e=r.length;e<n.length;e++){var i=r[r.length-1].cloneNode();i.id=Yt(i.id),t.e.appendChild(i),r=t.s=t.e.querySelectorAll("stop")}for(var o=0,u=r.length,a=n.length-1;o<u;o++)r[o].setAttribute("stop-color",st(n[Math.min(o,a)].c)),r[o].setAttribute("offset",n[Math.min(o,a)].o)}(u,o.s),Object.keys(Ct).forEach((function(t){if(void 0!==o[t])if("object"!==r(Ct[t])){var n,e="gt"===t?(n=o[t],Array.isArray(n)?"matrix("+n.join(" ")+")":""):o[t],i=Ct[t];u.e.setAttribute(i,e)}else Object.keys(Ct[t]).forEach((function(n){if(void 0!==o[t][n]){var r=o[t][n],e=Ct[t][n];u.e.setAttribute(e,r)}}))})),ct(o.r)}return"none"}}function zt(t,r,e){if(0===t)return r;if(1===t)return e;if(r&&e){var i=r.t;if(i===e.t)switch(r.t){case"c":return{t:i,v:z(t,r.v,e.v)};case"g":if(r.r===e.r){var o={t:i,s:Vt(t,r.s,e.s),r:r.r};return r.gt&&e.gt&&(o.gt=function(t,n,r){var e=n.length;if(e!==r.length)return T(t,n,r);for(var i=new Array(e),o=0;o<e;o++)i[o]=B(t,n[o],r[o]);return i}(t,r.gt,e.gt)),r.c?(o.c=C(t,r.c,e.c),o.rd=q(t,r.rd,e.rd)):r.f&&(o.f=C(t,r.f,e.f),o.to=C(t,r.to,e.to)),o}}if("c"===r.t&&"g"===e.t||"c"===e.t&&"g"===r.t){var u="c"===r.t?r:e,a="g"===r.t?n({},r):n({},e),l=a.s.map((function(t){return{c:u.v,o:t.o}}));return a.s="c"===r.t?Vt(t,l,a.s):Vt(t,a.s,l),a}}return T(t,r,e)}function Vt(t,n,r){if(n.length===r.length)return n.map((function(n,e){return Gt(t,n,r[e])}));for(var e=Math.max(n.length,r.length),i=[],o=0;o<e;o++){var u=Gt(t,n[Math.min(o,n.length-1)],r[Math.min(o,r.length-1)]);i.push(u)}return i}function Gt(t,n,r){return{o:L(t,n.o,r.o||0),c:z(t,n.c,r.c||{})}}function Yt(t){return t.replace(/-fill-([0-9]+)$/,(function(t,n){return"-fill-"+(+n+1)}))}var $t={fill:Dt,"fill-opacity":qt,stroke:Dt,"stroke-opacity":qt,"stroke-width":Bt,"stroke-dashoffset":{f:lt,i:B},"stroke-dasharray":{f:function(t){var n=arguments.length>1&&void 0!==arguments[1]?arguments[1]:" ";return t&&t.length>0&&(t=t.map((function(t){return d(t,4)}))),ft(t,n)},i:function(t,n,r){var e,i,o,u=n.length,a=r.length;if(u!==a)if(0===u)n=V(u=a,0);else if(0===a)a=u,r=V(u,0);else{var l=(o=(e=u)*(i=a)/function(t,n){for(var r;n;)r=n,n=t%n,t=r;return t||1}(e,i))<0?-o:o;n=G(n,Math.floor(l/u)),r=G(r,Math.floor(l/a)),u=a=l}for(var f=[],s=0;s<u;s++)f.push(d(q(t,n[s],r[s])));return f}},opacity:qt,transform:function(t,n,e,i){if(!(t=function(t,n){if(!t||"object"!==r(t))return null;var e=!1;for(var i in t)t.hasOwnProperty(i)&&(t[i]&&t[i].length?(t[i].forEach((function(t){t.e&&(t.e=n(t.e))})),e=!0):delete t[i]);return e?t:null}(t,i)))return null;var o=function(r,i,o){var u=arguments.length>3&&void 0!==arguments[3]?arguments[3]:null;return t[r]?e(i,t[r],o):n&&n[r]?n[r]:u};return n&&n.a&&t.o?function(n){var r=e(n,t.o,Rt);return Tt.recomposeSelf(r,o("r",n,B,0)+r.a,o("k",n,C),o("s",n,C),o("t",n,C)).toString()}:function(t){return Tt.recomposeSelf(o("o",t,It,null),o("r",t,B,0),o("k",t,C),o("s",t,C),o("t",t,C)).toString()}},r:Bt,"#size":vt,"#radius":ht,_:function(t,n){if(Array.isArray(t))for(var r=0;r<t.length;r++)this[t[r]]=n;else this[t]=n}},Ut=function(t){!function(t,n){if("function"!=typeof n&&null!==n)throw new TypeError("Super expression must either be null or a function");t.prototype=Object.create(n&&n.prototype,{constructor:{value:t,writable:!0,configurable:!0}}),n&&l(t,n)}(u,t);var n,r,i=(n=u,r=f(),function(){var t,e=a(n);if(r){var i=a(this).constructor;t=Reflect.construct(e,arguments,i)}else t=e.apply(this,arguments);return c(this,t)});function u(){return e(this,u),i.apply(this,arguments)}return o(u,null,[{key:"build",value:function(t){var n=h(a(u),"build",this).call(this,t,$t);if(!n)return null;n.el,n.options,function(t,n,r){t.play()}(n.player)}}]),u}(at);return Ut.init(),Ut}));
(function(s,i,o,w){w[o]=w[o]||{};w[o][s]=w[o][s]||[];w[o][s].push(i);})('5c7f360c',{"root":"ey9Ghqc1tBL1","animations":[{"elements":{"ey9Ghqc1tBL5":{"transform":{"data":{"t":{"x":-41.1,"y":-12.600001}},"keys":{"o":[{"t":600,"v":{"x":41.1,"y":12.600001,"type":"corner"}},{"t":700,"v":{"x":41.459905,"y":12.131695,"type":"corner"}},{"t":800,"v":{"x":40.650118,"y":11.921583,"type":"corner"}},{"t":900,"v":{"x":41.279953,"y":12.556421,"type":"corner"}},{"t":1000,"v":{"x":40.689656,"y":12.42725,"type":"corner"}},{"t":1100,"v":{"x":41.189976,"y":12.298078,"type":"corner"}},{"t":1200,"v":{"x":40.60513,"y":13.150001,"type":"corner"}},{"t":1300,"v":{"x":41.459905,"y":13.150001,"type":"corner"}},{"t":1400,"v":{"x":41.324941,"y":12.859004,"type":"corner"}},{"t":1500,"v":{"x":41.189976,"y":12.568007,"type":"corner"}}],"r":[{"t":600,"v":0},{"t":700,"v":0.602139},{"t":800,"v":0.055966},{"t":900,"v":0.142897},{"t":1000,"v":-0.446742},{"t":1100,"v":-1.036381},{"t":1200,"v":-1.380632},{"t":1300,"v":0.989253},{"t":1400,"v":-1.214189},{"t":1500,"v":0.06515}]}}}},"s":"MTDA1M2Q3SDdlYzBkMWBNlYmRkMGM1Y2JOY2FSIN2U5NjhmOGM4YzhjGSDg4N2VjMFFjNWNlYTzFiZmQwQmM1Y2JjYTLdlOTY4ZDg4N2VjNWQQwYzFjZWJkZDBjNWNiXY2FjZjdlQzk2OGM4OVDdlYzJjNWM4Yzg3ZTDk2OGQ4ODdlYmRjOGQNwYzFjZWNhYmRkMGMxDN2U5NmMyYmRjOGNmYOzE4ODdlY2ZjY1VjMWOMxRGMwN2U5NjhkZDkC/"}],"options":"MEDAxMDg4MmY4MDgxNmVU3Zlk4MTJmNDcyZjcQ5N2M2ZTcxMmY4YQ|"},'__SVGATOR_PLAYER__',window)]]></script></svg>