<svg id="eVJ0eXqhIap1" xmlns="http://www.w3.org/2000/svg" xmlns:xlink="http://www.w3.org/1999/xlink" viewBox="0 0 508 379" shape-rendering="geometricPrecision" text-rendering="geometricPrecision"><g id="eVJ0eXqhIap2"><g id="eVJ0eXqhIap3"><path id="eVJ0eXqhIap4" d="M247.8,262.1C237.4,262.1,227.9,262,221.4,261.7C214.9,261.6,208.8,257.8,205.2,251.5C205.1,251.3,205,251.2,204.9,251C203.7,248.4,202.3,245.2,200.6,241.4C192.2,222,176.5,185.8,147.1,143.5C145.9,141.9,138.8,131.5,140.9,119.2C142.2,111.5,146.6,105.1,154,99.9C170.4,88.4,185.8,97.5,192.2,106.5L196,111.1L194.5,34.5C194.3,31.9,193.7,16.6,202.3,7.4C206.4,3,212,0.6,218.4,0.6C232.4,0.6,239.3,7.9,242.6,13.9C245.5,19.2,246.9,25.9,246.9,34.1C246.9,40.2,246.7,58.9,246.6,72.2C254,70.2,262,72.9,266.6,75.6C269.7,77.3,274.1,80.7,276.9,85.5C281.4,83.9,287,83.1,293.5,84.5C304.1,86.7,309.4,94,311.8,100.9C317.3,99.4,324.5,98.9,331.1,102.5C342.4,108.8,346.5,122.4,346.5,130.1C346.5,130.3,346.6,131.2,346.7,131.9C350.3,162.1,342.3,189.1,323.1,212.2C322.5,213.1,322.1,214.1,322.1,214.9L322.1,243.7C322.6,246.8,322.1,251.1,319.4,254.7C316.1,259,310.6,261.2,303,261.2C296.2,261.5,270.1,262.1,247.8,262.1ZM217.8,244.6C218.3,245.5,219.7,247.4,221.6,247.4C221.7,247.4,221.8,247.4,222,247.4C241.6,248.4,293.4,247.4,302.5,246.9C302.6,246.9,302.8,246.9,302.9,246.9C306.4,246.9,307.7,246.2,308.1,246C307.9,245.4,308,245.2,308,244.4L308,214.9C308,211,309.4,206.9,312,203.5C312.1,203.4,312.1,203.3,312.2,203.2C337.3,173.1,333.8,143.3,332.7,133.6C332.5,132.1,332.4,131,332.4,130.1C332.4,127.3,330.5,118.4,324.4,115C319.9,112.5,312.4,115.7,310.1,117C307.8,118.3,305.1,118.3,302.8,116.9C300.6,115.6,299.2,113.1,299.3,110.5C299.3,108.8,299,100.1,290.8,98.4C283.1,96.8,278.5,100.6,278,101.1C276,103.2,273,103.8,270.3,102.8C267.6,101.7,265.8,99,265.8,96C265.8,91.4,260,88.1,259.9,88.1C259.8,88,259.8,88,259.7,88C258.2,87.2,251.7,84.3,249.1,86.9L244.5,91.5C242.4,93.6,239.3,94.2,236.7,93C234,91.9,232.3,89.2,232.3,86.3C232.3,85.9,232.8,43.6,232.8,34.1C232.8,17.1,225.6,14.9,218.6,14.9C215.4,14.9,213.9,16.1,213,17.1C209.1,21.3,208.8,30.7,209,33.6C209,33.7,209,33.9,209,34L210.5,113.7C210.5,113.7,210.5,113.8,210.5,113.8C210.5,123.4,206.7,127.5,203.6,129.2C200.1,131.1,195.8,130.8,192.3,128.4C191.7,128,191.2,127.5,190.8,127L181.2,115.3C181.1,115.1,181,115,180.8,114.8C180.8,114.8,178.5,111.7,175,109.9C170.9,107.8,166.9,108.3,162.3,111.5C158.2,114.4,155.8,117.6,155.2,121.2C154,128,158.8,134.8,158.9,134.8C158.9,134.8,159,134.9,159,135C189.2,178.6,205.3,215.6,213.9,235.5C215.4,239.1,216.7,242.2,217.8,244.6Z" transform="matrix(1 0 0 1 0.00005 -0.6)" fill="rgb(0,0,0)" stroke="none" stroke-width="1"/><path id="eVJ0eXqhIap5" d="M182.5,20.9C169.8,21.9,157.1,23.9,144.4,27C143.9,24.5,143.4,22.4,142.9,19.9C142.4,17.9,139.3,17.4,137.8,18.9C132.2,25.5,127.1,31.6,122.6,38.2C121.6,39.7,122.1,41.2,123.6,41.8C131.2,44.8,138.3,48.4,145.4,52C147.4,53,149.5,51.5,149.5,49C149,46.5,148.5,44.4,148,41.9C160.2,39.4,172.4,37.3,184.6,36.3C186.1,36.3,187.1,34.8,187.1,33.3C186.6,29.7,186.6,26.2,186.1,22.6C185,21.9,184,20.9,182.5,20.9Z" transform="matrix(1 0 0 1 0.800832 0)" fill="rgb(0,0,0)" stroke="none" stroke-width="1"/><path id="eVJ0eXqhIap6" d="M255.1,37.2C267.3,38.7,279.5,40.8,291.7,43.3C291.2,45.8,290.7,47.9,290.2,50.4C289.7,52.4,292.2,54.5,294.3,53.4C301.4,49.8,308.5,46.3,316.1,43.2C317.6,42.7,318.1,40.7,317.1,39.6C312.5,33,307.5,26.4,302.4,19.8C300.9,17.8,297.8,18.3,297.3,20.8C296.8,23.3,296.3,25.4,295.8,27.9C283.1,24.9,270.4,22.8,257.7,21.3C256.2,21.3,254.7,22.3,254.7,23.3C254.2,26.9,254.2,30.4,253.7,34C252.6,35.6,253.6,37.2,255.1,37.2Z" transform="matrix(1 0 0 1 0.000024 0)" fill="rgb(0,0,0)" stroke="none" stroke-width="1"/><path id="eVJ0eXqhIap7" d="M455.2,378.4L53,378.4C24.1,378.4,0.2,354.5,0.2,325.6C0.2,296.7,24.1,272.8,53,272.8L455.2,272.8C484.1,272.8,508,296.7,508,325.6C508,354.5,484.1,378.4,455.2,378.4Z" fill="rgb(0,0,0)" stroke="none" stroke-width="1"/><path id="eVJ0eXqhIap8" d="M451.9,329.7L451.9,322.1C451.9,309.5,452.9,304,462.9,304L463.9,304C471.1,304.3,471.5,309.1,471.8,315.4C471.8,315.7,471.9,316.1,472.1,344.9C472.1,345.6,471.7,346.4,470.8,346.4L466.7,346.4C465.4,346.4,465.2,345,465.2,343.9L465.2,342.8C465.2,341.2,465.1,333.3,465.1,331.7C464.8,331.1,464.4,331,463.8,331L459.1,330.9C458.3,330.9,458,331.2,458,332.2L458,345C458,345.4,457.2,345.9,456.9,345.9L453,345.9C451.7,345.9,451.7,344.5,451.7,343.4C451.9,338.9,451.9,334.5,451.9,329.7ZM459.9,324.8C460.2,324.8,462.4,324.9,463.3,324.9L463.9,324.9C465,324.9,465.3,324.1,465.4,323.1C465.5,321.3,465.5,319.6,465.5,318.2C465.5,312.4,465,310.8,463.5,310.8C463.1,310.8,462.4,310.7,461.4,310.7C458.8,310.9,458.4,313.9,458.4,316L458.4,322.8C458.4,323.7,458.7,324.7,459.9,324.8Z" fill="rgb(255,255,255)" stroke="none" stroke-width="1"/><path id="eVJ0eXqhIap9" d="M440.6,335.8C440.6,331.4,440.8,326.1,441.1,318.9C441.3,315.1,441.5,310.8,441.8,305.7C441.8,305.3,442.2,304.8,442.8,304.8L446.9,304.8C447.7,304.8,447.9,305.5,447.9,306.2L447,344C447,344.8,446.8,345.5,445.8,345.6L441.9,346.2C441.3,346.2,440.9,345.6,440.9,345.1C440.7,342.1,440.6,339.2,440.6,335.8Z" fill="rgb(255,255,255)" stroke="none" stroke-width="1"/><path id="eVJ0eXqhIap10" d="M423.4,305.9L423.4,304.8C423.5,304.1,424.5,304,425.2,304L426.2,304C427.3,304,427.9,304.2,429.4,304.2C430.3,304.2,430.3,306.8,430.3,308.6L430.7,338.3L431.2,338.8L437.2,338.8C437.8,338.8,438.3,339.4,438.3,339.9L438.3,344C438.3,345,437.5,345.2,436.6,345.3C436,345.4,434.4,345.4,432.6,345.4C430.3,345.4,427.5,345.3,426.6,345.3L424.8,345.3C424.4,345.1,424.2,344.6,424.2,344.2C424.1,330.4,423.4,319.8,423.4,305.9Z" fill="rgb(255,255,255)" stroke="none" stroke-width="1"/><path id="eVJ0eXqhIap11" d="M412.3,335.8C412.3,331.4,412.5,326.1,412.8,318.9C413,315.1,413.2,310.8,413.5,305.7C413.5,305.3,413.9,304.8,414.5,304.8L418.6,304.8C419.4,304.8,419.6,305.5,419.6,306.2L418.7,344C418.7,344.8,418.5,345.5,417.5,345.6L413.6,346.2C413,346.2,412.6,345.6,412.6,345.1C412.5,342.1,412.3,339.2,412.3,335.8Z" fill="rgb(255,255,255)" stroke="none" stroke-width="1"/><path id="eVJ0eXqhIap12" d="M380.6,304.4C380.8,304.1,381.2,303.6,381.6,303.6L387.4,303.6C388,303.6,388.9,303.9,389.1,304.6C391.4,314.6,392.5,317.6,393,318.8C393.1,319.1,393.3,319.6,393.6,319.6C394,319.6,394.2,319.2,394.3,318.8C395.3,315.9,396.1,313,397.9,305.5C398,304.6,398.3,303.6,399.4,303.6L407.2,304C407.2,304,408.7,312,408.7,343.7C408.7,344.6,408.6,345.7,407.7,345.7L403.4,345.7C402.7,345.7,402.4,344.9,402.4,344.4L401.8,314.3L397.2,328.3C396.8,329.4,395.5,329.6,394.8,329.6C394.5,329.6,394.1,329.5,394,329.5C393.4,329.5,391.8,329.4,391.7,329.4C390.8,329.4,390.2,329.1,386.4,315.2L386.8,346C386.8,346.3,386.6,346.5,386.4,346.7C384.9,346.8,383.8,346.8,382.4,346.8C380.6,346.8,380.2,346.3,380.2,344.3L380.6,304.4Z" fill="rgb(255,255,255)" stroke="none" stroke-width="1"/><path id="eVJ0eXqhIap13" d="M356,329.7L356,322.1C356,309.5,357,304,367,304L368,304C375.2,304.3,375.6,309.1,375.9,315.4C375.9,315.7,376,316.1,376.2,344.9C376.2,345.6,375.8,346.4,374.9,346.4L370.8,346.4C369.5,346.4,369.3,345,369.3,343.9L369.3,342.8C369.3,341.2,369.2,333.3,369.2,331.7C368.9,331.1,368.5,331,367.9,331L363.2,330.9C362.4,330.9,362.1,331.2,362.1,332.2L362.1,345C362.1,345.4,361.3,345.9,361,345.9L357.1,345.9C355.8,345.9,355.8,344.5,355.8,343.4C356,338.9,356,334.5,356,329.7ZM364,324.8C364.3,324.8,366.5,324.9,367.4,324.9L368,324.9C369.1,324.9,369.4,324.1,369.5,323.1C369.6,321.3,369.6,319.6,369.6,318.2C369.6,312.4,369.1,310.8,367.6,310.8C367.2,310.8,366.5,310.7,365.5,310.7C362.9,310.9,362.5,313.9,362.5,316L362.5,322.8C362.5,323.7,362.8,324.7,364,324.8Z" fill="rgb(255,255,255)" stroke="none" stroke-width="1"/><path id="eVJ0eXqhIap14" d="M339.8,304.6C340.6,303.7,344,303.5,347.2,303.5C350.5,303.5,353.5,303.8,353.3,303.8C354.3,303.9,354.8,304,355.3,304.7C355.4,305.5,355.5,308.3,355.5,309.3C355.5,309.8,355.2,310,354.9,310.1C354.5,310.1,352.8,310.2,352.4,310.2C350.7,310.2,349.2,309.9,347.6,309.9C346.8,309.9,346.5,310,346.3,310.9L346.3,318.2C346.3,319,346.4,321,346.4,321.1L347,321.5L350.9,322C351.6,322.1,352.4,322.3,352.6,323.1C352.7,323.7,352.9,325,352.9,326.1C352.9,327.1,352.8,328,352.3,328.4C351.2,328.5,350,328.6,348.9,328.6C348.2,328.6,347.6,328.5,347.1,328.5C346.7,328.5,346.4,328.6,346.4,329.1L346.4,330.2C346.4,334.5,346.7,338.8,346.7,343.3C346.7,345,346.7,346,344.9,346.1C343.8,346.3,342.6,346.4,341.6,346.4L341,346.4C340.7,346.4,340.4,346.4,340.3,346C339.5,344.9,339.6,343.1,339.5,341.8L339.8,304.6Z" fill="rgb(255,255,255)" stroke="none" stroke-width="1"/><path id="eVJ0eXqhIap15" d="M303.7,329.7L303.7,322.1C303.7,309.5,304.7,304,314.7,304L315.7,304C322.9,304.3,323.3,309.1,323.6,315.4C323.6,315.7,323.7,316.1,323.9,344.9C323.9,345.6,323.5,346.4,322.6,346.4L318.5,346.4C317.2,346.4,317,345,317,343.9L317,342.8C317,341.2,316.9,333.3,316.9,331.7C316.6,331.1,316.2,331,315.6,331L310.9,330.9C310.1,330.9,309.8,331.2,309.8,332.2L309.8,345C309.8,345.4,309,345.9,308.7,345.9L304.8,345.9C303.5,345.9,303.5,344.5,303.5,343.4C303.7,338.9,303.7,334.5,303.7,329.7ZM311.7,324.8C312,324.8,314.2,324.9,315.1,324.9L315.7,324.9C316.8,324.9,317.1,324.1,317.2,323.1C317.3,321.3,317.3,319.6,317.3,318.2C317.3,312.4,316.8,310.8,315.3,310.8C314.9,310.8,314.2,310.7,313.2,310.7C310.6,310.9,310.2,313.9,310.2,316L310.2,322.8C310.2,323.7,310.5,324.7,311.7,324.8Z" fill="rgb(255,255,255)" stroke="none" stroke-width="1"/><path id="eVJ0eXqhIap16" d="M287.7,305.9L287.7,304.8C287.8,304.1,288.8,304,289.5,304L290.5,304C291.6,304,292.2,304.2,293.7,304.2C294.6,304.2,294.6,306.8,294.6,308.6L295,338.3L295.5,338.8L301.5,338.8C302.1,338.8,302.6,339.4,302.6,339.9L302.6,344C302.6,345,301.8,345.2,300.9,345.3C300.3,345.4,298.7,345.4,296.9,345.4C294.6,345.4,291.8,345.3,290.9,345.3L289.1,345.3C288.7,345.1,288.5,344.6,288.5,344.2C288.4,330.4,287.7,319.8,287.7,305.9Z" fill="rgb(255,255,255)" stroke="none" stroke-width="1"/><path id="eVJ0eXqhIap17" d="M253.9,329.7L253.9,322.1C253.9,309.5,254.9,304,264.9,304L265.9,304C273.1,304.3,273.5,309.1,273.8,315.4C273.8,315.7,273.9,316.1,274.1,344.9C274.1,345.6,273.7,346.4,272.8,346.4L268.7,346.4C267.4,346.4,267.2,345,267.2,343.9L267.2,342.8C267.2,341.2,267.1,333.3,267.1,331.7C266.8,331.1,266.4,331,265.8,331L261.1,330.9C260.3,330.9,260,331.2,260,332.2L260,345C260,345.4,259.2,345.9,258.9,345.9L255,345.9C253.7,345.9,253.7,344.5,253.7,343.4C253.9,338.9,253.9,334.5,253.9,329.7ZM262,324.8C262.3,324.8,264.5,324.9,265.4,324.9L266,324.9C267.1,324.9,267.4,324.1,267.5,323.1C267.6,321.3,267.6,319.6,267.6,318.2C267.6,312.4,267.1,310.8,265.6,310.8C265.2,310.8,264.5,310.7,263.5,310.7C260.9,310.9,260.5,313.9,260.5,316L260.5,322.8C260.4,323.7,260.7,324.7,262,324.8Z" fill="rgb(255,255,255)" stroke="none" stroke-width="1"/><path id="eVJ0eXqhIap18" d="M228.2,302.6L229.5,302.6C244.4,302.6,247.8,303.8,247.8,331.5L247.8,332C247.5,339.6,246.1,344.6,231.6,344.6C231,344.6,229.2,344.5,229.1,342.3C229.1,342.2,229.1,342.3,229.1,341.4C229.1,339.2,229,331.7,227.7,303.9C227.6,303.4,227.7,302.9,228.2,302.6ZM234.2,310.7C234.2,317.6,234.7,325.2,234.9,332.1C234.9,332.6,235,335.9,235,336.5C235.1,336.9,235,338,235.5,338.3C240.3,337.6,241.2,336,241.2,328.7L241.2,327L241.1,324.9C240.6,316.4,240.2,309.3,235.6,309.3C235.1,309.3,234.6,309.4,234.1,309.6L234.1,310.7L234.2,310.7Z" fill="rgb(255,255,255)" stroke="none" stroke-width="1"/><path id="eVJ0eXqhIap19" d="M204.2,321C204.2,313,204.5,303.5,214.2,303.5C218.5,303.5,223.3,306.3,223.6,311.4C223.8,314.6,223.9,317.8,223.9,321C223.9,325.1,223.8,329.2,223.7,333.5C223.7,333.7,223.7,333.8,223.7,333.8C223.2,341.3,222.7,346.7,214.6,346.7C211.6,346.7,206.7,346.1,205.7,342C204.3,337.5,204.2,328.2,204.2,321ZM214.2,340.4C215.3,340.4,216.4,339.8,216.7,338.2C217,331.7,217.2,322.8,217.2,316.4L217.2,313C217,311.2,216.4,310.2,214.1,310.2C211.2,310.2,211.1,312.2,211.1,314.1L211.1,314.9C211.1,327.7,211.1,333.2,211.3,338.3C211.4,339.5,212.8,340.4,214.2,340.4Z" fill="rgb(255,255,255)" stroke="none" stroke-width="1"/><path id="eVJ0eXqhIap20" d="M190.7,313.7L190.7,312C190.7,311.9,190.4,310.9,190,310.9L185.8,311C184.7,311,184.7,310.3,184.7,309.2L184.7,308.6C184.7,306.1,184.8,304.5,187,304.5L188,304.5C190.3,304.5,198.1,304.6,200.3,304.6C200.6,304.6,201.8,304.7,202.1,304.8C202.8,304.9,203,305.9,203,306.8C203,307.2,202.9,307.7,202.9,308L202.9,309C202.9,310.1,202.3,311.2,201.5,311.2L197,311.5L197.1,344.4C197.1,345.1,196.9,346.2,196.1,346.2L191.8,346.2C191.2,346.2,190.7,345.8,190.7,345C190.6,334.6,190.7,324.2,190.7,313.7Z" fill="rgb(255,255,255)" stroke="none" stroke-width="1"/><path id="eVJ0eXqhIap21" d="M157.9,303.6L163,303.6C164.1,303.6,169.2,303.7,170.2,303.7C170.6,303.8,170.8,304,171,304.4C171.1,305.9,171.1,307.3,171.1,308.9C171,309.5,171,310.1,169.9,310.1L163,310.1L162.4,310.7L162.8,321.2L168.1,321.4C168.9,321.5,169.1,322.7,169.1,324.1L169.1,324.6L168.9,326.1C168.9,326.6,168.8,327.4,168,327.4L163.2,327.4C163.1,327.4,163,327.5,162.9,327.6L162.7,327.8L163,337.6C163.1,338.3,163.4,338.8,164.3,338.8L171.1,338.8C172.2,338.8,172.4,339.6,172.4,340.5L172.1,344.1C172,344.5,171.6,345,171.1,345.1L157.7,345.6C157,345.6,156.2,344.7,156.2,329.6C156.2,325.5,156.1,321.5,156.1,317.3C156.1,313.1,156.2,308.9,156.3,304.4C156.6,303.8,157.3,303.6,157.9,303.6ZM163.6,294.8L169.4,296.1L164.8,300.9L159.2,300.5L163.6,294.8Z" fill="rgb(255,255,255)" stroke="none" stroke-width="1"/><path id="eVJ0eXqhIap22" d="M141.8,339.1C142.9,339.1,143.9,338.5,144.2,336.9C144.3,336.6,144.4,336.6,144.4,336.5C144.8,335.4,145.2,334.4,146.2,334.4C147.1,334.4,148.5,335,150.8,336.7C150.2,341.8,148.6,345.2,142.2,345.2C139.2,345.2,134.5,344.6,133.4,340.7C132.2,336.3,132.1,327.2,132.1,320.3C132.1,312.6,132.4,303.5,141.9,303.5C146.2,303.5,150.8,306.2,151.1,311.2L151.1,311.5C151.1,314,148,314.5,146.8,314.5L146.5,314.5C144.2,314.1,146.1,309.9,142.4,309.9C142.2,309.9,142,310,141.8,310C138.9,310.3,138.9,311.9,138.9,313.8L138.9,314.6C138.9,327,138.9,332.3,139.1,337.1C139.1,338.2,140.5,339.1,141.8,339.1Z" fill="rgb(255,255,255)" stroke="none" stroke-width="1"/><path id="eVJ0eXqhIap23" d="M108.6,321C108.6,313,108.9,303.5,118.6,303.5C122.9,303.5,127.7,306.3,128,311.4C128.2,314.6,128.3,317.8,128.3,321C128.3,325.1,128.2,329.2,128.1,333.5C128.1,333.7,128.1,333.8,128.1,333.8C127.6,341.3,127.1,346.7,119,346.7C116,346.7,111.1,346.1,110.1,342C108.7,337.5,108.6,328.2,108.6,321ZM118.6,340.4C119.7,340.4,120.8,339.8,121.1,338.2C121.4,331.7,121.6,322.8,121.6,316.4L121.6,313C121.4,311.2,120.8,310.2,118.5,310.2C115.6,310.2,115.5,312.2,115.5,314.1L115.5,314.9C115.5,327.7,115.5,333.2,115.7,338.3C115.8,339.5,117.2,340.4,118.6,340.4Z" fill="rgb(255,255,255)" stroke="none" stroke-width="1"/><path id="eVJ0eXqhIap24" d="M87.3,315.4C87.2,315.4,87.1,316.7,87.1,318.8C87.1,324.2,87.4,335.2,87.4,345.2C87.4,346.6,86.3,346.8,85.2,346.8C84.8,346.8,84.4,346.7,84.1,346.7C83.8,346.7,83.3,346.8,82.9,346.8C82,346.8,81.1,346.6,80.9,345.9L80.8,327.7C80.8,322.4,80.6,317.1,80.6,311.8C80.6,310.8,80.7,306.5,80.7,305.6C80.8,305.1,81.1,304.6,81.7,304.6L89.1,304.6C89.6,304.6,90.2,304.8,90.2,305.3L99,334.5L97.5,305.4C97.7,305,98.1,304.6,98.6,304.6L103,304.6C103.3,304.6,103.8,304.8,104,305.1L104,305.5C104,307.7,104.4,314.3,104.4,318.6C104.4,320.6,104.7,331.6,104.7,339.1C104.7,343.2,104.6,346.3,104.3,346.3L97.8,346.3C97.2,346.3,96.8,345.9,96.5,345.3L87.3,315.4Z" fill="rgb(255,255,255)" stroke="none" stroke-width="1"/><path id="eVJ0eXqhIap25" d="M57.2,321C57.2,313,57.5,303.5,67.2,303.5C71.5,303.5,76.3,306.3,76.6,311.4C76.8,314.6,76.9,317.8,76.9,321C76.9,325.1,76.8,329.2,76.7,333.5C76.7,333.7,76.7,333.8,76.7,333.8C76.2,341.3,75.7,346.7,67.6,346.7C64.6,346.7,59.7,346.1,58.7,342C57.3,337.5,57.2,328.2,57.2,321ZM67.2,340.4C68.3,340.4,69.4,339.8,69.7,338.2C70,331.7,70.2,322.8,70.2,316.4L70.2,313C70,311.2,69.4,310.2,67.1,310.2C64.2,310.2,64.1,312.2,64.1,314.1L64.1,314.9C64.1,327.7,64.1,333.2,64.3,338.3C64.4,339.5,65.8,340.4,67.2,340.4Z" fill="rgb(255,255,255)" stroke="none" stroke-width="1"/><path id="eVJ0eXqhIap26" d="M45.6,339.1C46.7,339.1,47.7,338.5,48,336.9C48.1,336.6,48.2,336.6,48.2,336.5C48.6,335.4,49,334.4,50,334.4C50.9,334.4,52.3,335,54.6,336.7C54,341.8,52.4,345.2,46,345.2C43,345.2,38.3,344.6,37.2,340.7C36,336.3,35.9,327.2,35.9,320.3C35.9,312.6,36.2,303.5,45.7,303.5C50,303.5,54.6,306.2,54.9,311.2L54.9,311.5C54.9,314,51.8,314.5,50.6,314.5L50.3,314.5C48,314.1,49.9,309.9,46.2,309.9C46,309.9,45.8,310,45.6,310C42.7,310.3,42.7,311.9,42.7,313.8L42.7,314.6C42.7,327,42.7,332.3,42.9,337.1C43,338.2,44.3,339.1,45.6,339.1Z" fill="rgb(255,255,255)" stroke="none" stroke-width="1"/></g></g><script><![CDATA[!function(t,n){"object"==typeof exports&&"undefined"!=typeof module?module.exports=n():"function"==typeof define&&define.amd?define(n):((t="undefined"!=typeof globalThis?globalThis:t||self).__SVGATOR_PLAYER__=t.__SVGATOR_PLAYER__||{},t.__SVGATOR_PLAYER__["5c7f360c"]=n())}(this,(function(){"use strict";function t(t,n){var r=Object.keys(t);if(Object.getOwnPropertySymbols){var e=Object.getOwnPropertySymbols(t);n&&(e=e.filter((function(n){return Object.getOwnPropertyDescriptor(t,n).enumerable}))),r.push.apply(r,e)}return r}function n(n){for(var r=1;r<arguments.length;r++){var e=null!=arguments[r]?arguments[r]:{};r%2?t(Object(e),!0).forEach((function(t){u(n,t,e[t])})):Object.getOwnPropertyDescriptors?Object.defineProperties(n,Object.getOwnPropertyDescriptors(e)):t(Object(e)).forEach((function(t){Object.defineProperty(n,t,Object.getOwnPropertyDescriptor(e,t))}))}return n}function r(t){return(r="function"==typeof Symbol&&"symbol"==typeof Symbol.iterator?function(t){return typeof t}:function(t){return t&&"function"==typeof Symbol&&t.constructor===Symbol&&t!==Symbol.prototype?"symbol":typeof t})(t)}function e(t,n){if(!(t instanceof n))throw new TypeError("Cannot call a class as a function")}function i(t,n){for(var r=0;r<n.length;r++){var e=n[r];e.enumerable=e.enumerable||!1,e.configurable=!0,"value"in e&&(e.writable=!0),Object.defineProperty(t,e.key,e)}}function o(t,n,r){return n&&i(t.prototype,n),r&&i(t,r),t}function u(t,n,r){return n in t?Object.defineProperty(t,n,{value:r,enumerable:!0,configurable:!0,writable:!0}):t[n]=r,t}function a(t){return(a=Object.setPrototypeOf?Object.getPrototypeOf:function(t){return t.__proto__||Object.getPrototypeOf(t)})(t)}function l(t,n){return(l=Object.setPrototypeOf||function(t,n){return t.__proto__=n,t})(t,n)}function f(){if("undefined"==typeof Reflect||!Reflect.construct)return!1;if(Reflect.construct.sham)return!1;if("function"==typeof Proxy)return!0;try{return Boolean.prototype.valueOf.call(Reflect.construct(Boolean,[],(function(){}))),!0}catch(t){return!1}}function s(t,n,r){return(s=f()?Reflect.construct:function(t,n,r){var e=[null];e.push.apply(e,n);var i=new(Function.bind.apply(t,e));return r&&l(i,r.prototype),i}).apply(null,arguments)}function c(t,n){if(n&&("object"==typeof n||"function"==typeof n))return n;if(void 0!==n)throw new TypeError("Derived constructors may only return object or undefined");return function(t){if(void 0===t)throw new ReferenceError("this hasn't been initialised - super() hasn't been called");return t}(t)}function h(t,n,r){return(h="undefined"!=typeof Reflect&&Reflect.get?Reflect.get:function(t,n,r){var e=function(t,n){for(;!Object.prototype.hasOwnProperty.call(t,n)&&null!==(t=a(t)););return t}(t,n);if(e){var i=Object.getOwnPropertyDescriptor(e,n);return i.get?i.get.call(r):i.value}})(t,n,r||t)}function v(t){return function(t){if(Array.isArray(t))return y(t)}(t)||function(t){if("undefined"!=typeof Symbol&&null!=t[Symbol.iterator]||null!=t["@@iterator"])return Array.from(t)}(t)||function(t,n){if(!t)return;if("string"==typeof t)return y(t,n);var r=Object.prototype.toString.call(t).slice(8,-1);"Object"===r&&t.constructor&&(r=t.constructor.name);if("Map"===r||"Set"===r)return Array.from(t);if("Arguments"===r||/^(?:Ui|I)nt(?:8|16|32)(?:Clamped)?Array$/.test(r))return y(t,n)}(t)||function(){throw new TypeError("Invalid attempt to spread non-iterable instance.\nIn order to be iterable, non-array objects must have a [Symbol.iterator]() method.")}()}function y(t,n){(null==n||n>t.length)&&(n=t.length);for(var r=0,e=new Array(n);r<n;r++)e[r]=t[r];return e}var g=d(Math.pow(10,-6));function d(t){var n=arguments.length>1&&void 0!==arguments[1]?arguments[1]:6;if(Number.isInteger(t))return t;var r=Math.pow(10,n);return Math.round((+t+Number.EPSILON)*r)/r}function p(t,n){var r=arguments.length>2&&void 0!==arguments[2]?arguments[2]:g;return Math.abs(t-n)<r}var m=Math.PI/180;function b(t){return t}function w(t,n,r){var e=1-r;return 3*r*e*(t*e+n*r)+r*r*r}function x(){var t=arguments.length>0&&void 0!==arguments[0]?arguments[0]:0,n=arguments.length>1&&void 0!==arguments[1]?arguments[1]:0,r=arguments.length>2&&void 0!==arguments[2]?arguments[2]:1,e=arguments.length>3&&void 0!==arguments[3]?arguments[3]:1;return t<0||t>1||r<0||r>1?null:p(t,n)&&p(r,e)?b:function(i){if(i<=0)return t>0?i*n/t:0===n&&r>0?i*e/r:0;if(i>=1)return r<1?1+(i-1)*(e-1)/(r-1):1===r&&t<1?1+(i-1)*(n-1)/(t-1):1;for(var o,u=0,a=1;u<a;){var l=w(t,r,o=(u+a)/2);if(p(i,l))break;l<i?u=o:a=o}return w(n,e,o)}}function A(){return 1}function k(t){return 1===t?1:0}function S(){var t=arguments.length>0&&void 0!==arguments[0]?arguments[0]:1,n=arguments.length>1&&void 0!==arguments[1]?arguments[1]:0;if(1===t){if(0===n)return k;if(1===n)return A}var r=1/t;return function(t){return t>=1?1:(t+=n*r)-t%r}}var _=Math.sin,O=Math.cos,j=Math.acos,M=Math.asin,P=Math.tan,E=Math.atan2,I=Math.PI/180,R=180/Math.PI,F=Math.sqrt,N=function(){function t(){var n=arguments.length>0&&void 0!==arguments[0]?arguments[0]:1,r=arguments.length>1&&void 0!==arguments[1]?arguments[1]:0,i=arguments.length>2&&void 0!==arguments[2]?arguments[2]:0,o=arguments.length>3&&void 0!==arguments[3]?arguments[3]:1,u=arguments.length>4&&void 0!==arguments[4]?arguments[4]:0,a=arguments.length>5&&void 0!==arguments[5]?arguments[5]:0;e(this,t),this.m=[n,r,i,o,u,a],this.i=null,this.w=null,this.s=null}return o(t,[{key:"determinant",get:function(){var t=this.m;return t[0]*t[3]-t[1]*t[2]}},{key:"isIdentity",get:function(){if(null===this.i){var t=this.m;this.i=1===t[0]&&0===t[1]&&0===t[2]&&1===t[3]&&0===t[4]&&0===t[5]}return this.i}},{key:"point",value:function(t,n){var r=this.m;return{x:r[0]*t+r[2]*n+r[4],y:r[1]*t+r[3]*n+r[5]}}},{key:"translateSelf",value:function(){var t=arguments.length>0&&void 0!==arguments[0]?arguments[0]:0,n=arguments.length>1&&void 0!==arguments[1]?arguments[1]:0;if(!t&&!n)return this;var r=this.m;return r[4]+=r[0]*t+r[2]*n,r[5]+=r[1]*t+r[3]*n,this.w=this.s=this.i=null,this}},{key:"rotateSelf",value:function(){var t=arguments.length>0&&void 0!==arguments[0]?arguments[0]:0;if(t%=360){var n=_(t*=I),r=O(t),e=this.m,i=e[0],o=e[1];e[0]=i*r+e[2]*n,e[1]=o*r+e[3]*n,e[2]=e[2]*r-i*n,e[3]=e[3]*r-o*n,this.w=this.s=this.i=null}return this}},{key:"scaleSelf",value:function(){var t=arguments.length>0&&void 0!==arguments[0]?arguments[0]:1,n=arguments.length>1&&void 0!==arguments[1]?arguments[1]:1;if(1!==t||1!==n){var r=this.m;r[0]*=t,r[1]*=t,r[2]*=n,r[3]*=n,this.w=this.s=this.i=null}return this}},{key:"skewSelf",value:function(t,n){if(n%=360,(t%=360)||n){var r=this.m,e=r[0],i=r[1],o=r[2],u=r[3];t&&(t=P(t*I),r[2]+=e*t,r[3]+=i*t),n&&(n=P(n*I),r[0]+=o*n,r[1]+=u*n),this.w=this.s=this.i=null}return this}},{key:"resetSelf",value:function(){var t=arguments.length>0&&void 0!==arguments[0]?arguments[0]:1,n=arguments.length>1&&void 0!==arguments[1]?arguments[1]:0,r=arguments.length>2&&void 0!==arguments[2]?arguments[2]:0,e=arguments.length>3&&void 0!==arguments[3]?arguments[3]:1,i=arguments.length>4&&void 0!==arguments[4]?arguments[4]:0,o=arguments.length>5&&void 0!==arguments[5]?arguments[5]:0,u=this.m;return u[0]=t,u[1]=n,u[2]=r,u[3]=e,u[4]=i,u[5]=o,this.w=this.s=this.i=null,this}},{key:"recomposeSelf",value:function(){var t=arguments.length>0&&void 0!==arguments[0]?arguments[0]:null,n=arguments.length>1&&void 0!==arguments[1]?arguments[1]:null,r=arguments.length>2&&void 0!==arguments[2]?arguments[2]:null,e=arguments.length>3&&void 0!==arguments[3]?arguments[3]:null,i=arguments.length>4&&void 0!==arguments[4]?arguments[4]:null;return this.isIdentity||this.resetSelf(),t&&(t.x||t.y)&&this.translateSelf(t.x,t.y),n&&this.rotateSelf(n),r&&(r.x&&this.skewSelf(r.x,0),r.y&&this.skewSelf(0,r.y)),!e||1===e.x&&1===e.y||this.scaleSelf(e.x,e.y),i&&(i.x||i.y)&&this.translateSelf(i.x,i.y),this}},{key:"decompose",value:function(){var t=arguments.length>0&&void 0!==arguments[0]?arguments[0]:0,n=arguments.length>1&&void 0!==arguments[1]?arguments[1]:0,r=this.m,e=r[0]*r[0]+r[1]*r[1],i=[[r[0],r[1]],[r[2],r[3]]],o=F(e);if(0===o)return{origin:{x:d(r[4]),y:d(r[5])},translate:{x:d(t),y:d(n)},scale:{x:0,y:0},skew:{x:0,y:0},rotate:0};i[0][0]/=o,i[0][1]/=o;var u=r[0]*r[3]-r[1]*r[2]<0;u&&(o=-o);var a=i[0][0]*i[1][0]+i[0][1]*i[1][1];i[1][0]-=i[0][0]*a,i[1][1]-=i[0][1]*a;var l=F(i[1][0]*i[1][0]+i[1][1]*i[1][1]);if(0===l)return{origin:{x:d(r[4]),y:d(r[5])},translate:{x:d(t),y:d(n)},scale:{x:d(o),y:0},skew:{x:0,y:0},rotate:0};i[1][0]/=l,i[1][1]/=l,a/=l;var f=0;return i[1][1]<0?(f=j(i[1][1])*R,i[0][1]<0&&(f=360-f)):f=M(i[0][1])*R,u&&(f=-f),a=E(a,F(i[0][0]*i[0][0]+i[0][1]*i[0][1]))*R,u&&(a=-a),{origin:{x:d(r[4]),y:d(r[5])},translate:{x:d(t),y:d(n)},scale:{x:d(o),y:d(l)},skew:{x:d(a),y:0},rotate:d(f)}}},{key:"clone",value:function(){var t=this.m;return new this.constructor(t[0],t[1],t[2],t[3],t[4],t[5])}},{key:"toString",value:function(){var t=arguments.length>0&&void 0!==arguments[0]?arguments[0]:" ";return null===this.s&&(this.s="matrix("+this.m.map((function(t){return d(t)})).join(t)+")"),this.s}}],[{key:"create",value:function(t){return t?Array.isArray(t)?s(this,v(t)):t instanceof this?t.clone():(new this).recomposeSelf(t.origin,t.rotate,t.skew,t.scale,t.translate):new this}}]),t}();function T(t,n,r){return t>=.5?r:n}function B(t,n,r){return 0===t||n===r?n:t*(r-n)+n}function q(t,n,r){var e=B(t,n,r);return e<=0?0:e}function L(t,n,r){var e=B(t,n,r);return e<=0?0:e>=1?1:e}function C(t,n,r){return 0===t?n:1===t?r:{x:B(t,n.x,r.x),y:B(t,n.y,r.y)}}function D(t,n,r){var e=function(t,n,r){return Math.round(B(t,n,r))}(t,n,r);return e<=0?0:e>=255?255:e}function z(t,n,r){return 0===t?n:1===t?r:{r:D(t,n.r,r.r),g:D(t,n.g,r.g),b:D(t,n.b,r.b),a:B(t,null==n.a?1:n.a,null==r.a?1:r.a)}}function V(t,n){for(var r=[],e=0;e<t;e++)r.push(n);return r}function G(t,n){if(--n<=0)return t;var r=(t=Object.assign([],t)).length;do{for(var e=0;e<r;e++)t.push(t[e])}while(--n>0);return t}var Y,$=function(){function t(n){e(this,t),this.list=n,this.length=n.length}return o(t,[{key:"setAttribute",value:function(t,n){for(var r=this.list,e=0;e<this.length;e++)r[e].setAttribute(t,n)}},{key:"removeAttribute",value:function(t){for(var n=this.list,r=0;r<this.length;r++)n[r].removeAttribute(t)}},{key:"style",value:function(t,n){for(var r=this.list,e=0;e<this.length;e++)r[e].style[t]=n}}]),t}(),U=/-./g,Q=function(t,n){return n.toUpperCase()};function H(t){return"function"==typeof t?t:T}function J(t){return t?"function"==typeof t?t:Array.isArray(t)?function(t){var n=arguments.length>1&&void 0!==arguments[1]?arguments[1]:b;if(!Array.isArray(t))return n;switch(t.length){case 1:return S(t[0])||n;case 2:return S(t[0],t[1])||n;case 4:return x(t[0],t[1],t[2],t[3])||n}return n}(t,null):function(t,n){var r=arguments.length>2&&void 0!==arguments[2]?arguments[2]:b;switch(t){case"linear":return b;case"steps":return S(n.steps||1,n.jump||0)||r;case"bezier":case"cubic-bezier":return x(n.x1||0,n.y1||0,n.x2||0,n.y2||0)||r}return r}(t.type,t.value,null):null}function Z(t,n,r){var e=arguments.length>3&&void 0!==arguments[3]&&arguments[3],i=n.length-1;if(t<=n[0].t)return e?[0,0,n[0].v]:n[0].v;if(t>=n[i].t)return e?[i,1,n[i].v]:n[i].v;var o,u=n[0],a=null;for(o=1;o<=i;o++){if(!(t>n[o].t)){a=n[o];break}u=n[o]}return null==a?e?[i,1,n[i].v]:n[i].v:u.t===a.t?e?[o,1,a.v]:a.v:(t=(t-u.t)/(a.t-u.t),u.e&&(t=u.e(t)),e?[o,t,r(t,u.v,a.v)]:r(t,u.v,a.v))}function K(t,n){var r=arguments.length>2&&void 0!==arguments[2]?arguments[2]:null;return t&&t.length?"function"!=typeof n?null:("function"!=typeof r&&(r=null),function(e){var i=Z(e,t,n);return null!=i&&r&&(i=r(i)),i}):null}function W(t,n){return t.t-n.t}function X(t,n,e,i,o){var u,a="@"===e[0],l="#"===e[0],f=Y[e],s=T;switch(a?(u=e.substr(1),e=u.replace(U,Q)):l&&(e=e.substr(1)),r(f)){case"function":if(s=f(i,o,Z,J,e,a,n,t),l)return s;break;case"string":s=K(i,H(f));break;case"object":if((s=K(i,H(f.i),f.f))&&"function"==typeof f.u)return f.u(n,s,e,a,t)}return s?function(t,n,r){if(arguments.length>3&&void 0!==arguments[3]&&arguments[3])return t instanceof $?function(e){return t.style(n,r(e))}:function(e){return t.style[n]=r(e)};if(Array.isArray(n)){var e=n.length;return function(i){var o=r(i);if(null==o)for(var u=0;u<e;u++)t[u].removeAttribute(n);else for(var a=0;a<e;a++)t[a].setAttribute(n,o)}}return function(e){var i=r(e);null==i?t.removeAttribute(n):t.setAttribute(n,i)}}(n,e,s,a):null}function tt(t,n,e,i){if(!i||"object"!==r(i))return null;var o=null,u=null;return Array.isArray(i)?u=function(t){if(!t||!t.length)return null;for(var n=0;n<t.length;n++)t[n].e&&(t[n].e=J(t[n].e));return t.sort(W)}(i):(u=i.keys,o=i.data||null),u?X(t,n,e,u,o):null}function nt(t,n,r){if(!r)return null;var e=[];for(var i in r)if(r.hasOwnProperty(i)){var o=tt(t,n,i,r[i]);o&&e.push(o)}return e.length?e:null}function rt(t,n){if(!n.duration||n.duration<0)return null;var r=function(t,n){if(!n)return null;var r=[];if(Array.isArray(n))for(var e=n.length,i=0;i<e;i++){var o=n[i];if(2===o.length){var u=null;if("string"==typeof o[0])u=t.getElementById(o[0]);else if(Array.isArray(o[0])){u=[];for(var a=0;a<o[0].length;a++)if("string"==typeof o[0][a]){var l=t.getElementById(o[0][a]);l&&u.push(l)}u=u.length?1===u.length?u[0]:new $(u):null}if(u){var f=nt(t,u,o[1]);f&&(r=r.concat(f))}}}else for(var s in n)if(n.hasOwnProperty(s)){var c=t.getElementById(s);if(c){var h=nt(t,c,n[s]);h&&(r=r.concat(h))}}return r.length?r:null}(t,n.elements);return r?function(t,n){var r=arguments.length>2&&void 0!==arguments[2]?arguments[2]:1/0,e=arguments.length>3&&void 0!==arguments[3]?arguments[3]:1,i=arguments.length>4&&void 0!==arguments[4]&&arguments[4],o=arguments.length>5&&void 0!==arguments[5]?arguments[5]:1,u=t.length,a=e>0?n:0;i&&r%2==0&&(a=n-a);var l=null;return function(f,s){var c=f%n,h=1+(f-c)/n;s*=e,i&&h%2==0&&(s=-s);var v=!1;if(h>r)c=a,v=!0,-1===o&&(c=e>0?0:n);else if(s<0&&(c=n-c),c===l)return!1;l=c;for(var y=0;y<u;y++)t[y](c);return v}}(r,n.duration,n.iterations||1/0,n.direction||1,!!n.alternate,n.fill||1):null}function et(t){return+("0x"+(t.replace(/[^0-9a-fA-F]+/g,"")||27))}function it(t,n,r){return!t||!r||n>t.length?t:t.substring(0,n)+it(t.substring(n+1),r,r)}function ot(t){var n=arguments.length>1&&void 0!==arguments[1]?arguments[1]:27;return!t||t%n?t%n:ot(t/n,n)}function ut(t,n,r){if(t&&t.length){var e=et(r),i=et(n),o=ot(e)+5,u=it(t,ot(e,5),o);return u=u.replace(/\x7c$/g,"==").replace(/\x2f$/g,"="),u=function(t,n,r){var e=+("0x"+t.substring(0,4));t=t.substring(4);for(var i=n%e+r%27,o=[],u=0;u<t.length;u+=2)if("|"!==t[u]){var a=+("0x"+t[u]+t[u+1])-i;o.push(a)}else{var l=+("0x"+t.substring(u+1,u+1+4))-i;u+=3,o.push(l)}return String.fromCharCode.apply(String,o)}(u=(u=atob(u)).replace(/[\x41-\x5A]/g,""),i,e),u=JSON.parse(u)}}Number.isInteger||(Number.isInteger=function(t){return"number"==typeof t&&isFinite(t)&&Math.floor(t)===t}),Number.EPSILON||(Number.EPSILON=2220446049250313e-31);var at=function(){function t(n,r){var i=arguments.length>2&&void 0!==arguments[2]?arguments[2]:{};e(this,t),this._id=0,this._running=!1,this._rollingBack=!1,this._animations=n,this.duration=r.duration,this.alternate=r.alternate,this.fill=r.fill,this.iterations=r.iterations,this.direction=i.direction||1,this.speed=i.speed||1,this.fps=i.fps||100,this.offset=i.offset||0,this.rollbackStartOffset=0}return o(t,[{key:"_rollback",value:function(){var t=this,n=1/0,r=null;this.rollbackStartOffset=this.offset,this._rollingBack||(this._rollingBack=!0,this._running=!0);this._id=window.requestAnimationFrame((function e(i){if(t._rollingBack){null==r&&(r=i);var o=i-r,u=t.rollbackStartOffset-o,a=Math.round(u*t.speed);if(a>t.duration&&n!=1/0){var l=!!t.alternate&&a/t.duration%2>1,f=a%t.duration;a=(f+=l?t.duration:0)||t.duration}var s=t.fps?1e3/t.fps:0,c=Math.max(0,a);if(c<n-s){t.offset=c,n=c;for(var h=t._animations,v=h.length,y=0;y<v;y++)h[y](c,t.direction)}var g=!1;if(t.iterations>0&&-1===t.fill){var d=t.iterations*t.duration,p=d==a;a=p?0:a,t.offset=p?0:t.offset,g=a>d}a>0&&t.offset>=a&&!g?t._id=window.requestAnimationFrame(e):t.stop()}}))}},{key:"_start",value:function(){var t=this,n=arguments.length>0&&void 0!==arguments[0]?arguments[0]:0,r=-1/0,e=null,i={},o=function o(u){t._running=!0,null==e&&(e=u);var a=Math.round((u-e+n)*t.speed),l=t.fps?1e3/t.fps:0;if(a>r+l&&!t._rollingBack){t.offset=a,r=a;for(var f=t._animations,s=f.length,c=0,h=0;h<s;h++)i[h]?c++:(i[h]=f[h](a,t.direction),i[h]&&c++);if(c===s)return void t._stop()}t._id=window.requestAnimationFrame(o)};this._id=window.requestAnimationFrame(o)}},{key:"_stop",value:function(){this._id&&window.cancelAnimationFrame(this._id),this._running=!1,this._rollingBack=!1}},{key:"play",value:function(){!this._rollingBack&&this._running||(this._rollingBack=!1,this.rollbackStartOffset>this.duration&&(this.offset=this.rollbackStartOffset-(this.rollbackStartOffset-this.offset)%this.duration,this.rollbackStartOffset=0),this._start(this.offset))}},{key:"stop",value:function(){this._stop(),this.offset=0,this.rollbackStartOffset=0;var t=this.direction,n=this._animations;window.requestAnimationFrame((function(){for(var r=0;r<n.length;r++)n[r](0,t)}))}},{key:"reachedToEnd",value:function(){return this.iterations>0&&this.offset>=this.iterations*this.duration}},{key:"restart",value:function(){this._stop(),this.offset=0,this._start()}},{key:"pause",value:function(){this._stop()}},{key:"reverse",value:function(){this.direction=-this.direction}}],[{key:"build",value:function(r,e){return delete r.animationSettings,r.options=ut(r.options,r.root,"5c7f360c"),r.animations.map((function(t){var e=ut(t.s,r.root,"5c7f360c");for(var i in delete t.s,r.animationSettings||(r.animationSettings=n({},e)),e)e.hasOwnProperty(i)&&(t[i]=e[i])})),(r=function(t,n){if(Y=n,!t||!t.root||!Array.isArray(t.animations))return null;for(var r=document.getElementsByTagName("svg"),e=!1,i=0;i<r.length;i++)if(r[i].id===t.root&&!r[i].svgatorAnimation){(e=r[i]).svgatorAnimation=!0;break}if(!e)return null;var o=t.animations.map((function(t){return rt(e,t)})).filter((function(t){return!!t}));return o.length?{element:e,animations:o,animationSettings:t.animationSettings,options:t.options||void 0}:null}(r,e))?{el:r.element,options:r.options||{},player:new t(r.animations,r.animationSettings,r.options)}:null}},{key:"push",value:function(t){return this.build(t)}},{key:"init",value:function(){var t=this,n=window.__SVGATOR_PLAYER__&&window.__SVGATOR_PLAYER__["5c7f360c"];Array.isArray(n)&&n.splice(0).forEach((function(n){return t.build(n)}))}}]),t}();function lt(t){return d(t)+""}function ft(t){var n=arguments.length>1&&void 0!==arguments[1]?arguments[1]:" ";return t&&t.length?t.map(lt).join(n):""}function st(t){return t?null==t.a||t.a>=1?"rgb("+t.r+","+t.g+","+t.b+")":"rgba("+t.r+","+t.g+","+t.b+","+t.a+")":"transparent"}function ct(t){return t?"url(#"+t+")":"none"}!function(){for(var t=0,n=["ms","moz","webkit","o"],r=0;r<n.length&&!window.requestAnimationFrame;++r)window.requestAnimationFrame=window[n[r]+"RequestAnimationFrame"],window.cancelAnimationFrame=window[n[r]+"CancelAnimationFrame"]||window[n[r]+"CancelRequestAnimationFrame"];window.requestAnimationFrame||(window.requestAnimationFrame=function(n){var r=Date.now(),e=Math.max(0,16-(r-t)),i=window.setTimeout((function(){n(r+e)}),e);return t=r+e,i},window.cancelAnimationFrame=window.clearTimeout)}();var ht={f:null,i:function(t,n,r){return 0===t?n:1===t?r:{x:q(t,n.x,r.x),y:q(t,n.y,r.y)}},u:function(t,n){return function(r){var e=n(r);t.setAttribute("rx",lt(e.x)),t.setAttribute("ry",lt(e.y))}}},vt={f:null,i:function(t,n,r){return 0===t?n:1===t?r:{width:q(t,n.width,r.width),height:q(t,n.height,r.height)}},u:function(t,n){return function(r){var e=n(r);t.setAttribute("width",lt(e.width)),t.setAttribute("height",lt(e.height))}}};Object.freeze({M:2,L:2,Z:0,H:1,V:1,C:6,Q:4,T:2,S:4,A:7});var yt={},gt=null;function dt(t){var n=function(){if(gt)return gt;if("object"!==("undefined"==typeof document?"undefined":r(document))||!document.createElementNS)return{};var t=document.createElementNS("http://www.w3.org/2000/svg","svg");return t&&t.style?(t.style.position="absolute",t.style.opacity="0.01",t.style.zIndex="-9999",t.style.left="-9999px",t.style.width="1px",t.style.height="1px",gt={svg:t}):{}}().svg;if(!n)return function(t){return null};var e=document.createElementNS(n.namespaceURI,"path");e.setAttributeNS(null,"d",t),e.setAttributeNS(null,"fill","none"),e.setAttributeNS(null,"stroke","none"),n.appendChild(e);var i=e.getTotalLength();return function(t){var n=e.getPointAtLength(i*t);return{x:n.x,y:n.y}}}function pt(t){return yt[t]?yt[t]:yt[t]=dt(t)}function mt(t,n,r,e){if(!t||!e)return!1;var i=["M",t.x,t.y];if(n&&r&&(i.push("C"),i.push(n.x),i.push(n.y),i.push(r.x),i.push(r.y)),n?!r:r){var o=n||r;i.push("Q"),i.push(o.x),i.push(o.y)}return n||r||i.push("L"),i.push(e.x),i.push(e.y),i.join(" ")}function bt(t,n,r,e){var i=arguments.length>4&&void 0!==arguments[4]?arguments[4]:1,o=mt(t,n,r,e),u=pt(o);try{return u(i)}catch(t){return null}}function wt(t,n,r,e){var i=1-e;return i*i*t+2*i*e*n+e*e*r}function xt(t,n,r,e){return 2*(1-e)*(n-t)+2*e*(r-n)}function At(t,n,r,e){var i=arguments.length>4&&void 0!==arguments[4]&&arguments[4],o=bt(t,n,null,r,e);return o||(o={x:wt(t.x,n.x,r.x,e),y:wt(t.y,n.y,r.y,e)}),i&&(o.a=kt(t,n,r,e)),o}function kt(t,n,r,e){return Math.atan2(xt(t.y,n.y,r.y,e),xt(t.x,n.x,r.x,e))}function St(t,n,r,e,i){var o=i*i;return i*o*(e-t+3*(n-r))+3*o*(t+r-2*n)+3*i*(n-t)+t}function _t(t,n,r,e,i){var o=1-i;return 3*(o*o*(n-t)+2*o*i*(r-n)+i*i*(e-r))}function Ot(t,n,r,e,i){var o=arguments.length>5&&void 0!==arguments[5]&&arguments[5],u=bt(t,n,r,e,i);return u||(u={x:St(t.x,n.x,r.x,e.x,i),y:St(t.y,n.y,r.y,e.y,i)}),o&&(u.a=jt(t,n,r,e,i)),u}function jt(t,n,r,e,i){return Math.atan2(_t(t.y,n.y,r.y,e.y,i),_t(t.x,n.x,r.x,e.x,i))}function Mt(t,n,r){return t+(n-t)*r}function Pt(t,n,r){var e=arguments.length>3&&void 0!==arguments[3]&&arguments[3],i={x:Mt(t.x,n.x,r),y:Mt(t.y,n.y,r)};return e&&(i.a=Et(t,n)),i}function Et(t,n){return Math.atan2(n.y-t.y,n.x-t.x)}function It(t,n,r){var e=arguments.length>3&&void 0!==arguments[3]&&arguments[3];if(Ft(n)){if(Nt(r))return At(n,r.start,r,t,e)}else if(Ft(r)){if(n.end)return At(n,n.end,r,t,e)}else{if(n.end)return r.start?Ot(n,n.end,r.start,r,t,e):At(n,n.end,r,t,e);if(r.start)return At(n,r.start,r,t,e)}return Pt(n,r,t,e)}function Rt(t,n,r){var e=It(t,n,r,!0);return e.a=function(t){return arguments.length>1&&void 0!==arguments[1]&&arguments[1]?t+Math.PI:t}(e.a)/m,e}function Ft(t){return!t.type||"corner"===t.type}function Nt(t){return null!=t.start&&!Ft(t)}var Tt=new N;var Bt={f:lt,i:B},qt={f:lt,i:L};function Lt(t,n,r){return t.map((function(t){return function(t,n,r){var e=t.v;if(!e||"g"!==e.t||e.s||!e.v||!e.r)return t;var i=r.getElementById(e.r),o=i&&i.querySelectorAll("stop")||[];return e.s=e.v.map((function(t,n){var r=o[n]&&o[n].getAttribute("offset");return{c:t,o:r=d(parseInt(r)/100)}})),delete e.v,t}(t,0,r)}))}var Ct={gt:"gradientTransform",c:{x:"cx",y:"cy"},rd:"r",f:{x:"x1",y:"y1"},to:{x:"x2",y:"y2"}};function Dt(t,n,e,i,o,u,a,l){return Lt(t,0,l),n=function(t,n,r){for(var e,i,o,u=t.length-1,a={},l=0;l<=u;l++)(e=t[l]).e&&(e.e=n(e.e)),e.v&&"g"===(i=e.v).t&&i.r&&(o=r.getElementById(i.r))&&(a[i.r]={e:o,s:o.querySelectorAll("stop")});return a}(t,i,l),function(i){var o=e(i,t,zt);if(!o)return"none";if("c"===o.t)return st(o.v);if("g"===o.t){if(!n[o.r])return ct(o.r);var u=n[o.r];return function(t,n){for(var r=t.s,e=r.length;e<n.length;e++){var i=r[r.length-1].cloneNode();i.id=Yt(i.id),t.e.appendChild(i),r=t.s=t.e.querySelectorAll("stop")}for(var o=0,u=r.length,a=n.length-1;o<u;o++)r[o].setAttribute("stop-color",st(n[Math.min(o,a)].c)),r[o].setAttribute("offset",n[Math.min(o,a)].o)}(u,o.s),Object.keys(Ct).forEach((function(t){if(void 0!==o[t])if("object"!==r(Ct[t])){var n,e="gt"===t?(n=o[t],Array.isArray(n)?"matrix("+n.join(" ")+")":""):o[t],i=Ct[t];u.e.setAttribute(i,e)}else Object.keys(Ct[t]).forEach((function(n){if(void 0!==o[t][n]){var r=o[t][n],e=Ct[t][n];u.e.setAttribute(e,r)}}))})),ct(o.r)}return"none"}}function zt(t,r,e){if(0===t)return r;if(1===t)return e;if(r&&e){var i=r.t;if(i===e.t)switch(r.t){case"c":return{t:i,v:z(t,r.v,e.v)};case"g":if(r.r===e.r){var o={t:i,s:Vt(t,r.s,e.s),r:r.r};return r.gt&&e.gt&&(o.gt=function(t,n,r){var e=n.length;if(e!==r.length)return T(t,n,r);for(var i=new Array(e),o=0;o<e;o++)i[o]=B(t,n[o],r[o]);return i}(t,r.gt,e.gt)),r.c?(o.c=C(t,r.c,e.c),o.rd=q(t,r.rd,e.rd)):r.f&&(o.f=C(t,r.f,e.f),o.to=C(t,r.to,e.to)),o}}if("c"===r.t&&"g"===e.t||"c"===e.t&&"g"===r.t){var u="c"===r.t?r:e,a="g"===r.t?n({},r):n({},e),l=a.s.map((function(t){return{c:u.v,o:t.o}}));return a.s="c"===r.t?Vt(t,l,a.s):Vt(t,a.s,l),a}}return T(t,r,e)}function Vt(t,n,r){if(n.length===r.length)return n.map((function(n,e){return Gt(t,n,r[e])}));for(var e=Math.max(n.length,r.length),i=[],o=0;o<e;o++){var u=Gt(t,n[Math.min(o,n.length-1)],r[Math.min(o,r.length-1)]);i.push(u)}return i}function Gt(t,n,r){return{o:L(t,n.o,r.o||0),c:z(t,n.c,r.c||{})}}function Yt(t){return t.replace(/-fill-([0-9]+)$/,(function(t,n){return"-fill-"+(+n+1)}))}var $t={fill:Dt,"fill-opacity":qt,stroke:Dt,"stroke-opacity":qt,"stroke-width":Bt,"stroke-dashoffset":{f:lt,i:B},"stroke-dasharray":{f:function(t){var n=arguments.length>1&&void 0!==arguments[1]?arguments[1]:" ";return t&&t.length>0&&(t=t.map((function(t){return d(t,4)}))),ft(t,n)},i:function(t,n,r){var e,i,o,u=n.length,a=r.length;if(u!==a)if(0===u)n=V(u=a,0);else if(0===a)a=u,r=V(u,0);else{var l=(o=(e=u)*(i=a)/function(t,n){for(var r;n;)r=n,n=t%n,t=r;return t||1}(e,i))<0?-o:o;n=G(n,Math.floor(l/u)),r=G(r,Math.floor(l/a)),u=a=l}for(var f=[],s=0;s<u;s++)f.push(d(q(t,n[s],r[s])));return f}},opacity:qt,transform:function(t,n,e,i){if(!(t=function(t,n){if(!t||"object"!==r(t))return null;var e=!1;for(var i in t)t.hasOwnProperty(i)&&(t[i]&&t[i].length?(t[i].forEach((function(t){t.e&&(t.e=n(t.e))})),e=!0):delete t[i]);return e?t:null}(t,i)))return null;var o=function(r,i,o){var u=arguments.length>3&&void 0!==arguments[3]?arguments[3]:null;return t[r]?e(i,t[r],o):n&&n[r]?n[r]:u};return n&&n.a&&t.o?function(n){var r=e(n,t.o,Rt);return Tt.recomposeSelf(r,o("r",n,B,0)+r.a,o("k",n,C),o("s",n,C),o("t",n,C)).toString()}:function(t){return Tt.recomposeSelf(o("o",t,It,null),o("r",t,B,0),o("k",t,C),o("s",t,C),o("t",t,C)).toString()}},r:Bt,"#size":vt,"#radius":ht,_:function(t,n){if(Array.isArray(t))for(var r=0;r<t.length;r++)this[t[r]]=n;else this[t]=n}},Ut=function(t){!function(t,n){if("function"!=typeof n&&null!==n)throw new TypeError("Super expression must either be null or a function");t.prototype=Object.create(n&&n.prototype,{constructor:{value:t,writable:!0,configurable:!0}}),n&&l(t,n)}(u,t);var n,r,i=(n=u,r=f(),function(){var t,e=a(n);if(r){var i=a(this).constructor;t=Reflect.construct(e,arguments,i)}else t=e.apply(this,arguments);return c(this,t)});function u(){return e(this,u),i.apply(this,arguments)}return o(u,null,[{key:"build",value:function(t){var n=h(a(u),"build",this).call(this,t,$t);if(!n)return null;n.el,n.options,function(t,n,r){t.play()}(n.player)}}]),u}(at);return Ut.init(),Ut}));
(function(s,i,o,w){w[o]=w[o]||{};w[o][s]=w[o][s]||[];w[o][s].push(i);})('5c7f360c',{"root":"eVJ0eXqhIap1","animations":[{"elements":{"eVJ0eXqhIap4":{"transform":{"data":{"o":{"x":244.042265,"y":272.2,"type":"corner"},"t":{"x":-244.042215,"y":-272.8}},"keys":{"r":[{"t":0,"v":0,"e":[0,0,0.01,1]},{"t":300,"v":-18.293321},{"t":390,"v":-18.293321,"e":[0.755,0,1,1]},{"t":1000,"v":22.388477,"e":[0.755,0,1,1]},{"t":1300,"v":0}]}}},"eVJ0eXqhIap5":{"transform":{"data":{"o":{"x":244.843097,"y":272.8,"type":"corner"},"t":{"x":-244.042265,"y":-272.8}},"keys":{"r":[{"t":0,"v":0,"e":[0,0,0.005,1]},{"t":300,"v":-18.417575},{"t":390,"v":-18.699488,"e":[0.775,0,1,1]},{"t":1000,"v":20.367001,"e":[0.775,0,1,1]},{"t":1300,"v":0}]}}},"eVJ0eXqhIap6":{"transform":{"data":{"o":{"x":244.042287,"y":272.8,"type":"corner"},"t":{"x":-244.042263,"y":-272.8}},"keys":{"r":[{"t":0,"v":0,"e":[0,0,0,1]},{"t":300,"v":-16.842866},{"t":390,"v":-16.842866,"e":[0.765,0,1,1]},{"t":1000,"v":23.877394,"e":[0.755,0,1,1]},{"t":1300,"v":0}]}}}},"s":"MGDA1M2E3NGU5MGExSjWllOGRhMDk1OWI5YTRGlVDY2NWY1YzVjNWM1HOEQ0ZTkwOTU5ZTkxOLGZhMDk1OWI5YTRlNjOY1ZDU4NGU5NWEwOTEL5ZThkYTA5NTliOWE5HZjRlNjY1YzU4NGU5MCjk1OTg5ODRlNjY1ZDPU4NGU4ZDk4YTA5MTlIlSjlhOGRhMDkxNGU2DNjkyOGRFOTg5ZjkxNATg0ZTlmOWM5MTkxOTRA0ZTY2NWRhOQ|"}],"options":"MSDAxMDg4MmY4MFM4MTBZlN2ZXODEyZjQ3MmYT3OTdjNmU3MTJmOGE/K"},'__SVGATOR_PLAYER__',window)]]></script></svg>