<?xml version="1.0" encoding="utf-8"?>
<!-- Generator: Adobe Illustrator 25.2.3, SVG Export Plug-In . SVG Version: 6.00 Build 0)  -->
<svg version="1.1" id="Layer_1" xmlns="http://www.w3.org/2000/svg" xmlns:xlink="http://www.w3.org/1999/xlink" x="0px" y="0px"
	 viewBox="0 0 24.9 26.3" style="enable-background:new 0 0 24.9 26.3;" xml:space="preserve">
<style type="text/css">
	.st0{fill:#3C3C3C;}
	.st1{fill:#FFFFFF;}
</style>
<path class="st0" d="M12.5,1.8C6.2,1.8,1.1,6.9,1.1,13.2s5.1,11.5,11.4,11.5s11.4-5.1,11.4-11.4S18.8,1.8,12.5,1.8z"/>
<path class="st1" d="M17,12.8L10.3,6c-0.3-0.3-0.8-0.3-1,0C9,6.3,9,6.8,9.3,7l6.2,6.2l-6.2,6.2c-0.3,0.3-0.3,0.8,0,1
	c0.3,0.3,0.8,0.3,1,0l6.7-6.7c0.1-0.1,0.2-0.3,0.2-0.5C17.2,13.1,17.2,12.9,17,12.8z"/>
</svg>
