<svg xmlns="http://www.w3.org/2000/svg" xmlns:xlink="http://www.w3.org/1999/xlink" width="97.426" height="57.906" viewBox="0 0 97.426 57.906"><defs><style>.a,.d{fill:none;}.b{clip-path:url(#a);}.c{fill:#fff;}.d{stroke:#1a1414;stroke-linecap:round;stroke-linejoin:round;stroke-width:2.506px;}.e{fill:#f2dd19;fill-rule:evenodd;}</style><clipPath id="a"><rect class="a" width="97.426" height="57.906"/></clipPath></defs><g class="b"><path class="c" d="M67.672,1.254C72.51,15.193,76.324,30.14,80.755,44.24c-2.015,4.507-4.934,8.065-7.119,12.413a71.652,71.652,0,0,1-2.113-10.292c-3.281.389-5.757,1.635-8.92,2.152.143,2.525-.572,4.142-.37,6.734-2.135-.981-5.062-3.986-6.813-6.611A289.934,289.934,0,0,1,67.672,1.254M64.3,36.4l5.111-.031C68.234,32.523,68,27.589,66.6,23.993A85.087,85.087,0,0,0,64.3,36.4" transform="translate(0 0)"/><path class="d" d="M67.672,1.254C72.51,15.193,76.324,30.14,80.755,44.24c-2.015,4.507-4.934,8.065-7.119,12.413a71.652,71.652,0,0,1-2.113-10.292c-3.281.389-5.757,1.635-8.92,2.152.143,2.525-.572,4.142-.37,6.734-2.135-.981-5.062-3.986-6.813-6.611A289.934,289.934,0,0,1,67.672,1.254ZM64.3,36.4l5.111-.031C68.234,32.523,68,27.589,66.6,23.993A85.087,85.087,0,0,0,64.3,36.4Z" transform="translate(0 0)"/><path class="c" d="M23.553,1.274c3.641.692,7.417,4.361,11.185,6.088-2.541,13.572-2.21,32.974,1.375,47.123-2.458.859-6.266.262-9.244.561-.212-17.587-1.048-37.418-3.316-53.772" transform="translate(0 0)"/><path class="d" d="M23.553,1.274c3.641.692,7.417,4.361,11.185,6.088-2.541,13.572-2.21,32.974,1.375,47.123-2.458.859-6.266.262-9.244.561C26.657,37.459,25.821,17.628,23.553,1.274Z" transform="translate(0 0)"/><path class="c" d="M95.866,14.679c-3.522-1.726-8.189,1.224-8.565,4.156-.41,3.218,3.138,7.7,4.7,10.854,1.6,3.239,4.136,7.289,4.172,10.771.071,7.172-6.116,13.159-10.984,15.919-2.82-3.305-4.329-8.153-6.915-11.776,3.4-.669,7.66-2.448,7.611-7.015-.062-5.385-7.633-9.611-8.308-15.858-.727-6.678,5.632-17.7,11.611-19.291,2.861,3.414,4.573,8.049,6.677,12.24" transform="translate(0 0)"/><path class="d" d="M95.866,14.679c-3.522-1.726-8.189,1.224-8.565,4.156-.41,3.218,3.138,7.7,4.7,10.854,1.6,3.239,4.136,7.289,4.172,10.771.071,7.172-6.116,13.159-10.984,15.919-2.82-3.305-4.329-8.153-6.915-11.776,3.4-.669,7.66-2.448,7.611-7.015-.062-5.385-7.633-9.611-8.308-15.858-.727-6.678,5.632-17.7,11.611-19.291C92.05,5.853,93.762,10.488,95.866,14.679Z" transform="translate(0 0)"/><path class="c" d="M19.341,3.276c7.442,11.3,7.555,38.96-6.223,40.525-.011,4.227.849,7.355.856,11.555l-8.655.212c.227-18.489,1.02-36.478-4.067-52.32.158,0,.239-.137.184-.312q8.949.166,17.9.34m-7.133,27.9c6.507.4,5.388-9.956,3.5-15.048-1.432-.359-2.568-1.075-4-1.437-.136,5.161.213,10.857.5,16.485" transform="translate(0 0)"/><path class="d" d="M19.341,3.276c7.442,11.3,7.555,38.96-6.223,40.525-.011,4.227.849,7.355.856,11.555l-8.655.212c.227-18.489,1.02-36.478-4.067-52.32.158,0,.239-.137.184-.312Q10.385,3.1,19.341,3.276Zm-7.133,27.9c6.507.4,5.388-9.956,3.5-15.048-1.432-.359-2.568-1.075-4-1.437C11.573,19.857,11.922,25.553,12.208,31.181Z" transform="translate(0 0)"/><path class="c" d="M35.045,3.586q8.958.18,17.919.366c7.637,10.868,7.5,37.459-6.657,39.389.416,3.659.832,7.315,1.032,11.23l-8.961.206c-.57-10.374,1.756-21.074.835-30.89-.642-6.836-3.321-13.008-4.125-19.269q-.022-.518-.043-1.032M45.829,31.069c6.184.574,5.317-9.352,3.675-14.28a12.712,12.712,0,0,0-4-1.745c-.041,4.982-.581,11.106.32,16.025" transform="translate(0 0)"/><path class="d" d="M35.045,3.586q8.958.18,17.919.366c7.637,10.868,7.5,37.459-6.657,39.389.416,3.659.832,7.315,1.032,11.23l-8.961.206c-.57-10.374,1.756-21.074.835-30.89-.642-6.836-3.321-13.008-4.125-19.269Q35.066,4.1,35.045,3.586ZM45.829,31.069c6.184.574,5.317-9.352,3.675-14.28a12.712,12.712,0,0,0-4-1.745C45.468,20.026,44.928,26.15,45.829,31.069Z" transform="translate(0 0)"/><path class="e" d="M67.672,1.254C72.51,15.193,76.324,30.14,80.755,44.24c-2.015,4.507-4.934,8.065-7.119,12.413a71.652,71.652,0,0,1-2.113-10.292c-3.281.389-5.757,1.635-8.92,2.152.143,2.525-.572,4.142-.37,6.734-2.135-.981-5.062-3.986-6.813-6.611A289.934,289.934,0,0,1,67.672,1.254M64.3,36.4l5.111-.031C68.234,32.523,68,27.589,66.6,23.993A85.087,85.087,0,0,0,64.3,36.4" transform="translate(0 0)"/><path class="e" d="M23.553,1.274c3.641.692,7.417,4.361,11.185,6.088-2.541,13.572-2.21,32.974,1.375,47.123-2.458.859-6.266.262-9.244.561-.212-17.587-1.048-37.418-3.316-53.772" transform="translate(0 0)"/><path class="e" d="M95.866,14.679c-3.522-1.726-8.189,1.224-8.565,4.156-.41,3.218,3.138,7.7,4.7,10.854,1.6,3.239,4.136,7.289,4.172,10.771.071,7.172-6.116,13.159-10.984,15.919-2.82-3.305-4.329-8.153-6.915-11.776,3.4-.669,7.66-2.448,7.611-7.015-.062-5.385-7.633-9.611-8.308-15.858-.727-6.678,5.632-17.7,11.611-19.291,2.861,3.414,4.573,8.049,6.677,12.24" transform="translate(0 0)"/><path class="e" d="M19.341,3.276c7.442,11.3,7.555,38.96-6.223,40.525-.011,4.227.849,7.355.856,11.555l-8.655.212c.227-18.489,1.02-36.478-4.067-52.32.158,0,.239-.137.184-.312q8.949.166,17.9.34m-7.133,27.9c6.507.4,5.388-9.956,3.5-15.048-1.432-.359-2.568-1.075-4-1.437-.136,5.161.213,10.857.5,16.485" transform="translate(0 0)"/><path class="e" d="M35.045,3.586q8.958.18,17.919.366c7.637,10.868,7.5,37.459-6.657,39.389.416,3.659.832,7.315,1.032,11.23l-8.961.206c-.57-10.374,1.756-21.074.835-30.89-.642-6.836-3.321-13.008-4.125-19.269q-.022-.518-.043-1.032M45.829,31.069c6.184.574,5.317-9.352,3.675-14.28a12.712,12.712,0,0,0-4-1.745c-.041,4.982-.581,11.106.32,16.025" transform="translate(0 0)"/></g></svg>