<svg xmlns="http://www.w3.org/2000/svg" width="231.001" height="75.999" viewBox="0 0 231.001 75.999">
  <g id="peladas_sin_sal_nutri_doy" transform="translate(0 -2.974)" style="mix-blend-mode: lighten;isolation: isolate">
    <path id="Trazado_672" data-name="Trazado 672" d="M16.694,10.455l.339,4.514.337-4.514h.977l-.821,8.821h-.989l-.821-8.821Z" fill="#fff"/>
    <path id="Trazado_673" data-name="Trazado 673" d="M20,14.211c0-.2-.05-.551-.158-.551s-.17.382-.17.551v.432H18.76v-.394c0-.734.324-1.634,1.122-1.634.735,0,1.038.876,1.015,1.486v4.034a8.128,8.128,0,0,0,.059,1.141h-.81a2.177,2.177,0,0,1-.143-.4.718.718,0,0,1-.615.49c-.653,0-.69-1.21-.69-1.62a2.988,2.988,0,0,1,.918-2.364A1.354,1.354,0,0,0,20,14.919Zm-.011,2.054a2.832,2.832,0,0,0-.425,1.475c0,.036,0,.492.17.492s.255-.216.255-.443Z" fill="#fff"/>
    <rect id="Rectángulo_13" data-name="Rectángulo 13" width="0.954" height="8.821" transform="translate(21.778 10.455)" fill="#fff"/>
    <path id="Trazado_674" data-name="Trazado 674" d="M25.8,17.681c0,1.007-.255,1.69-1.124,1.69-.954,0-1.111-.912-1.111-1.726v-3.3c0-.909.242-1.726,1.134-1.726.966,0,1.1.768,1.1,1.692Zm-.909-3.458c.013-.3-.011-.551-.2-.551-.168,0-.219.229-.219.551v3.54c-.011.267.038.539.208.539.192,0,.229-.43.215-.539Z" fill="#fff"/>
    <path id="Trazado_675" data-name="Trazado 675" d="M28.25,14.054c-.568-.324-.808.146-.808.662v4.56h-.928V12.712h.928v.36a.911.911,0,0,1,.808-.456Z" fill="#fff"/>
    <path id="Trazado_676" data-name="Trazado 676" d="M8.946,20.183h2v1.333h-1v2.315h.724v1.416H9.949V27.67h1V29h-2Z" fill="#fff"/>
    <path id="Trazado_677" data-name="Trazado 677" d="M12.7,29h-.954V22.44H12.7v.335a1.045,1.045,0,0,1,.64-.433c.6,0,.653.89.653,1.287V29h-.943V23.819c0-.252-.061-.42-.181-.42s-.17.18-.17.432Z" fill="#fff"/>
    <path id="Trazado_678" data-name="Trazado 678" d="M16.954,26.651v.827c0,.854-.265,1.62-1.195,1.62-.846,0-1.05-.9-1.05-1.656v-3.42c0-.78.3-1.679,1.111-1.679,1.014,0,1.134.888,1.134,1.645v1.955H15.639v1.429c0,.265.046.659.181.659.192,0,.229-.432.229-.659v-.721Zm-1.315-1.656h.41v-.924c0-.322-.036-.672-.242-.672-.156,0-.168.479-.168.672Z" fill="#fff"/>
    <path id="Trazado_679" data-name="Trazado 679" d="M19.393,23.782c-.566-.324-.808.146-.808.662V29h-.93V22.44h.93v.36a.912.912,0,0,1,.808-.458Z" fill="#fff"/>
    <path id="Trazado_680" data-name="Trazado 680" d="M22.146,25.837c-.034.695-.349,1.618-1.17,1.618h-.061a.6.6,0,0,0-.072.29c0,.238.3.36.484.405a1.413,1.413,0,0,1,.724.375,1.7,1.7,0,0,1,.375,1.151c0,.876-.375,1.681-1.366,1.681a1.171,1.171,0,0,1-1.28-1.272,1.265,1.265,0,0,1,.629-1h.011a.887.887,0,0,1-.518-.874,1.471,1.471,0,0,1,.493-.984,2.422,2.422,0,0,1-.459-1.429V24.011c.011-.695.29-1.668,1.1-1.668a.785.785,0,0,1,.751.409.975.975,0,0,1,.76-.409v1.079a.562.562,0,0,0-.448.146,1.013,1.013,0,0,1,.048.29Zm-1.231,3.488a.806.806,0,0,0-.217.555c0,.252.107.456.375.456a.437.437,0,0,0,.446-.445.453.453,0,0,0-.314-.468Zm.3-5.326c0-.263-.025-.6-.183-.6-.12,0-.156.36-.156.6V25.86c0,.229.036.589.156.589.158,0,.183-.422.183-.589Z" fill="#fff"/>
    <path id="Trazado_681" data-name="Trazado 681" d="M25.322,26.651v.827c0,.854-.265,1.62-1.195,1.62-.846,0-1.05-.9-1.05-1.656v-3.42c0-.78.3-1.679,1.113-1.679,1.012,0,1.132.888,1.132,1.645v1.955H24.007v1.429c0,.265.048.659.183.659.191,0,.229-.432.229-.659v-.721Zm-.191-6.371-.581,1.079h-.773l.387-1.079Zm-1.124,4.715h.412v-.924c0-.322-.038-.672-.242-.672-.158,0-.17.479-.17.672Z" fill="#fff"/>
    <path id="Trazado_682" data-name="Trazado 682" d="M27.157,20.817v1.622h.509v1.092h-.509V29h-.926V23.532h-.4V22.439h.4V20.817Z" fill="#fff"/>
    <path id="Trazado_683" data-name="Trazado 683" d="M28.316,22.441h.954v6.564h-.954Zm0-2.258h.954V21.4h-.954Z" fill="#fff"/>
    <path id="Trazado_684" data-name="Trazado 684" d="M31,27.49c0,.24.059.517.181.517s.192-.119.192-.517v-.909h.918v.753c-.011.922-.086,1.764-1.149,1.764-.941,0-1.1-1.139-1.1-1.823v-3.11c.011-.755.2-1.825,1.122-1.825,1.088,0,1.124.914,1.124,1.766v.636h-.918v-.865c0-.4-.072-.479-.181-.479s-.192.24-.192.479Z" fill="#fff"/>
    <path id="Trazado_685" data-name="Trazado 685" d="M35.143,27.408c0,1.007-.255,1.69-1.124,1.69-.954,0-1.111-.912-1.111-1.726v-3.3c0-.91.24-1.728,1.134-1.728.966,0,1.1.77,1.1,1.694Zm-.909-3.458c.013-.3-.011-.551-.2-.551-.17,0-.219.229-.219.551v3.54c-.011.267.038.539.208.539.192,0,.229-.43.215-.539Z" fill="#fff"/>
    <path id="Trazado_686" data-name="Trazado 686" d="M203.89,17.314c0-.31,0-1.285-.194-1.285-.143,0-.166.362-.166.878a6.06,6.06,0,0,0,.591,2.075,7.348,7.348,0,0,1,.76,2.773c0,.839-.158,2.1-1.195,2.1-1.269,0-1.246-1.753-1.246-2.559l.979-.142c0,.276,0,1.512.267,1.512.179,0,.2-.288.2-.852a7.01,7.01,0,0,0-.8-2.642,7.223,7.223,0,0,1-.541-2.266c0-.768.156-2.04,1.124-2.065,1.158-.023,1.206,1.6,1.206,2.328Z" fill="#fff"/>
    <path id="Trazado_687" data-name="Trazado 687" d="M207.842,22.163c0,1.007-.253,1.694-1.122,1.694-.954,0-1.113-.914-1.113-1.73v-3.3c0-.91.242-1.728,1.135-1.728.966,0,1.1.77,1.1,1.694Zm-.907-3.456c.013-.3-.011-.553-.2-.553-.17,0-.219.229-.219.553v3.54c-.011.265.036.541.208.541.191,0,.229-.433.215-.541Z" fill="#fff"/>
    <path id="Trazado_688" data-name="Trazado 688" d="M210.837,23.759h-.954V23.4a.912.912,0,0,1-.688.456c-.593,0-.532-.814-.543-1.285V18.383c0-.539.12-1.285.735-1.285a.661.661,0,0,1,.5.373V14.938h.954Zm-.954-5.173c0-.193-.046-.433-.168-.433s-.171.206-.171.433v3.672c0,.24.038.456.171.456s.168-.227.168-.456Z" fill="#fff"/>
    <path id="Trazado_689" data-name="Trazado 689" d="M211.584,17.195h.954v6.566h-.954Zm0-2.254h.954v1.211h-.954Z" fill="#fff"/>
    <path id="Trazado_690" data-name="Trazado 690" d="M215.548,22.163c0,1.007-.255,1.694-1.124,1.694-.954,0-1.113-.914-1.113-1.73v-3.3c0-.91.242-1.728,1.135-1.728.966,0,1.1.77,1.1,1.694Zm-.909-3.456c.013-.3-.011-.553-.2-.553-.17,0-.219.229-.219.553v3.54c-.011.265.038.541.208.541.192,0,.229-.433.215-.541Z" fill="#fff"/>
    <path id="Trazado_691" data-name="Trazado 691" d="M58.349,15.245h1.008a1,1,0,0,1,.937.524,4.068,4.068,0,0,1,.419,2.1A4.228,4.228,0,0,1,60.295,20a1.114,1.114,0,0,1-.951.5v3.507h-.994Zm.994,3.947a.339.339,0,0,0,.312-.142,3.424,3.424,0,0,0,.1-1.134,4.348,4.348,0,0,0-.1-1.251c-.059-.131-.2-.131-.312-.131Z" fill="#fff"/>
    <path id="Trazado_692" data-name="Trazado 692" d="M63,18.82c-.564-.322-.8.144-.8.659v4.53h-.924V17.486h.924v.356a.909.909,0,0,1,.8-.452Z" fill="#fff"/>
    <path id="Trazado_693" data-name="Trazado 693" d="M65.543,22.423c0,1-.251,1.683-1.116,1.683-.949,0-1.1-.907-1.1-1.717V19.106c0-.9.242-1.717,1.128-1.717.958,0,1.094.765,1.094,1.683Zm-.9-3.434c.011-.3-.011-.549-.2-.549-.17,0-.219.227-.219.549v3.517c-.011.263.036.539.206.539.191,0,.227-.432.215-.539Z" fill="#fff"/>
    <path id="Trazado_694" data-name="Trazado 694" d="M67.192,15.876v1.611h.5v1.085h-.5V24.01h-.924V18.572h-.4V17.487h.4V15.876Z" fill="#fff"/>
    <path id="Trazado_695" data-name="Trazado 695" d="M70.327,21.671V22.5c0,.846-.265,1.609-1.189,1.609-.84,0-1.044-.893-1.044-1.647v-3.4c0-.774.3-1.669,1.1-1.669,1.01,0,1.13.884,1.13,1.635v1.944H69.018v1.42c0,.263.048.657.179.657.192,0,.229-.432.229-.657v-.717Zm-1.309-1.645h.408v-.918c0-.322-.036-.668-.24-.668-.156,0-.168.477-.168.668Z" fill="#fff"/>
    <path id="Trazado_696" data-name="Trazado 696" d="M72.166,15.34,71.6,16.413h-.77l.375-1.073ZM70.83,17.488h.951v6.523H70.83Z" fill="#fff"/>
    <path id="Trazado_697" data-name="Trazado 697" d="M73.476,24.009h-.951V17.486h.951v.331a1.042,1.042,0,0,1,.634-.428c.6,0,.648.884.648,1.278v5.342h-.934V18.856c0-.25-.063-.416-.183-.416s-.166.178-.166.428Z" fill="#fff"/>
    <path id="Trazado_698" data-name="Trazado 698" d="M76.445,18.976c0-.2-.051-.549-.156-.549-.122,0-.17.382-.17.549V19.4h-.913v-.392c0-.727.322-1.622,1.116-1.622.733,0,1.033.871,1.01,1.478v4.007a7.981,7.981,0,0,0,.059,1.134h-.8a1.892,1.892,0,0,1-.143-.392.713.713,0,0,1-.612.488c-.65,0-.688-1.206-.688-1.611a2.97,2.97,0,0,1,.914-2.351,1.321,1.321,0,0,0,.385-.464Zm-.013,2.04a2.843,2.843,0,0,0-.421,1.465c0,.038,0,.49.17.49s.251-.214.251-.441Z" fill="#fff"/>
    <path id="Trazado_699" data-name="Trazado 699" d="M79.241,19.156c0-.2-.038-.763-.215-.763-.156,0-.17.428-.17.68a2.858,2.858,0,0,0,.455,1.3,4.072,4.072,0,0,1,.72,2.158c0,.56-.154,1.575-1.09,1.575-1.019,0-1.094-1.109-1.094-1.993h.865c0,.418.059.992.229.992s.191-.286.191-.787a3.737,3.737,0,0,0-.492-1.408,3.964,3.964,0,0,1-.673-1.967c0-.837.312-1.552,1.031-1.552.987,0,1.059,1.122,1.059,1.766Z" fill="#fff"/>
    <path id="Trazado_700" data-name="Trazado 700" d="M108.528,13.623V12.148c0-.182-.027-.532-.2-.532-.131,0-.179.312-.179.532V17.69c0,.276.059.528.2.528.217,0,.242-.31.242-.528V15.974h-.215V14.881h1.145v4.393h-.52l-.109-.326a.89.89,0,0,1-.661.42c-.9,0-1.1-1.162-1.1-1.787V12.148c0-.793.291-1.789,1.193-1.789.968,0,1.2,1.081,1.2,1.789v1.475Z" fill="#fff"/>
    <path id="Trazado_701" data-name="Trazado 701" d="M112.138,14.054c-.566-.324-.808.146-.808.662v4.56h-.93V12.712h.93v.36a.908.908,0,0,1,.808-.456Z" fill="#fff"/>
    <path id="Trazado_702" data-name="Trazado 702" d="M113.854,14.211c0-.2-.05-.551-.158-.551s-.17.382-.17.551v.432h-.916v-.394c0-.734.324-1.634,1.122-1.634.735,0,1.038.876,1.015,1.486v4.034a7.77,7.77,0,0,0,.061,1.141H114a2.177,2.177,0,0,1-.143-.4.718.718,0,0,1-.615.49c-.653,0-.69-1.21-.69-1.62a2.988,2.988,0,0,1,.918-2.364,1.354,1.354,0,0,0,.387-.468Zm-.013,2.054a2.85,2.85,0,0,0-.423,1.475c0,.036,0,.492.17.492s.253-.216.253-.443Z" fill="#fff"/>
    <path id="Trazado_703" data-name="Trazado 703" d="M116.861,14.391c0-.2-.038-.768-.219-.768-.156,0-.17.43-.17.683a2.841,2.841,0,0,0,.461,1.308,4.106,4.106,0,0,1,.724,2.173c0,.564-.156,1.582-1.1,1.582-1.029,0-1.1-1.115-1.1-2h.869c0,.422.059,1,.231,1s.191-.29.191-.791a3.737,3.737,0,0,0-.5-1.416,4.015,4.015,0,0,1-.674-1.982c0-.84.312-1.558,1.036-1.558.993,0,1.065,1.126,1.065,1.775Z" fill="#fff"/>
    <path id="Trazado_704" data-name="Trazado 704" d="M119.614,14.211c0-.2-.05-.551-.158-.551s-.168.382-.168.551v.432h-.918v-.394c0-.734.326-1.634,1.122-1.634.737,0,1.038.876,1.017,1.486v4.034a7.839,7.839,0,0,0,.059,1.141h-.81a2.183,2.183,0,0,1-.145-.4.713.713,0,0,1-.615.49c-.652,0-.69-1.21-.69-1.62a3,3,0,0,1,.918-2.364,1.333,1.333,0,0,0,.387-.468Zm-.013,2.054a2.868,2.868,0,0,0-.421,1.475c0,.036,0,.492.168.492s.253-.216.253-.443Z" fill="#fff"/>
    <path id="Trazado_705" data-name="Trazado 705" d="M122.622,14.391c0-.2-.038-.768-.217-.768-.156,0-.17.43-.17.683a2.862,2.862,0,0,0,.459,1.308,4.122,4.122,0,0,1,.724,2.173c0,.564-.156,1.582-1.1,1.582-1.025,0-1.1-1.115-1.1-2h.869c0,.422.061,1,.229,1s.194-.29.194-.791a3.737,3.737,0,0,0-.5-1.416,4,4,0,0,1-.676-1.982c0-.84.314-1.558,1.038-1.558.991,0,1.063,1.126,1.063,1.775Z" fill="#fff"/>
    <path id="Trazado_706" data-name="Trazado 706" d="M106.335,21.516V20.184h2.477v1.333h-.737V29h-1V21.516Z" fill="#fff"/>
    <path id="Trazado_707" data-name="Trazado 707" d="M111.324,27.408c0,1.007-.255,1.69-1.122,1.69-.954,0-1.113-.912-1.113-1.726v-3.3c0-.91.242-1.728,1.134-1.728.966,0,1.1.77,1.1,1.694Zm-.907-3.458c.013-.3-.011-.551-.2-.551-.17,0-.219.229-.219.551v3.54c-.011.267.036.539.208.539.191,0,.229-.43.215-.539Z" fill="#fff"/>
    <path id="Trazado_708" data-name="Trazado 708" d="M113.172,20.817v1.622h.507v1.092h-.507V29h-.93V23.532h-.4V22.439h.4V20.817Z" fill="#fff"/>
    <path id="Trazado_709" data-name="Trazado 709" d="M115.491,23.939c0-.2-.05-.551-.158-.551s-.168.38-.168.551v.432h-.918v-.394c0-.734.326-1.635,1.122-1.635.737,0,1.038.878,1.017,1.488v4.034A7.84,7.84,0,0,0,116.445,29h-.81a2.2,2.2,0,0,1-.145-.4.713.713,0,0,1-.615.492c-.652,0-.69-1.211-.69-1.62a3,3,0,0,1,.918-2.364,1.333,1.333,0,0,0,.387-.468Zm-.013,2.054a2.863,2.863,0,0,0-.421,1.475c0,.036,0,.492.168.492s.253-.216.253-.443Z" fill="#fff"/>
    <rect id="Rectángulo_14" data-name="Rectángulo 14" width="0.954" height="8.821" transform="translate(117.265 20.183)" fill="#fff"/>
    <path id="Trazado_710" data-name="Trazado 710" d="M121.3,26.651v.827c0,.854-.263,1.62-1.195,1.62-.846,0-1.05-.9-1.05-1.656v-3.42c0-.78.3-1.679,1.113-1.679,1.012,0,1.132.888,1.132,1.645v1.955h-1.315v1.429c0,.265.048.659.183.659.191,0,.229-.432.229-.659v-.721Zm-1.315-1.656h.412v-.924c0-.322-.038-.672-.242-.672-.158,0-.17.479-.17.672Z" fill="#fff"/>
    <path id="Trazado_711" data-name="Trazado 711" d="M123.218,24.119c0-.2-.036-.767-.217-.767-.156,0-.17.43-.17.683a2.841,2.841,0,0,0,.461,1.308,4.122,4.122,0,0,1,.724,2.173c0,.564-.156,1.582-1.1,1.582-1.027,0-1.1-1.115-1.1-2h.871c0,.422.059,1,.229,1s.192-.29.192-.791a3.737,3.737,0,0,0-.5-1.416,4.017,4.017,0,0,1-.676-1.982c0-.842.314-1.56,1.038-1.56.993,0,1.063,1.128,1.063,1.775Z" fill="#fff"/>
    <path id="Trazado_712" data-name="Trazado 712" d="M155.313,13.763V12.288c0-.182-.027-.53-.194-.53-.131,0-.181.312-.181.53v5.542c0,.276.061.528.2.528.219,0,.242-.31.242-.528V16.114h-.217v-1.09h1.147v4.389h-.518l-.109-.322a.893.893,0,0,1-.665.418c-.894,0-1.1-1.164-1.1-1.785V12.288c0-.795.29-1.791,1.195-1.791.966,0,1.195,1.083,1.195,1.791v1.475Z" fill="#fff"/>
    <path id="Trazado_713" data-name="Trazado 713" d="M158.925,14.2c-.568-.326-.81.142-.81.661v4.558h-.93V12.85h.93v.36a.914.914,0,0,1,.81-.454Z" fill="#fff"/>
    <path id="Trazado_714" data-name="Trazado 714" d="M160.638,14.351c0-.2-.048-.553-.156-.553s-.17.386-.17.553v.433h-.918v-.4c0-.731.326-1.632,1.122-1.632.737,0,1.038.874,1.017,1.488v4.032a7.792,7.792,0,0,0,.059,1.139h-.81a2.114,2.114,0,0,1-.145-.394.711.711,0,0,1-.615.49c-.652,0-.69-1.211-.69-1.62a2.992,2.992,0,0,1,.918-2.364,1.312,1.312,0,0,0,.387-.468Zm-.013,2.052a2.874,2.874,0,0,0-.421,1.475c0,.04,0,.494.168.494s.253-.216.253-.443Z" fill="#fff"/>
    <path id="Trazado_715" data-name="Trazado 715" d="M163.646,14.533c0-.2-.038-.768-.217-.768-.156,0-.17.432-.17.681a2.861,2.861,0,0,0,.459,1.31,4.1,4.1,0,0,1,.724,2.173c0,.564-.156,1.582-1.1,1.582-1.025,0-1.1-1.115-1.1-2h.869c0,.422.061,1,.229,1s.194-.291.194-.793a3.726,3.726,0,0,0-.5-1.416,4.023,4.023,0,0,1-.676-1.98c0-.84.314-1.56,1.038-1.56.991,0,1.063,1.126,1.063,1.775Z" fill="#fff"/>
    <path id="Trazado_716" data-name="Trazado 716" d="M166.4,14.351c0-.2-.05-.553-.158-.553s-.17.386-.17.553v.433h-.916v-.4c0-.731.324-1.632,1.122-1.632.737,0,1.038.874,1.015,1.488v4.032a7.719,7.719,0,0,0,.061,1.139h-.812a2.252,2.252,0,0,1-.143-.394.713.713,0,0,1-.615.49c-.653,0-.69-1.211-.69-1.62a2.992,2.992,0,0,1,.918-2.364,1.333,1.333,0,0,0,.387-.468Zm-.013,2.052a2.874,2.874,0,0,0-.423,1.475c0,.04,0,.494.17.494s.253-.216.253-.443Z" fill="#fff"/>
    <path id="Trazado_717" data-name="Trazado 717" d="M169.407,14.533c0-.2-.036-.768-.217-.768-.156,0-.168.432-.168.681a2.84,2.84,0,0,0,.459,1.31,4.117,4.117,0,0,1,.724,2.173c0,.564-.156,1.582-1.1,1.582-1.027,0-1.1-1.115-1.1-2h.871c0,.422.059,1,.229,1s.192-.291.192-.793a3.726,3.726,0,0,0-.5-1.416,4.023,4.023,0,0,1-.676-1.98c0-.84.314-1.56,1.038-1.56.993,0,1.063,1.126,1.063,1.775Z" fill="#fff"/>
    <path id="Trazado_718" data-name="Trazado 718" d="M151.1,22.7c0-.312,0-1.283-.192-1.283-.145,0-.168.362-.168.874a6.033,6.033,0,0,0,.591,2.078,7.3,7.3,0,0,1,.762,2.771c0,.84-.16,2.1-1.2,2.1-1.267,0-1.244-1.753-1.244-2.555l.977-.146c0,.28,0,1.514.267,1.514.181,0,.2-.288.2-.852a6.992,6.992,0,0,0-.8-2.641,7.181,7.181,0,0,1-.541-2.27c0-.767.154-2.039,1.122-2.063,1.158-.023,1.208,1.6,1.208,2.33Z" fill="#fff"/>
    <path id="Trazado_719" data-name="Trazado 719" d="M154.057,24.081c0-.2-.048-.553-.156-.553s-.17.384-.17.553v.433h-.916v-.4c0-.731.324-1.632,1.12-1.632.737,0,1.04.874,1.017,1.488V28a8.078,8.078,0,0,0,.059,1.139h-.81a2.084,2.084,0,0,1-.145-.4.71.71,0,0,1-.613.492c-.653,0-.692-1.211-.692-1.62a2.987,2.987,0,0,1,.92-2.364,1.325,1.325,0,0,0,.385-.468Zm-.011,2.052a2.856,2.856,0,0,0-.423,1.475c0,.04,0,.494.17.494s.253-.216.253-.443Z" fill="#fff"/>
    <path id="Trazado_720" data-name="Trazado 720" d="M156.958,20.96v1.618h.507v1.094h-.507v5.47h-.93v-5.47h-.4V22.578h.4V20.96Z" fill="#fff"/>
    <path id="Trazado_721" data-name="Trazado 721" d="M159.359,22.58h.954v6.564h-.954v-.335a1.05,1.05,0,0,1-.64.432c-.6,0-.652-.886-.652-1.285V22.58h.941v5.184c0,.252.061.42.181.42s.17-.18.17-.432Z" fill="#fff"/>
    <path id="Trazado_722" data-name="Trazado 722" d="M162.872,23.924c-.568-.324-.808.144-.808.662v4.558h-.93V22.58h.93v.36a.913.913,0,0,1,.808-.454Z" fill="#fff"/>
    <path id="Trazado_723" data-name="Trazado 723" d="M164.589,24.081c0-.2-.05-.553-.158-.553s-.168.384-.168.553v.433h-.918v-.4c0-.731.324-1.632,1.122-1.632.737,0,1.038.874,1.015,1.488V28a7.722,7.722,0,0,0,.061,1.139h-.81a2.084,2.084,0,0,1-.145-.4.71.71,0,0,1-.615.492c-.653,0-.69-1.211-.69-1.62a2.992,2.992,0,0,1,.918-2.364,1.333,1.333,0,0,0,.387-.468Zm-.013,2.052a2.874,2.874,0,0,0-.423,1.475c0,.04,0,.494.17.494s.253-.216.253-.443Z" fill="#fff"/>
    <path id="Trazado_724" data-name="Trazado 724" d="M168.66,29.142h-.954v-.36a.907.907,0,0,1-.69.456c-.593,0-.532-.814-.543-1.283V23.768c0-.541.12-1.283.737-1.283a.666.666,0,0,1,.5.371V20.323h.954Zm-.954-5.169c0-.193-.048-.433-.17-.433s-.171.206-.171.433v3.672c0,.238.038.456.171.456s.17-.227.17-.456Z" fill="#fff"/>
    <path id="Trazado_725" data-name="Trazado 725" d="M170.592,24.081c0-.2-.048-.553-.156-.553s-.17.384-.17.553v.433h-.918v-.4c0-.731.326-1.632,1.122-1.632.737,0,1.04.874,1.017,1.488V28a8.08,8.08,0,0,0,.059,1.139h-.81a2.085,2.085,0,0,1-.145-.4.71.71,0,0,1-.615.492c-.652,0-.69-1.211-.69-1.62a2.987,2.987,0,0,1,.92-2.364,1.325,1.325,0,0,0,.385-.468Zm-.013,2.052a2.874,2.874,0,0,0-.421,1.475c0,.04,0,.494.168.494s.253-.216.253-.443Z" fill="#fff"/>
    <path id="Trazado_726" data-name="Trazado 726" d="M173.6,24.26c0-.2-.038-.768-.217-.768-.156,0-.17.43-.17.681a2.862,2.862,0,0,0,.459,1.31,4.1,4.1,0,0,1,.724,2.173c0,.564-.154,1.582-1.1,1.582-1.027,0-1.1-1.115-1.1-2h.871c0,.422.059,1,.229,1s.192-.291.192-.793a3.727,3.727,0,0,0-.5-1.416,4.023,4.023,0,0,1-.676-1.982c0-.84.314-1.558,1.038-1.558.993,0,1.063,1.126,1.063,1.775Z" fill="#fff"/>
    <g id="Grupo_129" data-name="Grupo 129">
      <g id="Grupo_128" data-name="Grupo 128">
        <path id="Trazado_727" data-name="Trazado 727" d="M26.743,66.683c-.175,0-.223.11-.272.221a.461.461,0,0,0-.015.208V70.5a.448.448,0,0,0,.112.367.208.208,0,0,0,.175.078c.145,0,.192-.11.24-.221a.876.876,0,0,0,.032-.223V67.112a.652.652,0,0,0-.112-.367C26.87,66.7,26.825,66.683,26.743,66.683Z" fill="#fff"/>
        <path id="Trazado_728" data-name="Trazado 728" d="M43.72,11.9A30.879,30.879,0,0,0,.3,11.9a.991.991,0,0,0-.3.7V69.335a.994.994,0,0,0,.3.7,30.883,30.883,0,0,0,43.424,0,.992.992,0,0,0,.293-.7V12.6A.989.989,0,0,0,43.72,11.9ZM20.178,68.8a4.481,4.481,0,0,1-.337,1.927,1.948,1.948,0,0,1-1.92,1.128A1.876,1.876,0,0,1,16,70.658a5.966,5.966,0,0,1-.337-2.34H17.39v.462A4.252,4.252,0,0,0,17.5,70c.078.24.208.35.415.35a.424.424,0,0,0,.4-.335,3.974,3.974,0,0,0,.13-1.225V66.187c0-.492-.175-.859-.543-.859a.641.641,0,0,0-.48.32,1.088,1.088,0,0,0-.194.539H15.773V60.031h4.182v1.7h-2.69v2.434a2.2,2.2,0,0,1,.64-.35.687.687,0,0,1,.352-.047,1.7,1.7,0,0,1,1.633,1.064,3.571,3.571,0,0,1,.288,1.353Zm.964-3.468A1.46,1.46,0,0,1,21,64.646v-3.39a1.407,1.407,0,0,1,.528-1.145,1.064,1.064,0,0,1,.72-.206,1.118,1.118,0,0,1,1.073.683,1.718,1.718,0,0,1,.162.668v3.39a1.49,1.49,0,0,1-.53,1.16,1.03,1.03,0,0,1-.7.206A1.1,1.1,0,0,1,21.142,65.327Zm.655,6.4L26.12,60.033h1.023L22.87,71.725ZM27.975,70.5a1.455,1.455,0,0,1-.528,1.147,1.04,1.04,0,0,1-.7.206,1.142,1.142,0,0,1-1.1-.668A1.512,1.512,0,0,1,25.5,70.5V67.112a1.433,1.433,0,0,1,.528-1.162,1.045,1.045,0,0,1,.718-.208,1.121,1.121,0,0,1,1.073.685,1.867,1.867,0,0,1,.16.685Zm14.032-1.582a28.277,28.277,0,0,1-2.3,1.989,17.692,17.692,0,0,0-35.381.011,28.653,28.653,0,0,1-2.319-2v-55.9a28.865,28.865,0,0,1,40,0Z" fill="#fff"/>
        <path id="Trazado_729" data-name="Trazado 729" d="M22.517,64.646v-3.39a.674.674,0,0,0-.111-.365.174.174,0,0,0-.162-.064c-.175,0-.223.114-.272.225a.45.45,0,0,0-.013.2v3.39c-.017.174.013.43.286.43C22.485,65.076,22.517,64.82,22.517,64.646Z" fill="#fff"/>
      </g>
    </g>
    <g id="Grupo_131" data-name="Grupo 131">
      <path id="Trazado_730" data-name="Trazado 730" d="M68.782,64.012V60.656a.655.655,0,0,0-.109-.362.17.17,0,0,0-.16-.062c-.175,0-.223.11-.269.22a.448.448,0,0,0-.017.2v3.356c-.013.172.017.424.286.424C68.754,64.436,68.782,64.184,68.782,64.012Z" fill="#fff"/>
      <g id="Grupo_130" data-name="Grupo 130">
        <path id="Trazado_731" data-name="Trazado 731" d="M65.006,70.114a.544.544,0,0,0,.532.528.573.573,0,0,0,.533-.528V66.588a.574.574,0,0,0-.533-.53.529.529,0,0,0-.532.481Z" fill="#fff"/>
        <path id="Trazado_732" data-name="Trazado 732" d="M70.26,64.89V61.476a.668.668,0,0,0-.112-.369.171.171,0,0,0-.16-.064c-.179,0-.229.114-.276.223a.45.45,0,0,0-.017.21V64.89c-.015.176.017.432.293.432C70.23,65.322,70.26,65.066,70.26,64.89Z" fill="#fff"/>
        <path id="Trazado_733" data-name="Trazado 733" d="M74.519,66.94c-.175,0-.225.114-.272.227a.429.429,0,0,0-.017.206V70.79a.451.451,0,0,0,.114.367.2.2,0,0,0,.175.079c.147,0,.194-.112.242-.223a.887.887,0,0,0,.034-.223V67.374a.643.643,0,0,0-.114-.367C74.65,66.957,74.6,66.94,74.519,66.94Z" fill="#fff"/>
        <path id="Trazado_734" data-name="Trazado 734" d="M90.564,11.9a30.879,30.879,0,0,0-43.424,0,.991.991,0,0,0-.3.7V69.335a.994.994,0,0,0,.3.7,30.883,30.883,0,0,0,43.424,0,.993.993,0,0,0,.293-.7V12.6A.989.989,0,0,0,90.564,11.9ZM67.814,63.639H66.071a9.224,9.224,0,0,0-.08-1.6c-.067-.3-.194-.416-.453-.416a.4.4,0,0,0-.417.3,2.88,2.88,0,0,0-.114.977V65a1.714,1.714,0,0,1,.871-.29,1.7,1.7,0,0,1,1.646,1,3.569,3.569,0,0,1,.291,1.49v2.4a3.215,3.215,0,0,1-.339,1.476,2.031,2.031,0,0,1-1.938,1.073A1.991,1.991,0,0,1,63.6,71.078a3.223,3.223,0,0,1-.341-1.476V62.9a3.835,3.835,0,0,1,.324-1.715,2.313,2.313,0,0,1,3.906,0,3.857,3.857,0,0,1,.322,1.715Zm1.059,1.94a1.5,1.5,0,0,1-.147-.689V61.476a1.417,1.417,0,0,1,.533-1.155,1.066,1.066,0,0,1,.728-.208,1.13,1.13,0,0,1,1.08.689,1.7,1.7,0,0,1,.16.674V64.89a1.491,1.491,0,0,1-.532,1.17,1.044,1.044,0,0,1-.709.208A1.115,1.115,0,0,1,68.874,65.579Zm.661,6.443L73.89,60.24h1.033L70.617,72.022Zm6.228-1.232a1.472,1.472,0,0,1-.532,1.153,1.049,1.049,0,0,1-.713.208,1.146,1.146,0,0,1-1.113-.674,1.52,1.52,0,0,1-.145-.687V67.374a1.444,1.444,0,0,1,.533-1.17A1.062,1.062,0,0,1,74.519,66a1.123,1.123,0,0,1,1.082.691,1.878,1.878,0,0,1,.162.687Zm13.088-1.874a27.984,27.984,0,0,1-2.3,1.989,17.691,17.691,0,0,0-35.379.011,28.653,28.653,0,0,1-2.319-2v-55.9a28.865,28.865,0,0,1,40,0Z" fill="#fff"/>
      </g>
    </g>
    <g id="Grupo_133" data-name="Grupo 133">
      <g id="Grupo_132" data-name="Grupo 132">
        <path id="Trazado_735" data-name="Trazado 735" d="M123.359,66.683c-.175,0-.223.11-.272.221a.436.436,0,0,0-.015.208V70.5a.442.442,0,0,0,.112.367.208.208,0,0,0,.175.078c.143,0,.192-.11.24-.221a.876.876,0,0,0,.032-.223V67.112a.652.652,0,0,0-.112-.367C123.487,66.7,123.439,66.683,123.359,66.683Z" fill="#fff"/>
        <path id="Trazado_736" data-name="Trazado 736" d="M119.132,64.646v-3.39a.674.674,0,0,0-.111-.365.174.174,0,0,0-.162-.064c-.175,0-.223.114-.271.225a.425.425,0,0,0-.015.2v3.39c-.017.174.015.43.286.43C119.1,65.076,119.132,64.82,119.132,64.646Z" fill="#fff"/>
        <path id="Trazado_737" data-name="Trazado 737" d="M137.01,11.9a30.881,30.881,0,0,0-43.426,0,.983.983,0,0,0-.3.7V69.335a.987.987,0,0,0,.3.7,30.885,30.885,0,0,0,43.426,0,.992.992,0,0,0,.293-.7V12.6A.989.989,0,0,0,137.01,11.9ZM111.092,71.725h-1.728V62.562h-1.155v-1.1a2.648,2.648,0,0,0,1.457-.827,2.852,2.852,0,0,0,.385-.6h1.04Zm5.7-2.93a4.449,4.449,0,0,1-.335,1.927,1.95,1.95,0,0,1-1.92,1.128,1.88,1.88,0,0,1-1.922-1.192,6,6,0,0,1-.335-2.34h1.728v.462A4.271,4.271,0,0,0,114.119,70c.08.24.21.35.417.35a.425.425,0,0,0,.4-.335,4.036,4.036,0,0,0,.13-1.225V66.187c0-.492-.175-.859-.545-.859a.644.644,0,0,0-.48.32,1.077,1.077,0,0,0-.191.539h-1.459V60.031h4.18v1.7h-2.69v2.434a2.252,2.252,0,0,1,.64-.35.692.692,0,0,1,.352-.047,1.7,1.7,0,0,1,1.633,1.064,3.5,3.5,0,0,1,.288,1.353Zm.964-3.468a1.46,1.46,0,0,1-.145-.681v-3.39a1.407,1.407,0,0,1,.528-1.145,1.064,1.064,0,0,1,.72-.206,1.118,1.118,0,0,1,1.073.683,1.718,1.718,0,0,1,.162.668v3.39a1.49,1.49,0,0,1-.53,1.16,1.03,1.03,0,0,1-.7.206A1.1,1.1,0,0,1,117.756,65.327Zm.655,6.4,4.323-11.692h1.025l-4.275,11.692Zm6.18-1.227a1.455,1.455,0,0,1-.528,1.147,1.04,1.04,0,0,1-.7.206,1.141,1.141,0,0,1-1.1-.668,1.512,1.512,0,0,1-.143-.685V67.112a1.433,1.433,0,0,1,.528-1.162,1.047,1.047,0,0,1,.72-.208,1.123,1.123,0,0,1,1.073.685,1.867,1.867,0,0,1,.16.685ZM135.3,68.916a28.7,28.7,0,0,1-2.305,1.989,17.691,17.691,0,0,0-35.379.013,29.086,29.086,0,0,1-2.32-2v-55.9a28.866,28.866,0,0,1,40,0Z" fill="#fff"/>
      </g>
    </g>
    <g id="Grupo_135" data-name="Grupo 135">
      <g id="Grupo_134" data-name="Grupo 134">
        <path id="Trazado_738" data-name="Trazado 738" d="M162.655,64.646v-3.39a.674.674,0,0,0-.11-.365.174.174,0,0,0-.162-.064c-.175,0-.223.114-.271.225a.424.424,0,0,0-.015.2v3.39c-.017.174.015.43.286.43C162.625,65.076,162.655,64.82,162.655,64.646Z" fill="#fff"/>
        <path id="Trazado_739" data-name="Trazado 739" d="M166.883,66.683c-.175,0-.223.11-.272.221a.436.436,0,0,0-.015.208V70.5a.442.442,0,0,0,.112.367.208.208,0,0,0,.175.078c.143,0,.192-.11.24-.221a.876.876,0,0,0,.032-.223V67.112a.652.652,0,0,0-.112-.367C167.01,66.7,166.963,66.683,166.883,66.683Z" fill="#fff"/>
        <path id="Trazado_740" data-name="Trazado 740" d="M158.059,64.009l-1.008,3.659h1.2V63.659h-.1Z" fill="#fff"/>
        <path id="Trazado_741" data-name="Trazado 741" d="M183.755,11.9a30.879,30.879,0,0,0-43.424,0,1,1,0,0,0-.293.7V69.335a1,1,0,0,0,.293.7,30.85,30.85,0,0,0,43.424,0,.992.992,0,0,0,.293-.7V12.6A.989.989,0,0,0,183.755,11.9ZM160.638,69.179h-.8v2.546H158.25V69.179h-2.675v-1.51l2.53-7.636h1.73v7.636h.8Zm.642-3.852a1.46,1.46,0,0,1-.145-.681v-3.39a1.407,1.407,0,0,1,.528-1.145,1.064,1.064,0,0,1,.72-.206,1.118,1.118,0,0,1,1.073.683,1.717,1.717,0,0,1,.162.668v3.39a1.49,1.49,0,0,1-.53,1.16,1.03,1.03,0,0,1-.7.206A1.1,1.1,0,0,1,161.28,65.327Zm.655,6.4,4.323-11.692h1.025l-4.275,11.692Zm6.18-1.227a1.455,1.455,0,0,1-.528,1.147,1.04,1.04,0,0,1-.7.206,1.141,1.141,0,0,1-1.1-.668,1.512,1.512,0,0,1-.143-.685V67.112a1.433,1.433,0,0,1,.528-1.162,1.047,1.047,0,0,1,.72-.208,1.123,1.123,0,0,1,1.073.685,1.867,1.867,0,0,1,.16.685Zm13.929-1.581a28.8,28.8,0,0,1-2.3,1.987,17.691,17.691,0,0,0-35.379.011,28.8,28.8,0,0,1-2.319-2v-55.9a28.865,28.865,0,0,1,40,0Z" fill="#fff"/>
      </g>
    </g>
    <g id="Grupo_136" data-name="Grupo 136">
      <path id="Trazado_742" data-name="Trazado 742" d="M20.828,33.439v6.595l.813-2.491h1.671L21.84,41.65l1.427,7.838H21.6l-.77-5.065v5.065H19.159V33.439Z" fill="#fff"/>
      <path id="Trazado_743" data-name="Trazado 743" d="M7.7,36.513c.021-1.448.617-3.267,2.338-3.267,1.766,0,2.075,2.126,2.075,3.267v9.513c-.023,1.579-.309,3.682-2.185,3.682-1.941,0-2.162-2.368-2.162-3.682V44.885H9.53c0,.723,0,2.762.4,2.762.352,0,.352-1.423.352-1.62V43.045a1.021,1.021,0,0,1-.772.371c-1.7,0-1.808-1.819-1.808-2.959Zm2.58-.265c0-.307-.065-.941-.4-.941-.354,0-.421.634-.421.941v4.605c0,.2.067.721.421.721.331,0,.373-.415.4-.655Z" fill="#fff"/>
      <path id="Trazado_744" data-name="Trazado 744" d="M12.641,38.529V37.41c.023-1.6.219-4.164,2.206-4.164,2.052,0,2.139,2.608,2.139,4.011,0,2.915-1.389,7.278-2.383,9.93h2.275v2.345H12.6V47.187c1.3-3.418,2.559-6.619,2.623-9.777,0-.5-.065-1.972-.373-1.972-.352,0-.375,1.711-.375,1.972v1.119Z" fill="#fff"/>
      <path id="Trazado_745" data-name="Trazado 745" d="M25.419,46.738c0,.435.11.939.33.939s.352-.218.352-.939V45.076H27.77v1.376c-.023,1.681-.154,3.21-2.086,3.21-1.715,0-2-2.073-2-3.318V40.688c.023-1.374.375-3.318,2.046-3.318,1.976,0,2.042,1.658,2.042,3.208v1.158H26.1V40.166c0-.721-.133-.874-.331-.874s-.351.435-.351.874Z" fill="#fff"/>
      <path id="Trazado_746" data-name="Trazado 746" d="M30.6,40.274c0-.371-.088-1.005-.286-1.005-.219,0-.307.7-.307,1.005v.784H28.339v-.719c0-1.333.593-2.968,2.042-2.968,1.343,0,1.89,1.592,1.848,2.707v7.337a14.589,14.589,0,0,0,.109,2.075H30.866a4.237,4.237,0,0,1-.265-.721,1.292,1.292,0,0,1-1.12.9c-1.187,0-1.252-2.205-1.252-2.947a5.437,5.437,0,0,1,1.671-4.3,2.388,2.388,0,0,0,.7-.852Zm-.019,3.733a5.193,5.193,0,0,0-.772,2.686c0,.066,0,.9.307.9.288,0,.465-.394.465-.81Z" fill="#fff"/>
      <rect id="Rectángulo_15" data-name="Rectángulo 15" width="1.736" height="16.049" transform="translate(33.393 33.44)" fill="#fff"/>
      <path id="Trazado_747" data-name="Trazado 747" d="M213.01,45.854h-1.581V36.4c0-.458-.111-.742-.331-.742-.2,0-.307.371-.307.786v9.411h-1.736V33.908h1.736v.634a1.615,1.615,0,0,1,1.187-.806.9.9,0,0,1,.834.873,1.7,1.7,0,0,1,1.362-.873c1.1,0,1.1,1.615,1.1,2.336v9.782h-1.6V36.443c0-.46-.088-.786-.33-.786s-.33.522-.33.786Z" fill="#fff"/>
      <path id="Trazado_748" data-name="Trazado 748" d="M203.666,42.875c0,1.666-.528,3.267-2.2,3.267-1.724,0-2.229-1.732-2.229-3.267V32.943c0-1.666.573-3.267,2.229-3.267,1.762,0,2.2,1.953,2.2,3.267Zm-1.831-9.932c0-.5-.111-.965-.354-.965s-.373.441-.373.965v9.932c0,.592.177.963.373.963.223,0,.354-.46.354-.963Z" fill="#fff"/>
      <path id="Trazado_749" data-name="Trazado 749" d="M220.1,40.09c-.067,1.266-.636,2.947-2.132,2.947h-.109a1.065,1.065,0,0,0-.133.524c0,.435.551.655.88.744a2.543,2.543,0,0,1,1.318.676,3.1,3.1,0,0,1,.682,2.1c0,1.6-.682,3.059-2.484,3.059a2.133,2.133,0,0,1-2.33-2.315,2.306,2.306,0,0,1,1.143-1.813h.023a1.611,1.611,0,0,1-.947-1.594,2.67,2.67,0,0,1,.9-1.791,4.418,4.418,0,0,1-.834-2.6V36.772c.023-1.268.53-3.036,2-3.036a1.424,1.424,0,0,1,1.362.742,1.772,1.772,0,0,1,1.385-.742V35.7a1.014,1.014,0,0,0-.814.263,1.86,1.86,0,0,1,.088.522Zm-2.24,6.352a1.473,1.473,0,0,0-.4,1.007c0,.456.2.829.68.829a.8.8,0,0,0,.814-.808.82.82,0,0,0-.572-.85Zm.549-9.693c0-.481-.044-1.092-.33-1.092-.219,0-.286.655-.286,1.092v3.384c0,.416.067,1.069.286,1.069.286,0,.33-.765.33-1.069Z" fill="#fff"/>
      <path id="Trazado_750" data-name="Trazado 750" d="M62.171,42.418H59.609V40.278l2.336-10.814h1.837V40.278h.68v2.141h-.68v3.6h-1.61Zm.046-7.253L61.2,40.278h1.021Z" fill="#fff"/>
      <path id="Trazado_751" data-name="Trazado 751" d="M66.865,46.022l-.749,2.928H65.029l.566-2.928h-.566v-2.5h1.837Z" fill="#fff"/>
      <path id="Trazado_752" data-name="Trazado 752" d="M70.314,42.418H67.751V40.278l2.336-10.814h1.837V40.278h.68v2.141h-.68v3.6h-1.61Zm.046-7.253-1.021,5.113H70.36Z" fill="#fff"/>
      <path id="Trazado_753" data-name="Trazado 753" d="M77.411,40.073c-.069,1.31-.659,3.044-2.2,3.044H75.1a1.09,1.09,0,0,0-.135.539c0,.45.566.676.9.765a2.639,2.639,0,0,1,1.36.7,3.2,3.2,0,0,1,.7,2.164c0,1.645-.7,3.153-2.561,3.153a2.2,2.2,0,0,1-2.4-2.387,2.373,2.373,0,0,1,1.179-1.868h.023a1.665,1.665,0,0,1-.975-1.645,2.76,2.76,0,0,1,.93-1.849,4.561,4.561,0,0,1-.861-2.68V36.651c.023-1.308.543-3.133,2.063-3.133a1.47,1.47,0,0,1,1.406.767,1.825,1.825,0,0,1,1.429-.767v2.029a1.053,1.053,0,0,0-.84.269,1.913,1.913,0,0,1,.091.541ZM75.1,46.63a1.515,1.515,0,0,0-.41,1.037c0,.473.206.856.7.856a.82.82,0,0,0,.84-.833.854.854,0,0,0-.591-.88Zm.566-10c0-.5-.044-1.128-.339-1.128-.227,0-.3.678-.3,1.128v3.492c0,.426.069,1.1.3,1.1.3,0,.339-.787.339-1.1Z" fill="#fff"/>
      <path id="Trazado_754" data-name="Trazado 754" d="M124.379,42.941c-.067,1.268-.636,2.949-2.132,2.949h-.109a1.057,1.057,0,0,0-.133.522c0,.437.551.655.88.744a2.546,2.546,0,0,1,1.318.678,3.1,3.1,0,0,1,.682,2.1c0,1.594-.682,3.057-2.484,3.057a2.132,2.132,0,0,1-2.33-2.315,2.3,2.3,0,0,1,1.143-1.811h.023a1.616,1.616,0,0,1-.947-1.6,2.678,2.678,0,0,1,.9-1.791,4.412,4.412,0,0,1-.834-2.6V39.623c.023-1.266.528-3.034,2-3.034a1.423,1.423,0,0,1,1.362.74,1.776,1.776,0,0,1,1.385-.74v1.963a1.02,1.02,0,0,0-.814.263,1.874,1.874,0,0,1,.088.524Zm-2.24,6.354a1.469,1.469,0,0,0-.4,1.007c0,.456.2.829.68.829a.8.8,0,0,0,.813-.808.822.822,0,0,0-.572-.852Zm.549-9.693c0-.481-.044-1.092-.33-1.092-.219,0-.286.653-.286,1.092v3.384c0,.415.067,1.069.286,1.069.286,0,.33-.767.33-1.069Z" fill="#fff"/>
      <path id="Trazado_755" data-name="Trazado 755" d="M112.6,38.09a2.377,2.377,0,0,1-.863,2.08,2.558,2.558,0,0,1,.928,2.3v3.42c0,1.357-.594,2.959-2.162,2.959-1.61,0-2.16-1.732-2.16-2.959v-3.42a3,3,0,0,1,.924-2.3,2.593,2.593,0,0,1-.859-2.08V34.976c0-1.249.661-2.588,2.1-2.588,1.543,0,2.1,1.425,2.1,2.588Zm-1.72-2.784c0-.462-.112-.9-.377-.9s-.375.439-.375.9V38.55c0,.416.2.723.375.723s.377-.307.377-.723V35.305Zm0,7.015c0-.462-.112-.922-.377-.922s-.375.46-.375.922V46c0,.416.2.723.375.723s.377-.307.377-.723V42.32Z" fill="#fff"/>
      <path id="Trazado_756" data-name="Trazado 756" d="M114.675,48.677l-.728,2.849h-1.059l.552-2.849h-.552V46.242h1.787Z" fill="#fff"/>
      <path id="Trazado_757" data-name="Trazado 757" d="M115.024,36.049V34.58a2.8,2.8,0,0,0,1.235-1.183,4.053,4.053,0,0,0,.29-.835h1.257V48.676h-1.833V36.049Z" fill="#fff"/>
      <path id="Trazado_758" data-name="Trazado 758" d="M158.136,45.629c0,1.662-.528,3.254-2.2,3.254-1.713,0-2.22-1.724-2.22-3.254v-9.89c0-1.66.572-3.254,2.22-3.254,1.758,0,2.2,1.942,2.2,3.254Zm-1.825-9.89c0-.5-.11-.96-.351-.96s-.375.435-.375.96v9.89c0,.591.177.962.375.962.219,0,.351-.46.351-.962Z" fill="#fff"/>
      <path id="Trazado_759" data-name="Trazado 759" d="M160.66,48.707l-.726,2.839h-1.054l.551-2.839h-.551V46.284h1.779Z" fill="#fff"/>
      <path id="Trazado_760" data-name="Trazado 760" d="M165.957,38.161a2.38,2.38,0,0,1-.857,2.075,2.545,2.545,0,0,1,.922,2.292v3.405c0,1.355-.594,2.947-2.153,2.947-1.6,0-2.155-1.724-2.155-2.947V42.528a2.968,2.968,0,0,1,.924-2.292,2.588,2.588,0,0,1-.857-2.075v-3.1c0-1.244.659-2.576,2.088-2.576,1.537,0,2.088,1.42,2.088,2.576Zm-1.715,4.212c0-.456-.111-.914-.373-.914s-.373.458-.373.914v3.67c0,.415.2.719.373.719s.373-.3.373-.719v-3.67Zm0-6.986c0-.458-.111-.9-.373-.9s-.373.437-.373.9v3.231c0,.415.2.721.373.721s.373-.307.373-.721V35.387Z" fill="#fff"/>
      <path id="Trazado_761" data-name="Trazado 761" d="M173.027,42.943c-.067,1.266-.636,2.947-2.132,2.947h-.109a1.065,1.065,0,0,0-.133.524c0,.435.551.655.88.744a2.543,2.543,0,0,1,1.318.676,3.1,3.1,0,0,1,.682,2.1c0,1.6-.682,3.059-2.484,3.059a2.133,2.133,0,0,1-2.33-2.315,2.305,2.305,0,0,1,1.143-1.813h.023a1.611,1.611,0,0,1-.947-1.594,2.67,2.67,0,0,1,.9-1.791,4.418,4.418,0,0,1-.834-2.6V39.625c.023-1.268.53-3.036,2-3.036a1.424,1.424,0,0,1,1.362.742,1.772,1.772,0,0,1,1.385-.742v1.965a1.014,1.014,0,0,0-.813.263,1.86,1.86,0,0,1,.088.522Zm-2.24,6.352a1.473,1.473,0,0,0-.4,1.007c0,.456.2.829.68.829a.8.8,0,0,0,.814-.808.82.82,0,0,0-.572-.85Zm.549-9.693c0-.481-.044-1.092-.33-1.092-.219,0-.286.655-.286,1.092v3.384c0,.416.067,1.069.286,1.069.286,0,.33-.765.33-1.069Z" fill="#fff"/>
    </g>
    <g id="Grupo_137" data-name="Grupo 137">
      <path id="Trazado_762" data-name="Trazado 762" d="M210.1,64.646v-3.39a.674.674,0,0,0-.111-.365.174.174,0,0,0-.162-.064c-.175,0-.223.114-.272.225a.45.45,0,0,0-.013.2v3.39c-.017.174.013.43.286.43C210.067,65.076,210.1,64.82,210.1,64.646Z" fill="#fff"/>
      <path id="Trazado_763" data-name="Trazado 763" d="M205.342,61.576a.531.531,0,0,0-.512.428,1.214,1.214,0,0,0-.065.43v6.888a1.012,1.012,0,0,0,.24.731.458.458,0,0,0,.337.129.505.505,0,0,0,.512-.43,1.081,1.081,0,0,0,.065-.43V62.433a1.051,1.051,0,0,0-.225-.731A.491.491,0,0,0,205.342,61.576Z" fill="#fff"/>
      <path id="Trazado_764" data-name="Trazado 764" d="M214.327,66.683c-.175,0-.223.11-.272.221a.436.436,0,0,0-.015.208V70.5a.442.442,0,0,0,.112.367.208.208,0,0,0,.175.078c.143,0,.192-.11.24-.221a.876.876,0,0,0,.032-.223V67.112a.652.652,0,0,0-.112-.367C214.455,66.7,214.407,66.683,214.327,66.683Z" fill="#fff"/>
      <path id="Trazado_765" data-name="Trazado 765" d="M230.708,11.9a30.892,30.892,0,0,0-43.426,0,.991.991,0,0,0-.3.7V69.335a.994.994,0,0,0,.3.7,30.885,30.885,0,0,0,43.426,0,1,1,0,0,0,.293-.7V12.6A1,1,0,0,0,230.708,11.9Zm-23.06,57.425a3.158,3.158,0,0,1-.288,1.272,2.181,2.181,0,0,1-.688.859,2.059,2.059,0,0,1-1.33.4,2.105,2.105,0,0,1-1.345-.4,2.155,2.155,0,0,1-.673-.859,3.158,3.158,0,0,1-.288-1.272V62.433a3.159,3.159,0,0,1,.288-1.257,2.03,2.03,0,0,1,2.018-1.272,2.163,2.163,0,0,1,1.33.4,2.223,2.223,0,0,1,.688.874,3.159,3.159,0,0,1,.288,1.257Zm1.076-3.994a1.46,1.46,0,0,1-.145-.681v-3.39a1.407,1.407,0,0,1,.528-1.145,1.064,1.064,0,0,1,.72-.206,1.118,1.118,0,0,1,1.073.683,1.717,1.717,0,0,1,.162.668v3.39a1.49,1.49,0,0,1-.53,1.16,1.03,1.03,0,0,1-.7.206A1.1,1.1,0,0,1,208.724,65.327Zm.655,6.4L213.7,60.033h1.025l-4.275,11.692Zm6.18-1.227a1.455,1.455,0,0,1-.528,1.147,1.04,1.04,0,0,1-.7.206,1.143,1.143,0,0,1-1.1-.668,1.512,1.512,0,0,1-.143-.685V67.112a1.433,1.433,0,0,1,.528-1.162,1.047,1.047,0,0,1,.72-.208,1.123,1.123,0,0,1,1.073.685,1.867,1.867,0,0,1,.16.685Zm13.435-1.582a28.7,28.7,0,0,1-2.3,1.991,17.691,17.691,0,0,0-35.379.011,28.753,28.753,0,0,1-2.32-2v-55.9a28.873,28.873,0,0,1,40,0Z" fill="#fff"/>
    </g>
  </g>
</svg>
