<svg xmlns="http://www.w3.org/2000/svg" width="231.001" height="75.999" viewBox="0 0 231.001 75.999"><defs><style>.a{mix-blend-mode:lighten;isolation:isolate;}.b{fill:#fff;}</style></defs><g class="a" transform="translate(0 -1.168)"><path class="b" d="M16.694,8.649l.339,4.514.337-4.514h.977l-.821,8.821h-.989l-.821-8.821Z"/><path class="b" d="M20,12.406c0-.2-.05-.551-.158-.551s-.17.382-.17.551v.432H18.76v-.394c0-.734.324-1.634,1.122-1.634.735,0,1.038.876,1.015,1.486V16.33a8.128,8.128,0,0,0,.059,1.141h-.81a2.177,2.177,0,0,1-.143-.4.718.718,0,0,1-.615.49c-.653,0-.69-1.21-.69-1.62a2.988,2.988,0,0,1,.918-2.364A1.354,1.354,0,0,0,20,13.114Zm-.011,2.054a2.832,2.832,0,0,0-.425,1.475c0,.036,0,.492.17.492s.255-.216.255-.443Z"/><rect class="b" width="0.954" height="8.821" transform="translate(21.778 8.65)"/><path class="b" d="M25.8,15.875c0,1.007-.255,1.69-1.124,1.69-.954,0-1.111-.912-1.111-1.726v-3.3c0-.909.242-1.726,1.134-1.726.966,0,1.1.768,1.1,1.692Zm-.909-3.458c.013-.3-.011-.551-.2-.551-.168,0-.219.229-.219.551v3.54c-.011.267.038.539.208.539.192,0,.229-.43.215-.539Z"/><path class="b" d="M28.25,12.249c-.568-.324-.808.146-.808.662v4.56h-.928V10.907h.928v.36a.911.911,0,0,1,.808-.456Z"/><path class="b" d="M8.946,18.378h2V19.71h-1v2.315h.724v1.416H9.949v2.423h1V27.2h-2Z"/><path class="b" d="M12.7,27.2h-.954V20.634H12.7v.335a1.045,1.045,0,0,1,.64-.433c.6,0,.653.89.653,1.287V27.2h-.943V22.014c0-.252-.061-.42-.181-.42s-.17.18-.17.432Z"/><path class="b" d="M16.954,24.845v.827c0,.854-.265,1.62-1.195,1.62-.846,0-1.05-.9-1.05-1.656v-3.42c0-.78.3-1.679,1.111-1.679,1.014,0,1.134.888,1.134,1.645v1.955H15.639v1.429c0,.265.046.659.181.659.192,0,.229-.432.229-.659v-.721Zm-1.315-1.656h.41v-.924c0-.322-.036-.672-.242-.672-.156,0-.168.479-.168.672Z"/><path class="b" d="M19.393,21.976c-.566-.324-.808.146-.808.662V27.2h-.93V20.634h.93v.36a.912.912,0,0,1,.808-.458Z"/><path class="b" d="M22.146,24.031c-.034.695-.349,1.618-1.17,1.618h-.061a.6.6,0,0,0-.072.29c0,.238.3.36.484.405a1.413,1.413,0,0,1,.724.375,1.7,1.7,0,0,1,.375,1.151c0,.876-.375,1.681-1.366,1.681a1.171,1.171,0,0,1-1.28-1.272,1.265,1.265,0,0,1,.629-1h.011a.887.887,0,0,1-.518-.874,1.471,1.471,0,0,1,.493-.984,2.422,2.422,0,0,1-.459-1.429V22.2c.011-.695.29-1.668,1.1-1.668a.785.785,0,0,1,.751.409.975.975,0,0,1,.76-.409v1.079a.562.562,0,0,0-.448.146,1.013,1.013,0,0,1,.048.29ZM20.915,27.52a.806.806,0,0,0-.217.555c0,.252.107.456.375.456a.437.437,0,0,0,.446-.445.453.453,0,0,0-.314-.468Zm.3-5.326c0-.263-.025-.6-.183-.6-.12,0-.156.36-.156.6v1.861c0,.229.036.589.156.589.158,0,.183-.422.183-.589Z"/><path class="b" d="M25.322,24.845v.827c0,.854-.265,1.62-1.195,1.62-.846,0-1.05-.9-1.05-1.656v-3.42c0-.78.3-1.679,1.113-1.679,1.012,0,1.132.888,1.132,1.645v1.955H24.007v1.429c0,.265.048.659.183.659.191,0,.229-.432.229-.659v-.721Zm-.191-6.371-.581,1.079h-.773l.387-1.079Zm-1.124,4.715h.412v-.924c0-.322-.038-.672-.242-.672-.158,0-.17.479-.17.672Z"/><path class="b" d="M27.157,19.012v1.622h.509v1.092h-.509V27.2h-.926V21.726h-.4V20.634h.4V19.012Z"/><path class="b" d="M28.316,20.636h.954V27.2h-.954Zm0-2.258h.954v1.213h-.954Z"/><path class="b" d="M31,25.684c0,.24.059.517.181.517s.192-.119.192-.517v-.909h.918v.753c-.011.922-.086,1.764-1.149,1.764-.941,0-1.1-1.139-1.1-1.823V22.36c.011-.755.2-1.825,1.122-1.825,1.088,0,1.124.914,1.124,1.766v.636h-.918v-.865c0-.4-.072-.479-.181-.479s-.192.24-.192.479Z"/><path class="b" d="M35.143,25.6c0,1.007-.255,1.69-1.124,1.69-.954,0-1.111-.912-1.111-1.726v-3.3c0-.91.24-1.728,1.134-1.728.966,0,1.1.77,1.1,1.694Zm-.909-3.458c.013-.3-.011-.551-.2-.551-.17,0-.219.229-.219.551v3.54c-.011.267.038.539.208.539.192,0,.229-.43.215-.539Z"/><path class="b" d="M7.92,35.294c.023-1.423.606-3.214,2.3-3.214,1.736,0,2.039,2.092,2.039,3.214v9.354c-.019,1.552-.3,3.621-2.147,3.621-1.909,0-2.126-2.328-2.126-3.621V43.526H9.718c0,.712,0,2.718.392,2.718.347,0,.347-1.4.347-1.6V41.714a1,1,0,0,1-.758.369c-1.671,0-1.779-1.791-1.779-2.909Zm2.538-.259c0-.3-.065-.927-.389-.927-.351,0-.413.625-.413.927V39.56c0,.193.063.712.413.712.324,0,.368-.409.389-.647Z"/><path class="b" d="M17.486,45.057c0,1.639-.52,3.212-2.17,3.212-1.694,0-2.191-1.7-2.191-3.212V35.294c0-1.639.564-3.212,2.191-3.212,1.738,0,2.17,1.917,2.17,3.212Zm-1.8-9.763c0-.5-.109-.948-.347-.948s-.368.43-.368.948v9.763c0,.583.173.948.368.948.219,0,.347-.452.347-.948Z"/><path class="b" d="M21.105,32.252v6.509l.8-2.457h1.648L22.1,40.357l1.41,7.738H21.865l-.76-5v5H19.457V32.252Z"/><path class="b" d="M25.638,45.383c0,.43.109.926.326.926s.347-.216.347-.926V43.742h1.648V45.1c-.023,1.658-.152,3.167-2.059,3.167-1.694,0-1.976-2.048-1.976-3.277V39.411c.021-1.357.368-3.277,2.018-3.277,1.953,0,2.018,1.637,2.018,3.167v1.145H26.31V38.892c0-.71-.131-.861-.326-.861s-.347.43-.347.861Z"/><path class="b" d="M30.753,39c0-.369-.086-.994-.28-.994-.219,0-.307.689-.307.994v.772H28.518v-.71c0-1.316.589-2.93,2.018-2.93,1.324,0,1.865,1.571,1.823,2.671v7.242a14.172,14.172,0,0,0,.109,2.048H31.012a3.846,3.846,0,0,1-.259-.71,1.28,1.28,0,0,1-1.1.884c-1.175,0-1.24-2.177-1.24-2.909a5.378,5.378,0,0,1,1.65-4.248,2.389,2.389,0,0,0,.693-.84Zm-.019,3.683a5.115,5.115,0,0,0-.76,2.652c0,.066,0,.884.3.884.284,0,.459-.388.459-.8Z"/><rect class="b" width="1.711" height="15.843" transform="translate(33.51 32.251)"/><path class="b" d="M26.863,64.652c-.173,0-.221.11-.269.218a.43.43,0,0,0-.015.206v3.343a.435.435,0,0,0,.11.362.2.2,0,0,0,.173.078c.143,0,.189-.11.236-.22a.951.951,0,0,0,.032-.22V65.076a.639.639,0,0,0-.112-.363C26.989,64.665,26.941,64.652,26.863,64.652Z"/><path class="b" d="M18.15,62.013l-.994,3.612H18.34V61.667h-.1Z"/><path class="b" d="M43.72,10.091a30.879,30.879,0,0,0-43.424,0,.991.991,0,0,0-.3.7V67.529a.994.994,0,0,0,.3.7,30.883,30.883,0,0,0,43.424,0,.993.993,0,0,0,.293-.7V10.795A.989.989,0,0,0,43.72,10.091ZM20.694,67.116h-.789V69.63H18.341V67.116H15.7V65.625l2.5-7.537h1.707v7.537h.789Zm.636-3.8a1.454,1.454,0,0,1-.143-.672V59.293a1.394,1.394,0,0,1,.522-1.13,1.043,1.043,0,0,1,.711-.2,1.1,1.1,0,0,1,1.059.674,1.712,1.712,0,0,1,.16.659v3.348a1.48,1.48,0,0,1-.522,1.145,1.031,1.031,0,0,1-.7.2A1.09,1.09,0,0,1,21.33,63.314Zm.648,6.316,4.268-11.544h1.012L23.037,69.63Zm6.1-1.211a1.442,1.442,0,0,1-.522,1.132,1.022,1.022,0,0,1-.7.2,1.126,1.126,0,0,1-1.092-.657,1.51,1.51,0,0,1-.141-.678V65.076a1.428,1.428,0,0,1,.52-1.149,1.045,1.045,0,0,1,.713-.2,1.107,1.107,0,0,1,1.059.674,1.914,1.914,0,0,1,.158.678Zm13.927-1.308a28.277,28.277,0,0,1-2.3,1.989,17.692,17.692,0,0,0-35.381.011,28.655,28.655,0,0,1-2.319-2v-55.9a28.865,28.865,0,0,1,40,0Z"/><path class="b" d="M22.689,62.642V59.293a.64.64,0,0,0-.111-.36.165.165,0,0,0-.158-.064c-.171,0-.221.112-.267.223a.409.409,0,0,0-.015.2v3.348c-.017.168.015.422.282.422C22.658,63.064,22.689,62.81,22.689,62.642Z"/><path class="b" d="M203.89,15.508c0-.31,0-1.285-.194-1.285-.143,0-.166.362-.166.878a6.06,6.06,0,0,0,.591,2.075,7.348,7.348,0,0,1,.76,2.773c0,.839-.158,2.1-1.195,2.1-1.269,0-1.246-1.753-1.246-2.559l.979-.142c0,.276,0,1.512.267,1.512.179,0,.2-.288.2-.852a7.01,7.01,0,0,0-.8-2.642,7.224,7.224,0,0,1-.541-2.266c0-.768.156-2.04,1.124-2.065,1.158-.023,1.206,1.6,1.206,2.328Z"/><path class="b" d="M207.842,20.357c0,1.007-.253,1.694-1.122,1.694-.954,0-1.113-.914-1.113-1.73v-3.3c0-.91.242-1.728,1.135-1.728.966,0,1.1.77,1.1,1.694Zm-.907-3.456c.013-.3-.011-.553-.2-.553-.17,0-.219.229-.219.553v3.54c-.011.265.036.541.208.541.191,0,.229-.433.215-.541Z"/><path class="b" d="M210.837,21.953h-.954v-.36a.912.912,0,0,1-.688.456c-.593,0-.532-.814-.543-1.285V16.577c0-.539.12-1.285.735-1.285a.661.661,0,0,1,.5.373V13.133h.954Zm-.954-5.173c0-.193-.046-.433-.168-.433s-.171.206-.171.433v3.672c0,.24.038.456.171.456s.168-.227.168-.456Z"/><path class="b" d="M211.584,15.389h.954v6.566h-.954Zm0-2.254h.954v1.211h-.954Z"/><path class="b" d="M215.548,20.357c0,1.007-.255,1.694-1.124,1.694-.954,0-1.113-.914-1.113-1.73v-3.3c0-.91.242-1.728,1.135-1.728.966,0,1.1.77,1.1,1.694Zm-.909-3.456c.013-.3-.011-.553-.2-.553-.17,0-.219.229-.219.553v3.54c-.011.265.038.541.208.541.192,0,.229-.433.215-.541Z"/><path class="b" d="M214.592,44.51H213.03V35.176c0-.454-.109-.733-.326-.733-.2,0-.3.365-.3.776v9.29h-1.715V32.718H212.4v.627a1.587,1.587,0,0,1,1.172-.8.889.889,0,0,1,.823.861,1.679,1.679,0,0,1,1.347-.861c1.084,0,1.084,1.594,1.084,2.3V44.51h-1.585V35.22c0-.454-.086-.776-.324-.776s-.326.515-.326.776Z"/><path class="b" d="M195.161,32.273V30.831a2.739,2.739,0,0,0,1.214-1.16,4.077,4.077,0,0,0,.28-.818h1.235V44.658h-1.8V32.273Z"/><path class="b" d="M201.242,37.175c0-.668-.175-1.16-.392-1.16-.345,0-.452.946-.452,1.16h-1.56V28.854H202.6v2.3h-2.166v3.377c.046-.28.587-.625.932-.625,1.536,0,1.623,2.109,1.623,3.269v3.742c-.023,1.59-.3,3.912-2.227,3.912-2.166,0-2.016-3.439-2.016-4.774h1.778v1.052c0,.8.109,1.7.322,1.7s.392-.43.392-1.677Z"/><path class="b" d="M207.729,41.625c0,1.635-.518,3.2-2.162,3.2-1.688,0-2.187-1.7-2.187-3.2V31.885c0-1.634.564-3.2,2.187-3.2,1.73,0,2.162,1.912,2.162,3.2Zm-1.795-9.741c0-.494-.111-.945-.347-.945s-.368.43-.368.945v9.741c0,.581.173.946.368.946.217,0,.347-.452.347-.946Z"/><path class="b" d="M221.6,38.818c-.065,1.249-.629,2.909-2.105,2.909h-.107a1.071,1.071,0,0,0-.131.521c0,.428.543.645.869.731a2.536,2.536,0,0,1,1.3.668,3.065,3.065,0,0,1,.673,2.071c0,1.573-.673,3.017-2.45,3.017a2.1,2.1,0,0,1-2.3-2.285,2.265,2.265,0,0,1,1.126-1.789h.023a1.592,1.592,0,0,1-.934-1.575,2.629,2.629,0,0,1,.89-1.768,4.337,4.337,0,0,1-.825-2.565v-3.21c.023-1.251.52-3,1.974-3a1.4,1.4,0,0,1,1.345.731,1.75,1.75,0,0,1,1.368-.731v1.938a1,1,0,0,0-.8.259,1.9,1.9,0,0,1,.086.517Zm-2.212,6.273a1.447,1.447,0,0,0-.392.992c0,.452.2.82.673.82a.787.787,0,0,0,.8-.8.817.817,0,0,0-.566-.842Zm.541-9.57c0-.473-.042-1.077-.326-1.077-.215,0-.28.645-.28,1.077v3.341c0,.411.065,1.054.28,1.054.284,0,.326-.751.326-1.054Z"/><path class="b" d="M204.647,67.661a.52.52,0,0,0,.509.505.546.546,0,0,0,.5-.505V64.3a.546.546,0,0,0-.5-.505.5.5,0,0,0-.509.458Z"/><path class="b" d="M209.836,62.642V59.293a.625.625,0,0,0-.111-.36.165.165,0,0,0-.158-.064c-.171,0-.221.112-.269.223a.434.434,0,0,0-.013.2v3.348c-.017.168.013.422.282.422C209.8,63.064,209.836,62.81,209.836,62.642Z"/><path class="b" d="M230.708,10.091a30.892,30.892,0,0,0-43.426,0,.991.991,0,0,0-.3.7V67.529a.994.994,0,0,0,.3.7,30.885,30.885,0,0,0,43.426,0,1,1,0,0,0,.293-.7V10.795A1,1,0,0,0,230.708,10.091ZM207.324,61.485H205.66a8.867,8.867,0,0,0-.076-1.528c-.061-.292-.183-.4-.429-.4a.383.383,0,0,0-.4.29,2.83,2.83,0,0,0-.107.933v2a1.638,1.638,0,0,1,2.4.672,3.428,3.428,0,0,1,.276,1.422v2.294A3.051,3.051,0,0,1,207,68.579a1.933,1.933,0,0,1-1.844,1.024,1.9,1.9,0,0,1-1.848-1.024,3.076,3.076,0,0,1-.324-1.406v-6.39a3.666,3.666,0,0,1,.309-1.635,2.2,2.2,0,0,1,3.723,0,3.666,3.666,0,0,1,.309,1.635Zm1.155,1.828a1.454,1.454,0,0,1-.143-.672V59.293a1.394,1.394,0,0,1,.522-1.13,1.046,1.046,0,0,1,.711-.2,1.1,1.1,0,0,1,1.059.674,1.678,1.678,0,0,1,.16.659v3.348a1.473,1.473,0,0,1-.522,1.145,1.031,1.031,0,0,1-.7.2A1.09,1.09,0,0,1,208.478,63.314Zm.648,6.316,4.268-11.544h1.012L210.187,69.63Zm6.1-1.211a1.442,1.442,0,0,1-.522,1.132,1.022,1.022,0,0,1-.7.2,1.128,1.128,0,0,1-1.092-.657,1.51,1.51,0,0,1-.141-.678V65.076a1.428,1.428,0,0,1,.52-1.149,1.048,1.048,0,0,1,.713-.2,1.107,1.107,0,0,1,1.059.674,1.914,1.914,0,0,1,.158.678Zm13.767-1.308a28.7,28.7,0,0,1-2.3,1.991,17.691,17.691,0,0,0-35.379.011,28.754,28.754,0,0,1-2.32-2v-55.9a28.873,28.873,0,0,1,40,0Z"/><path class="b" d="M214.011,64.652c-.173,0-.221.11-.269.218a.43.43,0,0,0-.015.206v3.343a.435.435,0,0,0,.111.362.2.2,0,0,0,.173.078c.143,0,.189-.11.236-.22a.859.859,0,0,0,.032-.22V65.076a.639.639,0,0,0-.112-.363C214.136,64.665,214.089,64.652,214.011,64.652Z"/><path class="b" d="M58.349,13.439h1.008a1,1,0,0,1,.937.524,4.068,4.068,0,0,1,.419,2.1,4.228,4.228,0,0,1-.419,2.135,1.114,1.114,0,0,1-.951.5V22.2h-.994Zm.994,3.947a.339.339,0,0,0,.312-.142,3.424,3.424,0,0,0,.1-1.134,4.348,4.348,0,0,0-.1-1.251c-.059-.131-.2-.131-.312-.131Z"/><path class="b" d="M63,17.015c-.564-.322-.8.144-.8.659V22.2h-.924V15.68h.924v.356a.909.909,0,0,1,.8-.452Z"/><path class="b" d="M65.543,20.617c0,1-.251,1.683-1.116,1.683-.949,0-1.1-.907-1.1-1.717V17.3c0-.9.242-1.717,1.128-1.717.958,0,1.094.765,1.094,1.683Zm-.9-3.434c.011-.3-.011-.549-.2-.549-.17,0-.219.227-.219.549V20.7c-.011.263.036.539.206.539.191,0,.227-.432.215-.539Z"/><path class="b" d="M67.192,14.071v1.611h.5v1.085h-.5V22.2h-.924V16.766h-.4V15.682h.4V14.071Z"/><path class="b" d="M70.327,19.865v.825c0,.846-.265,1.609-1.189,1.609-.84,0-1.044-.893-1.044-1.647v-3.4c0-.774.3-1.669,1.1-1.669,1.01,0,1.13.884,1.13,1.635v1.944H69.018v1.42c0,.263.048.657.179.657.192,0,.229-.432.229-.657v-.717ZM69.018,18.22h.408V17.3c0-.322-.036-.668-.24-.668-.156,0-.168.477-.168.668Z"/><path class="b" d="M72.166,13.534,71.6,14.607h-.77l.375-1.073ZM70.83,15.682h.951V22.2H70.83Z"/><path class="b" d="M73.476,22.2h-.951V15.68h.951v.331a1.042,1.042,0,0,1,.634-.428c.6,0,.648.884.648,1.278V22.2h-.934V17.051c0-.25-.063-.416-.183-.416s-.166.178-.166.428Z"/><path class="b" d="M76.445,17.17c0-.2-.051-.549-.156-.549-.122,0-.17.382-.17.549V17.6h-.913v-.392c0-.727.322-1.622,1.116-1.622.733,0,1.033.871,1.01,1.478v4.007a7.981,7.981,0,0,0,.059,1.134h-.8a1.892,1.892,0,0,1-.143-.392.713.713,0,0,1-.612.488c-.65,0-.688-1.206-.688-1.611a2.97,2.97,0,0,1,.914-2.351,1.321,1.321,0,0,0,.385-.464Zm-.013,2.04a2.843,2.843,0,0,0-.421,1.465c0,.038,0,.49.17.49s.251-.214.251-.441Z"/><path class="b" d="M79.241,17.35c0-.2-.038-.763-.215-.763-.156,0-.17.428-.17.68a2.858,2.858,0,0,0,.455,1.3,4.072,4.072,0,0,1,.72,2.158c0,.56-.154,1.575-1.09,1.575-1.019,0-1.094-1.109-1.094-1.993h.865c0,.418.059.992.229.992s.191-.286.191-.787a3.737,3.737,0,0,0-.492-1.408,3.964,3.964,0,0,1-.673-1.967c0-.837.312-1.552,1.031-1.552.987,0,1.059,1.122,1.059,1.766Z"/><path class="b" d="M61.028,33.482V32.377c.023-1.581.219-4.115,2.181-4.115,2.027,0,2.115,2.578,2.115,3.964,0,2.881-1.374,7.193-2.355,9.814h2.244v2.317H60.986V42.04c1.284-3.381,2.528-6.544,2.595-9.663,0-.5-.067-1.948-.372-1.948-.349,0-.372,1.688-.372,1.948v1.105Z"/><path class="b" d="M67.616,44.358l-.72,2.815H65.85l.545-2.815H65.85V41.952h1.766Z"/><path class="b" d="M72.522,33.9a2.358,2.358,0,0,1-.852,2.058,2.528,2.528,0,0,1,.916,2.273V41.6c0,1.344-.589,2.926-2.136,2.926-1.593,0-2.138-1.711-2.138-2.926V38.226a2.954,2.954,0,0,1,.914-2.273,2.57,2.57,0,0,1-.85-2.058V30.819c0-1.234.655-2.557,2.073-2.557,1.524,0,2.071,1.408,2.071,2.557Zm-1.7-2.752c0-.454-.112-.888-.372-.888s-.373.433-.373.888v3.206c0,.411.2.714.373.714s.372-.3.372-.714V31.143Zm0,6.932c0-.454-.112-.909-.372-.909s-.373.454-.373.909v3.64c0,.413.2.715.373.715s.372-.3.372-.715v-3.64Z"/><path class="b" d="M78.847,38.638c-.065,1.257-.631,2.924-2.113,2.924h-.11a1.079,1.079,0,0,0-.128.519c0,.435.545.651.869.738a2.534,2.534,0,0,1,1.309.67,3.093,3.093,0,0,1,.676,2.08c0,1.581-.676,3.034-2.463,3.034a2.116,2.116,0,0,1-2.313-2.3,2.28,2.28,0,0,1,1.134-1.8h.023a1.6,1.6,0,0,1-.937-1.582,2.651,2.651,0,0,1,.894-1.777,4.375,4.375,0,0,1-.829-2.576V35.347c.021-1.257.524-3.012,1.983-3.012a1.414,1.414,0,0,1,1.353.736,1.759,1.759,0,0,1,1.374-.736v1.95a1.012,1.012,0,0,0-.808.259,1.844,1.844,0,0,1,.088.519Zm-2.223,6.3a1.441,1.441,0,0,0-.391,1c0,.456.192.825.674.825a.791.791,0,0,0,.808-.8.818.818,0,0,0-.57-.844Zm.547-9.618c0-.477-.044-1.083-.33-1.083-.217,0-.282.649-.282,1.083V38.68c0,.413.065,1.064.282,1.064.286,0,.33-.757.33-1.064Z"/><path class="b" d="M64.943,62.013l-.994,3.612h1.185V61.667h-.1Z"/><path class="b" d="M73.655,64.652c-.173,0-.221.11-.269.218a.43.43,0,0,0-.015.206v3.343a.435.435,0,0,0,.11.362.2.2,0,0,0,.173.078c.143,0,.189-.11.236-.22a.859.859,0,0,0,.032-.22V65.076a.639.639,0,0,0-.112-.363C73.781,64.665,73.734,64.652,73.655,64.652Z"/><path class="b" d="M69.481,62.642V59.293a.625.625,0,0,0-.111-.36.165.165,0,0,0-.158-.064c-.171,0-.221.112-.267.223a.409.409,0,0,0-.015.2v3.348c-.017.168.015.422.282.422C69.451,63.064,69.481,62.81,69.481,62.642Z"/><path class="b" d="M90.564,10.091a30.879,30.879,0,0,0-43.424,0,.991.991,0,0,0-.3.7V67.529a.994.994,0,0,0,.3.7,30.883,30.883,0,0,0,43.424,0,.993.993,0,0,0,.293-.7V10.795A.989.989,0,0,0,90.564,10.091ZM67.488,67.116H66.7V69.63H65.134V67.116H62.493V65.625l2.5-7.537H66.7v7.537h.791Zm.634-3.8a1.454,1.454,0,0,1-.143-.672V59.293a1.394,1.394,0,0,1,.522-1.13,1.046,1.046,0,0,1,.711-.2,1.1,1.1,0,0,1,1.059.674,1.712,1.712,0,0,1,.16.659v3.348a1.474,1.474,0,0,1-.522,1.145,1.031,1.031,0,0,1-.7.2A1.09,1.09,0,0,1,68.123,63.314Zm.648,6.316,4.268-11.544H74.05L69.832,69.63Zm6.1-1.211a1.442,1.442,0,0,1-.522,1.132,1.022,1.022,0,0,1-.7.2,1.126,1.126,0,0,1-1.092-.657,1.51,1.51,0,0,1-.141-.678V65.076a1.428,1.428,0,0,1,.52-1.149,1.045,1.045,0,0,1,.713-.2,1.107,1.107,0,0,1,1.059.674,1.914,1.914,0,0,1,.158.678Zm13.978-1.308a27.984,27.984,0,0,1-2.3,1.989,17.691,17.691,0,0,0-35.379.011,28.654,28.654,0,0,1-2.319-2v-55.9a28.865,28.865,0,0,1,40,0Z"/><path class="b" d="M108.528,11.817V10.342c0-.182-.027-.532-.2-.532-.131,0-.179.312-.179.532v5.542c0,.276.059.528.2.528.217,0,.242-.31.242-.528V14.168h-.215V13.076h1.145v4.393h-.52l-.109-.326a.89.89,0,0,1-.661.42c-.9,0-1.1-1.162-1.1-1.787V10.342c0-.793.291-1.789,1.193-1.789.968,0,1.2,1.081,1.2,1.789v1.475Z"/><path class="b" d="M112.138,12.249c-.566-.324-.808.146-.808.662v4.56h-.93V10.907h.93v.36a.908.908,0,0,1,.808-.456Z"/><path class="b" d="M113.854,12.406c0-.2-.05-.551-.158-.551s-.17.382-.17.551v.432h-.916v-.394c0-.734.324-1.634,1.122-1.634.735,0,1.038.876,1.015,1.486V16.33a7.77,7.77,0,0,0,.061,1.141H114a2.177,2.177,0,0,1-.143-.4.718.718,0,0,1-.615.49c-.653,0-.69-1.21-.69-1.62a2.988,2.988,0,0,1,.918-2.364,1.354,1.354,0,0,0,.387-.468Zm-.013,2.054a2.85,2.85,0,0,0-.423,1.475c0,.036,0,.492.17.492s.253-.216.253-.443Z"/><path class="b" d="M116.861,12.585c0-.2-.038-.768-.219-.768-.156,0-.17.43-.17.683a2.841,2.841,0,0,0,.461,1.308,4.106,4.106,0,0,1,.724,2.173c0,.564-.156,1.582-1.1,1.582-1.029,0-1.1-1.115-1.1-2h.869c0,.422.059,1,.231,1s.191-.29.191-.791a3.737,3.737,0,0,0-.5-1.416,4.015,4.015,0,0,1-.674-1.982c0-.84.312-1.558,1.036-1.558.993,0,1.065,1.126,1.065,1.775Z"/><path class="b" d="M119.614,12.406c0-.2-.05-.551-.158-.551s-.168.382-.168.551v.432h-.918v-.394c0-.734.326-1.634,1.122-1.634.737,0,1.038.876,1.017,1.486V16.33a7.839,7.839,0,0,0,.059,1.141h-.81a2.182,2.182,0,0,1-.145-.4.713.713,0,0,1-.615.49c-.652,0-.69-1.21-.69-1.62a3,3,0,0,1,.918-2.364,1.333,1.333,0,0,0,.387-.468Zm-.013,2.054a2.868,2.868,0,0,0-.421,1.475c0,.036,0,.492.168.492s.253-.216.253-.443Z"/><path class="b" d="M122.622,12.585c0-.2-.038-.768-.217-.768-.156,0-.17.43-.17.683a2.862,2.862,0,0,0,.459,1.308,4.122,4.122,0,0,1,.724,2.173c0,.564-.156,1.582-1.1,1.582-1.025,0-1.1-1.115-1.1-2h.869c0,.422.061,1,.229,1s.194-.29.194-.791a3.737,3.737,0,0,0-.5-1.416,4,4,0,0,1-.676-1.982c0-.84.314-1.558,1.038-1.558.991,0,1.063,1.126,1.063,1.775Z"/><path class="b" d="M106.335,19.71V18.378h2.477V19.71h-.737V27.2h-1V19.71Z"/><path class="b" d="M111.324,25.6c0,1.007-.255,1.69-1.122,1.69-.954,0-1.113-.912-1.113-1.726v-3.3c0-.91.242-1.728,1.134-1.728.966,0,1.1.77,1.1,1.694Zm-.907-3.458c.013-.3-.011-.551-.2-.551-.17,0-.219.229-.219.551v3.54c-.011.267.036.539.208.539.191,0,.229-.43.215-.539Z"/><path class="b" d="M113.172,19.012v1.622h.507v1.092h-.507V27.2h-.93V21.726h-.4V20.634h.4V19.012Z"/><path class="b" d="M115.491,22.133c0-.2-.05-.551-.158-.551s-.168.38-.168.551v.432h-.918v-.394c0-.734.326-1.635,1.122-1.635.737,0,1.038.878,1.017,1.488v4.034a7.84,7.84,0,0,0,.059,1.141h-.81a2.2,2.2,0,0,1-.145-.4.713.713,0,0,1-.615.492c-.652,0-.69-1.211-.69-1.62a3,3,0,0,1,.918-2.364,1.333,1.333,0,0,0,.387-.468Zm-.013,2.054a2.863,2.863,0,0,0-.421,1.475c0,.036,0,.492.168.492s.253-.216.253-.443Z"/><rect class="b" width="0.954" height="8.821" transform="translate(117.265 18.377)"/><path class="b" d="M121.3,24.845v.827c0,.854-.263,1.62-1.195,1.62-.846,0-1.05-.9-1.05-1.656v-3.42c0-.78.3-1.679,1.113-1.679,1.012,0,1.132.888,1.132,1.645v1.955h-1.315v1.429c0,.265.048.659.183.659.191,0,.229-.432.229-.659v-.721Zm-1.315-1.656h.412v-.924c0-.322-.038-.672-.242-.672-.158,0-.17.479-.17.672Z"/><path class="b" d="M123.218,22.313c0-.2-.036-.767-.217-.767-.156,0-.17.43-.17.683a2.841,2.841,0,0,0,.461,1.308,4.122,4.122,0,0,1,.724,2.173c0,.564-.156,1.582-1.1,1.582-1.027,0-1.1-1.115-1.1-2h.871c0,.422.059,1,.229,1s.192-.29.192-.791a3.737,3.737,0,0,0-.5-1.416,4.017,4.017,0,0,1-.676-1.982c0-.842.314-1.56,1.038-1.56.993,0,1.063,1.128,1.063,1.775Z"/><path class="b" d="M109.667,36.912a2.342,2.342,0,0,1-.848,2.048,2.517,2.517,0,0,1,.913,2.264v3.364c0,1.336-.587,2.909-2.126,2.909-1.583,0-2.128-1.7-2.128-2.909V41.224a2.944,2.944,0,0,1,.913-2.264,2.551,2.551,0,0,1-.846-2.048V33.852c0-1.228.65-2.544,2.061-2.544,1.52,0,2.061,1.4,2.061,2.544Zm-1.692,4.162c0-.452-.11-.907-.37-.907s-.37.454-.37.907V44.7c0,.405.2.71.37.71s.37-.3.37-.71V41.075Zm0-6.9c0-.452-.11-.882-.37-.882s-.37.43-.37.882v3.193c0,.405.2.71.37.71s.37-.3.37-.71V34.175Z"/><path class="b" d="M112.05,47.325l-.716,2.8h-1.04l.543-2.8h-.543V44.932h1.757Z"/><path class="b" d="M115.26,43.876h-2.452V41.828l2.235-10.346H116.8V41.828h.65v2.048h-.65v3.449H115.26Zm.042-6.943-.977,4.895h.977Z"/><path class="b" d="M124.258,41.633c-.065,1.251-.627,2.911-2.105,2.911h-.107a1.061,1.061,0,0,0-.131.517c0,.432.545.647.871.733a2.516,2.516,0,0,1,1.3.668,3.069,3.069,0,0,1,.674,2.071c0,1.573-.674,3.015-2.452,3.015a2.1,2.1,0,0,1-2.3-2.285,2.275,2.275,0,0,1,1.126-1.789h.023a1.592,1.592,0,0,1-.934-1.573,2.641,2.641,0,0,1,.89-1.768,4.353,4.353,0,0,1-.825-2.563V38.358c.023-1.251.52-3,1.974-3a1.408,1.408,0,0,1,1.347.729,1.756,1.756,0,0,1,1.368-.729V37.3a1.009,1.009,0,0,0-.8.259,1.833,1.833,0,0,1,.086.517Zm-2.212,6.275a1.435,1.435,0,0,0-.391.992c0,.45.194.82.671.82a.787.787,0,0,0,.8-.8.814.814,0,0,0-.564-.842Zm.543-9.572c0-.473-.042-1.077-.328-1.077-.215,0-.28.644-.28,1.077v3.343c0,.407.065,1.054.28,1.054.286,0,.328-.755.328-1.054Z"/><path class="b" d="M122.052,64.652c-.173,0-.221.11-.269.218a.43.43,0,0,0-.015.206v3.343a.435.435,0,0,0,.11.362.2.2,0,0,0,.173.078c.143,0,.189-.11.236-.22a.859.859,0,0,0,.032-.22V65.076a.625.625,0,0,0-.112-.363C122.178,64.665,122.13,64.652,122.052,64.652Z"/><path class="b" d="M137.01,10.091a30.881,30.881,0,0,0-43.426,0,.983.983,0,0,0-.3.7V67.529a.987.987,0,0,0,.3.7,30.885,30.885,0,0,0,43.426,0,.993.993,0,0,0,.293-.7V10.795A.989.989,0,0,0,137.01,10.091ZM109.939,69.63h-1.7V60.584H107.1V59.5a2.62,2.62,0,0,0,1.438-.818,2.765,2.765,0,0,0,.377-.6h1.027Zm5.63-2.892a4.389,4.389,0,0,1-.333,1.9,1.923,1.923,0,0,1-1.9,1.115,1.862,1.862,0,0,1-1.9-1.177,5.952,5.952,0,0,1-.328-2.309h1.705v.456a4.141,4.141,0,0,0,.112,1.208c.078.239.2.348.41.348a.425.425,0,0,0,.394-.331,4.023,4.023,0,0,0,.128-1.21V64.161c0-.486-.173-.848-.537-.848a.631.631,0,0,0-.474.316,1.073,1.073,0,0,0-.191.532h-1.438V58.085h4.125v1.681H112.69v2.4a2.3,2.3,0,0,1,.634-.344.671.671,0,0,1,.347-.047,1.676,1.676,0,0,1,1.612,1.052,3.47,3.47,0,0,1,.286,1.334Zm.951-3.424a1.454,1.454,0,0,1-.143-.672V59.293a1.394,1.394,0,0,1,.522-1.13,1.046,1.046,0,0,1,.711-.2,1.1,1.1,0,0,1,1.059.674,1.678,1.678,0,0,1,.16.659v3.348a1.474,1.474,0,0,1-.522,1.145,1.031,1.031,0,0,1-.7.2A1.09,1.09,0,0,1,116.52,63.314Zm.648,6.316,4.268-11.544h1.012L118.229,69.63Zm6.1-1.211a1.442,1.442,0,0,1-.522,1.132,1.022,1.022,0,0,1-.7.2,1.126,1.126,0,0,1-1.092-.657,1.51,1.51,0,0,1-.141-.678V65.076a1.424,1.424,0,0,1,.522-1.149,1.04,1.04,0,0,1,.711-.2,1.1,1.1,0,0,1,1.059.674,1.914,1.914,0,0,1,.158.678ZM135.3,67.111a28.326,28.326,0,0,1-2.305,1.989,17.691,17.691,0,0,0-35.379.013,29.087,29.087,0,0,1-2.32-2v-55.9a28.866,28.866,0,0,1,40,0Z"/><path class="b" d="M117.878,62.642V59.293a.625.625,0,0,0-.111-.36.165.165,0,0,0-.158-.064c-.171,0-.221.112-.267.223a.409.409,0,0,0-.015.2v3.348c-.017.168.015.422.282.422C117.848,63.064,117.878,62.81,117.878,62.642Z"/><path class="b" d="M155.313,11.957V10.483c0-.182-.027-.53-.194-.53-.131,0-.181.312-.181.53v5.542c0,.276.061.528.2.528.219,0,.242-.31.242-.528V14.308h-.217v-1.09h1.147v4.389h-.518l-.109-.322a.893.893,0,0,1-.665.418c-.894,0-1.1-1.164-1.1-1.785V10.483c0-.795.29-1.791,1.195-1.791.966,0,1.195,1.083,1.195,1.791v1.475Z"/><path class="b" d="M158.925,12.391c-.568-.326-.81.142-.81.661v4.558h-.93V11.045h.93v.36a.914.914,0,0,1,.81-.454Z"/><path class="b" d="M160.638,12.546c0-.2-.048-.553-.156-.553s-.17.386-.17.553v.433h-.918v-.4c0-.731.326-1.632,1.122-1.632.737,0,1.038.874,1.017,1.488V16.47a7.792,7.792,0,0,0,.059,1.139h-.81a2.114,2.114,0,0,1-.145-.394.711.711,0,0,1-.615.49c-.652,0-.69-1.211-.69-1.62a2.992,2.992,0,0,1,.918-2.364,1.312,1.312,0,0,0,.387-.468Zm-.013,2.052a2.874,2.874,0,0,0-.421,1.475c0,.04,0,.494.168.494s.253-.216.253-.443Z"/><path class="b" d="M163.646,12.727c0-.2-.038-.768-.217-.768-.156,0-.17.432-.17.681a2.861,2.861,0,0,0,.459,1.31,4.1,4.1,0,0,1,.724,2.173c0,.564-.156,1.582-1.1,1.582-1.025,0-1.1-1.115-1.1-2h.869c0,.422.061,1,.229,1s.194-.291.194-.793a3.726,3.726,0,0,0-.5-1.416,4.023,4.023,0,0,1-.676-1.98c0-.84.314-1.56,1.038-1.56.991,0,1.063,1.126,1.063,1.775Z"/><path class="b" d="M166.4,12.546c0-.2-.05-.553-.158-.553s-.17.386-.17.553v.433h-.916v-.4c0-.731.324-1.632,1.122-1.632.737,0,1.038.874,1.015,1.488V16.47a7.719,7.719,0,0,0,.061,1.139h-.812a2.252,2.252,0,0,1-.143-.394.713.713,0,0,1-.615.49c-.653,0-.69-1.211-.69-1.62a2.992,2.992,0,0,1,.918-2.364,1.333,1.333,0,0,0,.387-.468Zm-.013,2.052a2.874,2.874,0,0,0-.423,1.475c0,.04,0,.494.17.494s.253-.216.253-.443Z"/><path class="b" d="M169.407,12.727c0-.2-.036-.768-.217-.768-.156,0-.168.432-.168.681a2.84,2.84,0,0,0,.459,1.31,4.117,4.117,0,0,1,.724,2.173c0,.564-.156,1.582-1.1,1.582-1.027,0-1.1-1.115-1.1-2h.871c0,.422.059,1,.229,1s.192-.291.192-.793a3.726,3.726,0,0,0-.5-1.416,4.023,4.023,0,0,1-.676-1.98c0-.84.314-1.56,1.038-1.56.993,0,1.063,1.126,1.063,1.775Z"/><path class="b" d="M151.1,20.893c0-.312,0-1.283-.192-1.283-.145,0-.168.362-.168.874a6.033,6.033,0,0,0,.591,2.078,7.3,7.3,0,0,1,.762,2.771c0,.84-.16,2.1-1.2,2.1-1.267,0-1.244-1.753-1.244-2.555l.977-.146c0,.28,0,1.514.267,1.514.181,0,.2-.288.2-.852a6.992,6.992,0,0,0-.8-2.641,7.181,7.181,0,0,1-.541-2.27c0-.767.154-2.039,1.122-2.063,1.158-.023,1.208,1.6,1.208,2.33Z"/><path class="b" d="M154.057,22.275c0-.2-.048-.553-.156-.553s-.17.384-.17.553v.433h-.916v-.4c0-.731.324-1.632,1.12-1.632.737,0,1.04.874,1.017,1.488V26.2a8.078,8.078,0,0,0,.059,1.139h-.81a2.084,2.084,0,0,1-.145-.4.71.71,0,0,1-.613.492c-.653,0-.692-1.211-.692-1.62a2.987,2.987,0,0,1,.92-2.364,1.325,1.325,0,0,0,.385-.468Zm-.011,2.052a2.856,2.856,0,0,0-.423,1.475c0,.04,0,.494.17.494s.253-.216.253-.443Z"/><path class="b" d="M156.958,19.154v1.618h.507v1.094h-.507v5.47h-.93v-5.47h-.4V20.772h.4V19.154Z"/><path class="b" d="M159.359,20.774h.954v6.564h-.954V27a1.05,1.05,0,0,1-.64.432c-.6,0-.652-.886-.652-1.285V20.774h.941v5.184c0,.252.061.42.181.42s.17-.18.17-.432Z"/><path class="b" d="M162.872,22.118c-.568-.324-.808.144-.808.662v4.558h-.93V20.774h.93v.36a.913.913,0,0,1,.808-.454Z"/><path class="b" d="M164.589,22.275c0-.2-.05-.553-.158-.553s-.168.384-.168.553v.433h-.918v-.4c0-.731.324-1.632,1.122-1.632.737,0,1.038.874,1.015,1.488V26.2a7.722,7.722,0,0,0,.061,1.139h-.81a2.084,2.084,0,0,1-.145-.4.71.71,0,0,1-.615.492c-.653,0-.69-1.211-.69-1.62a2.992,2.992,0,0,1,.918-2.364,1.333,1.333,0,0,0,.387-.468Zm-.013,2.052a2.874,2.874,0,0,0-.423,1.475c0,.04,0,.494.17.494s.253-.216.253-.443Z"/><path class="b" d="M168.66,27.336h-.954v-.36a.907.907,0,0,1-.69.456c-.593,0-.532-.814-.543-1.283V21.963c0-.541.12-1.283.737-1.283a.666.666,0,0,1,.5.371V18.518h.954Zm-.954-5.169c0-.193-.048-.433-.17-.433s-.171.206-.171.433v3.672c0,.238.038.456.171.456s.17-.227.17-.456Z"/><path class="b" d="M170.592,22.275c0-.2-.048-.553-.156-.553s-.17.384-.17.553v.433h-.918v-.4c0-.731.326-1.632,1.122-1.632.737,0,1.04.874,1.017,1.488V26.2a8.08,8.08,0,0,0,.059,1.139h-.81a2.085,2.085,0,0,1-.145-.4.71.71,0,0,1-.615.492c-.652,0-.69-1.211-.69-1.62a2.987,2.987,0,0,1,.92-2.364,1.325,1.325,0,0,0,.385-.468Zm-.013,2.052a2.874,2.874,0,0,0-.421,1.475c0,.04,0,.494.168.494s.253-.216.253-.443Z"/><path class="b" d="M173.6,22.455c0-.2-.038-.768-.217-.768-.156,0-.17.43-.17.681a2.862,2.862,0,0,0,.459,1.31,4.1,4.1,0,0,1,.724,2.173c0,.564-.154,1.582-1.1,1.582-1.027,0-1.1-1.115-1.1-2h.871c0,.422.059,1,.229,1s.192-.291.192-.793a3.727,3.727,0,0,0-.5-1.416,4.023,4.023,0,0,1-.676-1.982c0-.84.314-1.558,1.038-1.558.993,0,1.063,1.126,1.063,1.775Z"/><path class="b" d="M156.383,44.283c0,1.641-.52,3.212-2.17,3.212-1.692,0-2.191-1.7-2.191-3.212V34.522c0-1.639.564-3.212,2.191-3.212,1.738,0,2.17,1.916,2.17,3.212Zm-1.8-9.761c0-.5-.109-.948-.347-.948s-.368.43-.368.948v9.761c0,.585.173.95.368.95.219,0,.347-.452.347-.95Z"/><path class="b" d="M158.876,47.325l-.716,2.8h-1.04l.543-2.8h-.543V44.932h1.757Z"/><path class="b" d="M159.588,34.523c.023-1.425.608-3.214,2.3-3.214,1.734,0,2.039,2.092,2.039,3.214v9.354c-.021,1.55-.3,3.619-2.149,3.619-1.909,0-2.126-2.326-2.126-3.619V42.755h1.736c0,.712,0,2.716.391,2.716.349,0,.349-1.4.349-1.594V40.944a1,1,0,0,1-.758.367c-1.673,0-1.781-1.789-1.781-2.907Zm2.54-.261c0-.3-.065-.926-.391-.926-.349,0-.412.625-.412.926V38.79c0,.193.063.712.412.712.326,0,.37-.409.391-.647Z"/><path class="b" d="M171.084,41.635c-.065,1.249-.627,2.909-2.105,2.909h-.107a1.069,1.069,0,0,0-.131.519c0,.43.545.647.871.733a2.527,2.527,0,0,1,1.3.666,3.069,3.069,0,0,1,.674,2.071c0,1.575-.674,3.017-2.452,3.017a2.1,2.1,0,0,1-2.3-2.285,2.272,2.272,0,0,1,1.126-1.789h.023a1.592,1.592,0,0,1-.934-1.573,2.641,2.641,0,0,1,.89-1.77,4.345,4.345,0,0,1-.825-2.563V38.358c.023-1.251.522-3,1.974-3a1.409,1.409,0,0,1,1.347.731,1.752,1.752,0,0,1,1.366-.731V37.3a1,1,0,0,0-.8.261,1.819,1.819,0,0,1,.086.515Zm-2.212,6.273a1.439,1.439,0,0,0-.391.992c0,.45.194.82.671.82a.787.787,0,0,0,.8-.8.812.812,0,0,0-.564-.842Zm.543-9.572c0-.473-.042-1.077-.328-1.077-.215,0-.28.645-.28,1.077v3.343c0,.409.065,1.054.28,1.054.286,0,.328-.753.328-1.054Z"/><path class="b" d="M162.728,62.642V59.293a.64.64,0,0,0-.111-.36.169.169,0,0,0-.16-.064c-.171,0-.221.112-.265.223a.387.387,0,0,0-.017.2v3.348c-.017.168.017.422.282.422C162.7,63.064,162.728,62.81,162.728,62.642Z"/><path class="b" d="M158.188,62.013l-1,3.612h1.185V61.667h-.1Z"/><path class="b" d="M166.9,64.652c-.171,0-.221.11-.267.218a.407.407,0,0,0-.017.206v3.343a.429.429,0,0,0,.112.362.2.2,0,0,0,.171.078c.143,0,.191-.11.236-.22a.858.858,0,0,0,.032-.22V65.076a.638.638,0,0,0-.111-.363C167.027,64.665,166.98,64.652,166.9,64.652Z"/><path class="b" d="M183.755,10.091a30.879,30.879,0,0,0-43.424,0,1,1,0,0,0-.293.7V67.529a1,1,0,0,0,.293.7,30.85,30.85,0,0,0,43.424,0,.992.992,0,0,0,.293-.7V10.795A.989.989,0,0,0,183.755,10.091ZM160.731,67.116h-.789V69.63h-1.566V67.116h-2.641V65.625l2.5-7.537h1.709v7.537h.789Zm.638-3.8a1.431,1.431,0,0,1-.143-.672V59.293a1.393,1.393,0,0,1,.52-1.13,1.049,1.049,0,0,1,.711-.2,1.106,1.106,0,0,1,1.061.674,1.678,1.678,0,0,1,.158.659v3.348a1.472,1.472,0,0,1-.52,1.145,1.036,1.036,0,0,1-.7.2A1.089,1.089,0,0,1,161.369,63.314Zm.648,6.316,4.266-11.544h1.012L163.076,69.63Zm6.1-1.211a1.441,1.441,0,0,1-.52,1.132,1.028,1.028,0,0,1-.7.2,1.125,1.125,0,0,1-1.09-.657,1.484,1.484,0,0,1-.143-.678V65.076a1.424,1.424,0,0,1,.522-1.149,1.04,1.04,0,0,1,.711-.2,1.1,1.1,0,0,1,1.059.674,1.874,1.874,0,0,1,.158.678Zm13.927-1.306a28.8,28.8,0,0,1-2.3,1.987,17.691,17.691,0,0,0-35.379.011,28.805,28.805,0,0,1-2.319-2v-55.9a28.865,28.865,0,0,1,40,0Z"/></g></svg>