<svg xmlns="http://www.w3.org/2000/svg" xmlns:xlink="http://www.w3.org/1999/xlink" width="231" height="76" viewBox="0 0 231 76">
  <defs>
    <clipPath id="clip-path">
      <rect id="crop" width="231" height="76" transform="translate(0 3.786)" fill="none"/>
    </clipPath>
  </defs>
  <g id="peladas_natural_nutri_doy" transform="translate(0 -3.786)" clip-path="url(#clip-path)" style="mix-blend-mode: lighten;isolation: isolate">
    <path id="Trazado_1668" data-name="Trazado 1668" d="M16.694,11.267l.339,4.514.337-4.514h.977l-.821,8.821h-.989l-.821-8.821Z" fill="#fff"/>
    <path id="Trazado_1669" data-name="Trazado 1669" d="M20,15.023c0-.2-.05-.551-.158-.551s-.17.382-.17.551v.432H18.76v-.394c0-.734.324-1.634,1.122-1.634.735,0,1.038.876,1.015,1.486v4.034a8.128,8.128,0,0,0,.059,1.141h-.81a2.177,2.177,0,0,1-.143-.4.718.718,0,0,1-.615.49c-.653,0-.69-1.21-.69-1.62a2.988,2.988,0,0,1,.918-2.364A1.354,1.354,0,0,0,20,15.731Zm-.011,2.054a2.832,2.832,0,0,0-.425,1.475c0,.036,0,.492.17.492s.255-.216.255-.443Z" fill="#fff"/>
    <rect id="Rectángulo_82" data-name="Rectángulo 82" width="0.954" height="8.821" transform="translate(21.778 11.268)" fill="#fff"/>
    <path id="Trazado_1670" data-name="Trazado 1670" d="M25.8,18.493c0,1.007-.255,1.69-1.124,1.69-.954,0-1.111-.912-1.111-1.726v-3.3c0-.909.242-1.726,1.134-1.726.966,0,1.1.768,1.1,1.692Zm-.909-3.458c.013-.3-.011-.551-.2-.551-.168,0-.219.229-.219.551v3.54c-.011.267.038.539.208.539.192,0,.229-.43.215-.539Z" fill="#fff"/>
    <path id="Trazado_1671" data-name="Trazado 1671" d="M28.25,14.866c-.568-.324-.808.146-.808.662v4.56h-.928V13.524h.928v.36a.911.911,0,0,1,.808-.456Z" fill="#fff"/>
    <path id="Trazado_1672" data-name="Trazado 1672" d="M8.946,21h2v1.333h-1v2.315h.724v1.416H9.949v2.423h1v1.334h-2Z" fill="#fff"/>
    <path id="Trazado_1673" data-name="Trazado 1673" d="M12.7,29.816h-.954V23.252H12.7v.335a1.045,1.045,0,0,1,.64-.433c.6,0,.653.89.653,1.287v5.376h-.943V24.631c0-.252-.061-.42-.181-.42s-.17.18-.17.432Z" fill="#fff"/>
    <path id="Trazado_1674" data-name="Trazado 1674" d="M16.954,27.463v.827c0,.854-.265,1.62-1.195,1.62-.846,0-1.05-.9-1.05-1.656v-3.42c0-.78.3-1.679,1.111-1.679,1.014,0,1.134.888,1.134,1.645v1.955H15.639v1.429c0,.265.046.659.181.659.192,0,.229-.432.229-.659v-.721Zm-1.315-1.656h.41v-.924c0-.322-.036-.672-.242-.672-.156,0-.168.479-.168.672Z" fill="#fff"/>
    <path id="Trazado_1675" data-name="Trazado 1675" d="M19.393,24.594c-.566-.324-.808.146-.808.662v4.56h-.93V23.252h.93v.36a.912.912,0,0,1,.808-.458Z" fill="#fff"/>
    <path id="Trazado_1676" data-name="Trazado 1676" d="M22.146,26.649c-.034.695-.349,1.618-1.17,1.618h-.061a.6.6,0,0,0-.072.29c0,.238.3.36.484.405a1.413,1.413,0,0,1,.724.375,1.7,1.7,0,0,1,.375,1.151c0,.876-.375,1.681-1.366,1.681a1.171,1.171,0,0,1-1.28-1.272,1.265,1.265,0,0,1,.629-1h.011a.887.887,0,0,1-.518-.874,1.471,1.471,0,0,1,.493-.984,2.422,2.422,0,0,1-.459-1.429V24.823c.011-.695.29-1.668,1.1-1.668a.785.785,0,0,1,.751.409.975.975,0,0,1,.76-.409v1.079a.562.562,0,0,0-.448.146,1.013,1.013,0,0,1,.048.29Zm-1.231,3.488a.806.806,0,0,0-.217.555c0,.252.107.456.375.456a.437.437,0,0,0,.446-.445.453.453,0,0,0-.314-.468Zm.3-5.326c0-.263-.025-.6-.183-.6-.12,0-.156.36-.156.6v1.861c0,.229.036.589.156.589.158,0,.183-.422.183-.589Z" fill="#fff"/>
    <path id="Trazado_1677" data-name="Trazado 1677" d="M25.321,27.463v.827c0,.854-.265,1.62-1.195,1.62-.846,0-1.05-.9-1.05-1.656v-3.42c0-.78.3-1.679,1.113-1.679,1.012,0,1.132.888,1.132,1.645v1.955H24.007v1.429c0,.265.048.659.183.659.191,0,.229-.432.229-.659v-.721Zm-.191-6.371-.581,1.079h-.773l.387-1.079Zm-1.124,4.715h.412v-.924c0-.322-.038-.672-.242-.672-.158,0-.17.479-.17.672Z" fill="#fff"/>
    <path id="Trazado_1678" data-name="Trazado 1678" d="M27.157,21.63v1.622h.509v1.092h-.509v5.472h-.926V24.344h-.4V23.252h.4V21.63Z" fill="#fff"/>
    <path id="Trazado_1679" data-name="Trazado 1679" d="M28.316,23.254h.954v6.564h-.954Zm0-2.258h.954v1.213h-.954Z" fill="#fff"/>
    <path id="Trazado_1680" data-name="Trazado 1680" d="M31,28.3c0,.24.059.517.181.517s.192-.119.192-.517v-.909h.918v.753c-.011.922-.086,1.764-1.149,1.764-.941,0-1.1-1.139-1.1-1.823v-3.11c.011-.755.2-1.825,1.122-1.825,1.088,0,1.124.914,1.124,1.766v.636h-.918V24.69c0-.4-.072-.479-.181-.479s-.192.24-.192.479Z" fill="#fff"/>
    <path id="Trazado_1681" data-name="Trazado 1681" d="M35.142,28.22c0,1.007-.255,1.69-1.124,1.69-.954,0-1.111-.912-1.111-1.726v-3.3c0-.91.24-1.728,1.134-1.728.966,0,1.1.77,1.1,1.694Zm-.909-3.458c.013-.3-.011-.551-.2-.551-.17,0-.219.229-.219.551V28.3c-.011.267.038.539.208.539.192,0,.229-.43.215-.539Z" fill="#fff"/>
    <path id="Trazado_1682" data-name="Trazado 1682" d="M203.89,18.126c0-.31,0-1.285-.194-1.285-.143,0-.166.362-.166.878a6.06,6.06,0,0,0,.591,2.075,7.347,7.347,0,0,1,.76,2.773c0,.839-.158,2.1-1.195,2.1-1.269,0-1.246-1.753-1.246-2.559l.979-.142c0,.276,0,1.512.267,1.512.179,0,.2-.288.2-.852a7.01,7.01,0,0,0-.8-2.642,7.223,7.223,0,0,1-.541-2.266c0-.768.156-2.04,1.124-2.065,1.158-.023,1.206,1.6,1.206,2.328Z" fill="#fff"/>
    <path id="Trazado_1683" data-name="Trazado 1683" d="M207.841,22.975c0,1.007-.253,1.694-1.122,1.694-.954,0-1.113-.914-1.113-1.73v-3.3c0-.91.242-1.728,1.135-1.728.966,0,1.1.77,1.1,1.694Zm-.907-3.456c.013-.3-.011-.553-.2-.553-.17,0-.219.229-.219.553v3.54c-.011.265.036.541.208.541.191,0,.229-.433.215-.541Z" fill="#fff"/>
    <path id="Trazado_1684" data-name="Trazado 1684" d="M210.836,24.571h-.954v-.36a.912.912,0,0,1-.688.456c-.592,0-.532-.814-.543-1.285V19.2c0-.539.12-1.285.735-1.285a.661.661,0,0,1,.5.373V15.75h.954Zm-.954-5.173c0-.193-.046-.433-.168-.433s-.171.206-.171.433V23.07c0,.24.038.456.171.456s.168-.227.168-.456Z" fill="#fff"/>
    <path id="Trazado_1685" data-name="Trazado 1685" d="M211.583,18.007h.954v6.566h-.954Zm0-2.254h.954v1.211h-.954Z" fill="#fff"/>
    <path id="Trazado_1686" data-name="Trazado 1686" d="M215.547,22.975c0,1.007-.255,1.694-1.124,1.694-.954,0-1.113-.914-1.113-1.73v-3.3c0-.91.242-1.728,1.135-1.728.966,0,1.1.77,1.1,1.694Zm-.909-3.456c.013-.3-.011-.553-.2-.553-.17,0-.219.229-.219.553v3.54c-.011.265.038.541.208.541.192,0,.229-.433.215-.541Z" fill="#fff"/>
    <path id="Trazado_1687" data-name="Trazado 1687" d="M58.349,16.057h1.008a1,1,0,0,1,.937.524,4.068,4.068,0,0,1,.419,2.1,4.228,4.228,0,0,1-.419,2.135,1.114,1.114,0,0,1-.951.5v3.507h-.994ZM59.344,20a.339.339,0,0,0,.312-.142,3.424,3.424,0,0,0,.1-1.134,4.348,4.348,0,0,0-.1-1.251c-.059-.131-.2-.131-.312-.131Z" fill="#fff"/>
    <path id="Trazado_1688" data-name="Trazado 1688" d="M63,19.633c-.564-.322-.8.144-.8.659v4.53h-.924V18.3h.924v.356A.909.909,0,0,1,63,18.2Z" fill="#fff"/>
    <path id="Trazado_1689" data-name="Trazado 1689" d="M65.543,23.235c0,1-.251,1.683-1.116,1.683-.949,0-1.1-.907-1.1-1.717V19.918c0-.9.242-1.717,1.128-1.717.958,0,1.094.765,1.094,1.683Zm-.9-3.434c.011-.3-.011-.549-.2-.549-.17,0-.219.227-.219.549v3.517c-.011.263.036.539.206.539.191,0,.227-.432.215-.539Z" fill="#fff"/>
    <path id="Trazado_1690" data-name="Trazado 1690" d="M67.191,16.689V18.3h.5v1.085h-.5v5.438h-.924V19.384h-.4V18.3h.4V16.689Z" fill="#fff"/>
    <path id="Trazado_1691" data-name="Trazado 1691" d="M70.327,22.483v.825c0,.846-.265,1.609-1.189,1.609-.84,0-1.044-.893-1.044-1.647v-3.4c0-.774.3-1.669,1.1-1.669,1.01,0,1.13.884,1.13,1.635v1.944H69.018V23.2c0,.263.048.657.179.657.192,0,.229-.432.229-.657v-.717Zm-1.309-1.645h.408V19.92c0-.322-.036-.668-.24-.668-.156,0-.168.477-.168.668Z" fill="#fff"/>
    <path id="Trazado_1692" data-name="Trazado 1692" d="M72.165,16.152,71.6,17.225h-.77l.375-1.073ZM70.83,18.3h.951v6.523H70.83Z" fill="#fff"/>
    <path id="Trazado_1693" data-name="Trazado 1693" d="M73.476,24.823h-.951V18.3h.951v.331a1.042,1.042,0,0,1,.634-.428c.6,0,.648.884.648,1.278v5.342h-.934V19.67c0-.25-.063-.416-.183-.416s-.166.178-.166.428Z" fill="#fff"/>
    <path id="Trazado_1694" data-name="Trazado 1694" d="M76.444,19.79c0-.2-.051-.549-.156-.549-.122,0-.17.382-.17.549v.428h-.913v-.392c0-.727.322-1.622,1.116-1.622.733,0,1.033.871,1.01,1.478v4.007a7.982,7.982,0,0,0,.059,1.134h-.8a1.892,1.892,0,0,1-.143-.392.713.713,0,0,1-.612.488c-.65,0-.688-1.206-.688-1.611a2.97,2.97,0,0,1,.914-2.351,1.321,1.321,0,0,0,.385-.464Zm-.013,2.04A2.843,2.843,0,0,0,76.01,23.3c0,.038,0,.49.17.49s.251-.214.251-.441Z" fill="#fff"/>
    <path id="Trazado_1695" data-name="Trazado 1695" d="M79.241,19.968c0-.2-.038-.763-.215-.763-.156,0-.17.428-.17.68a2.858,2.858,0,0,0,.455,1.3,4.072,4.072,0,0,1,.72,2.158c0,.56-.154,1.575-1.09,1.575-1.019,0-1.094-1.109-1.094-1.993h.865c0,.418.059.992.229.992s.191-.286.191-.787a3.737,3.737,0,0,0-.492-1.408,3.964,3.964,0,0,1-.673-1.967c0-.837.312-1.552,1.031-1.552.987,0,1.059,1.122,1.059,1.766Z" fill="#fff"/>
    <path id="Trazado_1696" data-name="Trazado 1696" d="M108.527,14.435V12.96c0-.182-.027-.532-.2-.532-.131,0-.179.312-.179.532V18.5c0,.276.059.528.2.528.217,0,.242-.31.242-.528V16.786h-.215V15.694h1.145v4.393h-.52l-.109-.326a.89.89,0,0,1-.661.42c-.9,0-1.1-1.162-1.1-1.787V12.96c0-.793.291-1.789,1.193-1.789.968,0,1.2,1.081,1.2,1.789v1.475Z" fill="#fff"/>
    <path id="Trazado_1697" data-name="Trazado 1697" d="M112.137,14.866c-.566-.324-.808.146-.808.662v4.56h-.93V13.524h.93v.36a.908.908,0,0,1,.808-.456Z" fill="#fff"/>
    <path id="Trazado_1698" data-name="Trazado 1698" d="M113.854,15.023c0-.2-.05-.551-.158-.551s-.17.382-.17.551v.432h-.916v-.394c0-.734.324-1.634,1.122-1.634.735,0,1.038.876,1.015,1.486v4.034a7.77,7.77,0,0,0,.061,1.141H114a2.177,2.177,0,0,1-.143-.4.718.718,0,0,1-.615.49c-.653,0-.69-1.21-.69-1.62a2.988,2.988,0,0,1,.918-2.364,1.354,1.354,0,0,0,.387-.468Zm-.013,2.054a2.85,2.85,0,0,0-.423,1.475c0,.036,0,.492.17.492s.253-.216.253-.443Z" fill="#fff"/>
    <path id="Trazado_1699" data-name="Trazado 1699" d="M116.86,15.205c0-.2-.038-.768-.219-.768-.156,0-.17.43-.17.683a2.841,2.841,0,0,0,.461,1.308,4.106,4.106,0,0,1,.724,2.173c0,.564-.156,1.582-1.1,1.582-1.029,0-1.1-1.115-1.1-2h.869c0,.422.059,1,.231,1s.191-.29.191-.791a3.737,3.737,0,0,0-.5-1.416,4.015,4.015,0,0,1-.674-1.982c0-.84.312-1.558,1.036-1.558.993,0,1.065,1.126,1.065,1.775Z" fill="#fff"/>
    <path id="Trazado_1700" data-name="Trazado 1700" d="M119.613,15.023c0-.2-.05-.551-.158-.551s-.168.382-.168.551v.432h-.918v-.394c0-.734.326-1.634,1.122-1.634.737,0,1.038.876,1.017,1.486v4.034a7.839,7.839,0,0,0,.059,1.141h-.81a2.183,2.183,0,0,1-.145-.4.713.713,0,0,1-.615.49c-.652,0-.69-1.21-.69-1.62a3,3,0,0,1,.918-2.364,1.333,1.333,0,0,0,.387-.468Zm-.013,2.054a2.869,2.869,0,0,0-.421,1.475c0,.036,0,.492.168.492s.253-.216.253-.443Z" fill="#fff"/>
    <path id="Trazado_1701" data-name="Trazado 1701" d="M122.621,15.205c0-.2-.038-.768-.217-.768-.156,0-.17.43-.17.683a2.862,2.862,0,0,0,.459,1.308,4.122,4.122,0,0,1,.724,2.173c0,.564-.156,1.582-1.1,1.582-1.025,0-1.1-1.115-1.1-2h.869c0,.422.061,1,.229,1s.194-.29.194-.791a3.737,3.737,0,0,0-.5-1.416,4,4,0,0,1-.676-1.982c0-.84.314-1.558,1.038-1.558.991,0,1.063,1.126,1.063,1.775Z" fill="#fff"/>
    <path id="Trazado_1702" data-name="Trazado 1702" d="M106.334,22.328V21h2.477v1.333h-.737v7.488h-1V22.328Z" fill="#fff"/>
    <path id="Trazado_1703" data-name="Trazado 1703" d="M111.324,28.22c0,1.007-.255,1.69-1.122,1.69-.954,0-1.113-.912-1.113-1.726v-3.3c0-.91.242-1.728,1.134-1.728.966,0,1.1.77,1.1,1.694Zm-.907-3.458c.013-.3-.011-.551-.2-.551-.17,0-.219.229-.219.551V28.3c-.011.267.036.539.208.539.191,0,.229-.43.215-.539Z" fill="#fff"/>
    <path id="Trazado_1704" data-name="Trazado 1704" d="M113.172,21.63v1.622h.507v1.092h-.507v5.472h-.93V24.344h-.4V23.252h.4V21.63Z" fill="#fff"/>
    <path id="Trazado_1705" data-name="Trazado 1705" d="M115.49,24.751c0-.2-.05-.551-.158-.551s-.168.38-.168.551v.432h-.918v-.394c0-.734.326-1.635,1.122-1.635.737,0,1.038.878,1.017,1.488v4.034a7.84,7.84,0,0,0,.059,1.141h-.81a2.2,2.2,0,0,1-.145-.4.713.713,0,0,1-.615.492c-.652,0-.69-1.211-.69-1.62a3,3,0,0,1,.918-2.364,1.333,1.333,0,0,0,.387-.468Zm-.013,2.054a2.863,2.863,0,0,0-.421,1.475c0,.036,0,.492.168.492s.253-.216.253-.443Z" fill="#fff"/>
    <rect id="Rectángulo_83" data-name="Rectángulo 83" width="0.954" height="8.821" transform="translate(117.264 20.995)" fill="#fff"/>
    <path id="Trazado_1706" data-name="Trazado 1706" d="M121.3,27.463v.827c0,.854-.263,1.62-1.195,1.62-.846,0-1.05-.9-1.05-1.656v-3.42c0-.78.3-1.679,1.113-1.679,1.012,0,1.132.888,1.132,1.645v1.955h-1.315v1.429c0,.265.048.659.183.659.191,0,.229-.432.229-.659v-.721Zm-1.315-1.656h.412v-.924c0-.322-.038-.672-.242-.672-.158,0-.17.479-.17.672Z" fill="#fff"/>
    <path id="Trazado_1707" data-name="Trazado 1707" d="M123.218,24.931c0-.2-.036-.767-.217-.767-.156,0-.17.43-.17.683a2.841,2.841,0,0,0,.461,1.308,4.122,4.122,0,0,1,.724,2.173c0,.564-.156,1.582-1.1,1.582-1.027,0-1.1-1.115-1.1-2h.871c0,.422.059,1,.229,1s.192-.29.192-.791a3.737,3.737,0,0,0-.5-1.416,4.017,4.017,0,0,1-.676-1.982c0-.842.314-1.56,1.038-1.56.993,0,1.063,1.128,1.063,1.775Z" fill="#fff"/>
    <path id="Trazado_1708" data-name="Trazado 1708" d="M155.312,14.577V13.1c0-.182-.027-.53-.194-.53-.131,0-.181.312-.181.53v5.542c0,.276.061.528.2.528.219,0,.242-.31.242-.528V16.928h-.217v-1.09h1.147v4.389h-.518l-.109-.322a.893.893,0,0,1-.665.418c-.894,0-1.1-1.164-1.1-1.785V13.1c0-.795.29-1.791,1.195-1.791.966,0,1.195,1.083,1.195,1.791v1.475Z" fill="#fff"/>
    <path id="Trazado_1709" data-name="Trazado 1709" d="M158.924,15.008c-.568-.326-.81.142-.81.661v4.558h-.93V13.662h.93v.36a.914.914,0,0,1,.81-.454Z" fill="#fff"/>
    <path id="Trazado_1710" data-name="Trazado 1710" d="M160.637,15.164c0-.2-.048-.553-.156-.553s-.17.386-.17.553V15.6h-.918v-.4c0-.731.326-1.632,1.122-1.632.737,0,1.038.874,1.017,1.488v4.032a7.792,7.792,0,0,0,.059,1.139h-.81a2.114,2.114,0,0,1-.145-.394.711.711,0,0,1-.615.49c-.652,0-.69-1.211-.69-1.62a2.992,2.992,0,0,1,.918-2.364,1.312,1.312,0,0,0,.387-.468Zm-.013,2.052a2.874,2.874,0,0,0-.421,1.475c0,.04,0,.494.168.494s.253-.216.253-.443Z" fill="#fff"/>
    <path id="Trazado_1711" data-name="Trazado 1711" d="M163.645,15.345c0-.2-.038-.768-.217-.768-.156,0-.17.432-.17.681a2.862,2.862,0,0,0,.459,1.31,4.1,4.1,0,0,1,.724,2.173c0,.564-.156,1.582-1.1,1.582-1.025,0-1.1-1.115-1.1-2h.869c0,.422.061,1,.229,1s.194-.291.194-.793a3.726,3.726,0,0,0-.5-1.416,4.023,4.023,0,0,1-.676-1.98c0-.84.314-1.56,1.038-1.56.991,0,1.063,1.126,1.063,1.775Z" fill="#fff"/>
    <path id="Trazado_1712" data-name="Trazado 1712" d="M166.4,15.164c0-.2-.05-.553-.158-.553s-.17.386-.17.553V15.6h-.916v-.4c0-.731.324-1.632,1.122-1.632.737,0,1.038.874,1.015,1.488v4.032a7.721,7.721,0,0,0,.061,1.139h-.812a2.252,2.252,0,0,1-.143-.394.713.713,0,0,1-.615.49c-.653,0-.69-1.211-.69-1.62a2.992,2.992,0,0,1,.918-2.364,1.333,1.333,0,0,0,.387-.468Zm-.013,2.052a2.874,2.874,0,0,0-.423,1.475c0,.04,0,.494.17.494s.253-.216.253-.443Z" fill="#fff"/>
    <path id="Trazado_1713" data-name="Trazado 1713" d="M169.406,15.345c0-.2-.036-.768-.217-.768-.156,0-.168.432-.168.681a2.84,2.84,0,0,0,.459,1.31,4.117,4.117,0,0,1,.724,2.173c0,.564-.156,1.582-1.1,1.582-1.027,0-1.1-1.115-1.1-2h.871c0,.422.059,1,.229,1s.192-.291.192-.793a3.726,3.726,0,0,0-.5-1.416,4.023,4.023,0,0,1-.676-1.98c0-.84.314-1.56,1.038-1.56.993,0,1.063,1.126,1.063,1.775Z" fill="#fff"/>
    <path id="Trazado_1714" data-name="Trazado 1714" d="M151.1,23.511c0-.312,0-1.283-.192-1.283-.145,0-.168.362-.168.874a6.033,6.033,0,0,0,.591,2.078,7.3,7.3,0,0,1,.762,2.771c0,.84-.16,2.1-1.2,2.1-1.267,0-1.244-1.753-1.244-2.555l.977-.146c0,.28,0,1.514.267,1.514.181,0,.2-.288.2-.852a6.992,6.992,0,0,0-.8-2.641,7.181,7.181,0,0,1-.541-2.27c0-.767.154-2.039,1.122-2.063,1.158-.023,1.208,1.6,1.208,2.33Z" fill="#fff"/>
    <path id="Trazado_1715" data-name="Trazado 1715" d="M154.057,24.893c0-.2-.048-.553-.156-.553s-.17.384-.17.553v.433h-.916v-.4c0-.731.324-1.632,1.12-1.632.737,0,1.04.874,1.017,1.488v4.032a8.077,8.077,0,0,0,.059,1.139h-.81a2.084,2.084,0,0,1-.145-.4.71.71,0,0,1-.613.492c-.653,0-.692-1.211-.692-1.62a2.987,2.987,0,0,1,.92-2.364,1.325,1.325,0,0,0,.385-.468Zm-.011,2.052a2.856,2.856,0,0,0-.423,1.475c0,.04,0,.494.17.494s.253-.216.253-.443Z" fill="#fff"/>
    <path id="Trazado_1716" data-name="Trazado 1716" d="M156.957,21.772V23.39h.507v1.094h-.507v5.47h-.93v-5.47h-.4V23.39h.4V21.772Z" fill="#fff"/>
    <path id="Trazado_1717" data-name="Trazado 1717" d="M159.359,23.392h.954v6.564h-.954v-.335a1.05,1.05,0,0,1-.64.432c-.6,0-.652-.886-.652-1.285V23.392h.941v5.184c0,.252.061.42.181.42s.17-.18.17-.432Z" fill="#fff"/>
    <path id="Trazado_1718" data-name="Trazado 1718" d="M162.872,24.736c-.568-.324-.808.144-.808.662v4.558h-.93V23.392h.93v.36a.913.913,0,0,1,.808-.454Z" fill="#fff"/>
    <path id="Trazado_1719" data-name="Trazado 1719" d="M164.588,24.893c0-.2-.05-.553-.158-.553s-.168.384-.168.553v.433h-.918v-.4c0-.731.324-1.632,1.122-1.632.737,0,1.038.874,1.015,1.488v4.032a7.722,7.722,0,0,0,.061,1.139h-.81a2.084,2.084,0,0,1-.145-.4.71.71,0,0,1-.615.492c-.653,0-.69-1.211-.69-1.62a2.992,2.992,0,0,1,.918-2.364,1.333,1.333,0,0,0,.387-.468Zm-.013,2.052a2.874,2.874,0,0,0-.423,1.475c0,.04,0,.494.17.494s.253-.216.253-.443Z" fill="#fff"/>
    <path id="Trazado_1720" data-name="Trazado 1720" d="M168.66,29.954h-.954v-.36a.907.907,0,0,1-.69.456c-.593,0-.532-.814-.543-1.283V24.58c0-.541.12-1.283.737-1.283a.666.666,0,0,1,.5.371V21.135h.954Zm-.954-5.169c0-.193-.048-.433-.17-.433s-.171.206-.171.433v3.672c0,.238.038.456.171.456s.17-.227.17-.456Z" fill="#fff"/>
    <path id="Trazado_1721" data-name="Trazado 1721" d="M170.591,24.893c0-.2-.048-.553-.156-.553s-.17.384-.17.553v.433h-.918v-.4c0-.731.326-1.632,1.122-1.632.737,0,1.04.874,1.017,1.488v4.032a8.077,8.077,0,0,0,.059,1.139h-.81a2.085,2.085,0,0,1-.145-.4.71.71,0,0,1-.615.492c-.652,0-.69-1.211-.69-1.62a2.987,2.987,0,0,1,.92-2.364,1.325,1.325,0,0,0,.385-.468Zm-.013,2.052a2.874,2.874,0,0,0-.421,1.475c0,.04,0,.494.168.494s.253-.216.253-.443Z" fill="#fff"/>
    <path id="Trazado_1722" data-name="Trazado 1722" d="M173.6,25.073c0-.2-.038-.768-.217-.768-.156,0-.17.43-.17.681a2.862,2.862,0,0,0,.459,1.31,4.1,4.1,0,0,1,.724,2.173c0,.564-.154,1.582-1.1,1.582-1.027,0-1.1-1.115-1.1-2h.871c0,.422.059,1,.229,1s.192-.291.192-.793a3.727,3.727,0,0,0-.5-1.416,4.023,4.023,0,0,1-.676-1.982c0-.84.314-1.558,1.038-1.558.993,0,1.063,1.126,1.063,1.775Z" fill="#fff"/>
    <g id="Grupo_286" data-name="Grupo 286">
      <path id="Trazado_1723" data-name="Trazado 1723" d="M26.884,67.495c-.177,0-.225.112-.274.223a.465.465,0,0,0-.017.208v3.415a.459.459,0,0,0,.114.369.211.211,0,0,0,.177.079c.145,0,.192-.112.242-.225a.876.876,0,0,0,.032-.223V67.926a.668.668,0,0,0-.112-.369C27.013,67.51,26.966,67.495,26.884,67.495Z" fill="#fff"/>
      <path id="Trazado_1724" data-name="Trazado 1724" d="M43.605,12.709a30.879,30.879,0,0,0-43.424,0,.991.991,0,0,0-.3.7V70.147a.994.994,0,0,0,.3.7,30.882,30.882,0,0,0,43.424,0,.993.993,0,0,0,.293-.7V13.413A.989.989,0,0,0,43.605,12.709ZM20.21,69.626a4.5,4.5,0,0,1-.339,1.938A1.968,1.968,0,0,1,17.935,72.7,1.9,1.9,0,0,1,16,71.5a6.047,6.047,0,0,1-.339-2.357H17.4v.464a4.323,4.323,0,0,0,.112,1.234c.082.24.21.354.421.354a.437.437,0,0,0,.4-.337,4.175,4.175,0,0,0,.13-1.234V67c0-.5-.177-.865-.549-.865a.644.644,0,0,0-.484.32A1.117,1.117,0,0,0,17.24,67H15.773v-6.2h4.21v1.715H17.272v2.453a2.263,2.263,0,0,1,.646-.352.662.662,0,0,1,.354-.049,1.711,1.711,0,0,1,1.648,1.075A3.576,3.576,0,0,1,20.21,67Zm1.027-3.494a1.493,1.493,0,0,1-.145-.689V62.028a1.413,1.413,0,0,1,.532-1.155,1.066,1.066,0,0,1,.728-.206,1.124,1.124,0,0,1,1.08.687,1.713,1.713,0,0,1,.16.674v3.415a1.491,1.491,0,0,1-.532,1.17,1.044,1.044,0,0,1-.709.208A1.117,1.117,0,0,1,21.237,66.132Zm.663,6.445,4.355-11.783h1.033L22.98,72.577Zm6.226-1.236a1.471,1.471,0,0,1-.532,1.155,1.046,1.046,0,0,1-.711.208,1.147,1.147,0,0,1-1.113-.674,1.493,1.493,0,0,1-.145-.689V67.926a1.445,1.445,0,0,1,.532-1.17,1.064,1.064,0,0,1,.726-.208,1.124,1.124,0,0,1,1.08.689,1.906,1.906,0,0,1,.162.689Zm13.767-1.613a27.985,27.985,0,0,1-2.3,1.989,17.691,17.691,0,0,0-35.379.011,28.655,28.655,0,0,1-2.319-2v-55.9a28.865,28.865,0,0,1,40,0Z" fill="#fff"/>
      <path id="Trazado_1725" data-name="Trazado 1725" d="M22.624,65.443V62.028a.668.668,0,0,0-.112-.369.17.17,0,0,0-.16-.062c-.179,0-.227.11-.276.223a.464.464,0,0,0-.015.208v3.415c-.015.176.015.432.291.432C22.593,65.875,22.624,65.619,22.624,65.443Z" fill="#fff"/>
    </g>
    <g id="Grupo_287" data-name="Grupo 287">
      <path id="Trazado_1726" data-name="Trazado 1726" d="M73.954,67.631c-.177,0-.225.112-.274.223a.477.477,0,0,0-.015.21v3.413a.452.452,0,0,0,.112.369.212.212,0,0,0,.177.081c.145,0,.192-.114.242-.225a.9.9,0,0,0,.032-.225V68.065a.674.674,0,0,0-.112-.371C74.084,67.646,74.036,67.631,73.954,67.631Z" fill="#fff"/>
      <path id="Trazado_1727" data-name="Trazado 1727" d="M69.7,65.579V62.166a.67.67,0,0,0-.114-.371.17.17,0,0,0-.16-.062c-.179,0-.227.112-.276.223a.472.472,0,0,0-.015.21v3.413c-.015.176.015.433.291.433C69.664,66.013,69.7,65.755,69.7,65.579Z" fill="#fff"/>
      <path id="Trazado_1728" data-name="Trazado 1728" d="M65.005,64.938l-1.016,3.686H65.2V64.585h-.1Z" fill="#fff"/>
      <path id="Trazado_1729" data-name="Trazado 1729" d="M90.563,12.709a30.879,30.879,0,0,0-43.424,0,.991.991,0,0,0-.3.7V70.147a.994.994,0,0,0,.3.7,30.882,30.882,0,0,0,43.424,0,.993.993,0,0,0,.293-.7V13.413A.989.989,0,0,0,90.563,12.709ZM67.6,70.147H66.8v2.567H65.2V70.147H62.5V68.625l2.549-7.694H66.8v7.694H67.6Zm.7-3.877a1.506,1.506,0,0,1-.145-.691V62.166a1.416,1.416,0,0,1,.532-1.157,1.066,1.066,0,0,1,.728-.206,1.124,1.124,0,0,1,1.08.687,1.69,1.69,0,0,1,.16.676v3.413a1.482,1.482,0,0,1-.532,1.17,1.035,1.035,0,0,1-.709.21A1.119,1.119,0,0,1,68.307,66.27Zm.663,6.443L73.326,60.93h1.033L70.051,72.713ZM75.2,71.477a1.468,1.468,0,0,1-.532,1.155,1.046,1.046,0,0,1-.711.208,1.148,1.148,0,0,1-1.113-.672,1.506,1.506,0,0,1-.145-.691V68.065a1.44,1.44,0,0,1,.532-1.17,1.054,1.054,0,0,1,.726-.21,1.126,1.126,0,0,1,1.08.689,1.907,1.907,0,0,1,.162.691Zm13.654-1.749a27.984,27.984,0,0,1-2.3,1.989,17.691,17.691,0,0,0-35.379.011,28.654,28.654,0,0,1-2.319-2v-55.9a28.865,28.865,0,0,1,40,0Z" fill="#fff"/>
    </g>
    <path id="Trazado_1730" data-name="Trazado 1730" d="M7.415,38.735c.025-1.488.636-3.358,2.4-3.358,1.814,0,2.132,2.186,2.132,3.358v9.778c-.023,1.62-.318,3.784-2.246,3.784-1.995,0-2.221-2.434-2.221-3.784V47.34H9.3c0,.744,0,2.839.408,2.839.364,0,.364-1.465.364-1.666V45.447a1.05,1.05,0,0,1-.793.384c-1.747,0-1.861-1.87-1.861-3.042Zm2.654-.271c0-.316-.069-.969-.408-.969-.364,0-.432.653-.432.969v4.73c0,.2.069.746.432.746.339,0,.385-.43.408-.678Z" fill="#fff"/>
    <path id="Trazado_1731" data-name="Trazado 1731" d="M14.74,47.34c0,.992.023,2.817.41,2.817.362,0,.385-1.531.385-2.252-.046-2.5-.25-3.2-1.337-3.267v-2c1.315-.091,1.246-1.488,1.246-2.862,0-.651,0-2.184-.339-2.184-.364,0-.41,1.8-.41,2.748H12.837c0-1.668.158-4.957,2.242-4.957,1.837,0,2.246,2.411,2.246,3.695,0,2.411-.25,3.538-1.135,4.6.773.519,1.181,1.8,1.181,4.213,0,2.162-.3,4.416-2.221,4.416-2.221,0-2.246-3.583-2.246-4.957Z" fill="#fff"/>
    <path id="Trazado_1732" data-name="Trazado 1732" d="M22.588,35.559v6.8l.838-2.57H25.15l-1.518,4.234,1.473,8.09H23.382l-.794-5.228v5.228H20.865V35.559Z" fill="#fff"/>
    <path id="Trazado_1733" data-name="Trazado 1733" d="M27.419,49.278c0,.45.114.969.341.969s.36-.227.36-.969V47.567h1.724v1.42c-.021,1.734-.16,3.311-2.153,3.311-1.77,0-2.063-2.141-2.063-3.424V43.037c.021-1.42.385-3.424,2.107-3.424,2.04,0,2.109,1.713,2.109,3.311v1.194H28.12V42.5c0-.746-.135-.9-.339-.9s-.362.452-.362.9Z" fill="#fff"/>
    <path id="Trazado_1734" data-name="Trazado 1734" d="M32.86,42.61c0-.384-.09-1.035-.293-1.035-.227,0-.318.719-.318,1.035v.81H30.526v-.742c0-1.374.612-3.065,2.107-3.065,1.385,0,1.951,1.645,1.905,2.794v7.569a14.987,14.987,0,0,0,.114,2.141h-1.52a4.282,4.282,0,0,1-.272-.744,1.336,1.336,0,0,1-1.155.924c-1.227,0-1.294-2.277-1.294-3.042a5.622,5.622,0,0,1,1.724-4.439,2.455,2.455,0,0,0,.724-.876Zm-.021,3.854a5.348,5.348,0,0,0-.794,2.769c0,.068,0,.924.318.924.293,0,.476-.405.476-.835Z" fill="#fff"/>
    <path id="Trazado_1735" data-name="Trazado 1735" d="M35.834,52.117V35.559h1.791V52.117Z" fill="#fff"/>
    <path id="Trazado_1736" data-name="Trazado 1736" d="M61.437,46.024c0,.992.025,2.815.41,2.815.364,0,.385-1.529.385-2.251-.044-2.5-.248-3.2-1.337-3.269v-2c1.316-.091,1.248-1.488,1.248-2.862,0-.653,0-2.184-.339-2.184-.366,0-.41,1.8-.41,2.748H59.534c0-1.668.158-4.957,2.244-4.957,1.837,0,2.246,2.41,2.246,3.695,0,2.41-.25,3.538-1.135,4.6.772.519,1.179,1.8,1.179,4.212,0,2.164-.293,4.416-2.221,4.416-2.221,0-2.244-3.581-2.244-4.955Z" fill="#fff"/>
    <path id="Trazado_1737" data-name="Trazado 1737" d="M66.656,50.8l-.749,2.926H64.819l.566-2.926h-.566V48.3h1.837Z" fill="#fff"/>
    <path id="Trazado_1738" data-name="Trazado 1738" d="M72.28,47.624c0,1.713-.543,3.356-2.267,3.356-1.768,0-2.29-1.779-2.29-3.356V37.418c0-1.711.591-3.356,2.29-3.356,1.816,0,2.267,2,2.267,3.356ZM70.4,37.418c0-.517-.114-.99-.364-.99s-.385.45-.385.99V47.624c0,.608.181.992.385.992.227,0,.364-.473.364-.992Z" fill="#fff"/>
    <path id="Trazado_1739" data-name="Trazado 1739" d="M79.877,44.853c-.069,1.306-.659,3.042-2.2,3.042h-.114a1.1,1.1,0,0,0-.135.541c0,.45.566.676.907.765a2.641,2.641,0,0,1,1.358.7,3.2,3.2,0,0,1,.7,2.164c0,1.645-.7,3.153-2.562,3.153a2.2,2.2,0,0,1-2.4-2.387,2.377,2.377,0,0,1,1.179-1.87h.023a1.669,1.669,0,0,1-.975-1.647,2.758,2.758,0,0,1,.932-1.846,4.551,4.551,0,0,1-.865-2.68V41.429c.025-1.306.547-3.131,2.065-3.131a1.472,1.472,0,0,1,1.406.765,1.828,1.828,0,0,1,1.429-.765v2.027a1.046,1.046,0,0,0-.84.271,1.911,1.911,0,0,1,.091.539Zm-2.313,6.557a1.509,1.509,0,0,0-.41,1.035c0,.473.206.857.7.857a.822.822,0,0,0,.838-.835.848.848,0,0,0-.591-.878Zm.566-10c0-.5-.044-1.128-.339-1.128-.227,0-.3.676-.3,1.128V44.9c0,.428.069,1.1.3,1.1.3,0,.339-.789.339-1.1Z" fill="#fff"/>
    <path id="Trazado_1740" data-name="Trazado 1740" d="M108.138,36.653h-2.221V34.241h4.127v2.434L108.569,50.8h-1.926Z" fill="#fff"/>
    <path id="Trazado_1741" data-name="Trazado 1741" d="M112.627,50.8l-.747,2.926h-1.09l.566-2.926h-.566V48.3h1.837Z" fill="#fff"/>
    <path id="Trazado_1742" data-name="Trazado 1742" d="M115.576,36.653h-2.221V34.241h4.127v2.434L116.009,50.8h-1.928Z" fill="#fff"/>
    <path id="Trazado_1743" data-name="Trazado 1743" d="M124.965,44.853c-.069,1.306-.659,3.042-2.2,3.042h-.114a1.1,1.1,0,0,0-.135.541c0,.45.566.676.9.765a2.64,2.64,0,0,1,1.36.7,3.2,3.2,0,0,1,.7,2.164c0,1.645-.7,3.153-2.561,3.153a2.2,2.2,0,0,1-2.4-2.387,2.372,2.372,0,0,1,1.179-1.87h.023a1.666,1.666,0,0,1-.975-1.647,2.756,2.756,0,0,1,.93-1.846,4.55,4.55,0,0,1-.863-2.68V41.429c.025-1.306.545-3.131,2.065-3.131a1.467,1.467,0,0,1,1.4.765,1.834,1.834,0,0,1,1.429-.765v2.027a1.044,1.044,0,0,0-.838.271,1.982,1.982,0,0,1,.091.539Zm-2.313,6.557a1.51,1.51,0,0,0-.41,1.035c0,.473.206.857.7.857a.822.822,0,0,0,.84-.835.85.85,0,0,0-.591-.878Zm.566-10c0-.5-.046-1.128-.339-1.128-.227,0-.3.676-.3,1.128V44.9c0,.428.069,1.1.3,1.1.293,0,.339-.789.339-1.1Z" fill="#fff"/>
    <g id="Grupo_288" data-name="Grupo 288">
      <path id="Trazado_1744" data-name="Trazado 1744" d="M113.548,65.562l-1.016,3.686h1.209V65.209h-.1Z" fill="#fff"/>
      <path id="Trazado_1745" data-name="Trazado 1745" d="M122.5,68.256c-.177,0-.227.11-.274.223a.439.439,0,0,0-.017.208V72.1a.448.448,0,0,0,.114.367.2.2,0,0,0,.177.081c.145,0,.192-.112.24-.225a.874.874,0,0,0,.034-.223V68.687a.654.654,0,0,0-.114-.369C122.629,68.269,122.58,68.256,122.5,68.256Z" fill="#fff"/>
      <path id="Trazado_1746" data-name="Trazado 1746" d="M118.24,66.2V62.789a.663.663,0,0,0-.112-.369c-.032-.049-.08-.064-.16-.064-.179,0-.229.112-.276.225a.437.437,0,0,0-.017.208V66.2c-.015.174.017.432.293.432C118.209,66.635,118.24,66.378,118.24,66.2Z" fill="#fff"/>
      <path id="Trazado_1747" data-name="Trazado 1747" d="M137.009,12.709a30.881,30.881,0,0,0-43.426,0,.983.983,0,0,0-.3.7V70.147a.987.987,0,0,0,.3.7,30.885,30.885,0,0,0,43.426,0,.993.993,0,0,0,.293-.7V13.413A.989.989,0,0,0,137.009,12.709ZM110.181,73.336h-1.743V64.1h-1.162V63a2.659,2.659,0,0,0,1.469-.833,2.765,2.765,0,0,0,.387-.608h1.05Zm5.965-2.565h-.806v2.565h-1.6V70.771h-2.694V69.248l2.549-7.692h1.743v7.692h.806Zm.707-3.878a1.5,1.5,0,0,1-.147-.689V62.789a1.412,1.412,0,0,1,.533-1.155,1.056,1.056,0,0,1,.728-.208,1.129,1.129,0,0,1,1.08.687,1.722,1.722,0,0,1,.16.676V66.2a1.494,1.494,0,0,1-.532,1.17,1.044,1.044,0,0,1-.709.208A1.117,1.117,0,0,1,116.853,66.893Zm.661,6.443,4.355-11.781H122.9L118.6,73.336Zm6.228-1.234a1.464,1.464,0,0,1-.532,1.153,1.047,1.047,0,0,1-.711.21,1.145,1.145,0,0,1-1.113-.674,1.5,1.5,0,0,1-.147-.689V68.687a1.444,1.444,0,0,1,.533-1.17,1.064,1.064,0,0,1,.726-.208,1.124,1.124,0,0,1,1.08.689,1.888,1.888,0,0,1,.162.689ZM135.3,69.728a28.328,28.328,0,0,1-2.305,1.989,17.691,17.691,0,0,0-35.379.013,29.087,29.087,0,0,1-2.32-2v-55.9a28.866,28.866,0,0,1,40,0Z" fill="#fff"/>
    </g>
    <path id="Trazado_1748" data-name="Trazado 1748" d="M157.741,47.624c0,1.713-.543,3.356-2.265,3.356-1.77,0-2.29-1.779-2.29-3.356V37.418c0-1.711.589-3.356,2.29-3.356,1.814,0,2.265,2,2.265,3.356Zm-1.88-10.206c0-.517-.114-.99-.362-.99s-.387.45-.387.99V47.624c0,.608.181.992.387.992.227,0,.362-.473.362-.992Z" fill="#fff"/>
    <path id="Trazado_1749" data-name="Trazado 1749" d="M160.441,50.8l-.747,2.926H158.6l.566-2.926H158.6V48.3h1.837Z" fill="#fff"/>
    <path id="Trazado_1750" data-name="Trazado 1750" d="M163.39,36.653h-2.221V34.241H165.3v2.434L163.822,50.8h-1.928Z" fill="#fff"/>
    <path id="Trazado_1751" data-name="Trazado 1751" d="M172.778,44.853c-.069,1.306-.659,3.042-2.2,3.042h-.114a1.1,1.1,0,0,0-.135.541c0,.45.566.676.9.765a2.64,2.64,0,0,1,1.36.7,3.2,3.2,0,0,1,.7,2.164c0,1.645-.7,3.153-2.561,3.153a2.2,2.2,0,0,1-2.4-2.387,2.372,2.372,0,0,1,1.179-1.87h.023a1.666,1.666,0,0,1-.975-1.647,2.756,2.756,0,0,1,.93-1.846,4.55,4.55,0,0,1-.863-2.68V41.429c.025-1.306.545-3.131,2.065-3.131a1.467,1.467,0,0,1,1.4.765,1.834,1.834,0,0,1,1.429-.765v2.027a1.044,1.044,0,0,0-.838.271,1.982,1.982,0,0,1,.091.539Zm-2.313,6.557a1.51,1.51,0,0,0-.41,1.035c0,.473.206.857.7.857a.822.822,0,0,0,.84-.835.85.85,0,0,0-.591-.878Zm.566-10c0-.5-.046-1.128-.339-1.128-.227,0-.3.676-.3,1.128V44.9c0,.428.069,1.1.3,1.1.293,0,.339-.789.339-1.1Z" fill="#fff"/>
    <path id="Trazado_1752" data-name="Trazado 1752" d="M204.168,47.624c0,1.713-.545,3.356-2.267,3.356-1.77,0-2.29-1.779-2.29-3.356V37.418c0-1.711.591-3.356,2.29-3.356,1.814,0,2.267,2,2.267,3.356Zm-1.882-10.206c0-.517-.112-.99-.362-.99s-.385.45-.385.99V47.624c0,.608.179.992.385.992.227,0,.362-.473.362-.992Z" fill="#fff"/>
    <path id="Trazado_1753" data-name="Trazado 1753" d="M211.857,50.8h-1.635V41.046c0-.473-.112-.767-.339-.767-.2,0-.316.382-.316.812V50.8h-1.793V38.478h1.793v.655a1.657,1.657,0,0,1,1.223-.835.927.927,0,0,1,.861.9,1.752,1.752,0,0,1,1.408-.9c1.132,0,1.132,1.668,1.132,2.411V50.8h-1.656v-9.71c0-.473-.091-.812-.341-.812s-.337.541-.337.812Z" fill="#fff"/>
    <path id="Trazado_1754" data-name="Trazado 1754" d="M219.272,44.853c-.069,1.306-.657,3.042-2.2,3.042h-.114a1.1,1.1,0,0,0-.135.541c0,.45.566.676.907.765a2.654,2.654,0,0,1,1.36.7,3.207,3.207,0,0,1,.7,2.164c0,1.645-.7,3.153-2.562,3.153a2.2,2.2,0,0,1-2.4-2.387,2.377,2.377,0,0,1,1.179-1.87h.023a1.669,1.669,0,0,1-.975-1.647,2.758,2.758,0,0,1,.932-1.846,4.548,4.548,0,0,1-.861-2.68V41.429c.021-1.306.543-3.131,2.063-3.131a1.471,1.471,0,0,1,1.4.765,1.831,1.831,0,0,1,1.429-.765v2.027a1.046,1.046,0,0,0-.84.271,1.911,1.911,0,0,1,.091.539Zm-2.313,6.557a1.509,1.509,0,0,0-.408,1.035c0,.473.2.857.7.857a.822.822,0,0,0,.838-.835.849.849,0,0,0-.589-.878Zm.566-10c0-.5-.044-1.128-.337-1.128-.229,0-.3.676-.3,1.128V44.9c0,.428.069,1.1.3,1.1.293,0,.337-.789.337-1.1Z" fill="#fff"/>
    <g id="Grupo_289" data-name="Grupo 289">
      <path id="Trazado_1755" data-name="Trazado 1755" d="M214.806,67.767c-.177,0-.225.112-.274.225a.466.466,0,0,0-.015.208v3.415a.45.45,0,0,0,.112.367.212.212,0,0,0,.177.081c.145,0,.194-.114.242-.225a.873.873,0,0,0,.034-.223V68.2a.664.664,0,0,0-.114-.369C214.936,67.783,214.888,67.767,214.806,67.767Z" fill="#fff"/>
      <path id="Trazado_1756" data-name="Trazado 1756" d="M210.548,65.717V62.3a.675.675,0,0,0-.114-.371.17.17,0,0,0-.16-.062c-.179,0-.227.112-.274.223a.448.448,0,0,0-.017.21v3.415c-.015.174.017.432.291.432C210.516,66.149,210.548,65.892,210.548,65.717Z" fill="#fff"/>
      <path id="Trazado_1757" data-name="Trazado 1757" d="M205.7,62.623a.541.541,0,0,0-.518.432,1.257,1.257,0,0,0-.063.433v6.941a1.008,1.008,0,0,0,.242.736.461.461,0,0,0,.339.131.506.506,0,0,0,.514-.435,1.074,1.074,0,0,0,.065-.432V63.488a1.078,1.078,0,0,0-.225-.738A.508.508,0,0,0,205.7,62.623Z" fill="#fff"/>
      <path id="Trazado_1758" data-name="Trazado 1758" d="M230.707,12.709a30.892,30.892,0,0,0-43.426,0,.991.991,0,0,0-.3.7V70.147a.994.994,0,0,0,.3.7,30.885,30.885,0,0,0,43.426,0,1,1,0,0,0,.293-.7V13.413A1,1,0,0,0,230.707,12.709ZM208.02,70.429a3.19,3.19,0,0,1-.29,1.283,2.226,2.226,0,0,1-.693.865,2.092,2.092,0,0,1-1.339.4,2.14,2.14,0,0,1-1.356-.4,2.2,2.2,0,0,1-.678-.865,3.254,3.254,0,0,1-.29-1.283V63.488a3.239,3.239,0,0,1,.29-1.266A2.044,2.044,0,0,1,205.7,60.94a2.185,2.185,0,0,1,1.339.4,2.26,2.26,0,0,1,.693.882,3.173,3.173,0,0,1,.29,1.266Zm1.139-4.022a1.5,1.5,0,0,1-.145-.689V62.3a1.422,1.422,0,0,1,.532-1.157,1.066,1.066,0,0,1,.728-.206,1.127,1.127,0,0,1,1.08.687,1.69,1.69,0,0,1,.16.676v3.415a1.488,1.488,0,0,1-.532,1.17,1.044,1.044,0,0,1-.709.208A1.119,1.119,0,0,1,209.159,66.406Zm.663,6.443,4.355-11.783h1.033L210.9,72.85Zm6.226-1.234a1.458,1.458,0,0,1-.532,1.153,1.046,1.046,0,0,1-.711.208,1.146,1.146,0,0,1-1.113-.672,1.5,1.5,0,0,1-.145-.689V68.2a1.443,1.443,0,0,1,.532-1.17,1.064,1.064,0,0,1,.726-.21,1.123,1.123,0,0,1,1.08.691,1.85,1.85,0,0,1,.162.689Zm12.946-1.887a28.707,28.707,0,0,1-2.3,1.991,17.691,17.691,0,0,0-35.379.011,28.757,28.757,0,0,1-2.32-2v-55.9a28.873,28.873,0,0,1,40,0Z" fill="#fff"/>
    </g>
    <g id="Grupo_290" data-name="Grupo 290">
      <path id="Trazado_1759" data-name="Trazado 1759" d="M167.033,67.495c-.175,0-.225.112-.272.223a.439.439,0,0,0-.017.208v3.415a.453.453,0,0,0,.114.369.207.207,0,0,0,.175.079c.147,0,.194-.112.242-.225a.873.873,0,0,0,.034-.223V67.926a.654.654,0,0,0-.114-.369C167.164,67.51,167.114,67.495,167.033,67.495Z" fill="#fff"/>
      <path id="Trazado_1760" data-name="Trazado 1760" d="M162.775,65.443V62.028a.668.668,0,0,0-.112-.369.17.17,0,0,0-.16-.062c-.179,0-.229.11-.276.223a.437.437,0,0,0-.017.208v3.415c-.015.176.017.432.293.432C162.744,65.875,162.775,65.619,162.775,65.443Z" fill="#fff"/>
      <path id="Trazado_1761" data-name="Trazado 1761" d="M183.754,12.709a30.879,30.879,0,0,0-43.424,0,1,1,0,0,0-.293.7V70.147a1,1,0,0,0,.293.7,30.85,30.85,0,0,0,43.424,0,.992.992,0,0,0,.293-.7V13.413A.989.989,0,0,0,183.754,12.709ZM160.344,69.9a5.263,5.263,0,0,1-.291,1.346,2.294,2.294,0,0,1-1.015,1.251,1.886,1.886,0,0,1-.935.208,1.946,1.946,0,0,1-1.968-1.266,5.934,5.934,0,0,1-.341-2.26H157.5a5.78,5.78,0,0,0,.145,1.588c.1.318.242.415.452.415.274,0,.419-.206.484-.5a5.034,5.034,0,0,0,.063-.994c0-.369,0-.706.017-1.011a1.3,1.3,0,0,0-.484-1.219,1.927,1.927,0,0,0-.855-.206h-.145V65.81c.724-.047,1.065-.191,1.21-.528a1.406,1.406,0,0,0,.112-.625v-.946a5.27,5.27,0,0,0-.063-1.009c-.065-.3-.211-.515-.484-.515-.211,0-.341.1-.4.4a7.19,7.19,0,0,0-.114,1.6h-1.709a6.314,6.314,0,0,1,.307-2.275,1.876,1.876,0,0,1,1.92-1.249,2,2,0,0,1,1.951,1.153,3.34,3.34,0,0,1,.307,1.378c0,1.747-.307,2.582-.838,3.11l-.017.017c.84.655,1,1.874,1,3.237A3.293,3.293,0,0,1,160.344,69.9Zm1.044-3.767a1.492,1.492,0,0,1-.147-.689V62.028a1.414,1.414,0,0,1,.533-1.155,1.066,1.066,0,0,1,.728-.206,1.126,1.126,0,0,1,1.08.687,1.713,1.713,0,0,1,.16.674v3.415a1.491,1.491,0,0,1-.532,1.17,1.044,1.044,0,0,1-.709.208A1.115,1.115,0,0,1,161.388,66.132Zm.661,6.445L166.4,60.794h1.033l-4.306,11.783Zm6.228-1.236a1.476,1.476,0,0,1-.532,1.155,1.049,1.049,0,0,1-.713.208,1.144,1.144,0,0,1-1.111-.674,1.492,1.492,0,0,1-.147-.689V67.926a1.447,1.447,0,0,1,.533-1.17,1.062,1.062,0,0,1,.724-.208,1.125,1.125,0,0,1,1.082.689,1.906,1.906,0,0,1,.162.689Zm13.767-1.611a28.808,28.808,0,0,1-2.3,1.987,17.691,17.691,0,0,0-35.379.011,28.8,28.8,0,0,1-2.319-2v-55.9a28.865,28.865,0,0,1,40,0Z" fill="#fff"/>
    </g>
  </g>
</svg>
