<svg xmlns="http://www.w3.org/2000/svg" width="70.861" height="66.821" viewBox="0 0 70.861 66.821">
  <g id="sello_plants_protein" transform="translate(0 4.023)">
    <g id="Grupo_283" data-name="Grupo 283" transform="translate(0 -4.024)">
      <g id="Trazado_1673" data-name="Trazado 1673" transform="translate(4.352 0)" fill="#171717">
        <path d="M 33.0981559753418 66.57070159912109 C 28.62142562866211 66.57070159912109 24.27874565124512 65.69397735595703 20.19072532653809 63.96490097045898 C 16.24204444885254 62.29475021362305 12.69571495056152 59.90373229980469 9.65024471282959 56.85826110839844 C 6.604774951934814 53.81278991699219 4.213755130767822 50.26646041870117 2.543605089187622 46.31777954101562 C 0.8145250082015991 42.22977066040039 -0.06219498068094254 37.88708114624023 -0.06219498068094254 33.41035079956055 C -0.06219498068094254 32.26140975952148 -0.7794649600982666 31.02633094787598 -1.473124980926514 29.8319206237793 C -2.206325054168701 28.56941986083984 -2.898864984512329 27.37693023681641 -2.492094993591309 26.65314102172852 C -2.148804903030396 26.04228019714355 -0.9779449701309204 25.71198081970215 0.987945020198822 25.67140007019043 L 1.19492506980896 25.6671199798584 L 1.229315042495728 25.46298027038574 C 1.792005062103271 22.12247085571289 3.080904960632324 18.85674095153809 5.060194969177246 15.7564811706543 C 6.971724987030029 12.76235103607178 9.434604644775391 10.06077098846436 12.38041496276855 7.726770877838135 C 15.32907485961914 5.390511035919189 18.59751510620117 3.552640914916992 22.09493446350098 2.264220714569092 C 25.72297477722168 0.9276807904243469 29.42499542236328 0.2500008046627045 33.0981559753418 0.2500008046627045 C 37.57488632202148 0.2500008046627045 41.91757583618164 1.126720786094666 46.00558471679688 2.855800867080688 C 49.95426559448242 4.525950908660889 53.50059509277344 6.916970729827881 56.54606628417969 9.962440490722656 C 59.59153366088867 13.00791072845459 61.9825553894043 16.55424118041992 63.65270614624023 20.50292015075684 C 65.38178253173828 24.5909309387207 66.25850677490234 28.93362045288086 66.25850677490234 33.41035079956055 C 66.25850677490234 37.88708114624023 65.38178253173828 42.22977066040039 63.65270614624023 46.31777954101562 C 61.9825553894043 50.26646041870117 59.59153366088867 53.81278991699219 56.54606628417969 56.85826110839844 C 53.50059509277344 59.90373229980469 49.95426559448242 62.29475021362305 46.00558471679688 63.96490097045898 C 41.91757583618164 65.69397735595703 37.57488632202148 66.57070159912109 33.0981559753418 66.57070159912109 Z" stroke="none"/>
        <path d="M 33.09815216064453 0.5 C 29.45457458496094 0.5 25.78163528442383 1.172500610351562 22.18135452270508 2.498809814453125 C 18.70881652832031 3.778060913085938 15.46354675292969 5.602931976318359 12.53567504882812 7.922710418701172 C 9.611675262451172 10.23942184448242 7.167453765869141 12.92034912109375 5.270904541015625 15.8910026550293 C 3.309764862060547 18.96282196044922 2.032924652099609 22.19726943969727 1.475826263427734 25.50450134277344 L 1.407054901123047 25.91279983520508 L 0.9930953979492188 25.92134094238281 C -1.337566375732422 25.96945953369141 -2.070075988769531 26.41246032714844 -2.274166107177734 26.77561950683594 C -2.610954284667969 27.3748893737793 -1.922615051269531 28.56014251708984 -1.256946563720703 29.70637130737305 C -0.5466537475585938 30.92940139770508 0.18780517578125 32.1940803527832 0.18780517578125 33.41035079956055 C 0.18780517578125 37.85343933105469 1.057876586914062 42.16336059570312 2.773853302001953 46.22039031982422 C 4.431404113769531 50.1392707824707 6.804435729980469 53.65888977050781 9.8270263671875 56.68148040771484 C 12.84961318969727 59.70407104492188 16.36923599243164 62.07710266113281 20.28811645507812 63.73464965820312 C 24.34514617919922 65.45063018798828 28.65506553649902 66.32070159912109 33.09815216064453 66.32070159912109 C 37.54124450683594 66.32070159912109 41.85116577148438 65.45063018798828 45.90819549560547 63.73464965820312 C 49.82707595825195 62.07710266113281 53.34669494628906 59.70407104492188 56.36928558349609 56.68148040771484 C 59.39187622070312 53.65888977050781 61.76489639282227 50.1392707824707 63.42244338989258 46.22039031982422 C 65.138427734375 42.16336059570312 66.00849151611328 37.85343933105469 66.00849151611328 33.41035079956055 C 66.00849151611328 28.96726226806641 65.138427734375 24.65734100341797 63.42244338989258 20.60031127929688 C 61.76489639282227 16.68143081665039 59.39187622070312 13.16181182861328 56.36928558349609 10.13922119140625 C 53.34669494628906 7.116630554199219 49.82707595825195 4.743598937988281 45.90819549560547 3.086051940917969 C 41.85116577148438 1.370071411132812 37.54124450683594 0.5 33.09815216064453 0.5 M 33.09815216064453 0 C 51.55018615722656 0 66.50849151611328 14.95832061767578 66.50849151611328 33.41035079956055 C 66.50849151611328 51.86238098144531 51.55018615722656 66.82070159912109 33.09815216064453 66.82070159912109 C 14.64612579345703 66.82070159912109 -0.31219482421875 51.86238098144531 -0.31219482421875 33.41035079956055 C -0.31219482421875 30.12589263916016 -6.835376739501953 25.58283996582031 0.9827766418457031 25.42145156860352 C 3.309543609619141 11.60835266113281 17.93058395385742 0 33.09815216064453 0 Z" stroke="none" fill="#fff"/>
      </g>
      <path id="Trazado_1589" data-name="Trazado 1589" d="M34.283,4.437A25.094,25.094,0,0,1,48.836,9.061c.939.657,1.1,1.313.541,2.174-.509.784-1.21.872-2.154.223A25.988,25.988,0,0,0,31.313,6.706c-6.465.194-11.8,2.92-16.345,7.355a19.966,19.966,0,0,0-4.9,7.018c-.106.27-.188.628-.565.464-.345-.151-.209-.486-.1-.752a19.45,19.45,0,0,1,2.348-4.109c4.26-5.7,9.58-9.879,16.627-11.576a24,24,0,0,1,5.9-.668" transform="translate(4.172 5.578)" fill="#fff"/>
      <path id="Trazado_1590" data-name="Trazado 1590" d="M34.651,3.419c-.275.594-.557,1.186-.826,1.783-.13.287-.3.52-.651.384-.391-.151-.381-.458-.235-.784.425-.941.855-1.88,1.28-2.82.138-.3.3-.574.7-.49s.541.37.587.748c.107.877.229,1.752.383,2.893.39-.838.684-1.445.957-2.062.143-.329.319-.568.71-.387s.323.491.181.8q-.622,1.372-1.245,2.742c-.135.3-.3.593-.688.529a.724.724,0,0,1-.617-.72c-.107-.877-.238-1.748-.358-2.623l-.177,0" transform="translate(14.758 4.248)" fill="#fff"/>
      <path id="Trazado_1591" data-name="Trazado 1591" d="M14.369,7.251a7.775,7.775,0,0,0-1.194-1.542c-.21-.274-.383-.541-.048-.82s.578-.072.8.186c.658.761,1.322,1.517,1.973,2.286.2.236.435.477.186.835a.724.724,0,0,1-.917.238,14.171,14.171,0,0,0-2.577-.591c.412.483.819.965,1.23,1.445.222.258.4.541.084.825s-.577.1-.807-.168Q12.082,8.771,11.06,7.6c-.206-.235-.339-.488-.142-.777a.693.693,0,0,1,.826-.284,14.941,14.941,0,0,0,2.625.709" transform="translate(4.862 5.722)" fill="#fff"/>
      <path id="Trazado_1592" data-name="Trazado 1592" d="M24.017,1.681c-.623.733.27,1.277.4,1.965.065.325.378.672-.093.878-.51.222-.761-.136-.852-.567-.167-.79-.594-.948-1.32-.7-.336.116-.5.21-.374.584a5.552,5.552,0,0,1,.178.755.469.469,0,0,1-.367.591A.448.448,0,0,1,21,4.828q-.4-1.635-.761-3.275c-.083-.375.1-.6.481-.672.648-.133,1.286-.326,1.939-.412a1.162,1.162,0,0,1,1.352,1.212m-1.642-.407c-.265.265-.955-.128-1.016.541-.025.267-.057.825.419.755s1.184.032,1.259-.73c.035-.351-.22-.565-.662-.565" transform="translate(9.087 3.79)" fill="#fff"/>
      <path id="Trazado_1593" data-name="Trazado 1593" d="M23.32,2.144A2.043,2.043,0,0,1,25.588,0a2.109,2.109,0,0,1,2.1,2.341,2.142,2.142,0,0,1-2.257,2.2,2.084,2.084,0,0,1-2.11-2.4m3.357.236c.016-.955-.454-1.573-1.194-1.571a1.186,1.186,0,0,0-1.178,1.3c-.016.965.433,1.59,1.154,1.6.762.013,1.2-.471,1.219-1.332" transform="translate(10.478 3.585)" fill="#fff"/>
      <path id="Trazado_1594" data-name="Trazado 1594" d="M37.976,3.152a2.458,2.458,0,0,1,2.057,1.481c.1.325.129.661-.268.787-.358.117-.516-.132-.593-.448a1.276,1.276,0,0,0-.132-.409,1.14,1.14,0,0,0-.828-.554.361.361,0,0,0-.412.248c-.1.371.216.558.419.788a8.045,8.045,0,0,1,.745.832A1.241,1.241,0,0,1,37.932,7.8,2.619,2.619,0,0,1,35.777,6.3c-.125-.377-.175-.809.275-.948.483-.151.546.29.583.635a.974.974,0,0,0,.506.758c.27.165.578.333.859.029.3-.326.046-.575-.164-.816-.283-.323-.588-.629-.852-.968a1.007,1.007,0,0,1-.062-1.209,1.164,1.164,0,0,1,1.054-.632" transform="translate(16.036 5.001)" fill="#fff"/>
      <path id="Trazado_1595" data-name="Trazado 1595" d="M32.525,1.638c-.419-.1-.839-.194-1.257-.3-.348-.09-.575-.075-.688.367-.12.474.174.452.452.516.364.086.725.18,1.087.27.22.054.375.184.349.417-.032.293-.252.367-.507.323a7.574,7.574,0,0,1-1.094-.233c-.37-.122-.558-.083-.671.341s.019.565.413.635c.48.087.954.214,1.425.342.251.068.409.242.323.515a.379.379,0,0,1-.48.264c-.813-.18-1.626-.358-2.433-.559a.5.5,0,0,1-.368-.675q.35-1.554.716-3.106a.525.525,0,0,1,.719-.417c.728.168,1.455.333,2.181.513.274.068.491.219.394.549-.083.284-.316.293-.561.243" transform="translate(13.054 3.722)" fill="#fff"/>
      <path id="Trazado_1596" data-name="Trazado 1596" d="M10.061,7.678c1.113.446,2.338.926,3.551,1.43a.407.407,0,0,1,.19.587.443.443,0,0,1-.652.222c-.6-.359-.849.054-1.187.419s-.478.68-.13,1.112a.416.416,0,0,1-.136.661c-.314.2-.549.049-.706-.236-.581-1.052-1.174-2.1-1.72-3.171a.759.759,0,0,1,.791-1.023m.314,1.22-.017-.093c0,.012-.014.028-.012.035a.279.279,0,0,0,.045.048c.141.277.271.561.432.825.093.152.142.468.381.352a1.109,1.109,0,0,0,.5-.562c.1-.277-.229-.272-.386-.332-.3-.117-.57-.4-.944-.272" transform="translate(4.135 7.035)" fill="#fff"/>
      <path id="Trazado_1597" data-name="Trazado 1597" d="M7.772,11.991A1.4,1.4,0,0,1,9.232,13.73a2.086,2.086,0,0,1-.225.557c-.317.538-.346.955.393,1.12a1.189,1.189,0,0,1,.384.19.451.451,0,0,1,.165.6.414.414,0,0,1-.567.248q-1.62-.7-3.222-1.438a.523.523,0,0,1-.229-.338,4.383,4.383,0,0,1,1.574-2.619c.107-.033.22-.052.267-.064m.086,2.738a1.7,1.7,0,0,0,.523-1.107.518.518,0,0,0-.638-.6,1.119,1.119,0,0,0-.771,1.113c-.029.371.568.345.886.594" transform="translate(2.662 8.973)" fill="#fff"/>
      <path id="Trazado_1598" data-name="Trazado 1598" d="M19.764,1.287a1.258,1.258,0,0,1,1.258.89,1.224,1.224,0,0,1-.355,1.483,2.259,2.259,0,0,1-.826.441c-.625.159-.771.449-.454,1.023.178.322.361.754-.122.959-.552.238-.658-.262-.8-.629-.342-.851-.675-1.706-1.02-2.557-.183-.454-.1-.78.388-.951a10.441,10.441,0,0,1,1.935-.659m-.777,2.329c.455-.249,1.071-.229,1.133-.852a.505.505,0,0,0-.586-.58c-.394.052-.942.061-1.017.548a.873.873,0,0,0,.47.884" transform="translate(7.796 4.163)" fill="#fff"/>
      <path id="Trazado_1599" data-name="Trazado 1599" d="M27.579,2.554a6.438,6.438,0,0,1,.078-.77c.133-.619,0-.977-.73-.935-.283.016-.617-.08-.581-.475s.371-.383.659-.364Q28.253.089,29.5.193c.312.026.7.03.644.49-.046.361-.383.442-.668.367-.751-.2-.793.27-.826.8-.043.687-.1,1.374-.158,2.061-.029.357-.161.629-.577.574-.361-.048-.441-.312-.413-.636.036-.429.059-.859.088-1.29Z" transform="translate(11.837 3.586)" fill="#fff"/>
      <path id="Trazado_1600" data-name="Trazado 1600" d="M16.013,3.047a.428.428,0,0,1,.478.261.364.364,0,0,1-.2.5c-1.071.425-.545.977-.159,1.545.339.5.645,1.019.972,1.526a.447.447,0,0,1-.09.678.46.46,0,0,1-.735-.141c-.445-.671-.891-1.342-1.294-2.039-.241-.416-.452-.5-.848-.181-.254.207-.616.487-.894.075-.3-.438.158-.587.426-.765C14.287,4.1,14.92,3.7,15.552,3.3c.168-.106.348-.193.461-.254" transform="translate(5.905 4.953)" fill="#fff"/>
      <path id="Trazado_1601" data-name="Trazado 1601" d="M12.036,11.482c-.31.522-.667,1.177-1.08,1.794-.168.251-.464.157-.7.02-.9-.512-1.8-1.019-2.7-1.533-.3-.172-.512-.407-.293-.77s.523-.267.822-.1c.649.37,1.313.717,1.941,1.117.4.257.648.243.852-.22a3.761,3.761,0,0,1,.506-.8.341.341,0,0,1,.464-.087c.17.1.241.236.191.574" transform="translate(3.222 8.412)" fill="#fff"/>
      <path id="Trazado_1602" data-name="Trazado 1602" d="M32.057,5.25c-.367-.1-.541-.319-.416-.7q.52-1.594,1.057-3.18a.485.485,0,0,1,.664-.367c.357.119.384.4.288.7-.338,1.035-.688,2.064-1.032,3.1a.568.568,0,0,1-.561.446" transform="translate(14.199 4.02)" fill="#fff"/>
      <path id="Trazado_1603" data-name="Trazado 1603" d="M60.463,15.7c-.191-.326-.328-.725-.775-.852a1.658,1.658,0,0,0,.029,1.051,27.987,27.987,0,0,0,1.255,3.662A23.418,23.418,0,0,1,61.2,33.98C58.465,43.6,52.29,49.737,42.485,51.53,32.885,53.283,25.027,49.814,19.15,42a13.758,13.758,0,0,1-2.562-5.041c-.525-2.2.322-3.493,2.544-3.938,1.72-.343,3.435-.71,5.115-1.22a21.844,21.844,0,0,0,7.277-3.433.437.437,0,0,0,.349-.284c.2-.145.406-.288.607-.435.083-.081.167-.159.249-.241l.025-.028a.674.674,0,0,0,.429-.319,3.887,3.887,0,0,0,1.064-1.09q.628-.752,1.259-1.5a6.7,6.7,0,0,0,1.084-1.546c2.626-4.507,3.367-9.468,3.494-14.577.012-.471-.175-.584-.607-.58a32.383,32.383,0,0,0-13.509,2.636A17.543,17.543,0,0,0,16.493,20.6,14.052,14.052,0,0,0,15.57,23.7a21.152,21.152,0,0,0-.73,5.339c-.519-.022-.413-.465-.487-.759a12.888,12.888,0,0,0-1.332-4.106,6.976,6.976,0,0,0-1.944-2.781,2.039,2.039,0,0,0-.828-.809,1.019,1.019,0,0,0-.157-.2C7.231,18.237,3.893,17.8.458,17.7c-.488-.014-.461.307-.457.638a20.7,20.7,0,0,0,.372,3.515,14.69,14.69,0,0,0,3.833,8.135,12.852,12.852,0,0,0,4.9,2.638,9.341,9.341,0,0,1,5.783,5.648,23.062,23.062,0,0,0,2.162,4.31A25.54,25.54,0,0,0,60.463,15.7M35.775,10.184c-.21.319-.546.307-.83.394C26.615,13.113,21.114,18.5,18.557,26.846c-.252.819-.315,1.694-.494,2.536-.08.368-.064.933-.63.854s-.529-.607-.486-1.042c.077-.742.183-1.483.278-2.225L18.3,23.855a.847.847,0,0,1-.122-.284.847.847,0,0,0,.122.284c3.168-6.7,12.868-14.312,17.476-13.671M18.225,22.69c-.009.1-.023.2-.038.3.014-.1.029-.2.038-.3.043-.435.07-.78.068-1.054,0,.274-.025.619-.068,1.054m-.07.59c0,.049,0,.1,0,.146,0-.049,0-.1,0-.146M10,20.587l-.738.007L10,20.587m-1.722,0c.162.007.328.01.491.012-.164,0-.329,0-.491-.012-.058,0-.113,0-.164,0,.051,0,.106,0,.164,0m-.654.967c0-.057,0-.114,0-.171,0,.057,0,.114,0,.171m-.012-.515a1.011,1.011,0,0,0,0,.174c0,.036.006.074.007.113,0-.039,0-.077-.007-.113a1.011,1.011,0,0,1,0-.174m5.073,9.708c-.572.2-.625-.33-.742-.7a13.679,13.679,0,0,0-2.423-4.683L8.98,26.7l.543-1.333a8.2,8.2,0,0,0-1.77-2.112c-.039.262-.067.523-.088.787-.032.393-.046.788-.051,1.183q0,.2,0,.4,0-.2,0-.4c0-.394.019-.79.051-1.183.022-.264.049-.525.088-.787a12.633,12.633,0,0,0-3.923-3.177c-.174-.1-.364-.172-.538-.27s-.442-.139-.3-.416.351-.091.522-.014a16.6,16.6,0,0,1,3.4,2.025c.226.174.467.33.7.494,0-.057,0-.113,0-.171,0,.058,0,.114,0,.171q1.161,1.078,2.322,2.155l1.835,2.578c.275.519.548,1.041.823,1.559.154.49.313.977.462,1.468.138.451.122.917-.371,1.09m.959-1.123c-.017-.062-.036-.122-.058-.183.022.061.041.12.058.183a.682.682,0,0,0,.142.287.682.682,0,0,1-.142-.287m1.477.468a.225.225,0,0,0,.08-.048.225.225,0,0,1-.08.048m.17-.3a.8.8,0,0,0-.164-.461.8.8,0,0,1,.164.461m.535-5.458a3.991,3.991,0,0,0,.3.6,3.612,3.612,0,0,1,.338.807,3.612,3.612,0,0,0-.338-.807,3.991,3.991,0,0,1-.3-.6" transform="translate(0 7.075)" fill="#fff"/>
      <path id="Trazado_1604" data-name="Trazado 1604" d="M35.058,9.851a17.536,17.536,0,0,1,7.731,5,.814.814,0,0,1,.067,1.291c-1.817,2.377-3.594,4.784-5.364,7.194a23.09,23.09,0,0,1-2.07,2.629,9.212,9.212,0,0,1-4.341,2.184,22.2,22.2,0,0,0-8.957,4.436,11.738,11.738,0,0,0-4.267,6.612,3.7,3.7,0,0,0,1.406,3.986,10.671,10.671,0,0,0,3.035,1.6c6.536,2.135,14.544-2.771,15.86-9.7.293-1.539.106-3.1.338-4.644a5.853,5.853,0,0,1,1.094-3.126c1.936-2.206,3.945-4.345,5.928-6.507.13-.142.23-.39.457-.345.278.055.248.349.3.559a35.73,35.73,0,0,1,.772,8.429c.012.886.638,1.344,1.417.942a1.473,1.473,0,0,0,.91-1.438,30.027,30.027,0,0,0-.37-4.2,1.867,1.867,0,0,0-.265-1.086A14.1,14.1,0,0,0,47.6,19.529a1.048,1.048,0,0,1,.259-1.287c1.442-1.526,2.858-3.077,4.265-4.635a17.141,17.141,0,0,0,2.332-3.1c.183-.328.6-.754.235-1.067-.346-.294-.746.143-1.057.367A16.436,16.436,0,0,0,50.867,12.4C47.2,16.6,43.53,20.806,39.9,25.042A9.964,9.964,0,0,0,37.3,30.086c-.157,1.081-.352,2.155-.548,3.231-1.32,7.235-8.947,9.947-13.886,8.823-1.936-.438-2.644-1.286-2.333-3.255A9.518,9.518,0,0,1,26.3,31.26a47.7,47.7,0,0,1,4.667-1.529,9.793,9.793,0,0,0,4.8-3.062q4.211-5.241,8.386-10.51,3.089-3.885,6.164-7.778a7.777,7.777,0,0,0,1.3-2.122c.084-.236.207-.533-.049-.72-.275-.2-.491.054-.661.226A14.183,14.183,0,0,0,49.682,7.1q-2.448,3.178-4.852,6.39c-.284.38-.451.53-.923.151a24.687,24.687,0,0,0-6.989-3.858,4.412,4.412,0,0,0-2.5-.351c.119.357.419.362.639.423" transform="translate(7.978 6.04)" fill="#fff"/>
      <path id="Trazado_1605" data-name="Trazado 1605" d="M50.1,32.313a2.079,2.079,0,0,0-.206.277c-6.628,8.9-18.528,9.5-25.417,5.706-3.754-2.068-6.038-5.389-7.707-9.213a13.765,13.765,0,0,0-.725-1.561c-.617-1.035-1.439-1.326-2.293-.875a1.836,1.836,0,0,0-.88,2.6c3.948,8.409,10.818,12.213,19.86,12.615.774-.049,1.552-.065,2.323-.154A21.663,21.663,0,0,0,50.669,32.8c.275-.372.816-.971.432-1.251-.439-.322-.674.464-1,.768" transform="translate(5.681 15.465)" fill="#fff"/>
      <path id="Trazado_1606" data-name="Trazado 1606" d="M44.174,24.8A19.7,19.7,0,0,1,33.436,35.9c-.765.33-1.512.7-2.257,1.072-.464.233-.71.583-.433,1.12A2.213,2.213,0,0,0,33.427,39a23.391,23.391,0,0,0,6.918-5.064,16.676,16.676,0,0,0,4.618-10.373,2.733,2.733,0,0,0-.788,1.238" transform="translate(13.763 14.171)" fill="#fff"/>
      <path id="Trazado_1607" data-name="Trazado 1607" d="M23.791,33.232c-.307.1-.613.2-1.136.367.368.132.478.214.568.2a14.07,14.07,0,0,0,4.622-1.564,11.079,11.079,0,0,0,4.938-5.125c.967-2.345-.649-4.6-3.065-4.142.052.268.242.293.383.378,1.683,1.013,2.052,2.033,1.051,3.722a13.138,13.138,0,0,1-7.36,6.167" transform="translate(10.18 13.877)" fill="#fff"/>
      <rect id="Rectángulo_82" data-name="Rectángulo 82" width="63.895" height="57.487" transform="translate(0 3.585)" fill="none"/>
    </g>
  </g>
</svg>
