<svg xmlns="http://www.w3.org/2000/svg" xmlns:xlink="http://www.w3.org/1999/xlink" width="243.725" height="80.187" viewBox="0 0 243.725 80.187">
  <defs>
    <clipPath id="clip-path">
      <rect id="crop" width="243.725" height="80.187" transform="translate(0 3.786)" fill="none"/>
    </clipPath>
    <clipPath id="clip-path-2">
      <rect id="Rectángulo_86" data-name="Rectángulo 86" width="16.821" height="22.762" fill="none"/>
    </clipPath>
    <clipPath id="clip-path-3">
      <rect id="Rectángulo_87" data-name="Rectángulo 87" width="11.46" height="21.144" fill="none"/>
    </clipPath>
  </defs>
  <g id="skinny_nutri_doy" transform="translate(0 -3.786)" clip-path="url(#clip-path)" style="mix-blend-mode: lighten;isolation: isolate">
    <path id="Trazado_1762" data-name="Trazado 1762" d="M16.747,11.267l.358,4.763.356-4.763h1.031l-.866,9.307H16.583l-.866-9.307Z" transform="translate(0.866 0.412)" fill="#fff"/>
    <path id="Trazado_1763" data-name="Trazado 1763" d="M20.076,15.111c0-.214-.052-.581-.167-.581s-.179.4-.179.581v.455h-.967v-.415c0-.775.342-1.724,1.184-1.724.776,0,1.1.925,1.071,1.568v4.256a8.576,8.576,0,0,0,.062,1.2h-.854a2.3,2.3,0,0,1-.151-.417.758.758,0,0,1-.649.517c-.689,0-.728-1.276-.728-1.71a3.153,3.153,0,0,1,.969-2.494,1.429,1.429,0,0,0,.408-.493Zm-.012,2.167a2.988,2.988,0,0,0-.448,1.556c0,.038,0,.519.179.519s.269-.228.269-.467Z" transform="translate(1.03 0.531)" fill="#fff"/>
    <rect id="Rectángulo_84" data-name="Rectángulo 84" width="1.007" height="9.307" transform="translate(22.978 11.68)" fill="#fff"/>
    <path id="Trazado_1764" data-name="Trazado 1764" d="M25.925,18.772c0,1.062-.269,1.783-1.186,1.783-1.007,0-1.172-.963-1.172-1.821V15.249c0-.959.255-1.821,1.2-1.821,1.019,0,1.162.811,1.162,1.785Zm-.959-3.649c.014-.316-.012-.581-.215-.581-.177,0-.231.242-.231.581v3.735c-.012.282.04.569.219.569.2,0,.241-.453.227-.569Z" transform="translate(1.298 0.531)" fill="#fff"/>
    <path id="Trazado_1765" data-name="Trazado 1765" d="M28.345,14.946c-.6-.342-.852.154-.852.7v4.811h-.979V13.53h.979v.379a.961.961,0,0,1,.852-.481Z" transform="translate(1.461 0.531)" fill="#fff"/>
    <path id="Trazado_1766" data-name="Trazado 1766" d="M8.946,21h2.115V22.4H10v2.442h.764v1.494H10v2.556h1.057V30.3H8.946Z" transform="translate(0.493 0.948)" fill="#fff"/>
    <path id="Trazado_1767" data-name="Trazado 1767" d="M12.756,30.183H11.749V23.257h1.007v.353a1.1,1.1,0,0,1,.675-.457c.637,0,.689.939.689,1.358v5.672h-1v-5.47c0-.266-.064-.443-.191-.443s-.179.19-.179.455Z" transform="translate(0.647 1.067)" fill="#fff"/>
    <path id="Trazado_1768" data-name="Trazado 1768" d="M17.078,27.7v.873c0,.9-.279,1.71-1.26,1.71-.892,0-1.108-.951-1.108-1.747V24.927c0-.823.318-1.771,1.172-1.771,1.069,0,1.2.937,1.2,1.735v2.063H15.691v1.508c0,.28.048.695.191.695.2,0,.241-.455.241-.695V27.7Zm-1.387-1.747h.432v-.975c0-.34-.038-.709-.255-.709-.165,0-.177.505-.177.709Z" transform="translate(0.81 1.067)" fill="#fff"/>
    <path id="Trazado_1769" data-name="Trazado 1769" d="M19.488,24.673c-.6-.342-.852.154-.852.7v4.811h-.981V23.257h.981v.379a.962.962,0,0,1,.852-.483Z" transform="translate(0.973 1.067)" fill="#fff"/>
    <path id="Trazado_1770" data-name="Trazado 1770" d="M22.276,26.842c-.036.733-.368,1.708-1.234,1.708h-.064a.629.629,0,0,0-.076.306c0,.252.318.379.511.427a1.491,1.491,0,0,1,.764.4,1.8,1.8,0,0,1,.4,1.214c0,.925-.4,1.773-1.441,1.773a1.236,1.236,0,0,1-1.351-1.342,1.335,1.335,0,0,1,.663-1.052h.012a.935.935,0,0,1-.547-.923,1.552,1.552,0,0,1,.521-1.038,2.555,2.555,0,0,1-.484-1.508V24.915c.012-.733.306-1.759,1.16-1.759a.828.828,0,0,1,.792.431,1.028,1.028,0,0,1,.8-.431v1.138a.593.593,0,0,0-.472.154,1.068,1.068,0,0,1,.05.306Zm-1.3,3.681a.851.851,0,0,0-.229.585c0,.266.113.481.4.481a.461.461,0,0,0,.47-.469.478.478,0,0,0-.332-.493Zm.32-5.62c0-.278-.026-.631-.193-.631-.127,0-.165.379-.165.631v1.963c0,.242.038.621.165.621.167,0,.193-.445.193-.621Z" transform="translate(1.09 1.067)" fill="#fff"/>
    <path id="Trazado_1771" data-name="Trazado 1771" d="M25.445,27.814v.873c0,.9-.279,1.71-1.26,1.71-.892,0-1.108-.951-1.108-1.747V25.04c0-.823.32-1.771,1.174-1.771,1.067,0,1.194.937,1.194,1.735v2.063H24.058v1.508c0,.28.05.695.193.695.2,0,.241-.455.241-.695v-.761Zm-.2-6.722-.613,1.138h-.816l.408-1.138Zm-1.186,4.975h.434v-.975c0-.34-.04-.709-.255-.709-.167,0-.179.505-.179.709Z" transform="translate(1.271 0.953)" fill="#fff"/>
    <path id="Trazado_1772" data-name="Trazado 1772" d="M27.23,21.63v1.712h.537v1.152H27.23v5.774h-.977V24.493h-.422V23.341h.422V21.63Z" transform="translate(1.423 0.983)" fill="#fff"/>
    <path id="Trazado_1773" data-name="Trazado 1773" d="M28.316,23.378h1.007V30.3H28.316Zm0-2.383h1.007v1.28H28.316Z" transform="translate(1.56 0.948)" fill="#fff"/>
    <path id="Trazado_1774" data-name="Trazado 1774" d="M31.051,28.585c0,.254.062.545.191.545s.2-.126.2-.545v-.959h.969v.795c-.012.973-.09,1.861-1.212,1.861-.993,0-1.158-1.2-1.158-1.923V25.078c.012-.8.215-1.925,1.184-1.925,1.148,0,1.186.965,1.186,1.863v.671h-.969v-.913c0-.417-.076-.505-.191-.505s-.2.254-.2.505Z" transform="translate(1.655 1.067)" fill="#fff"/>
    <path id="Trazado_1775" data-name="Trazado 1775" d="M35.266,28.5c0,1.062-.269,1.783-1.186,1.783-1.007,0-1.172-.963-1.172-1.821V24.977c0-.961.253-1.823,1.2-1.823,1.019,0,1.162.813,1.162,1.787Zm-.959-3.649c.014-.316-.012-.581-.215-.581-.179,0-.231.242-.231.581v3.735c-.012.282.04.569.219.569.2,0,.241-.453.227-.569Z" transform="translate(1.813 1.067)" fill="#fff"/>
    <path id="Trazado_1776" data-name="Trazado 1776" d="M203.97,18.262c0-.328,0-1.356-.205-1.356-.151,0-.175.381-.175.927a6.394,6.394,0,0,0,.623,2.189,7.752,7.752,0,0,1,.8,2.926c0,.885-.167,2.217-1.26,2.217-1.339,0-1.315-1.849-1.315-2.7l1.033-.15c0,.292,0,1.6.281,1.6.189,0,.215-.3.215-.9a7.4,7.4,0,0,0-.842-2.788,7.621,7.621,0,0,1-.571-2.391c0-.811.165-2.153,1.186-2.179,1.222-.024,1.272,1.686,1.272,2.456Z" transform="translate(11.152 0.654)" fill="#fff"/>
    <path id="Trazado_1777" data-name="Trazado 1777" d="M207.964,23.254c0,1.062-.267,1.787-1.184,1.787-1.007,0-1.174-.965-1.174-1.825V19.733c0-.961.255-1.823,1.2-1.823,1.019,0,1.16.813,1.16,1.787Zm-.957-3.647c.014-.316-.012-.583-.215-.583-.179,0-.231.242-.231.583v3.735c-.012.28.038.571.219.571.2,0,.241-.457.227-.571Z" transform="translate(11.326 0.778)" fill="#fff"/>
    <path id="Trazado_1778" data-name="Trazado 1778" d="M210.956,25.057h-1.007v-.379a.962.962,0,0,1-.726.481c-.625,0-.561-.859-.573-1.356V19.385c0-.569.127-1.356.776-1.356a.7.7,0,0,1,.523.393V15.75h1.007ZM209.949,19.6c0-.2-.048-.457-.177-.457s-.181.218-.181.457v3.874c0,.254.04.481.181.481s.177-.24.177-.481Z" transform="translate(11.494 0.659)" fill="#fff"/>
    <path id="Trazado_1779" data-name="Trazado 1779" d="M211.583,18.131h1.007v6.928h-1.007Zm0-2.379h1.007V17.03h-1.007Z" transform="translate(11.656 0.659)" fill="#fff"/>
    <path id="Trazado_1780" data-name="Trazado 1780" d="M215.671,23.254c0,1.062-.269,1.787-1.186,1.787-1.007,0-1.174-.965-1.174-1.825V19.733c0-.961.255-1.823,1.2-1.823,1.019,0,1.162.813,1.162,1.787Zm-.959-3.647c.014-.316-.012-.583-.215-.583-.179,0-.231.242-.231.583v3.735c-.012.28.04.571.219.571.2,0,.241-.457.227-.571Z" transform="translate(11.751 0.778)" fill="#fff"/>
    <path id="Trazado_1781" data-name="Trazado 1781" d="M108.6,14.615V13.059c0-.192-.028-.561-.207-.561-.139,0-.189.33-.189.561v5.848c0,.292.062.557.215.557.229,0,.255-.328.255-.557V17.095h-.227V15.943h1.208v4.635h-.549L109,20.234a.939.939,0,0,1-.7.443c-.947,0-1.16-1.226-1.16-1.885V13.059c0-.837.308-1.887,1.258-1.887,1.021,0,1.262,1.14,1.262,1.887v1.556Z" transform="translate(-43.098 0.407)" fill="#fff"/>
    <path id="Trazado_1782" data-name="Trazado 1782" d="M112.233,14.946c-.6-.342-.852.154-.852.7v4.811H110.4V13.53h.981v.379a.958.958,0,0,1,.852-.481Z" transform="translate(-42.918 0.531)" fill="#fff"/>
    <path id="Trazado_1783" data-name="Trazado 1783" d="M113.926,15.111c0-.214-.052-.581-.167-.581s-.179.4-.179.581v.455h-.967v-.415c0-.775.342-1.724,1.184-1.724.776,0,1.1.925,1.071,1.568v4.256a8.2,8.2,0,0,0,.064,1.2h-.856a2.3,2.3,0,0,1-.151-.417.758.758,0,0,1-.649.517c-.689,0-.728-1.276-.728-1.71a3.153,3.153,0,0,1,.969-2.494,1.429,1.429,0,0,0,.408-.493Zm-.014,2.167a3.007,3.007,0,0,0-.446,1.556c0,.038,0,.519.179.519s.267-.228.267-.467Z" transform="translate(-42.8 0.531)" fill="#fff"/>
    <path id="Trazado_1784" data-name="Trazado 1784" d="M116.937,15.3c0-.216-.04-.811-.231-.811-.165,0-.179.453-.179.721a3,3,0,0,0,.486,1.38,4.332,4.332,0,0,1,.764,2.293c0,.6-.165,1.67-1.158,1.67-1.085,0-1.16-1.176-1.16-2.115h.917c0,.445.062,1.052.243,1.052s.2-.306.2-.835a3.943,3.943,0,0,0-.523-1.494,4.236,4.236,0,0,1-.712-2.091c0-.887.33-1.644,1.094-1.644,1.047,0,1.124,1.188,1.124,1.873Z" transform="translate(-42.64 0.531)" fill="#fff"/>
    <path id="Trazado_1785" data-name="Trazado 1785" d="M119.685,15.111c0-.214-.052-.581-.167-.581s-.177.4-.177.581v.455h-.969v-.415c0-.775.344-1.724,1.184-1.724.778,0,1.1.925,1.073,1.568v4.256a8.271,8.271,0,0,0,.062,1.2h-.854a2.3,2.3,0,0,1-.153-.417.753.753,0,0,1-.649.517c-.687,0-.728-1.276-.728-1.71a3.16,3.16,0,0,1,.969-2.494,1.406,1.406,0,0,0,.408-.493Zm-.014,2.167a3.027,3.027,0,0,0-.444,1.556c0,.038,0,.519.177.519s.267-.228.267-.467Z" transform="translate(-42.483 0.531)" fill="#fff"/>
    <path id="Trazado_1786" data-name="Trazado 1786" d="M122.7,15.3c0-.216-.04-.811-.229-.811-.165,0-.179.453-.179.721a3.019,3.019,0,0,0,.484,1.38,4.35,4.35,0,0,1,.764,2.293c0,.6-.165,1.67-1.16,1.67-1.081,0-1.158-1.176-1.158-2.115h.917c0,.445.064,1.052.241,1.052s.205-.306.205-.835a3.943,3.943,0,0,0-.523-1.494,4.218,4.218,0,0,1-.714-2.091c0-.887.332-1.644,1.1-1.644,1.045,0,1.122,1.188,1.122,1.873Z" transform="translate(-42.322 0.531)" fill="#fff"/>
    <path id="Trazado_1787" data-name="Trazado 1787" d="M106.334,22.4V21h2.613V22.4h-.778v7.9h-1.057V22.4Z" transform="translate(-43.142 0.948)" fill="#fff"/>
    <path id="Trazado_1788" data-name="Trazado 1788" d="M111.447,28.5c0,1.062-.269,1.783-1.184,1.783-1.007,0-1.174-.963-1.174-1.821V24.977c0-.961.255-1.823,1.2-1.823,1.019,0,1.162.813,1.162,1.787Zm-.957-3.649c.014-.316-.012-.581-.215-.581-.179,0-.231.242-.231.581v3.735c-.012.282.038.569.219.569.2,0,.241-.453.227-.569Z" transform="translate(-42.99 1.067)" fill="#fff"/>
    <path id="Trazado_1789" data-name="Trazado 1789" d="M113.245,21.63v1.712h.535v1.152h-.535v5.774h-.981V24.493h-.422V23.341h.422V21.63Z" transform="translate(-42.839 0.983)" fill="#fff"/>
    <path id="Trazado_1790" data-name="Trazado 1790" d="M115.562,24.839c0-.214-.052-.581-.167-.581s-.177.4-.177.581v.455h-.969v-.415c0-.775.344-1.726,1.184-1.726.778,0,1.1.927,1.073,1.57v4.256a8.272,8.272,0,0,0,.062,1.2h-.854a2.323,2.323,0,0,1-.153-.419.752.752,0,0,1-.649.519c-.687,0-.728-1.278-.728-1.71a3.16,3.16,0,0,1,.969-2.494,1.406,1.406,0,0,0,.408-.493Zm-.014,2.167a3.021,3.021,0,0,0-.444,1.556c0,.038,0,.519.177.519s.267-.228.267-.467Z" transform="translate(-42.71 1.067)" fill="#fff"/>
    <rect id="Rectángulo_85" data-name="Rectángulo 85" width="1.007" height="9.307" transform="translate(74.724 21.943)" fill="#fff"/>
    <path id="Trazado_1791" data-name="Trazado 1791" d="M121.421,27.7v.873c0,.9-.277,1.71-1.26,1.71-.892,0-1.108-.951-1.108-1.747V24.927c0-.823.32-1.771,1.174-1.771,1.067,0,1.194.937,1.194,1.735v2.063h-1.387v1.508c0,.28.05.695.193.695.2,0,.241-.455.241-.695V27.7Zm-1.387-1.747h.434v-.975c0-.34-.04-.709-.255-.709-.167,0-.179.505-.179.709Z" transform="translate(-42.442 1.067)" fill="#fff"/>
    <path id="Trazado_1792" data-name="Trazado 1792" d="M123.295,25.028c0-.214-.038-.809-.229-.809-.165,0-.179.453-.179.721a3,3,0,0,0,.486,1.38,4.349,4.349,0,0,1,.764,2.293c0,.6-.165,1.67-1.16,1.67-1.083,0-1.16-1.176-1.16-2.115h.919c0,.445.062,1.052.241,1.052s.2-.306.2-.835a3.943,3.943,0,0,0-.523-1.494,4.238,4.238,0,0,1-.714-2.091c0-.889.332-1.646,1.1-1.646,1.047,0,1.122,1.19,1.122,1.873Z" transform="translate(-42.289 1.067)" fill="#fff"/>
    <path id="Trazado_1793" data-name="Trazado 1793" d="M155.389,14.757V13.2c0-.192-.028-.559-.205-.559-.139,0-.191.33-.191.559v5.848c0,.292.064.557.215.557.231,0,.255-.328.255-.557V17.237h-.229v-1.15h1.21v4.631H155.9l-.115-.34a.943.943,0,0,1-.7.441c-.943,0-1.158-1.228-1.158-1.883V13.2c0-.839.306-1.889,1.26-1.889,1.019,0,1.26,1.142,1.26,1.889v1.556Z" transform="translate(-40.521 0.415)" fill="#fff"/>
    <path id="Trazado_1794" data-name="Trazado 1794" d="M155.389,14.757V13.2c0-.192-.028-.559-.205-.559-.139,0-.191.33-.191.559v5.848c0,.292.064.557.215.557.231,0,.255-.328.255-.557V17.237h-.229v-1.15h1.21v4.631H155.9l-.115-.34a.943.943,0,0,1-.7.441c-.943,0-1.158-1.228-1.158-1.883V13.2c0-.839.306-1.889,1.26-1.889,1.019,0,1.26,1.142,1.26,1.889v1.556Z" transform="translate(8.479 0.415)" fill="#fff"/>
    <path id="Trazado_1795" data-name="Trazado 1795" d="M159.02,15.088c-.6-.344-.854.15-.854.7v4.809h-.981V13.668h.981v.379a.964.964,0,0,1,.854-.479Z" transform="translate(-40.341 0.539)" fill="#fff"/>
    <path id="Trazado_1796" data-name="Trazado 1796" d="M159.02,15.088c-.6-.344-.854.15-.854.7v4.809h-.981V13.668h.981v.379a.964.964,0,0,1,.854-.479Z" transform="translate(8.659 0.539)" fill="#fff"/>
    <path id="Trazado_1797" data-name="Trazado 1797" d="M160.709,15.251c0-.214-.05-.583-.165-.583s-.179.407-.179.583v.457H159.4v-.419c0-.771.344-1.722,1.184-1.722.778,0,1.1.923,1.073,1.57v4.254a8.222,8.222,0,0,0,.062,1.2h-.854a2.232,2.232,0,0,1-.153-.415.75.75,0,0,1-.649.517c-.687,0-.728-1.278-.728-1.71a3.157,3.157,0,0,1,.969-2.494,1.384,1.384,0,0,0,.408-.493Zm-.014,2.165a3.032,3.032,0,0,0-.444,1.556c0,.042,0,.521.177.521s.267-.228.267-.467Z" transform="translate(-40.223 0.539)" fill="#fff"/>
    <path id="Trazado_1798" data-name="Trazado 1798" d="M160.709,15.251c0-.214-.05-.583-.165-.583s-.179.407-.179.583v.457H159.4v-.419c0-.771.344-1.722,1.184-1.722.778,0,1.1.923,1.073,1.57v4.254a8.222,8.222,0,0,0,.062,1.2h-.854a2.232,2.232,0,0,1-.153-.415.75.75,0,0,1-.649.517c-.687,0-.728-1.278-.728-1.71a3.157,3.157,0,0,1,.969-2.494,1.384,1.384,0,0,0,.408-.493Zm-.014,2.165a3.032,3.032,0,0,0-.444,1.556c0,.042,0,.521.177.521s.267-.228.267-.467Z" transform="translate(8.777 0.539)" fill="#fff"/>
    <path id="Trazado_1799" data-name="Trazado 1799" d="M163.722,15.443c0-.216-.04-.811-.229-.811-.165,0-.179.455-.179.719a3.019,3.019,0,0,0,.484,1.382,4.326,4.326,0,0,1,.764,2.293c0,.6-.165,1.67-1.16,1.67-1.081,0-1.158-1.176-1.158-2.115h.917c0,.445.064,1.054.241,1.054s.205-.308.205-.837a3.932,3.932,0,0,0-.523-1.494,4.244,4.244,0,0,1-.714-2.089c0-.887.332-1.646,1.1-1.646,1.045,0,1.122,1.188,1.122,1.873Z" transform="translate(-40.062 0.539)" fill="#fff"/>
    <path id="Trazado_1800" data-name="Trazado 1800" d="M163.722,15.443c0-.216-.04-.811-.229-.811-.165,0-.179.455-.179.719a3.019,3.019,0,0,0,.484,1.382,4.326,4.326,0,0,1,.764,2.293c0,.6-.165,1.67-1.16,1.67-1.081,0-1.158-1.176-1.158-2.115h.917c0,.445.064,1.054.241,1.054s.205-.308.205-.837a3.932,3.932,0,0,0-.523-1.494,4.244,4.244,0,0,1-.714-2.089c0-.887.332-1.646,1.1-1.646,1.045,0,1.122,1.188,1.122,1.873Z" transform="translate(8.938 0.539)" fill="#fff"/>
    <path id="Trazado_1801" data-name="Trazado 1801" d="M166.472,15.251c0-.214-.052-.583-.167-.583s-.179.407-.179.583v.457h-.967v-.419c0-.771.342-1.722,1.184-1.722.778,0,1.1.923,1.071,1.57v4.254a8.145,8.145,0,0,0,.064,1.2h-.856a2.377,2.377,0,0,1-.151-.415.752.752,0,0,1-.649.517c-.689,0-.728-1.278-.728-1.71a3.157,3.157,0,0,1,.969-2.494,1.406,1.406,0,0,0,.408-.493Zm-.014,2.165a3.032,3.032,0,0,0-.446,1.556c0,.042,0,.521.179.521s.267-.228.267-.467Z" transform="translate(-39.905 0.539)" fill="#fff"/>
    <path id="Trazado_1802" data-name="Trazado 1802" d="M166.472,15.251c0-.214-.052-.583-.167-.583s-.179.407-.179.583v.457h-.967v-.419c0-.771.342-1.722,1.184-1.722.778,0,1.1.923,1.071,1.57v4.254a8.145,8.145,0,0,0,.064,1.2h-.856a2.377,2.377,0,0,1-.151-.415.752.752,0,0,1-.649.517c-.689,0-.728-1.278-.728-1.71a3.157,3.157,0,0,1,.969-2.494,1.406,1.406,0,0,0,.408-.493Zm-.014,2.165a3.032,3.032,0,0,0-.446,1.556c0,.042,0,.521.179.521s.267-.228.267-.467Z" transform="translate(9.095 0.539)" fill="#fff"/>
    <path id="Trazado_1803" data-name="Trazado 1803" d="M169.483,15.443c0-.216-.038-.811-.229-.811-.165,0-.177.455-.177.719a3,3,0,0,0,.484,1.382,4.343,4.343,0,0,1,.764,2.293c0,.6-.165,1.67-1.16,1.67-1.083,0-1.16-1.176-1.16-2.115h.919c0,.445.062,1.054.241,1.054s.2-.308.2-.837a3.932,3.932,0,0,0-.523-1.494,4.245,4.245,0,0,1-.714-2.089c0-.887.332-1.646,1.1-1.646,1.047,0,1.122,1.188,1.122,1.873Z" transform="translate(-39.745 0.539)" fill="#fff"/>
    <path id="Trazado_1804" data-name="Trazado 1804" d="M169.483,15.443c0-.216-.038-.811-.229-.811-.165,0-.177.455-.177.719a3,3,0,0,0,.484,1.382,4.343,4.343,0,0,1,.764,2.293c0,.6-.165,1.67-1.16,1.67-1.083,0-1.16-1.176-1.16-2.115h.919c0,.445.062,1.054.241,1.054s.2-.308.2-.837a3.932,3.932,0,0,0-.523-1.494,4.245,4.245,0,0,1-.714-2.089c0-.887.332-1.646,1.1-1.646,1.047,0,1.122,1.188,1.122,1.873Z" transform="translate(9.255 0.539)" fill="#fff"/>
    <path id="Trazado_1805" data-name="Trazado 1805" d="M151.176,23.647c0-.33,0-1.354-.2-1.354-.153,0-.177.381-.177.923a6.366,6.366,0,0,0,.623,2.193,7.7,7.7,0,0,1,.8,2.924c0,.887-.169,2.215-1.262,2.215-1.337,0-1.313-1.849-1.313-2.7l1.031-.154c0,.3,0,1.6.281,1.6.191,0,.215-.3.215-.9a7.377,7.377,0,0,0-.84-2.786,7.576,7.576,0,0,1-.571-2.395c0-.809.163-2.151,1.184-2.177,1.222-.024,1.274,1.684,1.274,2.458Z" transform="translate(-40.756 0.95)" fill="#fff"/>
    <path id="Trazado_1806" data-name="Trazado 1806" d="M154.128,24.981c0-.214-.05-.583-.165-.583s-.179.405-.179.583v.457h-.967v-.419c0-.771.342-1.722,1.182-1.722.778,0,1.1.923,1.073,1.57v4.254a8.524,8.524,0,0,0,.062,1.2h-.854a2.2,2.2,0,0,1-.153-.417.749.749,0,0,1-.647.519c-.689,0-.73-1.278-.73-1.71a3.152,3.152,0,0,1,.971-2.494,1.4,1.4,0,0,0,.406-.493Zm-.012,2.165a3.013,3.013,0,0,0-.446,1.556c0,.042,0,.521.179.521s.267-.228.267-.467Z" transform="translate(-40.585 1.075)" fill="#fff"/>
    <path id="Trazado_1807" data-name="Trazado 1807" d="M157.03,21.772v1.708h.535v1.154h-.535v5.772h-.981V24.634h-.422V23.479h.422V21.772Z" transform="translate(-40.427 0.991)" fill="#fff"/>
    <path id="Trazado_1808" data-name="Trazado 1808" d="M159.43,23.392h1.007v6.926H159.43v-.353a1.108,1.108,0,0,1-.675.455c-.637,0-.687-.935-.687-1.356V23.392h.993v5.47c0,.266.064.443.191.443s.179-.19.179-.455Z" transform="translate(-40.292 1.08)" fill="#fff"/>
    <path id="Trazado_1809" data-name="Trazado 1809" d="M162.967,24.815c-.6-.342-.852.152-.852.7v4.809h-.981V23.4h.981v.379a.963.963,0,0,1,.852-.479Z" transform="translate(-40.123 1.075)" fill="#fff"/>
    <path id="Trazado_1810" data-name="Trazado 1810" d="M164.66,24.981c0-.214-.052-.583-.167-.583s-.177.405-.177.583v.457h-.969v-.419c0-.771.342-1.722,1.184-1.722.778,0,1.1.923,1.071,1.57v4.254a8.146,8.146,0,0,0,.064,1.2h-.854a2.2,2.2,0,0,1-.153-.417.749.749,0,0,1-.649.519c-.689,0-.728-1.278-.728-1.71a3.157,3.157,0,0,1,.969-2.494,1.406,1.406,0,0,0,.408-.493Zm-.014,2.165A3.032,3.032,0,0,0,164.2,28.7c0,.042,0,.521.179.521s.267-.228.267-.467Z" transform="translate(-40.005 1.075)" fill="#fff"/>
    <path id="Trazado_1811" data-name="Trazado 1811" d="M168.78,30.44h-1.007v-.379a.957.957,0,0,1-.728.481c-.625,0-.561-.859-.573-1.354V24.77c0-.571.127-1.354.778-1.354a.7.7,0,0,1,.523.391V21.135h1.007Zm-1.007-5.454c0-.2-.05-.457-.179-.457s-.181.218-.181.457V28.86c0,.252.04.481.181.481s.179-.24.179-.481Z" transform="translate(-39.829 0.956)" fill="#fff"/>
    <path id="Trazado_1812" data-name="Trazado 1812" d="M170.663,24.981c0-.214-.05-.583-.165-.583s-.179.405-.179.583v.457h-.969v-.419c0-.771.344-1.722,1.184-1.722.778,0,1.1.923,1.073,1.57v4.254a8.524,8.524,0,0,0,.062,1.2h-.854a2.2,2.2,0,0,1-.153-.417.749.749,0,0,1-.649.519c-.687,0-.728-1.278-.728-1.71a3.152,3.152,0,0,1,.971-2.494,1.4,1.4,0,0,0,.406-.493Zm-.014,2.165A3.032,3.032,0,0,0,170.2,28.7c0,.042,0,.521.177.521s.267-.228.267-.467Z" transform="translate(-39.674 1.075)" fill="#fff"/>
    <path id="Trazado_1813" data-name="Trazado 1813" d="M173.675,25.17c0-.216-.04-.811-.229-.811-.165,0-.179.453-.179.719a3.019,3.019,0,0,0,.484,1.382,4.326,4.326,0,0,1,.764,2.293c0,.6-.163,1.67-1.158,1.67-1.083,0-1.16-1.176-1.16-2.115h.919c0,.445.062,1.054.241,1.054s.2-.308.2-.837a3.932,3.932,0,0,0-.523-1.494,4.245,4.245,0,0,1-.714-2.091c0-.887.332-1.644,1.1-1.644,1.047,0,1.122,1.188,1.122,1.873Z" transform="translate(-39.514 1.075)" fill="#fff"/>
    <g id="Grupo_291" data-name="Grupo 291" transform="translate(-0.121 3.786)">
      <path id="Trazado_1814" data-name="Trazado 1814" d="M26.9,67.495c-.187,0-.237.118-.289.236a.491.491,0,0,0-.018.22v3.6a.485.485,0,0,0,.121.389.222.222,0,0,0,.187.084c.153,0,.2-.118.255-.238a.924.924,0,0,0,.034-.236v-3.6a.7.7,0,0,0-.119-.389C27.037,67.511,26.986,67.495,26.9,67.495Z" transform="translate(1.585 -0.277)" fill="#fff"/>
      <path id="Trazado_1815" data-name="Trazado 1815" d="M46.014,13.2A32.58,32.58,0,0,0,.2,13.2a1.046,1.046,0,0,0-.312.743V73.8a1.049,1.049,0,0,0,.312.743,32.584,32.584,0,0,0,45.816,0,1.047,1.047,0,0,0,.31-.743V13.943A1.044,1.044,0,0,0,46.014,13.2ZM21.329,73.253a4.752,4.752,0,0,1-.358,2.045,2.077,2.077,0,0,1-2.042,1.2,2,2,0,0,1-2.044-1.268,6.38,6.38,0,0,1-.358-2.486h1.839v.489a4.561,4.561,0,0,0,.119,1.3c.086.254.221.373.444.373a.461.461,0,0,0,.424-.355,4.4,4.4,0,0,0,.137-1.3V70.479c0-.523-.187-.913-.579-.913a.679.679,0,0,0-.511.338,1.179,1.179,0,0,0-.205.575H16.648V63.935H21.09v1.809H18.23v2.588a2.388,2.388,0,0,1,.681-.371.7.7,0,0,1,.374-.052,1.805,1.805,0,0,1,1.739,1.134,3.773,3.773,0,0,1,.306,1.436Zm1.083-3.687a1.575,1.575,0,0,1-.153-.727v-3.6a1.491,1.491,0,0,1,.561-1.218,1.125,1.125,0,0,1,.768-.218,1.186,1.186,0,0,1,1.14.725,1.807,1.807,0,0,1,.169.711v3.6a1.573,1.573,0,0,1-.561,1.234,1.1,1.1,0,0,1-.748.22A1.178,1.178,0,0,1,22.413,69.566Zm.7,6.8,4.6-12.432H28.8L24.252,76.367Zm6.569-1.3a1.552,1.552,0,0,1-.561,1.218,1.1,1.1,0,0,1-.75.22,1.21,1.21,0,0,1-1.174-.711,1.575,1.575,0,0,1-.153-.727v-3.6a1.525,1.525,0,0,1,.561-1.234,1.122,1.122,0,0,1,.766-.22,1.186,1.186,0,0,1,1.14.727,2.011,2.011,0,0,1,.171.727Zm14.525-1.7a29.527,29.527,0,0,1-2.43,2.1,18.666,18.666,0,0,0-37.328.012A30.233,30.233,0,0,1,2,73.361V14.384a30.455,30.455,0,0,1,42.2,0Z" transform="translate(0.114 -3.786)" fill="#fff"/>
      <path id="Trazado_1816" data-name="Trazado 1816" d="M22.655,65.655v-3.6a.7.7,0,0,0-.119-.389.179.179,0,0,0-.169-.066c-.189,0-.239.116-.291.236a.489.489,0,0,0-.016.22v3.6c-.016.186.016.455.308.455C22.623,66.11,22.655,65.841,22.655,65.655Z" transform="translate(1.335 -0.601)" fill="#fff"/>
    </g>
    <g id="Grupo_292" data-name="Grupo 292" transform="translate(49.424 3.786)">
      <path id="Trazado_1817" data-name="Trazado 1817" d="M73.971,67.631c-.187,0-.237.118-.289.236a.5.5,0,0,0-.016.222v3.6a.477.477,0,0,0,.119.389.224.224,0,0,0,.187.086c.153,0,.2-.12.255-.238a.954.954,0,0,0,.034-.238v-3.6a.711.711,0,0,0-.119-.391C74.107,67.647,74.057,67.631,73.971,67.631Z" transform="translate(-45.367 -0.269)" fill="#fff"/>
      <path id="Trazado_1818" data-name="Trazado 1818" d="M69.728,65.791v-3.6a.707.707,0,0,0-.121-.391.179.179,0,0,0-.169-.066c-.189,0-.239.118-.291.236a.5.5,0,0,0-.016.222v3.6c-.016.186.016.457.308.457C69.694,66.248,69.728,65.977,69.728,65.791Z" transform="translate(-45.617 -0.594)" fill="#fff"/>
      <path id="Trazado_1819" data-name="Trazado 1819" d="M65.061,64.958l-1.072,3.889h1.276V64.585h-.1Z" transform="translate(-45.899 -0.437)" fill="#fff"/>
      <path id="Trazado_1820" data-name="Trazado 1820" d="M92.972,13.2a32.58,32.58,0,0,0-45.816,0,1.046,1.046,0,0,0-.312.743V73.8a1.049,1.049,0,0,0,.312.743,32.584,32.584,0,0,0,45.816,0,1.047,1.047,0,0,0,.31-.743V13.943A1.044,1.044,0,0,0,92.972,13.2ZM68.746,73.8H67.9V76.51H66.209V73.8H63.367V72.2l2.69-8.118H67.9V72.2h.85Zm.744-4.09a1.589,1.589,0,0,1-.153-.729v-3.6a1.494,1.494,0,0,1,.561-1.22,1.125,1.125,0,0,1,.768-.218,1.186,1.186,0,0,1,1.14.725,1.783,1.783,0,0,1,.169.713v3.6a1.564,1.564,0,0,1-.561,1.234,1.092,1.092,0,0,1-.748.222A1.181,1.181,0,0,1,69.49,69.712Zm.7,6.8,4.6-12.432h1.089L71.329,76.51Zm6.569-1.3a1.549,1.549,0,0,1-.561,1.218,1.1,1.1,0,0,1-.75.22,1.212,1.212,0,0,1-1.174-.709,1.589,1.589,0,0,1-.153-.729v-3.6a1.519,1.519,0,0,1,.561-1.234,1.112,1.112,0,0,1,.766-.222,1.188,1.188,0,0,1,1.14.727,2.012,2.012,0,0,1,.171.729Zm14.406-1.845a29.524,29.524,0,0,1-2.43,2.1,18.666,18.666,0,0,0-37.328.012,30.233,30.233,0,0,1-2.446-2.111V14.384a30.455,30.455,0,0,1,42.2,0Z" transform="translate(-46.844 -3.786)" fill="#fff"/>
    </g>
    <path id="Trazado_1821" data-name="Trazado 1821" d="M7.415,38.92c.026-1.57.671-3.543,2.537-3.543,1.914,0,2.249,2.307,2.249,3.543V49.237c-.024,1.71-.336,3.992-2.37,3.992-2.1,0-2.344-2.568-2.344-3.992V48H9.4c0,.785,0,3,.43,3,.384,0,.384-1.546.384-1.757V46a1.108,1.108,0,0,1-.836.405c-1.843,0-1.964-1.973-1.964-3.209Zm2.8-.286c0-.334-.072-1.023-.43-1.023-.384,0-.456.689-.456,1.023v4.991c0,.214.072.787.456.787.358,0,.406-.453.43-.715Z" transform="translate(0.408 1.74)" fill="#fff"/>
    <path id="Trazado_1822" data-name="Trazado 1822" d="M22.682,35.559v7.18l.884-2.712h1.819l-1.6,4.468,1.554,8.536H23.521l-.838-5.516V53.03H20.865V35.559Z" transform="translate(1.149 1.75)" fill="#fff"/>
    <path id="Trazado_1823" data-name="Trazado 1823" d="M27.518,49.811c0,.475.121,1.023.36,1.023s.38-.24.38-1.023V48.005h1.819v1.5C30.054,51.332,29.908,53,27.805,53c-1.867,0-2.177-2.259-2.177-3.613V43.226c.022-1.5.406-3.613,2.223-3.613,2.153,0,2.225,1.807,2.225,3.493v1.26H28.257v-1.71c0-.787-.143-.953-.358-.953s-.382.477-.382.953Z" transform="translate(1.412 1.974)" fill="#fff"/>
    <path id="Trazado_1824" data-name="Trazado 1824" d="M32.995,42.775c0-.405-.094-1.092-.31-1.092-.239,0-.336.759-.336,1.092v.855H30.533v-.783c0-1.45.645-3.233,2.223-3.233,1.461,0,2.058,1.735,2.01,2.948v7.986a15.813,15.813,0,0,0,.121,2.259h-1.6a4.518,4.518,0,0,1-.287-.785A1.409,1.409,0,0,1,31.777,53c-1.295,0-1.365-2.4-1.365-3.209A5.932,5.932,0,0,1,32.231,45.1a2.59,2.59,0,0,0,.764-.925Zm-.022,4.066a5.642,5.642,0,0,0-.838,2.922c0,.072,0,.975.336.975.31,0,.5-.427.5-.881Z" transform="translate(1.675 1.974)" fill="#fff"/>
    <path id="Trazado_1825" data-name="Trazado 1825" d="M35.834,53.03V35.559h1.889V53.03Z" transform="translate(1.974 1.75)" fill="#fff"/>
    <path id="Trazado_1826" data-name="Trazado 1826" d="M66.757,50.94l-.79,3.088H64.819l.6-3.088h-.6V48.3h1.938Z" transform="translate(3.571 2.452)" fill="#fff"/>
    <path id="Trazado_1827" data-name="Trazado 1827" d="M72.531,48.371c0,1.807-.573,3.541-2.392,3.541-1.865,0-2.416-1.877-2.416-3.541V37.6c0-1.805.623-3.541,2.416-3.541,1.916,0,2.392,2.115,2.392,3.541ZM70.547,37.6c0-.545-.121-1.044-.384-1.044s-.406.475-.406,1.044V48.371c0,.641.191,1.046.406,1.046.239,0,.384-.5.384-1.046Z" transform="translate(3.731 1.668)" fill="#fff"/>
    <path id="Trazado_1828" data-name="Trazado 1828" d="M72.531,48.371c0,1.807-.573,3.541-2.392,3.541-1.865,0-2.416-1.877-2.416-3.541V37.6c0-1.805.623-3.541,2.416-3.541,1.916,0,2.392,2.115,2.392,3.541ZM70.547,37.6c0-.545-.121-1.044-.384-1.044s-.406.475-.406,1.044V48.371c0,.641.191,1.046.406,1.046.239,0,.384-.5.384-1.046Z" transform="translate(-54.269 2.668)" fill="#fff"/>
    <path id="Trazado_1829" data-name="Trazado 1829" d="M80.122,45.214c-.072,1.378-.7,3.209-2.32,3.209h-.121a1.159,1.159,0,0,0-.143.571c0,.475.6.713.957.807a2.787,2.787,0,0,1,1.433.737,3.374,3.374,0,0,1,.744,2.283c0,1.735-.744,3.327-2.7,3.327a2.319,2.319,0,0,1-2.537-2.518,2.507,2.507,0,0,1,1.244-1.973H76.7a1.761,1.761,0,0,1-1.029-1.737,2.91,2.91,0,0,1,.983-1.947,4.8,4.8,0,0,1-.913-2.828V41.6c.026-1.378.577-3.3,2.179-3.3A1.553,1.553,0,0,1,79.4,39.1a1.929,1.929,0,0,1,1.508-.807v2.139a1.1,1.1,0,0,0-.886.286,2.017,2.017,0,0,1,.1.569Zm-2.44,6.918a1.593,1.593,0,0,0-.432,1.092c0,.5.217.9.744.9a.867.867,0,0,0,.884-.881.9.9,0,0,0-.623-.927Zm.6-10.553c0-.525-.046-1.19-.358-1.19-.239,0-.312.713-.312,1.19v3.683c0,.451.072,1.164.312,1.164.312,0,.358-.833.358-1.164Z" transform="translate(4.155 1.901)" fill="#fff"/>
    <path id="Trazado_1830" data-name="Trazado 1830" d="M108.261,36.786h-2.344V34.241h4.354V36.81l-1.556,14.9h-2.032Z" transform="translate(5.835 1.678)" fill="#fff"/>
    <path id="Trazado_1831" data-name="Trazado 1831" d="M108.261,36.786h-2.344V34.241h4.354V36.81l-1.556,14.9h-2.032Z" transform="translate(-43.165 1.678)" fill="#fff"/>
    <path id="Trazado_1832" data-name="Trazado 1832" d="M112.728,50.94l-.788,3.088h-1.15l.6-3.088h-.6V48.3h1.938Z" transform="translate(6.103 2.452)" fill="#fff"/>
    <path id="Trazado_1833" data-name="Trazado 1833" d="M115.7,36.786h-2.344V34.241h4.354V36.81l-1.554,14.9h-2.034Z" transform="translate(6.245 1.678)" fill="#fff"/>
    <path id="Trazado_1834" data-name="Trazado 1834" d="M125.21,45.214c-.072,1.378-.7,3.209-2.32,3.209h-.121a1.159,1.159,0,0,0-.143.571c0,.475.6.713.955.807a2.785,2.785,0,0,1,1.435.737,3.374,3.374,0,0,1,.742,2.283c0,1.735-.742,3.327-2.7,3.327a2.318,2.318,0,0,1-2.537-2.518,2.5,2.5,0,0,1,1.244-1.973h.024a1.758,1.758,0,0,1-1.029-1.737,2.908,2.908,0,0,1,.981-1.947,4.8,4.8,0,0,1-.911-2.828V41.6c.026-1.378.575-3.3,2.179-3.3a1.548,1.548,0,0,1,1.481.807A1.935,1.935,0,0,1,126,38.3v2.139a1.1,1.1,0,0,0-.884.286,2.091,2.091,0,0,1,.1.569Zm-2.44,6.918a1.593,1.593,0,0,0-.432,1.092c0,.5.217.9.742.9a.867.867,0,0,0,.886-.881.9.9,0,0,0-.623-.927Zm.6-10.553c0-.525-.048-1.19-.358-1.19-.239,0-.312.713-.312,1.19v3.683c0,.451.072,1.164.312,1.164.31,0,.358-.833.358-1.164Z" transform="translate(6.639 1.901)" fill="#fff"/>
    <g id="Grupo_293" data-name="Grupo 293" transform="translate(98.427 3.786)">
      <path id="Trazado_1835" data-name="Trazado 1835" d="M113.6,65.581l-1.072,3.889h1.276V65.209h-.1Z" transform="translate(-92.228 -0.402)" fill="#fff"/>
      <path id="Trazado_1836" data-name="Trazado 1836" d="M122.516,68.256c-.187,0-.239.116-.289.236a.464.464,0,0,0-.018.22v3.6a.473.473,0,0,0,.121.387.216.216,0,0,0,.187.086c.153,0,.2-.118.253-.238a.922.922,0,0,0,.036-.236v-3.6a.69.69,0,0,0-.121-.389C122.653,68.27,122.6,68.256,122.516,68.256Z" transform="translate(-91.695 -0.235)" fill="#fff"/>
      <path id="Trazado_1837" data-name="Trazado 1837" d="M118.271,66.416v-3.6a.7.7,0,0,0-.119-.389c-.034-.052-.084-.068-.169-.068-.189,0-.241.118-.291.238a.461.461,0,0,0-.018.22v3.6c-.016.184.018.455.31.455C118.239,66.871,118.271,66.6,118.271,66.416Z" transform="translate(-91.945 -0.56)" fill="#fff"/>
      <path id="Trazado_1838" data-name="Trazado 1838" d="M139.418,13.2a32.582,32.582,0,0,0-45.818,0,1.037,1.037,0,0,0-.312.743V73.8a1.041,1.041,0,0,0,.312.743,32.586,32.586,0,0,0,45.818,0,1.047,1.047,0,0,0,.31-.743V13.943A1.044,1.044,0,0,0,139.418,13.2ZM111.111,77.167h-1.839V67.426h-1.226V66.257a2.806,2.806,0,0,0,1.55-.879,2.917,2.917,0,0,0,.408-.641h1.108Zm6.294-2.706h-.85v2.706h-1.686V74.461h-2.842V72.854l2.69-8.116h1.839v8.116h.85Zm.746-4.092a1.586,1.586,0,0,1-.155-.727v-3.6a1.489,1.489,0,0,1,.563-1.218,1.114,1.114,0,0,1,.768-.22,1.191,1.191,0,0,1,1.14.725,1.817,1.817,0,0,1,.169.713v3.6a1.576,1.576,0,0,1-.561,1.234,1.1,1.1,0,0,1-.748.22A1.179,1.179,0,0,1,118.151,70.369Zm.7,6.8,4.6-12.43h1.089l-4.543,12.43Zm6.571-1.3a1.544,1.544,0,0,1-.561,1.216,1.1,1.1,0,0,1-.75.222,1.208,1.208,0,0,1-1.174-.711,1.58,1.58,0,0,1-.155-.727v-3.6a1.524,1.524,0,0,1,.563-1.234,1.122,1.122,0,0,1,.766-.22,1.186,1.186,0,0,1,1.14.727,1.991,1.991,0,0,1,.171.727Zm12.193-2.5a29.887,29.887,0,0,1-2.432,2.1,18.666,18.666,0,0,0-37.328.014A30.688,30.688,0,0,1,95.4,73.361V14.384a30.456,30.456,0,0,1,42.208,0Z" transform="translate(-93.288 -3.786)" fill="#fff"/>
    </g>
    <path id="Trazado_1839" data-name="Trazado 1839" d="M160.542,50.94l-.788,3.088H158.6l.6-3.088h-.6V48.3h1.938Z" transform="translate(8.737 2.452)" fill="#fff"/>
    <path id="Trazado_1840" data-name="Trazado 1840" d="M173.023,45.214c-.072,1.378-.7,3.209-2.32,3.209h-.121a1.159,1.159,0,0,0-.143.571c0,.475.6.713.955.807a2.785,2.785,0,0,1,1.435.737,3.374,3.374,0,0,1,.742,2.283c0,1.735-.742,3.327-2.7,3.327a2.318,2.318,0,0,1-2.537-2.518,2.5,2.5,0,0,1,1.244-1.973h.024a1.758,1.758,0,0,1-1.029-1.737,2.908,2.908,0,0,1,.981-1.947,4.8,4.8,0,0,1-.911-2.828V41.6c.026-1.378.575-3.3,2.179-3.3a1.548,1.548,0,0,1,1.481.807,1.935,1.935,0,0,1,1.508-.807v2.139a1.1,1.1,0,0,0-.884.286,2.091,2.091,0,0,1,.1.569Zm-2.44,6.918a1.593,1.593,0,0,0-.432,1.092c0,.5.217.9.742.9a.867.867,0,0,0,.886-.881.9.9,0,0,0-.623-.927Zm.6-10.553c0-.525-.048-1.19-.358-1.19-.239,0-.312.713-.312,1.19v3.683c0,.451.072,1.164.312,1.164.31,0,.358-.833.358-1.164Z" transform="translate(9.273 1.901)" fill="#fff"/>
    <path id="Trazado_1841" data-name="Trazado 1841" d="M219.517,45.214c-.072,1.378-.693,3.209-2.32,3.209h-.121a1.159,1.159,0,0,0-.143.571c0,.475.6.713.957.807a2.8,2.8,0,0,1,1.435.737,3.384,3.384,0,0,1,.742,2.283c0,1.735-.742,3.327-2.7,3.327a2.319,2.319,0,0,1-2.537-2.518,2.507,2.507,0,0,1,1.244-1.973h.024a1.761,1.761,0,0,1-1.029-1.737,2.91,2.91,0,0,1,.983-1.947,4.8,4.8,0,0,1-.909-2.828V41.6c.022-1.378.573-3.3,2.177-3.3a1.552,1.552,0,0,1,1.481.807,1.932,1.932,0,0,1,1.508-.807v2.139a1.1,1.1,0,0,0-.886.286,2.016,2.016,0,0,1,.1.569Zm-2.44,6.918a1.592,1.592,0,0,0-.43,1.092c0,.5.215.9.742.9a.867.867,0,0,0,.884-.881.9.9,0,0,0-.621-.927Zm.6-10.553c0-.525-.046-1.19-.356-1.19-.241,0-.314.713-.314,1.19v3.683c0,.451.072,1.164.314,1.164.31,0,.356-.833.356-1.164Z" transform="translate(11.834 1.901)" fill="#fff"/>
    <g id="Grupo_294" data-name="Grupo 294" transform="translate(197.286 3.791)">
      <path id="Trazado_1842" data-name="Trazado 1842" d="M214.822,67.767c-.187,0-.237.118-.289.238a.491.491,0,0,0-.016.22v3.6a.475.475,0,0,0,.119.387.224.224,0,0,0,.187.086c.153,0,.205-.12.255-.238a.921.921,0,0,0,.036-.236v-3.6a.7.7,0,0,0-.121-.389C214.959,67.783,214.909,67.767,214.822,67.767Z" transform="translate(-185.469 -0.266)" fill="#fff"/>
      <path id="Trazado_1843" data-name="Trazado 1843" d="M210.58,65.929v-3.6a.712.712,0,0,0-.121-.391.179.179,0,0,0-.169-.066c-.189,0-.239.118-.289.236a.472.472,0,0,0-.018.222v3.6c-.016.184.018.455.308.455C210.546,66.385,210.58,66.113,210.58,65.929Z" transform="translate(-185.719 -0.591)" fill="#fff"/>
      <path id="Trazado_1844" data-name="Trazado 1844" d="M205.73,62.623a.571.571,0,0,0-.547.455,1.326,1.326,0,0,0-.066.457v7.323a1.063,1.063,0,0,0,.255.777.486.486,0,0,0,.358.138.534.534,0,0,0,.543-.459,1.133,1.133,0,0,0,.068-.455V63.535a1.138,1.138,0,0,0-.237-.779A.536.536,0,0,0,205.73,62.623Z" transform="translate(-185.986 -0.549)" fill="#fff"/>
      <path id="Trazado_1845" data-name="Trazado 1845" d="M233.115,13.2a32.593,32.593,0,0,0-45.818,0,1.046,1.046,0,0,0-.312.743V73.8a1.049,1.049,0,0,0,.312.743,32.586,32.586,0,0,0,45.818,0,1.056,1.056,0,0,0,.31-.743V13.943A1.052,1.052,0,0,0,233.115,13.2ZM209.179,74.1a3.365,3.365,0,0,1-.306,1.354,2.349,2.349,0,0,1-.732.913,2.207,2.207,0,0,1-1.413.421,2.258,2.258,0,0,1-1.431-.421,2.321,2.321,0,0,1-.716-.913,3.433,3.433,0,0,1-.306-1.354V66.776a3.417,3.417,0,0,1,.306-1.336,2.156,2.156,0,0,1,2.147-1.352,2.306,2.306,0,0,1,1.413.421,2.385,2.385,0,0,1,.732.931,3.348,3.348,0,0,1,.306,1.336Zm1.2-4.244a1.587,1.587,0,0,1-.153-.727v-3.6a1.5,1.5,0,0,1,.561-1.22,1.125,1.125,0,0,1,.768-.218,1.189,1.189,0,0,1,1.14.725,1.783,1.783,0,0,1,.169.713v3.6a1.57,1.57,0,0,1-.561,1.234,1.1,1.1,0,0,1-.748.22A1.181,1.181,0,0,1,210.381,69.856Zm.7,6.8,4.6-12.432h1.089L212.22,76.654Zm6.569-1.3a1.538,1.538,0,0,1-.561,1.216,1.1,1.1,0,0,1-.75.22,1.209,1.209,0,0,1-1.174-.709,1.586,1.586,0,0,1-.153-.727v-3.6a1.522,1.522,0,0,1,.561-1.234,1.122,1.122,0,0,1,.766-.222,1.185,1.185,0,0,1,1.14.729,1.952,1.952,0,0,1,.171.727Zm13.659-1.991a30.289,30.289,0,0,1-2.43,2.1,18.666,18.666,0,0,0-37.328.012,30.34,30.34,0,0,1-2.448-2.113V14.384a30.463,30.463,0,0,1,42.206,0Z" transform="translate(-186.985 -3.79)" fill="#fff"/>
    </g>
    <g id="Grupo_295" data-name="Grupo 295" transform="translate(147.751 3.786)">
      <path id="Trazado_1846" data-name="Trazado 1846" d="M167.049,67.495c-.185,0-.237.118-.287.236a.464.464,0,0,0-.018.22v3.6a.478.478,0,0,0,.121.389.218.218,0,0,0,.185.084c.155,0,.205-.118.255-.238a.921.921,0,0,0,.036-.236v-3.6a.69.69,0,0,0-.121-.389C167.188,67.511,167.135,67.495,167.049,67.495Z" transform="translate(-138.566 -0.277)" fill="#fff"/>
      <path id="Trazado_1847" data-name="Trazado 1847" d="M162.806,65.655v-3.6a.7.7,0,0,0-.119-.389.179.179,0,0,0-.169-.066c-.189,0-.241.116-.291.236a.461.461,0,0,0-.018.22v3.6c-.016.186.018.455.31.455C162.774,66.11,162.806,65.841,162.806,65.655Z" transform="translate(-138.815 -0.601)" fill="#fff"/>
      <path id="Trazado_1848" data-name="Trazado 1848" d="M186.162,13.2a32.58,32.58,0,0,0-45.816,0,1.052,1.052,0,0,0-.31.743V73.8a1.056,1.056,0,0,0,.31.743,32.549,32.549,0,0,0,45.816,0,1.047,1.047,0,0,0,.31-.743V13.943A1.044,1.044,0,0,0,186.162,13.2Zm-24.7,60.341a5.552,5.552,0,0,1-.308,1.42,2.421,2.421,0,0,1-1.071,1.32,1.99,1.99,0,0,1-.987.22,2.054,2.054,0,0,1-2.076-1.336,6.261,6.261,0,0,1-.36-2.385h1.807a6.1,6.1,0,0,0,.153,1.676c.1.336.255.437.476.437.289,0,.442-.218.511-.523a5.311,5.311,0,0,0,.066-1.048c0-.389,0-.745.018-1.066a1.376,1.376,0,0,0-.511-1.286,2.033,2.033,0,0,0-.9-.218h-.153V69.227c.764-.05,1.124-.2,1.276-.557a1.484,1.484,0,0,0,.119-.659v-1a5.561,5.561,0,0,0-.066-1.064c-.068-.322-.223-.543-.511-.543-.223,0-.36.1-.426.423a7.586,7.586,0,0,0-.121,1.692h-1.8a6.662,6.662,0,0,1,.324-2.4,1.979,1.979,0,0,1,2.026-1.318A2.114,2.114,0,0,1,161,65.017a3.524,3.524,0,0,1,.324,1.454c0,1.843-.324,2.724-.884,3.281l-.018.018c.886.691,1.057,1.977,1.057,3.415A3.474,3.474,0,0,1,161.462,73.541Zm1.1-3.974a1.575,1.575,0,0,1-.155-.727v-3.6a1.492,1.492,0,0,1,.563-1.218,1.125,1.125,0,0,1,.768-.218,1.188,1.188,0,0,1,1.14.725,1.807,1.807,0,0,1,.169.711v3.6a1.573,1.573,0,0,1-.561,1.234,1.1,1.1,0,0,1-.748.22A1.176,1.176,0,0,1,162.564,69.566Zm.7,6.8,4.6-12.432h1.089L164.4,76.367Zm6.571-1.3a1.558,1.558,0,0,1-.561,1.218,1.106,1.106,0,0,1-.752.22,1.207,1.207,0,0,1-1.172-.711,1.575,1.575,0,0,1-.155-.727v-3.6a1.527,1.527,0,0,1,.563-1.234,1.12,1.12,0,0,1,.764-.22,1.187,1.187,0,0,1,1.142.727,2.011,2.011,0,0,1,.171.727Zm14.525-1.7a30.4,30.4,0,0,1-2.43,2.1,18.666,18.666,0,0,0-37.328.012,30.391,30.391,0,0,1-2.446-2.111V14.384a30.455,30.455,0,0,1,42.2,0Z" transform="translate(-140.036 -3.786)" fill="#fff"/>
    </g>
    <g id="Grupo_297" data-name="Grupo 297" transform="translate(159.976 35.223)">
      <g id="Grupo_296" data-name="Grupo 296" transform="translate(0 0)" clip-path="url(#clip-path-2)">
        <path id="Trazado_1849" data-name="Trazado 1849" d="M6.169,5.355v9.35c0,3.073-.676,5.566-3.152,5.566C.617,20.272,0,17.692,0,14.726v-9.2C0,1.963,1.079,0,3.1,0S6.169,1.977,6.169,5.355M2.35,5.044v10.13c0,1.146.2,1.8.729,1.8s.717-.7.717-1.859V4.985C3.8,4,3.628,3.3,3.079,3.3c-.52,0-.729.656-.729,1.749" transform="translate(0 0)" fill="#fff"/>
        <path id="Trazado_1850" data-name="Trazado 1850" d="M4.115,17.336a37.941,37.941,0,0,0,.962-7.669H7.322a24.461,24.461,0,0,1-1.455,7.669Z" transform="translate(2.31 5.426)" fill="#fff"/>
        <path id="Trazado_1851" data-name="Trazado 1851" d="M6.784,15.16V13.443c0-2.372.6-3.269,1.257-3.93-.668-.7-1.1-1.649-1.1-3.947V4.823c0-3.158,1.088-4.81,2.976-4.81,1.747,0,2.9,1.5,2.9,4.879v.717c0,2.459-.467,3.276-1.06,3.886.749.639,1.255,1.738,1.255,3.936v1.508c0,3.852-1.107,5.325-3.177,5.325-1.742,0-3.052-1.28-3.052-5.1m3.844.287V12.784c0-1.279-.309-1.639-.754-1.639s-.728.49-.728,1.6v2.723c0,1.037.247,1.617.74,1.617.475,0,.742-.443.742-1.638M9.188,4.73v1.6c0,1.027.272,1.578.71,1.578s.687-.515.687-1.628V4.708c0-.916-.162-1.536-.7-1.536-.506,0-.7.639-.7,1.558" transform="translate(3.808 0.007)" fill="#fff"/>
      </g>
    </g>
    <g id="Grupo_299" data-name="Grupo 299" transform="translate(212.785 34.229)">
      <g id="Grupo_298" data-name="Grupo 298" transform="translate(0 0)" clip-path="url(#clip-path-3)">
        <path id="Trazado_1852" data-name="Trazado 1852" d="M1.087,20.8V4.539A5.774,5.774,0,0,1,0,4.407V1.483A2.255,2.255,0,0,0,1.715.1H3.6V20.8Z" transform="translate(0 0.063)" fill="#fff"/>
        <path id="Trazado_1853" data-name="Trazado 1853" d="M3.041,15.814V14.021c0-2.476.631-3.413,1.312-4.1C3.655,9.19,3.2,8.2,3.2,5.8V5.022C3.2,1.724,4.34,0,6.311,0c1.824,0,3.03,1.561,3.03,5.094v.748c0,2.567-.487,3.42-1.107,4.057.782.667,1.31,1.814,1.31,4.109v1.575c0,4.021-1.156,5.56-3.317,5.56-1.819,0-3.187-1.337-3.187-5.328m4.013.3V13.333c0-1.335-.323-1.711-.787-1.711s-.76.512-.76,1.671v2.843c0,1.082.258,1.689.773,1.689.5,0,.774-.463.774-1.71m-1.5-11.19V6.6c0,1.072.284,1.648.742,1.648s.716-.538.716-1.7V4.9c0-.957-.168-1.6-.729-1.6-.528,0-.729.667-.729,1.627" transform="translate(1.916 0)" fill="#fff"/>
      </g>
    </g>
    <path id="Trazado_1854" data-name="Trazado 1854" d="M82.331,10.447H81.5V9.008h2.766v1.439h-.838v7.017h-1.1Z" transform="translate(81.994 13.155)" fill="#fff"/>
    <path id="Trazado_1855" data-name="Trazado 1855" d="M82.906,12.224c0-1.143,0-1.69-.012-2.267h1.048c.012.137.032.7.032,1,.162-.777.523-1.092.943-1.1v1.956c-.531,0-.912.145-.912,1.276v3.541h-1.1Z" transform="translate(83.363 13.989)" fill="#fff"/>
    <path id="Trazado_1856" data-name="Trazado 1856" d="M86.82,15.1c0,.6.006,1.234.024,1.526H85.821c-.026-.111-.055-.388-.065-.491a.8.8,0,0,1-.769.589c-.69,0-.961-.937-.961-1.956v-.125c0-1.708.781-2.116,1.619-2.116h.073v-.779c0-.448-.042-.652-.246-.652s-.252.22-.252.61v.155H84.163v-.1c0-1.159.357-1.9,1.357-1.9.89,0,1.3.626,1.3,1.789Zm-1.09-1.435h-.105c-.323,0-.533.21-.533.908v.083c0,.462.1.7.313.7s.325-.234.325-.912Z" transform="translate(84.475 13.988)" fill="#fff"/>
    <path id="Trazado_1857" data-name="Trazado 1857" d="M85.762,11.957c0-1.191,0-1.752-.012-2H86.8c.02.174.034.4.038.565a.913.913,0,0,1,.842-.666c.6,0,.921.573.921,1.734V16.63h-1.1v-4.7c0-.452-.1-.666-.3-.666-.248,0-.345.206-.345.866v4.5h-1.1Z" transform="translate(86.167 13.988)" fill="#fff"/>
    <path id="Trazado_1858" data-name="Trazado 1858" d="M88.481,14.469v.313c0,.369.052.674.281.674.168,0,.254-.159.254-.515s-.061-.614-.592-1.116a2.456,2.456,0,0,1-.943-2.083c0-1.219.454-1.884,1.288-1.884,1,0,1.284.816,1.284,1.946v.285H89.038v-.4c0-.422-.079-.571-.244-.571s-.238.178-.238.483.093.468.48.822a2.673,2.673,0,0,1,1.084,2.293c0,1.306-.39,2.025-1.363,2.025-1.151,0-1.33-1.06-1.33-2.021v-.248Z" transform="translate(87.813 13.989)" fill="#fff"/>
  </g>
</svg>
