<svg xmlns="http://www.w3.org/2000/svg" xmlns:xlink="http://www.w3.org/1999/xlink" width="64.525" height="64.524" viewBox="0 0 64.525 64.524"><defs><style>.a{fill:none;}.b{clip-path:url(#a);}.c{mix-blend-mode:multiply;isolation:isolate;}.d{clip-path:url(#c);}.e{fill:#006c95;}.f{fill:#fff;}</style><clipPath id="a"><rect class="a" width="64.525" height="64.524"/></clipPath><clipPath id="c"><rect class="a" width="40.489" height="40.488"/></clipPath></defs><g class="b"><g transform="translate(0 0)"><g class="b"><g class="c" transform="translate(12.018 12.018)"><g class="d"><path class="e" d="M48.7,27.083A20.244,20.244,0,1,0,29.927,48.7,20.244,20.244,0,0,0,48.7,27.083" transform="translate(-8.26 -8.26)"/></g></g><path class="f" d="M64.444,30A32.261,32.261,0,1,0,34.529,64.442,32.261,32.261,0,0,0,64.444,30M33.608,51.355A19.14,19.14,0,1,1,51.355,30.917,19.14,19.14,0,0,1,33.608,51.355" transform="translate(0 0)"/><path class="e" d="M3.237,22.723c-.416-.179-.8-.346-1.1-.479a11.314,11.314,0,0,1,.017-1.384c1.81.54,4.208,1.375,5.545,1.859.156,1.027.246,2,.246,2-1.343.585-4.122,1.647-5.276,2.086a12.775,12.775,0,0,1-.3-1.291c.307-.15.663-.317,1.034-.5-.044-.515-.113-1.362-.164-2.3m1.228,1.806c.508-.239,1.013-.468,1.456-.662-.451-.185-.96-.4-1.48-.624.029.522.026.988.023,1.286" transform="translate(0.964 9.49)"/><path class="e" d="M8.451,27.778s.215.953.308,1.74c-1.587.316-3.678.655-4.989.851,0,0-.262-.6-.489-1.283.517-.687,1.286-1.749,2.094-2.754-1.059.211-2.131.425-2.8.549,0,0-.137-.559-.221-1.161,1.336-.457,3.773-1.165,5.318-1.6a15.873,15.873,0,0,1,.557,1.5c-.757.812-2.018,2.076-2.962,3.038,1.052-.3,2.21-.623,3.182-.88" transform="translate(1.072 10.974)"/><path class="e" d="M6.835,27.988c.489-.313,1.061-.623,1.061-.623.639,1.146,1.641,3.066,2.393,4.6,0,0-.791.371-1.544.653-.186-.428-.426-.982-.668-1.56-1.26.522-2.788,1.138-3.626,1.442-.327-.521-.633-1.135-.633-1.135.892-.482,2.308-1.221,3.616-1.862-.236-.581-.448-1.116-.6-1.512" transform="translate(1.737 12.449)"/><path class="e" d="M9.268,30.275A15.006,15.006,0,0,1,10.3,31.712C8.911,32.535,6.877,33.7,5.772,34.3c0,0-.348-.554-.637-1.119,1.116-.85,2.834-2.049,4.133-2.907" transform="translate(2.336 13.773)"/><path class="e" d="M11.756,33.156a2.423,2.423,0,0,1-.137,3.547,3.315,3.315,0,0,1-4.7-.515,2.478,2.478,0,0,1,.122-3.623,3.334,3.334,0,0,1,4.718.591m-3.605.518a1.205,1.205,0,0,0-.144,1.787,1.685,1.685,0,0,0,2.337.279A1.217,1.217,0,0,0,10.485,34a1.655,1.655,0,0,0-2.334-.322" transform="translate(2.817 14.487)"/><path class="e" d="M11.314,33.629c.8.326,1.5.658,1.5.658-.025.468-.068,1.212-.132,2.051.714-.207,1.34-.39,1.755-.495.484.639,1,1.429,1,1.429-.519.141-1.663.438-2.874.738-.079,1.032-.153,2.031-.215,2.695,0,0-.6-.207-1.273-.464.012-.452.031-1.122.052-1.873-.832.2-1.59.384-2.079.5,0,0-.415-.573-.789-1.141.684-.24,1.8-.6,2.924-.938.051-1.318.1-2.585.127-3.162" transform="translate(3.759 15.299)"/><path class="e" d="M13.731,35.668a14.772,14.772,0,0,1,1.557.845c-.893,1.346-2.217,3.279-2.952,4.305,0,0-.553-.351-1.061-.732.634-1.25,1.662-3.079,2.456-4.419" transform="translate(5.129 16.227)"/><path class="e" d="M15.839,42.019A6.4,6.4,0,0,1,12.42,41.1c.467-1.282,1.336-3.531,1.9-4.858A7.035,7.035,0,0,1,17.2,37.389a2.483,2.483,0,0,1,1.069,3,2.707,2.707,0,0,1-2.425,1.631m1.013-2.127c.243-.7-.393-1.433-1.487-1.749-.4.809-.829,1.659-1.216,2.408,1.432.506,2.427.127,2.7-.659" transform="translate(5.65 16.486)"/><path class="e" d="M17.322,41.99c-.291.345-.562.665-.777.918a11.131,11.131,0,0,1-1.318-.416c1.039-1.579,2.53-3.633,3.381-4.772,1.029.145,1.99.342,1.99.342.172,1.456.388,4.426.476,5.657a12.487,12.487,0,0,1-1.323-.087c-.055-.336-.112-.726-.18-1.133-.5-.109-1.337-.287-2.249-.508m2.085-.655c-.081-.554-.156-1.107-.212-1.587-.307.38-.666.8-1.026,1.237.508.125.954.262,1.238.351" transform="translate(6.927 17.16)"/><path class="e" d="M23.171,38.558s.972.065,1.752.2c-.148,1.608-.419,3.706-.6,5.012,0,0-.645.084-1.366.1-.511-.688-1.309-1.727-2.04-2.785-.1,1.074-.2,2.161-.271,2.833,0,0-.575-.029-1.174-.119-.057-1.407-.042-3.941-.017-5.54a15.527,15.527,0,0,1,1.593-.106c.562.953,1.413,2.519,2.065,3.7.013-1.091.031-2.293.061-3.3" transform="translate(8.84 17.359)"/><path class="e" d="M23.04,40.057c-.16-.557-.294-1.192-.294-1.192,1.28-.285,3.4-.7,5.078-.978,0,0,.131.863.185,1.662-.46.058-1.059.128-1.682.195.14,1.352.292,2.99.345,3.876-.592.166-1.266.284-1.266.284-.207-.991-.509-2.555-.749-3.989-.623.06-1.2.112-1.616.143" transform="translate(10.348 17.237)"/><path class="e" d="M30.14,39.288c.163.528.265,1.007.265,1.007-.578.272-1.35.605-2.008.889.063.217.115.429.176.639.8-.266,1.855-.6,2.635-.815.172.6.266,1.1.266,1.1-.9.4-2.641,1.062-3.664,1.455-.572-1.3-1.43-3.5-2.014-5.164,1-.355,3.166-.972,4.232-1.25.16.592.25,1.129.25,1.129-.773.311-1.647.656-2.44.95l.21.713c.679-.236,1.41-.464,2.091-.653" transform="translate(11.736 16.901)"/><path class="e" d="M32.626,35.689s.822-.519,1.532-.872c.828,1.387,1.845,3.239,2.468,4.4,0,0-.471.445-1.042.889-.818-.256-2.075-.626-3.288-1.048.551.924,1.112,1.861,1.452,2.447,0,0-.482.314-1.018.594-.876-1.1-2.357-3.154-3.279-4.461a15.844,15.844,0,0,1,1.222-1.024c1.016.438,2.626,1.2,3.845,1.766-.633-.889-1.324-1.87-1.891-2.7" transform="translate(13.398 15.84)"/><path class="e" d="M36.063,37.987c.144.428.278.825.383,1.139a10.677,10.677,0,0,1-1.037.914c-.815-1.705-1.8-4.043-2.337-5.36.655-.8,1.321-1.528,1.321-1.528,1.336.605,3.988,1.954,5.086,2.517a12.892,12.892,0,0,1-.755,1.087c-.319-.128-.681-.279-1.066-.434-.352.377-.934,1-1.595,1.664m.517-2.123c-.517-.215-1.029-.438-1.469-.637.166.458.345.985.53,1.516.368-.371.717-.681.94-.879" transform="translate(15.046 15.082)"/><path class="e" d="M35.315,35.247c-.511-.278-1.058-.629-1.058-.629.7-1.114,1.894-2.92,2.874-4.318,0,0,.707.514,1.317,1.036-.282.371-.653.85-1.043,1.34,1.065.851,2.342,1.894,3.015,2.481-.3.541-.69,1.1-.69,1.1-.854-.549-2.184-1.432-3.378-2.268-.4.487-.761.933-1.036,1.256" transform="translate(15.585 13.785)"/><path class="e" d="M40.84,28.5a2.671,2.671,0,0,1,1.266,3.757c-.994,2-3.4,1.816-6.08-.422a11.086,11.086,0,0,1,.823-1.405c1.8,1.391,3.562,2.236,4.148,1.09.484-.949-.8-1.848-3.2-2.3a13.882,13.882,0,0,1,.562-1.465,6.157,6.157,0,0,1,2.482.746" transform="translate(16.39 12.625)"/><path class="e" d="M43.529,25.7a10.454,10.454,0,0,1,.515,1.493c-.647.3-1.694.741-2.6,1.091-.02.108-.047.212-.076.319.653.207,1.28.422,1.819.605,0,0-.172.579-.377,1.171-1.469-.244-3.307-.63-5.18-1.024-.2-1.915.5-4.73,2.289-4.551,1.017.1,1.531.906,1.634,1.954.725-.391,1.449-.781,1.979-1.058m-3.662.57c-.333-.019-.709.71-.73,1.635.34.1.7.212,1.071.33.285-1.158.1-1.935-.34-1.966" transform="translate(17.103 11.28)"/><path class="e" d="M42.784,25.435l1.049.592a11.176,11.176,0,0,1-.161,1.375c-1.747-.725-4.046-1.806-5.327-2.427-.049-1.039-.036-2.022-.036-2.022,1.4-.442,4.275-1.212,5.469-1.529a12.909,12.909,0,0,1,.164,1.315c-.322.118-.694.247-1.082.39-.012.517-.031,1.369-.076,2.306M41.749,23.51c-.53.185-1.059.362-1.52.508.431.231.915.5,1.408.775.026-.524.079-.986.112-1.283" transform="translate(17.427 9.747)"/><path class="e" d="M42.2,18.879c.639-.026,1.195-.022,1.195-.022.177.984.442,2.492.6,3.579-1.349.258-3.978.639-5.436.826,0,0-.195-.858-.33-1.8,1.016-.071,2.811-.167,4.173-.22-.077-.783-.16-1.7-.2-2.363" transform="translate(17.392 8.579)"/><path class="f" d="M12.5,26.931v-.1c0-8.011,5.73-14.35,13.844-14.35,9.482,0,13.844,6.946,13.844,15.009,0,.608,0,1.32-.049,1.979H21.784a5.664,5.664,0,0,0,5.933,4.513A8.279,8.279,0,0,0,33.8,31.191L39.127,35.6a14.368,14.368,0,0,1-11.917,5.578c-8.621,0-14.705-5.73-14.705-14.25m18.661-2.383c-.355-3.042-2.13-4.97-4.766-4.97-2.537,0-4.26,1.977-4.768,4.97Z" transform="translate(5.689 5.677)"/><path class="e" d="M6.856,18.981a1.391,1.391,0,1,1-1.11-1.624,1.39,1.39,0,0,1,1.11,1.624" transform="translate(1.864 7.885)"/><path class="e" d="M40.913,16.569a1.391,1.391,0,1,1-1.11-1.624,1.39,1.39,0,0,1,1.11,1.624" transform="translate(17.358 6.788)"/><path class="e" d="M6.226,12.713s.591-.872,1.225-1.641c1.113,1.208,3.313,3.7,4.346,4.96,0,0-.355.879-.781,1.742C9.408,17.608,5.7,17.045,4.07,16.8c.285-.986.674-1.947.674-1.947,1.391.274,3.311.707,4.844,1.068C8.5,14.9,7.245,13.73,6.226,12.713" transform="translate(1.852 5.037)"/><path class="e" d="M6.773,11.187A17.6,17.6,0,0,1,8,9.448c1.48,1.256,3.6,3.111,4.723,4.132,0,0-.5.61-1.023,1.162-1.4-.934-3.442-2.418-4.929-3.556" transform="translate(3.081 4.298)"/><path class="e" d="M9.167,11.2c-.518-.464-1.061-1.023-1.061-1.023,1.12-1.109,3.013-2.884,4.538-4.243,0,0,.682.794,1.25,1.571-.432.355-1,.809-1.586,1.273,1.01,1.286,2.21,2.853,2.83,3.722-.5.547-1.1,1.1-1.1,1.1-.844-.874-2.153-2.271-3.314-3.575-.6.458-1.144.876-1.552,1.177" transform="translate(3.688 2.698)"/><path class="e" d="M14.912,10.538c.015.544.028,1.048.036,1.446a13.288,13.288,0,0,1-1.516.681c-.33-2.246-.634-5.283-.783-6.985,1.039-.693,2.06-1.286,2.06-1.286,1.318,1.168,3.886,3.661,4.95,4.7a15.508,15.508,0,0,1-1.254.979c-.32-.259-.682-.563-1.069-.876-.54.307-1.429.815-2.424,1.344m1.346-2.254c-.515-.432-1.026-.869-1.459-1.254.026.586.045,1.254.068,1.931.556-.3,1.065-.528,1.391-.677" transform="translate(5.755 1.999)"/><path class="e" d="M21.909,8.918s-.746.256-1.475.447c-.454-.713-1.069-1.76-1.717-2.849.178,1.35.354,2.737.442,3.6,0,0-.679.112-1.414.163-.439-1.689-1.029-4.521-1.405-6.422.668-.243,1.775-.559,2.529-.762.549,1.068,1.305,2.6,1.953,3.95.143-1.34.292-2.888.432-4.035.738-.086,2.207-.186,2.913-.207.242,2.27.5,4.89.572,6.1,0,0-.717.161-1.432.279-.23-.97-.487-2.2-.746-3.451-.231,1.224-.464,2.386-.65,3.186" transform="translate(7.433 1.275)"/><path class="e" d="M22.688,2.966a17.873,17.873,0,0,1,2.123,0c-.166,1.929-.45,4.726-.631,6.224,0,0-.786-.049-1.536-.159-.049-1.68-.02-4.2.045-6.061" transform="translate(10.29 1.333)"/><path class="e" d="M29.788,4.143s1.122.323,2,.679c-.583,1.848-1.432,4.237-1.98,5.724,0,0-.778-.067-1.628-.226-.423-.937-1.094-2.358-1.683-3.783-.388,1.232-.783,2.481-1.037,3.252,0,0-.665-.18-1.343-.438.29-1.664.95-4.63,1.387-6.5a18.883,18.883,0,0,1,1.891.279c.418,1.261,1.017,3.313,1.483,4.858.292-1.276.62-2.679.909-3.847" transform="translate(10.972 1.297)"/><path class="e" d="M30.385,9.7c-.455.294-.879.569-1.216.784A13.612,13.612,0,0,1,27.8,9.548c1.746-1.453,4.18-3.3,5.555-4.31,1.133.527,2.172,1.09,2.172,1.09-.311,1.736-1.1,5.225-1.43,6.671a15.318,15.318,0,0,1-1.49-.56c.054-.406.125-.877.191-1.369-.543-.3-1.44-.794-2.411-1.368m2.626-.026c.1-.665.207-1.328.308-1.9-.486.326-1.046.69-1.612,1.064.544.32,1.007.634,1.3.834" transform="translate(12.646 2.383)"/><path class="e" d="M38.971,14.489c-.538.387-1.045.687-1.045.687-.53-.553-1.2-1.3-1.775-1.944-.224.154-.444.3-.661.444.61.809,1.392,1.881,1.935,2.686-.613.42-1.151.72-1.151.72-.793-.866-2.214-2.594-3.05-3.605,1.256-1.148,3.431-2.965,5.1-4.264.786,1,2.315,3.227,3.035,4.334-.61.407-1.187.714-1.187.714-.647-.757-1.373-1.621-2.012-2.408l-.732.509c.53.684,1.068,1.426,1.544,2.127" transform="translate(15.115 4.191)"/></g></g></g></svg>